<?xml version="1.0" encoding="utf-8"?>
<!-- Generator: Adobe Illustrator 20.0.0, SVG Export Plug-In . SVG Version: 6.00 Build 0)  -->
<svg version="1.1" id="Capa_1" xmlns="http://www.w3.org/2000/svg" xmlns:xlink="http://www.w3.org/1999/xlink" x="0px" y="0px"
	 viewBox="0 0 101 39" style="enable-background:new 0 0 101 39;" xml:space="preserve">
<style type="text/css">
	.st0{fill:#FF8C00;}
	.st1{opacity:0.5;}
	.st2{fill:#FFFFFF;stroke:#FFFFFF;stroke-width:0.25;stroke-miterlimit:10;}
	.st3{fill:#FFFFFF;}
</style>
<g>
	<g>
		<g>
			<g>
				<rect x="-0.5" class="st0" width="102" height="39"/>
			</g>
		</g>
	</g>
</g>
<g>
	<g>
		<path class="st2" d="M47,16.7h4v0.4h-3.5v2.7h2.9v0.4h-2.9v3.2h3.6v0.4H47V16.7z"/>
		<path class="st2" d="M53.7,18.6h0.4l0,0.8h0c0.5-0.5,1.1-0.9,1.7-0.9c0.8,0,1.3,0.4,1.5,1.1c0.6-0.7,1.2-1.1,1.8-1.1
			c1.1,0,1.6,0.7,1.6,2v3.4h-0.5v-3.3c0-1.1-0.4-1.7-1.2-1.7c-0.5,0-1,0.3-1.6,1v4H57v-3.3c0-1.1-0.4-1.7-1.2-1.7
			c-0.5,0-1,0.3-1.6,1v4h-0.5V18.6z"/>
		<path class="st2" d="M63.7,16h0.5v2.3l0,1c0.5-0.5,1.2-0.8,1.8-0.8c1.4,0,2.1,1.1,2.1,2.7c0,1.8-1.1,2.8-2.3,2.8
			c-0.5,0-1.1-0.2-1.6-0.6h0l-0.1,0.5h-0.4V16z M65.8,23.6c1.1,0,1.8-1,1.8-2.4c0-1.3-0.5-2.3-1.7-2.3c-0.5,0-1.1,0.3-1.7,0.9v3.1
			C64.8,23.4,65.4,23.6,65.8,23.6z"/>
		<path class="st2" d="M72.7,18.5c1.3,0,2,0.9,2,2.4c0,0.1,0,0.3,0,0.4h-3.8c0,1.3,0.8,2.3,2,2.3c0.6,0,1-0.2,1.4-0.5l0.2,0.4
			c-0.4,0.3-0.9,0.5-1.7,0.5c-1.4,0-2.4-1-2.4-2.8C70.4,19.6,71.5,18.5,72.7,18.5z M74.2,21c0-1.4-0.6-2-1.6-2c-0.9,0-1.7,0.8-1.8,2
			H74.2z"/>
		<path class="st2" d="M79.1,18.5c0.6,0,1.1,0.2,1.6,0.6l0-1V16h0.5v7.9h-0.4l0-0.7h0c-0.4,0.4-1,0.8-1.7,0.8c-1.3,0-2.2-1-2.2-2.8
			C76.8,19.6,77.9,18.5,79.1,18.5z M79,23.6c0.6,0,1.1-0.3,1.7-0.9v-3.1c-0.6-0.5-1-0.7-1.5-0.7c-1.1,0-1.9,1-1.9,2.4
			C77.3,22.7,77.9,23.6,79,23.6z"/>
	</g>
	<g>
		<g>
			<path class="st3" d="M15.5,19.5l6.9-2.7v1.8l-2.6,0.9l-2,0.7v0.1l2,0.7l2.6,0.9v1.8l-6.9-2.7V19.5z"/>
		</g>
	</g>
	<g>
		<g>
			<path class="st3" d="M34.9,21.1L28,23.7v-1.8l2.6-0.9l2-0.7v-0.1l-2-0.7L28,18.7v-1.8l6.9,2.7V21.1z"/>
		</g>
	</g>
	<g>
		<path class="st2" d="M47,16.7h4v0.4h-3.5v2.7h2.9v0.4h-2.9v3.2h3.6v0.4H47V16.7z"/>
		<path class="st2" d="M53.7,18.6h0.4l0,0.8h0c0.5-0.5,1.1-0.9,1.7-0.9c0.8,0,1.3,0.4,1.5,1.1c0.6-0.7,1.2-1.1,1.8-1.1
			c1.1,0,1.6,0.7,1.6,2v3.4h-0.5v-3.3c0-1.1-0.4-1.7-1.2-1.7c-0.5,0-1,0.3-1.6,1v4H57v-3.3c0-1.1-0.4-1.7-1.2-1.7
			c-0.5,0-1,0.3-1.6,1v4h-0.5V18.6z"/>
		<path class="st2" d="M63.7,16h0.5v2.3l0,1c0.5-0.5,1.2-0.8,1.8-0.8c1.4,0,2.1,1.1,2.1,2.7c0,1.8-1.1,2.8-2.3,2.8
			c-0.5,0-1.1-0.2-1.6-0.6h0l-0.1,0.5h-0.4V16z M65.8,23.6c1.1,0,1.8-1,1.8-2.4c0-1.3-0.5-2.3-1.7-2.3c-0.5,0-1.1,0.3-1.7,0.9v3.1
			C64.8,23.4,65.4,23.6,65.8,23.6z"/>
		<path class="st2" d="M72.7,18.5c1.3,0,2,0.9,2,2.4c0,0.1,0,0.3,0,0.4h-3.8c0,1.3,0.8,2.3,2,2.3c0.6,0,1-0.2,1.4-0.5l0.2,0.4
			c-0.4,0.3-0.9,0.5-1.7,0.5c-1.4,0-2.4-1-2.4-2.8C70.4,19.6,71.5,18.5,72.7,18.5z M74.2,21c0-1.4-0.6-2-1.6-2c-0.9,0-1.7,0.8-1.8,2
			H74.2z"/>
		<path class="st2" d="M79.1,18.5c0.6,0,1.1,0.2,1.6,0.6l0-1V16h0.5v7.9h-0.4l0-0.7h0c-0.4,0.4-1,0.8-1.7,0.8c-1.3,0-2.2-1-2.2-2.8
			C76.8,19.6,77.9,18.5,79.1,18.5z M79,23.6c0.6,0,1.1-0.3,1.7-0.9v-3.1c-0.6-0.5-1-0.7-1.5-0.7c-1.1,0-1.9,1-1.9,2.4
			C77.3,22.7,77.9,23.6,79,23.6z"/>
	</g>
	<g>
		<g>
			<path class="st3" d="M15.5,19.5l6.9-2.7v1.8l-2.6,0.9l-2,0.7v0.1l2,0.7l2.6,0.9v1.8l-6.9-2.7V19.5z"/>
		</g>
	</g>
	<g>
		<g>
			<path class="st3" d="M34.9,21.1L28,23.7v-1.8l2.6-0.9l2-0.7v-0.1l-2-0.7L28,18.7v-1.8l6.9,2.7V21.1z"/>
		</g>
	</g>
</g>
</svg>
