<?xml version="1.0" encoding="utf-8"?>
<!-- Generator: Adobe Illustrator 20.0.0, SVG Export Plug-In . SVG Version: 6.00 Build 0)  -->
<svg version="1.1" id="Capa_1" xmlns="http://www.w3.org/2000/svg" xmlns:xlink="http://www.w3.org/1999/xlink" x="0px" y="0px"
	 viewBox="0 0 298.1 654" style="enable-background:new 0 0 298.1 654;" xml:space="preserve">
<style type="text/css">
	.st0{opacity:0.98;fill:#FFFFFF;enable-background:new    ;}
	.st1{fill:#FF9719;}
	.st2{opacity:0.95;fill:none;stroke:#000000;stroke-width:0.25;stroke-miterlimit:10;enable-background:new    ;}
	.st3{opacity:0.94;fill:none;stroke:#000000;stroke-width:0.25;stroke-miterlimit:10;enable-background:new    ;}
	.st4{fill:none;stroke:#ED1C24;stroke-miterlimit:10;}
	.st5{font-family:'SourceSansPro-Regular';}
	.st6{font-size:10px;}
	.st7{opacity:0.99;fill:#44B254;enable-background:new    ;}
	.st8{font-family:'MyriadPro-Semibold';}
	.st9{font-size:12px;}
	.st10{opacity:0.99;fill:#495E4A;enable-background:new    ;}
	.st11{font-family:'MyriadPro-Regular';}
	.st12{opacity:0.4;fill:#ED1C24;enable-background:new    ;}
	.st13{opacity:0.99;fill:#ED1C24;enable-background:new    ;}
	.st14{font-family:'MyriadPro-Bold';}
</style>
<polygon class="st0" points="-0.9,83.2 -0.9,83.2 -0.9,0.3 297.2,0.3 297.2,654 -0.9,654 -0.9,119.9 -0.9,119.9 "/>
<path class="st1" d="M282.1,14.1l6.8-6.8C289,7.2,289,7.1,289,7c0-0.2-0.2-0.4-0.4-0.4c-0.1,0-0.2,0-0.3,0.1l-6.8,6.8l-6.8-6.8
	c-0.1-0.1-0.2-0.1-0.3-0.1c-0.2,0-0.4,0.2-0.4,0.4c0,0.1,0,0.2,0.1,0.3l6.8,6.8l-6.8,6.8c-0.1,0.1-0.1,0.2-0.1,0.3
	c0,0.2,0.2,0.4,0.4,0.4c0.1,0,0.2,0,0.3-0.1l6.8-6.8l6.8,6.8c0.1,0.1,0.2,0.1,0.3,0.1c0.2,0,0.4-0.2,0.4-0.4c0-0.1,0-0.2-0.1-0.3
	L282.1,14.1z"/>
<polygon class="st0" points="0.5,82.6 0.5,82.6 0.5,-0.3 298.6,-0.3 298.6,654 0.5,654 0.5,119.2 0.5,119.2 "/>
<line class="st2" x1="9.4" y1="53.2" x2="288.2" y2="53.2"/>
<line class="st2" x1="9.4" y1="72.6" x2="288.2" y2="72.6"/>
<path class="st1" d="M279.6,18.3l6.8-6.8c0.1-0.1,0.1-0.2,0.1-0.3c0-0.2-0.2-0.4-0.4-0.4c-0.1,0-0.2,0-0.3,0.1l-6.8,6.8l-6.8-6.8
	c-0.1-0.1-0.2-0.1-0.3-0.1c-0.2,0-0.4,0.2-0.4,0.4c0,0.1,0,0.2,0.1,0.3l6.8,6.8l-6.8,6.8c-0.1,0.1-0.1,0.2-0.1,0.3
	c0,0.2,0.2,0.4,0.4,0.4c0.1,0,0.2,0,0.3-0.1l6.8-6.8l6.8,6.8c0.1,0.1,0.2,0.1,0.3,0.1c0.2,0,0.4-0.2,0.4-0.4c0-0.1,0-0.2-0.1-0.3
	L279.6,18.3z"/>
<rect x="108.3" y="98.6" class="st3" width="21" height="540.7"/>
<polyline class="st4" points="97.1,98.6 97.1,333.6 93.2,338 97.1,342.8 97.1,639.3 "/>
<text transform="matrix(1 0 0 1 9.0323 356.9884)" class="st5 st6">Which factors </text>
<text transform="matrix(1 0 0 1 9.0323 368.9884)" class="st5 st6">have the most </text>
<text transform="matrix(1 0 0 1 9.0323 380.9884)" class="st5 st6">influence on the </text>
<text transform="matrix(1 0 0 1 9.0323 392.9884)" class="st5 st6">difference between </text>
<text transform="matrix(1 0 0 1 9.0323 404.9884)" class="st5 st6">the coverage</text>
<text transform="matrix(1 0 0 1 9.0323 416.9884)" class="st5 st6"> and the HOI?</text>
<text transform="matrix(1 0 0 1 9 21.8)" class="st7 st8 st9">Four antenatal care visits</text>
<text transform="matrix(1 0 0 1 10 49.15)" class="st10 st11 st6">Coverage</text>
<text transform="matrix(1 0 0 1 10 68.15)" class="st7 st11 st6">HOI</text>
<text transform="matrix(1 0 0 1 37.9476 639.3001)" class="st12 st11 st6">- influence</text>
<text transform="matrix(1 0 0 1 35.0953 104.15)" class="st13 st11 st6">+ influence</text>
<text transform="matrix(1 0 0 1 8.9996 342.15)" class="st13 st14 st9">INEQUALITY</text>
</svg>
