<?xml version="1.0" encoding="utf-8"?>
<!-- Generator: Adobe Illustrator 20.0.0, SVG Export Plug-In . SVG Version: 6.00 Build 0)  -->
<svg version="1.1" id="Capa_1" xmlns="http://www.w3.org/2000/svg" xmlns:xlink="http://www.w3.org/1999/xlink" x="0px" y="0px"
	 viewBox="0 0 147 39" style="enable-background:new 0 0 147 39;" xml:space="preserve">
<style type="text/css">
	.st0{fill:#FF8C00;}
	.st1{opacity:0.5;}
	.st2{fill:#FFFFFF;stroke:#FFFFFF;stroke-width:0.25;stroke-miterlimit:10;}
	.st3{fill:#FFFFFF;}
</style>
<g>
	<g>
		<g>
			<g>
				<rect x="0.5" class="st0" width="147" height="39"/>
			</g>
		</g>
	</g>
</g>
<g>
	<g>
		<path class="st2" d="M49,16.7h1.7c2.2,0,3.3,1.4,3.3,3.6c0,2.2-1.1,3.7-3.3,3.7H49V16.7z M50.6,23.5c2,0,2.8-1.3,2.8-3.2
			c0-1.9-0.8-3.2-2.8-3.2h-1.1v6.4H50.6z"/>
		<path class="st2" d="M58.6,18.5c1.3,0,2.4,1,2.4,2.8c0,1.7-1.1,2.8-2.4,2.8c-1.3,0-2.4-1-2.4-2.8C56.2,19.5,57.3,18.5,58.6,18.5z
			 M58.6,23.6c1.1,0,1.9-0.9,1.9-2.3c0-1.4-0.8-2.4-1.9-2.4c-1.1,0-1.9,1-1.9,2.4C56.7,22.7,57.5,23.6,58.6,23.6z"/>
		<path class="st2" d="M62.9,18.6h0.5l0.9,3.4c0.1,0.5,0.3,0.9,0.4,1.4h0c0.1-0.5,0.3-0.9,0.4-1.4l1-3.4h0.6l1,3.4
			c0.1,0.5,0.3,0.9,0.4,1.4h0c0.1-0.5,0.3-0.9,0.4-1.4l0.9-3.4h0.5l-1.5,5.3h-0.6l-0.9-3.3c-0.2-0.5-0.3-1-0.4-1.5h0
			c-0.1,0.5-0.3,1-0.4,1.5l-0.9,3.3h-0.6L62.9,18.6z"/>
		<path class="st2" d="M72.3,18.6h0.4l0,0.8h0c0.5-0.5,1.1-0.9,1.8-0.9c1.1,0,1.6,0.7,1.6,2v3.4h-0.5v-3.3c0-1.1-0.4-1.7-1.2-1.7
			c-0.6,0-1.1,0.3-1.7,1v4h-0.5V18.6z"/>
		<path class="st2" d="M79.3,16h0.5v7.3c0,0.2,0.1,0.3,0.2,0.3c0,0,0.1,0,0.2,0l0.1,0.4c-0.1,0-0.2,0.1-0.4,0.1
			c-0.4,0-0.6-0.3-0.6-0.8V16z"/>
		<path class="st2" d="M84.9,18.5c1.3,0,2.4,1,2.4,2.8c0,1.7-1.1,2.8-2.4,2.8c-1.3,0-2.4-1-2.4-2.8C82.5,19.5,83.6,18.5,84.9,18.5z
			 M84.9,23.6c1.1,0,1.9-0.9,1.9-2.3c0-1.4-0.8-2.4-1.9-2.4c-1.1,0-1.9,1-1.9,2.4C83,22.7,83.8,23.6,84.9,23.6z"/>
		<path class="st2" d="M92.9,20.6c0-0.8-0.2-1.7-1.2-1.7c-0.7,0-1.3,0.4-1.7,0.6l-0.2-0.4c0.4-0.3,1.1-0.7,2-0.7
			c1.3,0,1.7,0.9,1.7,2v3.4H93l-0.1-0.7h0c-0.5,0.4-1.2,0.8-1.9,0.8c-0.8,0-1.5-0.5-1.5-1.5C89.5,21.4,90.6,20.9,92.9,20.6z
			 M91.1,23.6c0.6,0,1.1-0.3,1.8-0.9V21c-2.2,0.3-2.9,0.8-2.9,1.6C90,23.3,90.5,23.6,91.1,23.6z"/>
		<path class="st2" d="M98.3,18.5c0.6,0,1.1,0.2,1.6,0.6l0-1V16h0.5v7.9h-0.4l0-0.7h0c-0.4,0.4-1,0.8-1.7,0.8c-1.3,0-2.2-1-2.2-2.8
			C95.9,19.6,97,18.5,98.3,18.5z M98.2,23.6c0.6,0,1.1-0.3,1.7-0.9v-3.1c-0.6-0.5-1-0.7-1.5-0.7c-1.1,0-1.9,1-1.9,2.4
			C96.4,22.7,97.1,23.6,98.2,23.6z"/>
		<path class="st2" d="M106.8,16.7h1.7c2.2,0,3.3,1.4,3.3,3.6c0,2.2-1.1,3.7-3.3,3.7h-1.7V16.7z M108.4,23.5c2,0,2.8-1.3,2.8-3.2
			c0-1.9-0.8-3.2-2.8-3.2h-1.1v6.4H108.4z"/>
		<path class="st2" d="M117.6,20.6c0-0.8-0.2-1.7-1.2-1.7c-0.7,0-1.3,0.4-1.7,0.6l-0.2-0.4c0.4-0.3,1.1-0.7,2-0.7
			c1.3,0,1.7,0.9,1.7,2v3.4h-0.4l-0.1-0.7h0c-0.5,0.4-1.2,0.8-1.9,0.8c-0.8,0-1.5-0.5-1.5-1.5C114.2,21.4,115.3,20.9,117.6,20.6z
			 M115.8,23.6c0.6,0,1.1-0.3,1.8-0.9V21c-2.2,0.3-2.9,0.8-2.9,1.6C114.7,23.3,115.2,23.6,115.8,23.6z"/>
		<path class="st2" d="M121.2,19.1h-0.8v-0.4l0.8,0l0.1-1.5h0.4v1.5h1.5v0.4h-1.5v3.4c0,0.7,0.2,1.1,0.9,1.1c0.2,0,0.5-0.1,0.7-0.2
			l0.1,0.4c-0.3,0.1-0.6,0.2-0.9,0.2c-1,0-1.3-0.6-1.3-1.6V19.1z"/>
		<path class="st2" d="M128.5,20.6c0-0.8-0.2-1.7-1.2-1.7c-0.7,0-1.3,0.4-1.7,0.6l-0.2-0.4c0.4-0.3,1.1-0.7,2-0.7
			c1.3,0,1.7,0.9,1.7,2v3.4h-0.4l-0.1-0.7h0c-0.5,0.4-1.2,0.8-1.9,0.8c-0.8,0-1.5-0.5-1.5-1.5C125.1,21.4,126.1,20.9,128.5,20.6z
			 M126.7,23.6c0.6,0,1.1-0.3,1.8-0.9V21c-2.2,0.3-2.9,0.8-2.9,1.6C125.6,23.3,126.1,23.6,126.7,23.6z"/>
	</g>
	<path class="st3" d="M28.9,9h-10c-1,0-1.8,0.8-1.8,1.8v16.3c0,1,0.8,1.8,1.8,1.8h12.7c1,0,1.8-0.8,1.8-1.8V13.9L28.9,9z M32.5,27.1
		c0,0.5-0.4,0.9-0.9,0.9H18.9c-0.5,0-0.9-0.4-0.9-0.9V10.8c0-0.5,0.4-0.9,0.9-0.9H27v4.5c0,0.5,0.4,0.9,0.9,0.9h4.5V27.1z
		 M27.9,14.4V9.9h0.5l4.1,4.5H27.9z"/>
	<g>
		<path class="st2" d="M49,16.7h1.7c2.2,0,3.3,1.4,3.3,3.6c0,2.2-1.1,3.7-3.3,3.7H49V16.7z M50.6,23.5c2,0,2.8-1.3,2.8-3.2
			c0-1.9-0.8-3.2-2.8-3.2h-1.1v6.4H50.6z"/>
		<path class="st2" d="M58.6,18.5c1.3,0,2.4,1,2.4,2.8c0,1.7-1.1,2.8-2.4,2.8c-1.3,0-2.4-1-2.4-2.8C56.2,19.5,57.3,18.5,58.6,18.5z
			 M58.6,23.6c1.1,0,1.9-0.9,1.9-2.3c0-1.4-0.8-2.4-1.9-2.4c-1.1,0-1.9,1-1.9,2.4C56.7,22.7,57.5,23.6,58.6,23.6z"/>
		<path class="st2" d="M62.9,18.6h0.5l0.9,3.4c0.1,0.5,0.3,0.9,0.4,1.4h0c0.1-0.5,0.3-0.9,0.4-1.4l1-3.4h0.6l1,3.4
			c0.1,0.5,0.3,0.9,0.4,1.4h0c0.1-0.5,0.3-0.9,0.4-1.4l0.9-3.4h0.5l-1.5,5.3h-0.6l-0.9-3.3c-0.2-0.5-0.3-1-0.4-1.5h0
			c-0.1,0.5-0.3,1-0.4,1.5l-0.9,3.3h-0.6L62.9,18.6z"/>
		<path class="st2" d="M72.3,18.6h0.4l0,0.8h0c0.5-0.5,1.1-0.9,1.8-0.9c1.1,0,1.6,0.7,1.6,2v3.4h-0.5v-3.3c0-1.1-0.4-1.7-1.2-1.7
			c-0.6,0-1.1,0.3-1.7,1v4h-0.5V18.6z"/>
		<path class="st2" d="M79.3,16h0.5v7.3c0,0.2,0.1,0.3,0.2,0.3c0,0,0.1,0,0.2,0l0.1,0.4c-0.1,0-0.2,0.1-0.4,0.1
			c-0.4,0-0.6-0.3-0.6-0.8V16z"/>
		<path class="st2" d="M84.9,18.5c1.3,0,2.4,1,2.4,2.8c0,1.7-1.1,2.8-2.4,2.8c-1.3,0-2.4-1-2.4-2.8C82.5,19.5,83.6,18.5,84.9,18.5z
			 M84.9,23.6c1.1,0,1.9-0.9,1.9-2.3c0-1.4-0.8-2.4-1.9-2.4c-1.1,0-1.9,1-1.9,2.4C83,22.7,83.8,23.6,84.9,23.6z"/>
		<path class="st2" d="M92.9,20.6c0-0.8-0.2-1.7-1.2-1.7c-0.7,0-1.3,0.4-1.7,0.6l-0.2-0.4c0.4-0.3,1.1-0.7,2-0.7
			c1.3,0,1.7,0.9,1.7,2v3.4H93l-0.1-0.7h0c-0.5,0.4-1.2,0.8-1.9,0.8c-0.8,0-1.5-0.5-1.5-1.5C89.5,21.4,90.6,20.9,92.9,20.6z
			 M91.1,23.6c0.6,0,1.1-0.3,1.8-0.9V21c-2.2,0.3-2.9,0.8-2.9,1.6C90,23.3,90.5,23.6,91.1,23.6z"/>
		<path class="st2" d="M98.3,18.5c0.6,0,1.1,0.2,1.6,0.6l0-1V16h0.5v7.9h-0.4l0-0.7h0c-0.4,0.4-1,0.8-1.7,0.8c-1.3,0-2.2-1-2.2-2.8
			C95.9,19.6,97,18.5,98.3,18.5z M98.2,23.6c0.6,0,1.1-0.3,1.7-0.9v-3.1c-0.6-0.5-1-0.7-1.5-0.7c-1.1,0-1.9,1-1.9,2.4
			C96.4,22.7,97.1,23.6,98.2,23.6z"/>
		<path class="st2" d="M106.8,16.7h1.7c2.2,0,3.3,1.4,3.3,3.6c0,2.2-1.1,3.7-3.3,3.7h-1.7V16.7z M108.4,23.5c2,0,2.8-1.3,2.8-3.2
			c0-1.9-0.8-3.2-2.8-3.2h-1.1v6.4H108.4z"/>
		<path class="st2" d="M117.6,20.6c0-0.8-0.2-1.7-1.2-1.7c-0.7,0-1.3,0.4-1.7,0.6l-0.2-0.4c0.4-0.3,1.1-0.7,2-0.7
			c1.3,0,1.7,0.9,1.7,2v3.4h-0.4l-0.1-0.7h0c-0.5,0.4-1.2,0.8-1.9,0.8c-0.8,0-1.5-0.5-1.5-1.5C114.2,21.4,115.3,20.9,117.6,20.6z
			 M115.8,23.6c0.6,0,1.1-0.3,1.8-0.9V21c-2.2,0.3-2.9,0.8-2.9,1.6C114.7,23.3,115.2,23.6,115.8,23.6z"/>
		<path class="st2" d="M121.2,19.1h-0.8v-0.4l0.8,0l0.1-1.5h0.4v1.5h1.5v0.4h-1.5v3.4c0,0.7,0.2,1.1,0.9,1.1c0.2,0,0.5-0.1,0.7-0.2
			l0.1,0.4c-0.3,0.1-0.6,0.2-0.9,0.2c-1,0-1.3-0.6-1.3-1.6V19.1z"/>
		<path class="st2" d="M128.5,20.6c0-0.8-0.2-1.7-1.2-1.7c-0.7,0-1.3,0.4-1.7,0.6l-0.2-0.4c0.4-0.3,1.1-0.7,2-0.7
			c1.3,0,1.7,0.9,1.7,2v3.4h-0.4l-0.1-0.7h0c-0.5,0.4-1.2,0.8-1.9,0.8c-0.8,0-1.5-0.5-1.5-1.5C125.1,21.4,126.1,20.9,128.5,20.6z
			 M126.7,23.6c0.6,0,1.1-0.3,1.8-0.9V21c-2.2,0.3-2.9,0.8-2.9,1.6C125.6,23.3,126.1,23.6,126.7,23.6z"/>
	</g>
	<path class="st3" d="M28.9,9h-10c-1,0-1.8,0.8-1.8,1.8v16.3c0,1,0.8,1.8,1.8,1.8h12.7c1,0,1.8-0.8,1.8-1.8V13.9L28.9,9z M32.5,27.1
		c0,0.5-0.4,0.9-0.9,0.9H18.9c-0.5,0-0.9-0.4-0.9-0.9V10.8c0-0.5,0.4-0.9,0.9-0.9H27v4.5c0,0.5,0.4,0.9,0.9,0.9h4.5V27.1z
		 M27.9,14.4V9.9h0.5l4.1,4.5H27.9z"/>
</g>
</svg>
