<?xml version="1.0" encoding="utf-8"?>
<!-- Generator: Adobe Illustrator 20.0.0, SVG Export Plug-In . SVG Version: 6.00 Build 0)  -->
<svg version="1.1" id="Capa_1" xmlns="http://www.w3.org/2000/svg" xmlns:xlink="http://www.w3.org/1999/xlink" x="0px" y="0px"
	 viewBox="0 0 153 39" style="enable-background:new 0 0 153 39;" xml:space="preserve">
<style type="text/css">
	.st0{fill:#FF8C00;}
	.st1{opacity:0.5;}
	.st2{fill:#FFFFFF;stroke:#FFFFFF;stroke-width:0.25;stroke-miterlimit:10;}
	.st3{fill:#FFFFFF;}
</style>
<g>
	<g>
		<g>
			<g>
				<rect x="0.5" class="st0" width="152" height="39"/>
			</g>
		</g>
	</g>
	<g>
		<path class="st2" d="M49,16.7h1.7c2.2,0,3.3,1.4,3.3,3.6c0,2.2-1.1,3.7-3.3,3.7H49V16.7z M50.6,23.5c2,0,2.8-1.3,2.8-3.2
			c0-1.9-0.8-3.2-2.8-3.2h-1.1v6.4H50.6z"/>
		<path class="st2" d="M58.6,18.5c1.3,0,2.4,1,2.4,2.8c0,1.7-1.1,2.8-2.4,2.8c-1.3,0-2.4-1-2.4-2.8C56.2,19.5,57.3,18.5,58.6,18.5z
			 M58.6,23.6c1.1,0,1.9-0.9,1.9-2.3c0-1.4-0.8-2.4-1.9-2.4c-1.1,0-1.9,1-1.9,2.4C56.7,22.7,57.5,23.6,58.6,23.6z"/>
		<path class="st2" d="M62.9,18.6h0.5l0.9,3.4c0.1,0.5,0.3,0.9,0.4,1.4h0c0.1-0.5,0.3-0.9,0.4-1.4l1-3.4h0.6l1,3.4
			c0.1,0.5,0.3,0.9,0.4,1.4h0c0.1-0.5,0.3-0.9,0.4-1.4l0.9-3.4h0.5l-1.5,5.3h-0.6l-0.9-3.3c-0.2-0.5-0.3-1-0.4-1.5h0
			c-0.1,0.5-0.3,1-0.4,1.5l-0.9,3.3h-0.6L62.9,18.6z"/>
		<path class="st2" d="M72.3,18.6h0.4l0,0.8h0c0.5-0.5,1.1-0.9,1.8-0.9c1.1,0,1.6,0.7,1.6,2v3.4h-0.5v-3.3c0-1.1-0.4-1.7-1.2-1.7
			c-0.6,0-1.1,0.3-1.7,1v4h-0.5V18.6z"/>
		<path class="st2" d="M79.3,16h0.5v7.3c0,0.2,0.1,0.3,0.2,0.3c0,0,0.1,0,0.2,0l0.1,0.4c-0.1,0-0.2,0.1-0.4,0.1
			c-0.4,0-0.6-0.3-0.6-0.8V16z"/>
		<path class="st2" d="M84.9,18.5c1.3,0,2.4,1,2.4,2.8c0,1.7-1.1,2.8-2.4,2.8c-1.3,0-2.4-1-2.4-2.8C82.5,19.5,83.6,18.5,84.9,18.5z
			 M84.9,23.6c1.1,0,1.9-0.9,1.9-2.3c0-1.4-0.8-2.4-1.9-2.4c-1.1,0-1.9,1-1.9,2.4C83,22.7,83.8,23.6,84.9,23.6z"/>
		<path class="st2" d="M92.9,20.6c0-0.8-0.2-1.7-1.2-1.7c-0.7,0-1.3,0.4-1.7,0.6l-0.2-0.4c0.4-0.3,1.1-0.7,2-0.7
			c1.3,0,1.7,0.9,1.7,2v3.4H93l-0.1-0.7h0c-0.5,0.4-1.2,0.8-1.9,0.8c-0.8,0-1.5-0.5-1.5-1.5C89.5,21.4,90.6,20.9,92.9,20.6z
			 M91.1,23.6c0.6,0,1.1-0.3,1.8-0.9V21c-2.2,0.3-2.9,0.8-2.9,1.6C90,23.3,90.5,23.6,91.1,23.6z"/>
		<path class="st2" d="M98.3,18.5c0.6,0,1.1,0.2,1.6,0.6l0-1V16h0.5v7.9h-0.4l0-0.7h0c-0.4,0.4-1,0.8-1.7,0.8c-1.3,0-2.2-1-2.2-2.8
			C95.9,19.6,97,18.5,98.3,18.5z M98.2,23.6c0.6,0,1.1-0.3,1.7-0.9v-3.1c-0.6-0.5-1-0.7-1.5-0.7c-1.1,0-1.9,1-1.9,2.4
			C96.4,22.7,97.1,23.6,98.2,23.6z"/>
		<path class="st2" d="M109.4,16.5c0.8,0,1.5,0.4,1.9,0.9l-0.3,0.3c-0.4-0.4-0.9-0.7-1.6-0.7c-1.6,0-2.6,1.3-2.6,3.3s1,3.3,2.5,3.3
			c0.7,0,1.3-0.3,1.8-0.9l0.3,0.3c-0.6,0.6-1.2,1-2.2,1c-1.8,0-3-1.5-3-3.8C106.3,18,107.6,16.5,109.4,16.5z"/>
		<path class="st2" d="M116,18.5c1.3,0,2.4,1,2.4,2.8c0,1.7-1.1,2.8-2.4,2.8c-1.3,0-2.4-1-2.4-2.8C113.6,19.5,114.7,18.5,116,18.5z
			 M116,23.6c1.1,0,1.9-0.9,1.9-2.3c0-1.4-0.8-2.4-1.9-2.4c-1.1,0-1.9,1-1.9,2.4C114.1,22.7,114.9,23.6,116,23.6z"/>
		<path class="st2" d="M122.9,18.5c0.6,0,1.1,0.2,1.6,0.6l0-1V16h0.5v7.9h-0.4l0-0.7h0c-0.4,0.4-1,0.8-1.7,0.8c-1.3,0-2.2-1-2.2-2.8
			C120.6,19.6,121.7,18.5,122.9,18.5z M122.8,23.6c0.6,0,1.1-0.3,1.7-0.9v-3.1c-0.6-0.5-1-0.7-1.5-0.7c-1.1,0-1.9,1-1.9,2.4
			C121.1,22.7,121.7,23.6,122.8,23.6z"/>
		<path class="st2" d="M130,18.5c1.3,0,2,0.9,2,2.4c0,0.1,0,0.3,0,0.4h-3.8c0,1.3,0.8,2.3,2,2.3c0.6,0,1-0.2,1.4-0.5l0.2,0.4
			c-0.4,0.3-0.9,0.5-1.7,0.5c-1.4,0-2.4-1-2.4-2.8C127.7,19.6,128.8,18.5,130,18.5z M131.5,21c0-1.4-0.6-2-1.6-2
			c-0.9,0-1.7,0.8-1.8,2H131.5z"/>
	</g>
	<path class="st0" d="M28.4,27.1c-0.1,0-0.3,0.1-0.4,0.2l-2.2,2.2V17.1c0-0.3-0.2-0.5-0.5-0.5c-0.3,0-0.5,0.2-0.5,0.5v12.3l-2.2-2.2
		c-0.1-0.1-0.2-0.2-0.4-0.2c-0.3,0-0.5,0.2-0.5,0.5c0,0.1,0.1,0.3,0.2,0.4l3.1,3.1c0.1,0.1,0.2,0.2,0.4,0.2c0.1,0,0.3-0.1,0.4-0.2
		l3.1-3.1c0.1-0.1,0.2-0.2,0.2-0.4C28.9,27.3,28.7,27.1,28.4,27.1 M33.6,14.9c0-0.1,0-0.3,0-0.4c0-3.5-2.8-6.3-6.3-6.3
		c-2.4,0-4.5,1.4-5.6,3.4c-0.4-0.1-0.8-0.2-1.2-0.2c-2,0-3.7,1.6-3.7,3.7c0,0.3,0,0.5,0.1,0.8c-1.9,0.6-3.2,2.4-3.2,4.5
		c0,2.6,2.1,4.7,4.7,4.7h4.7c0.3,0,0.5-0.2,0.5-0.5c0-0.3-0.2-0.5-0.5-0.5h-4.7c-2,0-3.7-1.6-3.7-3.7c0-1.6,1-3,2.5-3.5l0.9-0.3
		L18,15.6c0-0.2-0.1-0.4-0.1-0.5c0-1.4,1.2-2.6,2.6-2.6c0.3,0,0.6,0.1,0.9,0.2l0.9,0.3l0.4-0.8c0.9-1.7,2.7-2.8,4.6-2.8
		c2.9,0,5.2,2.3,5.2,5.2c0,0.1,0,0.2,0,0.3l0,0.1l0,0.7l0.7,0.3c1.5,0.7,2.5,2.2,2.5,3.8c0,2.3-1.9,4.2-4.2,4.2h-4.2
		c-0.3,0-0.5,0.2-0.5,0.5c0,0.3,0.2,0.5,0.5,0.5h4.2c2.9,0,5.2-2.3,5.2-5.2C36.7,17.6,35.4,15.7,33.6,14.9"/>
	<g>
		<path class="st2" d="M49,16.7h1.7c2.2,0,3.3,1.4,3.3,3.6c0,2.2-1.1,3.7-3.3,3.7H49V16.7z M50.6,23.5c2,0,2.8-1.3,2.8-3.2
			c0-1.9-0.8-3.2-2.8-3.2h-1.1v6.4H50.6z"/>
		<path class="st2" d="M58.6,18.5c1.3,0,2.4,1,2.4,2.8c0,1.7-1.1,2.8-2.4,2.8c-1.3,0-2.4-1-2.4-2.8C56.2,19.5,57.3,18.5,58.6,18.5z
			 M58.6,23.6c1.1,0,1.9-0.9,1.9-2.3c0-1.4-0.8-2.4-1.9-2.4c-1.1,0-1.9,1-1.9,2.4C56.7,22.7,57.5,23.6,58.6,23.6z"/>
		<path class="st2" d="M62.9,18.6h0.5l0.9,3.4c0.1,0.5,0.3,0.9,0.4,1.4h0c0.1-0.5,0.3-0.9,0.4-1.4l1-3.4h0.6l1,3.4
			c0.1,0.5,0.3,0.9,0.4,1.4h0c0.1-0.5,0.3-0.9,0.4-1.4l0.9-3.4h0.5l-1.5,5.3h-0.6l-0.9-3.3c-0.2-0.5-0.3-1-0.4-1.5h0
			c-0.1,0.5-0.3,1-0.4,1.5l-0.9,3.3h-0.6L62.9,18.6z"/>
		<path class="st2" d="M72.3,18.6h0.4l0,0.8h0c0.5-0.5,1.1-0.9,1.8-0.9c1.1,0,1.6,0.7,1.6,2v3.4h-0.5v-3.3c0-1.1-0.4-1.7-1.2-1.7
			c-0.6,0-1.1,0.3-1.7,1v4h-0.5V18.6z"/>
		<path class="st2" d="M79.3,16h0.5v7.3c0,0.2,0.1,0.3,0.2,0.3c0,0,0.1,0,0.2,0l0.1,0.4c-0.1,0-0.2,0.1-0.4,0.1
			c-0.4,0-0.6-0.3-0.6-0.8V16z"/>
		<path class="st2" d="M84.9,18.5c1.3,0,2.4,1,2.4,2.8c0,1.7-1.1,2.8-2.4,2.8c-1.3,0-2.4-1-2.4-2.8C82.5,19.5,83.6,18.5,84.9,18.5z
			 M84.9,23.6c1.1,0,1.9-0.9,1.9-2.3c0-1.4-0.8-2.4-1.9-2.4c-1.1,0-1.9,1-1.9,2.4C83,22.7,83.8,23.6,84.9,23.6z"/>
		<path class="st2" d="M92.9,20.6c0-0.8-0.2-1.7-1.2-1.7c-0.7,0-1.3,0.4-1.7,0.6l-0.2-0.4c0.4-0.3,1.1-0.7,2-0.7
			c1.3,0,1.7,0.9,1.7,2v3.4H93l-0.1-0.7h0c-0.5,0.4-1.2,0.8-1.9,0.8c-0.8,0-1.5-0.5-1.5-1.5C89.5,21.4,90.6,20.9,92.9,20.6z
			 M91.1,23.6c0.6,0,1.1-0.3,1.8-0.9V21c-2.2,0.3-2.9,0.8-2.9,1.6C90,23.3,90.5,23.6,91.1,23.6z"/>
		<path class="st2" d="M98.3,18.5c0.6,0,1.1,0.2,1.6,0.6l0-1V16h0.5v7.9h-0.4l0-0.7h0c-0.4,0.4-1,0.8-1.7,0.8c-1.3,0-2.2-1-2.2-2.8
			C95.9,19.6,97,18.5,98.3,18.5z M98.2,23.6c0.6,0,1.1-0.3,1.7-0.9v-3.1c-0.6-0.5-1-0.7-1.5-0.7c-1.1,0-1.9,1-1.9,2.4
			C96.4,22.7,97.1,23.6,98.2,23.6z"/>
		<path class="st2" d="M109.4,16.5c0.8,0,1.5,0.4,1.9,0.9l-0.3,0.3c-0.4-0.4-0.9-0.7-1.6-0.7c-1.6,0-2.6,1.3-2.6,3.3s1,3.3,2.5,3.3
			c0.7,0,1.3-0.3,1.8-0.9l0.3,0.3c-0.6,0.6-1.2,1-2.2,1c-1.8,0-3-1.5-3-3.8C106.3,18,107.6,16.5,109.4,16.5z"/>
		<path class="st2" d="M116,18.5c1.3,0,2.4,1,2.4,2.8c0,1.7-1.1,2.8-2.4,2.8c-1.3,0-2.4-1-2.4-2.8C113.6,19.5,114.7,18.5,116,18.5z
			 M116,23.6c1.1,0,1.9-0.9,1.9-2.3c0-1.4-0.8-2.4-1.9-2.4c-1.1,0-1.9,1-1.9,2.4C114.1,22.7,114.9,23.6,116,23.6z"/>
		<path class="st2" d="M122.9,18.5c0.6,0,1.1,0.2,1.6,0.6l0-1V16h0.5v7.9h-0.4l0-0.7h0c-0.4,0.4-1,0.8-1.7,0.8c-1.3,0-2.2-1-2.2-2.8
			C120.6,19.6,121.7,18.5,122.9,18.5z M122.8,23.6c0.6,0,1.1-0.3,1.7-0.9v-3.1c-0.6-0.5-1-0.7-1.5-0.7c-1.1,0-1.9,1-1.9,2.4
			C121.1,22.7,121.7,23.6,122.8,23.6z"/>
		<path class="st2" d="M130,18.5c1.3,0,2,0.9,2,2.4c0,0.1,0,0.3,0,0.4h-3.8c0,1.3,0.8,2.3,2,2.3c0.6,0,1-0.2,1.4-0.5l0.2,0.4
			c-0.4,0.3-0.9,0.5-1.7,0.5c-1.4,0-2.4-1-2.4-2.8C127.7,19.6,128.8,18.5,130,18.5z M131.5,21c0-1.4-0.6-2-1.6-2
			c-0.9,0-1.7,0.8-1.8,2H131.5z"/>
	</g>
	<path class="st3" d="M28.4,27.1c-0.1,0-0.3,0.1-0.4,0.2l-2.2,2.2V17.1c0-0.3-0.2-0.5-0.5-0.5c-0.3,0-0.5,0.2-0.5,0.5v12.3l-2.2-2.2
		c-0.1-0.1-0.2-0.2-0.4-0.2c-0.3,0-0.5,0.2-0.5,0.5c0,0.1,0.1,0.3,0.2,0.4l3.1,3.1c0.1,0.1,0.2,0.2,0.4,0.2c0.1,0,0.3-0.1,0.4-0.2
		l3.1-3.1c0.1-0.1,0.2-0.2,0.2-0.4C28.9,27.3,28.7,27.1,28.4,27.1 M33.6,14.9c0-0.1,0-0.3,0-0.4c0-3.5-2.8-6.3-6.3-6.3
		c-2.4,0-4.5,1.4-5.6,3.4c-0.4-0.1-0.8-0.2-1.2-0.2c-2,0-3.7,1.6-3.7,3.7c0,0.3,0,0.5,0.1,0.8c-1.9,0.6-3.2,2.4-3.2,4.5
		c0,2.6,2.1,4.7,4.7,4.7h4.7c0.3,0,0.5-0.2,0.5-0.5c0-0.3-0.2-0.5-0.5-0.5h-4.7c-2,0-3.7-1.6-3.7-3.7c0-1.6,1-3,2.5-3.5l0.9-0.3
		L18,15.6c0-0.2-0.1-0.4-0.1-0.5c0-1.4,1.2-2.6,2.6-2.6c0.3,0,0.6,0.1,0.9,0.2l0.9,0.3l0.4-0.8c0.9-1.7,2.7-2.8,4.6-2.8
		c2.9,0,5.2,2.3,5.2,5.2c0,0.1,0,0.2,0,0.3l0,0.1l0,0.7l0.7,0.3c1.5,0.7,2.5,2.2,2.5,3.8c0,2.3-1.9,4.2-4.2,4.2h-4.2
		c-0.3,0-0.5,0.2-0.5,0.5c0,0.3,0.2,0.5,0.5,0.5h4.2c2.9,0,5.2-2.3,5.2-5.2C36.7,17.6,35.4,15.7,33.6,14.9"/>
</g>
</svg>
