<?xml version="1.0" encoding="utf-8"?>
<!-- Generator: Adobe Illustrator 20.0.0, SVG Export Plug-In . SVG Version: 6.00 Build 0)  -->
<svg version="1.1" id="Capa_1" xmlns="http://www.w3.org/2000/svg" xmlns:xlink="http://www.w3.org/1999/xlink" x="0px" y="0px"
	 viewBox="0 0 884.2 23.7" style="enable-background:new 0 0 884.2 23.7;" xml:space="preserve">
<style type="text/css">
	.st0{opacity:0.5;}
	.st1{fill:none;stroke:#000000;stroke-width:0.75;stroke-miterlimit:10;}
	.st2{fill:none;stroke:#000000;stroke-width:0.75;stroke-miterlimit:10;stroke-dasharray:3.0074,4.0098;}
</style>
<g>
	<g class="st0">
		<g>
			<line class="st1" x1="884.2" y1="23.7" x2="882.7" y2="23.7"/>
			<line class="st2" x1="878.6" y1="23.7" x2="3.5" y2="23.7"/>
			<line class="st1" x1="1.5" y1="23.7" x2="0" y2="23.7"/>
		</g>
	</g>
</g>
<path d="M9.7,2.8c0-1-0.8-1.8-1.8-1.8S6.1,1.8,6.1,2.8v7L4.8,8.3l0,0C4.5,8,4,7.8,3.5,7.8l0,0C3,7.8,2.6,8,2.3,8.3
	c-0.6,0.6-0.6,1.5-0.1,2.4C2.9,11.9,3.7,13,4.3,14c0.5,0.7,0.9,1.4,1.3,2c0.3,0.5,1,2.1,1.1,2.1c0.1,0.2,0.3,0.3,0.5,0.3h7.5
	c0.3,0,0.5-0.2,0.6-0.4c0.1-0.4,1.4-4.3,1.4-5.8V8.1c0-1-0.8-1.8-1.8-1.8c-0.2,0-0.5,0.1-0.7,0.1c-0.3-0.7-0.9-1.1-1.6-1.1
	c-0.3,0-0.5,0.1-0.8,0.2c-0.3-0.6-0.9-1-1.6-1c-0.2,0-0.4,0-0.6,0.1 M9.5,6c0-0.3,0.5-0.5,0.8-0.5s0.8,0.4,0.8,0.7v2.9
	c0,0.4,0.1,0.6,0.4,0.6c0.4,0,0.4-0.3,0.4-0.6V7c0-0.3,0.4-0.9,0.8-0.9c0.3,0,0.9,0.4,0.9,0.7v2.9c0,0.4,0.1,0.8,0.4,0.8
	c0.4,0,0.2-0.3,0.2-0.6V8l0.1-0.3c0-0.3,0.4-0.6,0.7-0.6s0.9,0.6,0.9,0.9v4.4c0,1.1-0.8,4-1.3,5.4H7.4c-0.3-0.6-0.8-1.6-1-2
	C6,15.2,5.6,14.5,5,13.7c-0.7-1.1-1.5-2.3-2.2-3.5c-0.2-0.3-0.4-0.8-0.1-1c0.1-0.1,0.5-0.7,0.7-0.7s0.5,0,0.6,0.1L6.2,11
	c0.2,0.2,0.4,0.3,0.6,0.2c0.3-0.1,0.4-0.5,0.4-0.8V2.2c0-0.3,0.3-0.6,0.6-0.6s0.9,0.3,0.9,0.7l0.1,6.1c0,0,0.1,0,0.4,0"/>
<g>
	<path d="M30.9,8.8c1.4,0,2.4,0.5,2.4,1.8c0,1.3-0.8,2.1-2,2.5l1.2,3h-1.3l-1-2.8h-1.1L28.5,16h-1.2l1.4-7.2H30.9z M30.2,12.2
		c1.2,0,1.9-0.6,1.9-1.5c0-0.7-0.5-1-1.4-1h-0.9l-0.5,2.5H30.2z"/>
	<path d="M34.7,13.9c0-2.1,1.5-3.5,3-3.5c1.2,0,2,0.8,2,2.2c0,2.1-1.5,3.5-3,3.5C35.5,16.1,34.7,15.3,34.7,13.9z M35.9,13.9
		c0,0.8,0.3,1.3,1,1.3c0.9,0,1.6-1.1,1.6-2.5c0-0.8-0.3-1.3-0.9-1.3C36.7,11.4,35.9,12.5,35.9,13.9z"/>
	<path d="M43,8.2h1.2l-1.3,6.5c0,0.1,0,0.2,0,0.2c0,0.2,0.1,0.2,0.2,0.2c0.1,0,0.1,0,0.2,0l0,0.9c-0.2,0.1-0.4,0.1-0.7,0.1
		c-0.6,0-0.9-0.3-0.9-0.9c0-0.2,0-0.3,0.1-0.6L43,8.2z"/>
	<path d="M47,8.2h1.2l-1.3,6.5c0,0.1,0,0.2,0,0.2c0,0.2,0.1,0.2,0.2,0.2c0.1,0,0.1,0,0.2,0l0,0.9c-0.2,0.1-0.4,0.1-0.7,0.1
		c-0.6,0-0.9-0.3-0.9-0.9c0-0.2,0-0.3,0.1-0.6L47,8.2z"/>
	<path d="M49.5,13.9c0-2.1,1.5-3.5,3-3.5c1.2,0,2,0.8,2,2.2c0,2.1-1.5,3.5-3,3.5C50.3,16.1,49.5,15.3,49.5,13.9z M50.7,13.9
		c0,0.8,0.3,1.3,1,1.3c0.9,0,1.6-1.1,1.6-2.5c0-0.8-0.3-1.3-0.9-1.3C51.5,11.4,50.7,12.5,50.7,13.9z"/>
	<path d="M56.5,10.6h1.2l0.3,2.9C58,14,58,14.6,58,15.1h0c0.3-0.6,0.5-1.1,0.8-1.6l1.4-2.9h1.2L58.6,16h-1.4L56.5,10.6z"/>
	<path d="M65.4,10.5c1.3,0,1.7,0.9,1.7,2c0,0.5-0.2,1-0.2,1.1h-3.3c-0.1,1.1,0.5,1.6,1.3,1.6c0.4,0,0.8-0.2,1.1-0.4l0.4,0.8
		c-0.4,0.3-1.1,0.6-1.8,0.6c-1.3,0-2.2-0.8-2.2-2.3C62.4,11.8,64,10.5,65.4,10.5z M66.1,12.9c0-0.1,0.1-0.3,0.1-0.5
		c0-0.5-0.2-1-0.9-1c-0.6,0-1.3,0.5-1.6,1.5H66.1z"/>
	<path d="M69.9,10.6h1l-0.1,1h0c0.4-0.7,1-1.2,1.7-1.2c0.2,0,0.4,0,0.5,0.1l-0.4,1c-0.1-0.1-0.3-0.1-0.5-0.1c-0.5,0-1,0.4-1.5,1.2
		L70,16h-1.2L69.9,10.6z"/>
	<path d="M82.5,10.6l-1.1,5.5c-0.3,1.5-1.3,2.3-2.7,2.3c-0.7,0-1.4-0.3-1.9-0.7l0.5-0.8c0.4,0.3,0.9,0.6,1.5,0.6
		c0.8,0,1.3-0.5,1.5-1.4l0.3-1h0c-0.5,0.5-1.1,0.8-1.7,0.8c-0.9,0-1.6-0.6-1.6-1.9c0-2,1.4-3.5,2.8-3.5c0.5,0,1,0.3,1.2,0.8h0
		l0.2-0.6H82.5z M80.7,14.1l0.4-2c-0.3-0.5-0.6-0.7-0.9-0.7c-0.9,0-1.7,1.1-1.7,2.4c0,0.7,0.3,1.1,0.8,1.1
		C79.7,14.9,80.2,14.7,80.7,14.1z"/>
	<path d="M85.2,10.6h1l-0.1,1h0c0.4-0.7,1-1.2,1.7-1.2c0.2,0,0.4,0,0.5,0.1l-0.4,1c-0.1-0.1-0.3-0.1-0.5-0.1c-0.5,0-1,0.4-1.5,1.2
		L85.3,16h-1.2L85.2,10.6z"/>
	<path d="M92.2,10.5c0.5,0,1,0.3,1.2,0.8h0l0.2-0.6h0.9L93.5,16h-1l0.1-0.7h0c-0.5,0.5-1.2,0.9-1.8,0.9c-0.9,0-1.5-0.7-1.5-2
		C89.3,12.1,90.7,10.5,92.2,10.5z M92.7,14.3l0.4-2.2c-0.2-0.5-0.6-0.7-0.9-0.7c-0.9,0-1.7,1.2-1.7,2.6c0,0.8,0.3,1.2,0.8,1.2
		C91.7,15.2,92.3,14.9,92.7,14.3z"/>
	<path d="M97.3,16.5l-0.3,1.6h-1.2l1.5-7.5h1l0,0.7h0c0.5-0.5,1.1-0.8,1.7-0.8c1,0,1.5,0.7,1.5,2c0,2.1-1.4,3.7-2.9,3.7
		c-0.5,0-0.9-0.3-1.2-0.7h0L97.3,16.5z M98.1,12.2l-0.5,2.3c0.2,0.5,0.6,0.6,0.9,0.6c0.9,0,1.8-1.2,1.8-2.6c0-0.8-0.3-1.2-0.8-1.2
		C99.1,11.4,98.6,11.7,98.1,12.2z"/>
	<path d="M104.8,8.2h1.2l-0.5,2.3l-0.2,0.8h0c0.6-0.5,1.1-0.8,1.8-0.8c0.9,0,1.3,0.5,1.3,1.4c0,0.3,0,0.5-0.1,0.8l-0.7,3.4h-1.2
		l0.7-3.3c0-0.3,0.1-0.4,0.1-0.6c0-0.5-0.2-0.7-0.7-0.7c-0.4,0-0.8,0.3-1.4,0.8l-0.7,3.7h-1.2L104.8,8.2z"/>
	<path d="M111.3,10.6h1.2l-1.1,5.4h-1.2L111.3,10.6z M111.5,9c0-0.4,0.4-0.8,0.8-0.8c0.3,0,0.7,0.2,0.7,0.6c0,0.4-0.4,0.8-0.8,0.8
		C111.9,9.6,111.5,9.4,111.5,9z"/>
	<path d="M117.3,10.5c0.7,0,1.1,0.3,1.4,0.7l-0.7,0.7c-0.3-0.3-0.5-0.4-0.8-0.4c-1,0-1.8,1.1-1.8,2.5c0,0.8,0.4,1.3,1.1,1.3
		c0.4,0,0.7-0.2,1-0.4l0.5,0.7c-0.4,0.3-1,0.6-1.8,0.6c-1.2,0-2.1-0.8-2.1-2.2C114.2,12,115.6,10.5,117.3,10.5z"/>
	<path d="M120.4,14.5c0.4,0.5,0.8,0.7,1.3,0.7c0.5,0,0.9-0.3,0.9-0.7c0-0.3-0.3-0.5-1-0.9c-0.7-0.4-1.2-0.8-1.2-1.5
		c0-1,0.9-1.7,2-1.7c0.7,0,1.3,0.3,1.7,0.8l-0.7,0.6c-0.3-0.3-0.6-0.5-1-0.5c-0.5,0-0.9,0.3-0.9,0.7c0,0.4,0.5,0.6,0.9,0.8
		c0.8,0.4,1.2,0.9,1.2,1.5c0,1-0.9,1.7-2.1,1.7c-0.7,0-1.5-0.4-1.9-1L120.4,14.5z"/>
	<path d="M130,11.5h-0.8l0.2-0.9l0.8-0.1l0.4-1.5h1l-0.3,1.5h1.3l-0.2,0.9h-1.3l-0.6,2.7c0,0.1,0,0.3,0,0.4c0,0.4,0.2,0.6,0.6,0.6
		c0.2,0,0.4-0.1,0.5-0.1l0.2,0.8c-0.3,0.1-0.6,0.2-1.1,0.2c-1,0-1.4-0.6-1.4-1.3c0-0.2,0-0.4,0.1-0.6L130,11.5z"/>
	<path d="M133.8,13.9c0-2.1,1.5-3.5,3-3.5c1.2,0,2,0.8,2,2.2c0,2.1-1.5,3.5-3,3.5C134.6,16.1,133.8,15.3,133.8,13.9z M135,13.9
		c0,0.8,0.3,1.3,1,1.3c0.9,0,1.7-1.1,1.7-2.5c0-0.8-0.3-1.3-0.9-1.3C135.8,11.4,135,12.5,135,13.9z"/>
	<path d="M144.2,10.6h1.2l0.3,2.9c0.1,0.5,0.1,1.1,0.1,1.6h0c0.3-0.6,0.5-1.1,0.8-1.6l1.4-2.9h1.2l-2.8,5.4H145L144.2,10.6z"/>
	<path d="M151.2,10.6h1.2l-1.1,5.4h-1.2L151.2,10.6z M151.4,9c0-0.4,0.4-0.8,0.8-0.8c0.3,0,0.7,0.2,0.7,0.6c0,0.4-0.4,0.8-0.8,0.8
		C151.7,9.6,151.4,9.4,151.4,9z"/>
	<path d="M157.1,10.5c1.3,0,1.7,0.9,1.7,2c0,0.5-0.2,1-0.2,1.1h-3.3c-0.1,1.1,0.5,1.6,1.3,1.6c0.4,0,0.8-0.2,1.1-0.4l0.4,0.8
		c-0.4,0.3-1.1,0.6-1.8,0.6c-1.3,0-2.2-0.8-2.2-2.3C154.1,11.8,155.6,10.5,157.1,10.5z M157.7,12.9c0-0.1,0.1-0.3,0.1-0.5
		c0-0.5-0.2-1-0.9-1c-0.6,0-1.3,0.5-1.6,1.5H157.7z"/>
	<path d="M160.8,10.6h1.2l0.1,2.9c0,0.5,0,1,0,1.6h0c0.2-0.5,0.4-1,0.6-1.6l1.3-2.9h1.1l0.1,2.9c0,0.5,0,1,0,1.6h0
		c0.2-0.5,0.4-1,0.6-1.6l1.2-2.9h1.1l-2.4,5.4h-1.4l-0.1-2.6c0-0.5,0-1,0-1.6h0c-0.2,0.5-0.4,1.1-0.6,1.6l-1.1,2.6h-1.4L160.8,10.6z
		"/>
	<path d="M173.7,11.5H173l0.2-0.9l0.8-0.1l0.4-1.5h1l-0.3,1.5h1.3l-0.2,0.9h-1.3l-0.6,2.7c0,0.1,0,0.3,0,0.4c0,0.4,0.2,0.6,0.6,0.6
		c0.2,0,0.4-0.1,0.5-0.1l0.2,0.8c-0.3,0.1-0.6,0.2-1.1,0.2c-1,0-1.4-0.6-1.4-1.3c0-0.2,0-0.4,0.1-0.6L173.7,11.5z"/>
	<path d="M179.1,8.2h1.2l-0.5,2.3l-0.2,0.8h0c0.5-0.5,1.1-0.8,1.8-0.8c0.9,0,1.3,0.5,1.3,1.4c0,0.3,0,0.5-0.1,0.8l-0.7,3.4h-1.2
		l0.7-3.3c0-0.3,0.1-0.4,0.1-0.6c0-0.5-0.2-0.7-0.7-0.7c-0.4,0-0.8,0.3-1.4,0.8l-0.7,3.7h-1.2L179.1,8.2z"/>
	<path d="M187.6,10.5c1.3,0,1.7,0.9,1.7,2c0,0.5-0.2,1-0.2,1.1h-3.3c-0.1,1.1,0.5,1.6,1.3,1.6c0.4,0,0.8-0.2,1.1-0.4l0.4,0.8
		c-0.4,0.3-1.1,0.6-1.8,0.6c-1.3,0-2.2-0.8-2.2-2.3C184.6,11.8,186.1,10.5,187.6,10.5z M188.2,12.9c0-0.1,0.1-0.3,0.1-0.5
		c0-0.5-0.2-1-0.9-1c-0.6,0-1.3,0.5-1.6,1.5H188.2z"/>
	<path d="M198.6,10.1l0.4-1.9h1.2l-1.6,7.8h-1l0.1-0.7h0c-0.5,0.5-1.2,0.9-1.8,0.9c-0.9,0-1.5-0.7-1.5-2c0-2.1,1.4-3.7,2.9-3.7
		c0.5,0,1,0.3,1.2,0.7h0L198.6,10.1z M197.8,14.3l0.4-2.2c-0.2-0.5-0.6-0.7-0.9-0.7c-0.9,0-1.7,1.2-1.7,2.6c0,0.8,0.3,1.2,0.8,1.2
		C196.8,15.2,197.3,14.9,197.8,14.3z"/>
	<path d="M204.3,10.5c0.5,0,1,0.3,1.2,0.8h0l0.2-0.6h0.9l-1.1,5.4h-1l0.1-0.7h0c-0.5,0.5-1.2,0.9-1.8,0.9c-0.9,0-1.5-0.7-1.5-2
		C201.4,12.1,202.8,10.5,204.3,10.5z M204.8,14.3l0.4-2.2c-0.2-0.5-0.6-0.7-0.9-0.7c-0.9,0-1.7,1.2-1.7,2.6c0,0.8,0.3,1.2,0.8,1.2
		C203.9,15.2,204.4,14.9,204.8,14.3z"/>
	<path d="M209.4,11.5h-0.8l0.2-0.9l0.8-0.1l0.4-1.5h1l-0.3,1.5h1.3l-0.2,0.9h-1.3l-0.6,2.7c0,0.1,0,0.3,0,0.4c0,0.4,0.2,0.6,0.6,0.6
		c0.2,0,0.4-0.1,0.5-0.1l0.2,0.8c-0.3,0.1-0.6,0.2-1.1,0.2c-1,0-1.4-0.6-1.4-1.3c0-0.2,0-0.4,0.1-0.6L209.4,11.5z"/>
	<path d="M216.2,10.5c0.5,0,1,0.3,1.2,0.8h0l0.2-0.6h0.9l-1.1,5.4h-1l0.1-0.7h0c-0.5,0.5-1.2,0.9-1.8,0.9c-0.9,0-1.5-0.7-1.5-2
		C213.2,12.1,214.7,10.5,216.2,10.5z M216.7,14.3l0.4-2.2c-0.2-0.5-0.6-0.7-0.9-0.7c-0.9,0-1.7,1.2-1.7,2.6c0,0.8,0.3,1.2,0.8,1.2
		C215.7,15.2,216.3,14.9,216.7,14.3z"/>
</g>
</svg>
