<?xml version="1.0" encoding="utf-8"?>
<!-- Generator: Adobe Illustrator 20.0.0, SVG Export Plug-In . SVG Version: 6.00 Build 0)  -->
<svg version="1.1" id="Capa_1" xmlns="http://www.w3.org/2000/svg" xmlns:xlink="http://www.w3.org/1999/xlink" x="0px" y="0px"
	 viewBox="0 0 190.5 88.3" style="enable-background:new 0 0 190.5 88.3;" xml:space="preserve">
<style type="text/css">
	.st0{fill:#FFFFFF;stroke:#000000;stroke-width:0.25;stroke-miterlimit:10;}
	.st1{opacity:0.5;fill:none;stroke:#000000;stroke-width:0.25;stroke-miterlimit:10;enable-background:new    ;}
	.st2{enable-background:new    ;}
	.st3{fill:#44B254;}
	.st4{fill:#495E4A;}
</style>
<polygon class="st0" points="190.4,80.4 104.5,80.4 96.9,88.1 89.3,80.4 0.1,80.4 0.1,0.1 190.4,0.1 "/>
<line class="st1" x1="9.6" y1="52.9" x2="179.9" y2="52.9"/>
<g>
	<g class="st2">
		<path class="st3" d="M11.1,14c0.6,0.5,1.4,0.9,2.1,0.9c0.8,0,1.2-0.3,1.2-0.8s-0.5-0.7-1.2-1l-1.1-0.5c-0.9-0.4-1.7-1.1-1.7-2.3
			c0-1.4,1.2-2.5,3-2.5c1,0,2,0.4,2.7,1.1l-1,1.2c-0.6-0.4-1.1-0.7-1.8-0.7s-1.1,0.3-1.1,0.8s0.6,0.7,1.3,1l1.1,0.4
			c1,0.4,1.7,1.1,1.7,2.3c0,1.4-1.2,2.6-3.2,2.6c-1.1,0-2.3-0.4-3.1-1.2L11.1,14z"/>
		<path class="st3" d="M17.5,8c0-0.6,0.5-1,1.1-1s1.1,0.4,1.1,1s-0.5,1-1.1,1S17.5,8.5,17.5,8z M17.7,9.9h1.9v6.4h-1.9V9.9z"/>
		<path class="st3" d="M22.6,13l-1.9-3.1h2.1l0.6,1c0.2,0.4,0.4,0.7,0.5,1.1H24c0.1-0.4,0.3-0.7,0.4-1.1l0.4-1h2l-1.9,3.3l2,3.1
			h-2.1l-0.6-1.1c-0.2-0.4-0.4-0.8-0.6-1.1h-0.1c-0.2,0.4-0.3,0.7-0.5,1.1l-0.5,1.1h-2L22.6,13z"/>
		<path class="st3" d="M30.6,9.9h1.6l0.1,0.8h0.1c0.5-0.5,1.1-1,2-1s1.5,0.4,1.8,1.1c0.6-0.6,1.2-1.1,2-1.1c1.4,0,2,1,2,2.6v4h-1.9
			v-3.8c0-0.9-0.2-1.2-0.8-1.2c-0.3,0-0.7,0.2-1.1,0.6v4.4h-1.9v-3.8c0-0.9-0.2-1.2-0.8-1.2c-0.3,0-0.7,0.2-1.1,0.6v4.4h-1.9
			L30.6,9.9L30.6,9.9z"/>
		<path class="st3" d="M44.6,9.7c1.6,0,3.1,1.2,3.1,3.4c0,2.1-1.5,3.4-3.1,3.4s-3.1-1.2-3.1-3.4C41.4,11,42.9,9.7,44.6,9.7z
			 M44.6,15c0.8,0,1.2-0.7,1.2-1.8s-0.4-1.8-1.2-1.8s-1.2,0.7-1.2,1.8C43.4,14.2,43.8,15,44.6,15z"/>
		<path class="st3" d="M49,9.9h1.6l0.1,0.8h0.1c0.5-0.5,1.2-1,2.1-1c1.4,0,2,1,2,2.6v4H53v-3.8c0-0.9-0.2-1.2-0.8-1.2
			c-0.5,0-0.8,0.2-1.2,0.6v4.4h-2V9.9z"/>
		<path class="st3" d="M56.7,11.4h-0.9V10l1-0.1L57,8.2h1.6v1.7h1.5v1.5h-1.5V14c0,0.7,0.3,1,0.8,1c0.2,0,0.4-0.1,0.6-0.1l0.3,1.4
			c-0.3,0.1-0.8,0.2-1.4,0.2c-1.6,0-2.2-1-2.2-2.5C56.7,14,56.7,11.4,56.7,11.4z"/>
		<path class="st3" d="M61.4,7.2h1.9v2.2l-0.1,1.2c0.5-0.4,1.1-0.9,2-0.9c1.4,0,2,1,2,2.6v4h-1.9v-3.8c0-0.9-0.2-1.2-0.8-1.2
			c-0.5,0-0.8,0.2-1.2,0.6v4.4h-1.9C61.4,16.3,61.4,7.2,61.4,7.2z"/>
		<path class="st3" d="M69.1,14.4c0.6,0.4,1.1,0.7,1.7,0.7s0.8-0.2,0.8-0.5c0-0.4-0.7-0.6-1.3-0.9c-0.8-0.3-1.7-0.8-1.7-1.9
			c0-1.2,1-2,2.5-2c1,0,1.7,0.4,2.3,0.8l-0.9,1.1c-0.5-0.3-0.9-0.5-1.4-0.5s-0.7,0.2-0.7,0.5c0,0.4,0.6,0.6,1.3,0.8
			c0.8,0.3,1.7,0.8,1.7,1.9c0,1.2-0.9,2.1-2.7,2.1c-0.8,0-1.8-0.4-2.5-0.9L69.1,14.4z"/>
		<path class="st3" d="M80.1,9.7c1.6,0,3.1,1.2,3.1,3.4c0,2.1-1.5,3.4-3.1,3.4S77,15.3,77,13.1C76.9,11,78.4,9.7,80.1,9.7z M80.1,15
			c0.8,0,1.2-0.7,1.2-1.8s-0.4-1.8-1.2-1.8c-0.8,0-1.2,0.7-1.2,1.8C78.9,14.2,79.3,15,80.1,15z"/>
		<path class="st3" d="M88.1,8.7c-0.2-0.1-0.5-0.1-0.7-0.1c-0.5,0-0.7,0.3-0.7,0.9v0.4h1.2v1.5h-1.2v5h-1.9v-5h-0.9V10l0.9-0.1V9.6
			c0-1.4,0.6-2.5,2.4-2.5c0.5,0,1,0.1,1.3,0.2L88.1,8.7z"/>
		<path class="st3" d="M94.3,9.7c1.8,0,2.7,1.3,2.7,3.1c0,0.3,0,0.6-0.1,0.8H93c0.2,1,0.8,1.4,1.7,1.4c0.5,0,0.9-0.1,1.4-0.4
			l0.6,1.2c-0.7,0.5-1.5,0.7-2.3,0.7c-1.8,0-3.3-1.2-3.3-3.4C91.2,11,92.7,9.7,94.3,9.7z M95.4,12.5c0-0.7-0.3-1.3-1.1-1.3
			c-0.6,0-1.1,0.4-1.2,1.3H95.4z"/>
		<path class="st3" d="M99.4,13l-1.9-3.1h2.1l0.6,1c0.2,0.4,0.4,0.7,0.5,1.1h0.1c0.1-0.4,0.3-0.7,0.4-1.1l0.4-1h2l-1.9,3.3l2,3.1
			h-2.1l-0.6-1.1c-0.2-0.4-0.4-0.8-0.6-1.1h-0.1c-0.2,0.4-0.3,0.7-0.5,1.1l-0.5,1.1h-2L99.4,13z"/>
		<path class="st3" d="M107.4,9.7c0.8,0,1.5,0.3,1.9,0.7l-0.9,1.2c-0.3-0.3-0.6-0.4-0.9-0.4c-0.9,0-1.5,0.7-1.5,1.8s0.6,1.8,1.4,1.8
			c0.5,0,0.8-0.2,1.2-0.5l0.8,1.2c-0.6,0.5-1.4,0.8-2.1,0.8c-1.8,0-3.2-1.2-3.2-3.4C104.1,11,105.7,9.7,107.4,9.7z"/>
		<path class="st3" d="M110.5,7.2h1.9v7.2c0,0.4,0.2,0.5,0.3,0.5c0.1,0,0.1,0,0.2,0l0.2,1.4c-0.2,0.1-0.5,0.2-1,0.2
			c-1.3,0-1.8-0.9-1.8-2.2V7.2H110.5z"/>
		<path class="st3" d="M114.2,9.9h1.9v3.8c0,0.9,0.2,1.2,0.8,1.2c0.5,0,0.8-0.2,1.1-0.7V9.9h1.9v6.4h-1.6l-0.1-0.9l0,0
			c-0.5,0.7-1.1,1.1-2,1.1c-1.4,0-2-1-2-2.6C114.2,13.9,114.2,9.9,114.2,9.9z"/>
		<path class="st3" d="M121.9,14.4c0.6,0.4,1.1,0.7,1.7,0.7s0.8-0.2,0.8-0.5c0-0.4-0.7-0.6-1.3-0.9c-0.8-0.3-1.7-0.8-1.7-1.9
			c0-1.2,1-2,2.5-2c1,0,1.7,0.4,2.3,0.8l-0.9,1.1c-0.5-0.3-0.9-0.5-1.4-0.5s-0.7,0.2-0.7,0.5c0,0.4,0.6,0.6,1.3,0.8
			c0.8,0.3,1.7,0.8,1.7,1.9c0,1.2-0.9,2.1-2.7,2.1c-0.8,0-1.8-0.4-2.5-0.9L121.9,14.4z"/>
		<path class="st3" d="M127.2,8c0-0.6,0.5-1,1.1-1c0.7,0,1.1,0.4,1.1,1s-0.5,1-1.1,1S127.2,8.5,127.2,8z M127.4,9.9h1.9v6.4h-1.9
			V9.9z"/>
		<path class="st3" d="M130.3,9.9h1.9l0.8,3c0.2,0.6,0.3,1.3,0.5,2h0.1c0.2-0.7,0.3-1.4,0.5-2l0.8-3h1.8l-2.1,6.4h-2.2L130.3,9.9z"
			/>
		<path class="st3" d="M140.3,9.7c1.8,0,2.7,1.3,2.7,3.1c0,0.3,0,0.6-0.1,0.8H139c0.2,1,0.8,1.4,1.7,1.4c0.5,0,0.9-0.1,1.4-0.4
			l0.6,1.2c-0.7,0.5-1.5,0.7-2.3,0.7c-1.8,0-3.3-1.2-3.3-3.4C137.3,11,138.8,9.7,140.3,9.7z M141.5,12.5c0-0.7-0.3-1.3-1.1-1.3
			c-0.6,0-1.1,0.4-1.2,1.3H141.5z"/>
	</g>
	<g class="st2">
		<path class="st3" d="M10.4,22.2h1.9v2.2l-0.1,1c0.5-0.4,1.1-0.7,1.7-0.7c1.6,0,2.5,1.3,2.5,3.3c0,2.2-1.3,3.5-2.7,3.5
			c-0.6,0-1.2-0.3-1.7-0.8h-0.1l-0.2,0.7h-1.5v-9.2H10.4z M13.4,29.9c0.7,0,1.2-0.6,1.2-1.9c0-1.2-0.4-1.7-1.1-1.7
			c-0.4,0-0.7,0.2-1.1,0.6v2.6C12.7,29.8,13.1,29.9,13.4,29.9z"/>
		<path class="st3" d="M17.9,24.9h1.6l0.1,1.1h0.1c0.5-0.9,1.2-1.3,1.8-1.3c0.4,0,0.6,0.1,0.8,0.1L22,26.5c-0.2-0.1-0.4-0.1-0.7-0.1
			c-0.5,0-1.1,0.3-1.4,1.2v3.7H18v-6.4H17.9z"/>
		<path class="st3" d="M25.6,24.7c1.8,0,2.7,1.3,2.7,3.1c0,0.3,0,0.6-0.1,0.8h-3.9c0.2,1,0.8,1.4,1.7,1.4c0.5,0,0.9-0.1,1.4-0.4
			l0.6,1.2c-0.7,0.5-1.5,0.7-2.3,0.7c-1.8,0-3.3-1.2-3.3-3.4C22.6,26,24.1,24.7,25.6,24.7z M26.7,27.5c0-0.7-0.3-1.3-1.1-1.3
			c-0.6,0-1.1,0.4-1.2,1.3H26.7z"/>
		<path class="st3" d="M32.9,27.2c0-0.6-0.3-0.9-1-0.9c-0.5,0-1.1,0.2-1.7,0.6l-0.7-1.3c0.8-0.5,1.7-0.8,2.8-0.8
			c1.7,0,2.6,0.9,2.6,2.9v3.7h-1.6l-0.1-0.7l0,0c-0.5,0.5-1.2,0.8-1.9,0.8c-1.2,0-1.9-0.9-1.9-2C29.3,28.2,30.4,27.5,32.9,27.2z
			 M31.9,30c0.4,0,0.7-0.2,1.1-0.5v-1.1c-1.4,0.2-1.8,0.6-1.8,1.1C31.1,29.8,31.4,30,31.9,30z"/>
		<path class="st3" d="M36.8,29.4c0.6,0.4,1.1,0.7,1.7,0.7c0.6,0,0.8-0.2,0.8-0.5c0-0.4-0.6-0.6-1.3-0.9c-0.8-0.3-1.7-0.8-1.7-1.9
			c0-1.2,1-2,2.5-2c1,0,1.7,0.4,2.3,0.8l-0.9,1.1c-0.5-0.3-0.9-0.5-1.4-0.5s-0.7,0.2-0.7,0.5c0,0.4,0.6,0.6,1.3,0.8
			c0.8,0.3,1.7,0.8,1.7,1.9c0,1.2-0.9,2.1-2.7,2.1c-0.8,0-1.8-0.4-2.5-0.9L36.8,29.4z"/>
		<path class="st3" d="M42.5,26.4h-0.9V25l1-0.1l0.2-1.7h1.6v1.7h1.5v1.5h-1.5V29c0,0.7,0.3,1,0.8,1c0.2,0,0.4-0.1,0.6-0.1l0.3,1.4
			c-0.3,0.1-0.8,0.2-1.4,0.2c-1.6,0-2.2-1-2.2-2.5C42.5,29,42.5,26.4,42.5,26.4z"/>
		<path class="st3" d="M50.8,23.7c-0.2-0.1-0.5-0.1-0.7-0.1c-0.5,0-0.7,0.3-0.7,0.9v0.4h1.2v1.5h-1.2v5h-1.9v-5h-0.9V25l0.9-0.1
			v-0.4c0-1.4,0.6-2.5,2.4-2.5c0.5,0,1,0.1,1.3,0.2L50.8,23.7z"/>
		<path class="st3" d="M54.2,24.7c1.8,0,2.7,1.3,2.7,3.1c0,0.3,0,0.6-0.1,0.8H53c0.2,1,0.8,1.4,1.7,1.4c0.5,0,0.9-0.1,1.4-0.4
			l0.6,1.2c-0.7,0.5-1.5,0.7-2.3,0.7c-1.8,0-3.3-1.2-3.3-3.4C51.1,26,52.6,24.7,54.2,24.7z M55.3,27.5c0-0.7-0.3-1.3-1.1-1.3
			c-0.6,0-1.1,0.4-1.2,1.3H55.3z"/>
		<path class="st3" d="M60.9,24.7c1.8,0,2.7,1.3,2.7,3.1c0,0.3,0,0.6-0.1,0.8h-3.9c0.2,1,0.8,1.4,1.7,1.4c0.5,0,0.9-0.1,1.4-0.4
			l0.6,1.2c-0.7,0.5-1.5,0.7-2.3,0.7c-1.8,0-3.3-1.2-3.3-3.4C57.9,26,59.4,24.7,60.9,24.7z M62,27.5c0-0.7-0.3-1.3-1.1-1.3
			c-0.6,0-1.1,0.4-1.2,1.3H62z"/>
		<path class="st3" d="M67.3,24.7c0.7,0,1.1,0.3,1.6,0.7l-0.1-1v-2.2h1.9v9.1h-1.6L69,30.7l0,0c-0.5,0.5-1.1,0.8-1.7,0.8
			c-1.6,0-2.6-1.3-2.6-3.4C64.6,26,66,24.7,67.3,24.7z M67.8,29.9c0.4,0,0.7-0.2,1.1-0.6v-2.6c-0.3-0.3-0.7-0.4-1.1-0.4
			c-0.6,0-1.2,0.6-1.2,1.8C66.6,29.4,67,29.9,67.8,29.9z"/>
		<path class="st3" d="M72.3,23c0-0.6,0.5-1,1.1-1c0.7,0,1.1,0.4,1.1,1s-0.5,1-1.1,1C72.7,24,72.3,23.5,72.3,23z M72.4,24.9h1.9v6.4
			h-1.9V24.9z"/>
		<path class="st3" d="M76,24.9h1.6l0.1,0.8h0.1c0.5-0.5,1.2-1,2.1-1c1.4,0,2,1,2,2.6v4H80v-3.8c0-0.9-0.2-1.2-0.8-1.2
			c-0.5,0-0.8,0.2-1.2,0.6v4.4h-2V24.9z"/>
		<path class="st3" d="M84,31.2L84,31.2c-0.3-0.3-0.6-0.6-0.6-1.1s0.3-0.9,0.7-1.2v-0.1c-0.5-0.3-0.9-0.9-0.9-1.7
			c0-1.5,1.3-2.3,2.7-2.3c0.4,0,0.7,0.1,1,0.2h2.4v1.4h-1c0.1,0.2,0.2,0.5,0.2,0.8c0,1.5-1.1,2.2-2.5,2.2c-0.2,0-0.5,0-0.8-0.1
			C85,29.4,85,29.6,85,29.8c0,0.3,0.3,0.5,1,0.5h1c1.6,0,2.5,0.5,2.5,1.6c0,1.3-1.4,2.3-3.6,2.3c-1.5,0-2.7-0.5-2.7-1.6
			C83,31.9,83.4,31.5,84,31.2z M86.1,32.9c0.9,0,1.5-0.4,1.5-0.8c0-0.4-0.4-0.5-1-0.5h-0.7c-0.4,0-0.7,0-0.9-0.1
			c-0.2,0.2-0.4,0.4-0.4,0.6C84.6,32.6,85.2,32.9,86.1,32.9z M86.8,27.1c0-0.7-0.4-1-0.9-1s-0.9,0.4-0.9,1c0,0.7,0.4,1.1,0.9,1.1
			S86.8,27.8,86.8,27.1z"/>
	</g>
</g>
<g>
	<path class="st4" d="M15.1,41.3c0.9,0,1.7,0.5,2.2,1l-0.8,0.9c-0.4-0.4-0.8-0.6-1.4-0.6c-1.3,0-2.2,1.1-2.2,2.8
		c0,1.8,0.8,2.9,2.2,2.9c0.7,0,1.2-0.3,1.6-0.8l0.8,0.9C16.8,49,16,49.4,15,49.4c-2,0-3.6-1.4-3.6-4C11.4,42.8,13.1,41.3,15.1,41.3z
		"/>
	<path class="st4" d="M21.1,43.3c1.5,0,2.8,1.1,2.8,3.1c0,2-1.3,3.1-2.8,3.1c-1.5,0-2.8-1.1-2.8-3.1C18.3,44.4,19.6,43.3,21.1,43.3z
		 M21.1,48.3c0.9,0,1.4-0.8,1.4-2c0-1.2-0.5-2-1.4-2s-1.4,0.8-1.4,2C19.7,47.5,20.2,48.3,21.1,48.3z"/>
	<path class="st4" d="M24.4,43.4h1.4l0.9,3.1c0.2,0.6,0.3,1.2,0.5,1.8h0c0.2-0.6,0.3-1.2,0.5-1.8l0.9-3.1h1.3l-2,5.9h-1.6L24.4,43.4
		z"/>
	<path class="st4" d="M33.4,43.3c1.6,0,2.4,1.2,2.4,2.8c0,0.3,0,0.5-0.1,0.6H32c0.1,1.1,0.8,1.7,1.7,1.7c0.5,0,0.9-0.2,1.4-0.4
		l0.5,0.9c-0.6,0.4-1.3,0.6-2,0.6c-1.6,0-2.9-1.1-2.9-3.1C30.6,44.4,32,43.3,33.4,43.3z M34.6,45.8c0-0.9-0.4-1.5-1.2-1.5
		c-0.7,0-1.3,0.5-1.4,1.5H34.6z"/>
	<path class="st4" d="M37.1,43.4h1.1l0.1,1h0c0.4-0.8,1-1.2,1.7-1.2c0.3,0,0.5,0,0.7,0.1l-0.2,1.2c-0.2-0.1-0.4-0.1-0.6-0.1
		c-0.5,0-1,0.3-1.4,1.2v3.6h-1.4V43.4z"/>
	<path class="st4" d="M44.5,45.5c0-0.6-0.3-1.2-1.1-1.2c-0.6,0-1.1,0.3-1.7,0.6L41.3,44c0.6-0.4,1.5-0.8,2.4-0.8
		c1.5,0,2.2,0.9,2.2,2.5v3.5h-1.1l-0.1-0.6h0c-0.5,0.4-1.1,0.8-1.8,0.8c-1,0-1.8-0.7-1.8-1.7C41,46.5,42.1,45.8,44.5,45.5z
		 M43.2,48.4c0.5,0,0.9-0.2,1.3-0.6v-1.3c-1.6,0.2-2.1,0.6-2.1,1.2C42.4,48.1,42.7,48.4,43.2,48.4z"/>
	<path class="st4" d="M48,49.1L48,49.1c-0.3-0.2-0.5-0.6-0.5-1c0-0.5,0.3-0.9,0.6-1.1v0c-0.4-0.3-0.8-0.9-0.8-1.6
		c0-1.4,1.1-2.1,2.3-2.1c0.3,0,0.6,0.1,0.9,0.1h2.1v1h-1.1c0.2,0.2,0.3,0.6,0.3,1c0,1.3-1,2-2.2,2c-0.3,0-0.5,0-0.8-0.2
		c-0.2,0.2-0.3,0.3-0.3,0.6c0,0.3,0.2,0.5,1,0.5h1c1.4,0,2.2,0.4,2.2,1.5c0,1.2-1.2,2.1-3.1,2.1c-1.4,0-2.4-0.5-2.4-1.5
		C47.1,49.9,47.4,49.4,48,49.1z M49.8,51c0.9,0,1.6-0.4,1.6-0.9c0-0.5-0.4-0.6-1-0.6h-0.8c-0.3,0-0.6,0-0.8-0.1
		c-0.3,0.2-0.5,0.5-0.5,0.8C48.3,50.7,48.9,51,49.8,51z M50.7,45.4c0-0.7-0.4-1.2-1-1.2c-0.6,0-1,0.4-1,1.2c0,0.8,0.5,1.2,1,1.2
		C50.2,46.6,50.7,46.1,50.7,45.4z"/>
	<path class="st4" d="M55.9,43.3c1.6,0,2.4,1.2,2.4,2.8c0,0.3,0,0.5-0.1,0.6h-3.7c0.1,1.1,0.8,1.7,1.7,1.7c0.5,0,0.9-0.2,1.4-0.4
		l0.5,0.9c-0.6,0.4-1.3,0.6-2,0.6c-1.6,0-2.9-1.1-2.9-3.1C53.2,44.4,54.5,43.3,55.9,43.3z M57.2,45.8c0-0.9-0.4-1.5-1.2-1.5
		c-0.7,0-1.3,0.5-1.4,1.5H57.2z"/>
	<path class="st3" d="M11.9,60.5h1.4v3.2h3.2v-3.2h1.4v7.8h-1.4v-3.5h-3.2v3.5h-1.4V60.5z"/>
	<path class="st3" d="M19.4,64.3c0-2.5,1.4-4,3.5-4c2.1,0,3.5,1.5,3.5,4c0,2.5-1.4,4.1-3.5,4.1C20.8,68.4,19.4,66.9,19.4,64.3z
		 M24.9,64.3c0-1.8-0.8-2.8-2-2.8s-2,1.1-2,2.8c0,1.8,0.8,2.9,2,2.9S24.9,66.1,24.9,64.3z"/>
	<path class="st3" d="M27.9,60.5h1.4v7.8h-1.4V60.5z"/>
</g>
</svg>
