<?xml version="1.0" encoding="utf-8"?>
<!-- Generator: Adobe Illustrator 20.0.0, SVG Export Plug-In . SVG Version: 6.00 Build 0)  -->
<svg version="1.1" id="Capa_1" xmlns="http://www.w3.org/2000/svg" xmlns:xlink="http://www.w3.org/1999/xlink" x="0px" y="0px"
	 viewBox="0 0 190.5 88.3" style="enable-background:new 0 0 190.5 88.3;" xml:space="preserve">
<style type="text/css">
	.st0{fill:#FFFFFF;stroke:#000000;stroke-width:0.25;stroke-miterlimit:10;}
	.st1{opacity:0.5;fill:none;stroke:#000000;stroke-width:0.25;stroke-miterlimit:10;enable-background:new    ;}
	.st2{enable-background:new    ;}
	.st3{fill:#44B254;}
	.st4{fill:#495E4A;}
</style>
<polygon class="st0" points="190.4,80.5 104.5,80.5 96.9,88.1 89.3,80.5 0.1,80.5 0.1,0.1 190.4,0.1 "/>
<line class="st1" x1="9.6" y1="53" x2="179.9" y2="53"/>
<g class="st2">
	<path class="st3" d="M10.7,12.9h2.1l2.4,4.5l0.9,2h0.1c-0.1-1-0.3-2.3-0.3-3.3v-3.2h2V22h-2.1l-2.4-4.6l-0.9-2h-0.1
		c0.1,1,0.3,2.2,0.3,3.3V22h-2C10.7,22,10.7,12.9,10.7,12.9z"/>
	<path class="st3" d="M22.8,14.9c1.8,0,3.4,1.3,3.4,3.6s-1.6,3.6-3.4,3.6s-3.4-1.3-3.4-3.6S21,14.9,22.8,14.9z M22.8,20.5
		c0.8,0,1.3-0.8,1.3-2s-0.4-2-1.3-2s-1.3,0.8-1.3,2S21.9,20.5,22.8,20.5z"/>
	<path class="st3" d="M27.9,16.7h-1v-1.5l1.1-0.1l0.2-1.8h1.7v1.8h1.7v1.6h-1.7v2.8c0,0.8,0.4,1.1,0.9,1.1c0.2,0,0.5-0.1,0.7-0.1
		l0.3,1.5c-0.4,0.1-0.9,0.3-1.5,0.3c-1.7,0-2.4-1.1-2.4-2.7C27.9,19.6,27.9,16.7,27.9,16.7z"/>
	<path class="st3" d="M35.9,12.2H38v2.4l-0.1,1.2c0.5-0.5,1.2-1,2.1-1c1.5,0,2.2,1.1,2.2,2.8V22h-2.1v-4c0-1-0.3-1.3-0.9-1.3
		c-0.5,0-0.8,0.2-1.3,0.7V22h-2.1L35.9,12.2L35.9,12.2z"/>
	<path class="st3" d="M47.5,17.5c0-0.6-0.4-1-1.1-1c-0.6,0-1.2,0.2-1.8,0.6l-0.7-1.4c0.9-0.5,1.9-0.9,3-0.9c1.8,0,2.8,1,2.8,3.1v4
		H48l-0.2-0.7l0,0c-0.6,0.5-1.2,0.9-2,0.9c-1.3,0-2.1-0.9-2.1-2.1C43.6,18.6,44.8,17.8,47.5,17.5z M46.4,20.6c0.5,0,0.8-0.2,1.1-0.6
		v-1.2c-1.5,0.2-1.9,0.6-1.9,1.1S45.9,20.6,46.4,20.6z"/>
	<path class="st3" d="M50.6,15.1h2.1l0.9,3.3c0.2,0.7,0.4,1.4,0.5,2.1h0.1c0.2-0.7,0.4-1.5,0.5-2.1l0.9-3.3h2L55.3,22h-2.4
		L50.6,15.1z"/>
	<path class="st3" d="M58.5,13c0-0.6,0.5-1.1,1.2-1.1s1.2,0.4,1.2,1.1c0,0.6-0.5,1.1-1.2,1.1C59,14,58.5,13.6,58.5,13z M58.7,15.1
		h2.1V22h-2.1V15.1z"/>
	<path class="st3" d="M62.5,15.1h1.7l0.1,0.9h0.1c0.6-0.6,1.3-1.1,2.2-1.1c1.5,0,2.2,1.1,2.2,2.8V22h-2.1v-4c0-1-0.3-1.3-0.9-1.3
		c-0.5,0-0.8,0.2-1.3,0.7V22h-2.1v-6.9H62.5z"/>
	<path class="st3" d="M71.1,21.8L71.1,21.8c-0.4-0.3-0.6-0.7-0.6-1.2s0.3-1,0.8-1.3v-0.1c-0.5-0.3-0.9-1-0.9-1.8
		c0-1.7,1.4-2.5,2.9-2.5c0.4,0,0.8,0.1,1.1,0.2h2.5v1.5h-1.1c0.1,0.2,0.2,0.5,0.2,0.9c0,1.6-1.2,2.3-2.7,2.3c-0.3,0-0.5,0-0.8-0.1
		c-0.2,0.2-0.3,0.3-0.3,0.5c0,0.4,0.3,0.5,1.1,0.5h1.1c1.7,0,2.6,0.5,2.6,1.8c0,1.4-1.5,2.5-3.9,2.5c-1.6,0-2.9-0.5-2.9-1.8
		C70.1,22.6,70.4,22.2,71.1,21.8z M73.3,23.7c0.9,0,1.6-0.4,1.6-0.9c0-0.4-0.4-0.5-1.1-0.5h-0.7c-0.5,0-0.8,0-1-0.1
		c-0.3,0.2-0.4,0.4-0.4,0.7C71.8,23.4,72.4,23.7,73.3,23.7z M74.1,17.4c0-0.7-0.4-1.1-1-1.1s-1,0.4-1,1.1c0,0.8,0.4,1.2,1,1.2
		S74.1,18.2,74.1,17.4z"/>
	<path class="st3" d="M84.6,17.5c0-0.6-0.4-1-1.1-1c-0.6,0-1.2,0.2-1.8,0.6L81,15.7c0.9-0.5,1.9-0.9,3-0.9c1.8,0,2.8,1,2.8,3.1v4H85
		l-0.2-0.7l0,0c-0.6,0.5-1.2,0.9-2,0.9c-1.3,0-2.1-0.9-2.1-2.1C80.7,18.6,81.8,17.8,84.6,17.5z M83.4,20.6c0.5,0,0.8-0.2,1.1-0.6
		v-1.2c-1.5,0.2-1.9,0.6-1.9,1.1S82.9,20.6,83.4,20.6z"/>
	<path class="st3" d="M88.4,15.1h1.7l0.1,0.9h0.1c0.6-0.6,1.3-1.1,2.2-1.1c1.5,0,2.2,1.1,2.2,2.8V22h-2.1v-4c0-1-0.3-1.3-0.9-1.3
		c-0.5,0-0.8,0.2-1.3,0.7V22h-2.1v-6.9H88.4z"/>
	<path class="st3" d="M100.1,17.5c0-0.6-0.3-1-1.1-1c-0.6,0-1.2,0.2-1.8,0.6l-0.7-1.4c0.9-0.5,1.9-0.9,3-0.9c1.8,0,2.8,1,2.8,3.1v4
		h-1.7l-0.2-0.7l0,0c-0.6,0.5-1.2,0.9-2,0.9c-1.3,0-2.1-0.9-2.1-2.1C96.1,18.6,97.3,17.8,100.1,17.5z M98.9,20.6
		c0.5,0,0.8-0.2,1.1-0.6v-1.2c-1.5,0.2-1.9,0.6-1.9,1.1S98.4,20.6,98.9,20.6z"/>
	<path class="st3" d="M106.7,14.9c2,0,3,1.4,3,3.3c0,0.4,0,0.7-0.1,0.9h-4.2c0.2,1.1,0.9,1.5,1.8,1.5c0.5,0,1-0.2,1.5-0.5l0.7,1.2
		c-0.7,0.5-1.6,0.8-2.5,0.8c-2,0-3.5-1.3-3.5-3.6C103.5,16.3,105.1,14.9,106.7,14.9z M108,17.8c0-0.8-0.3-1.4-1.2-1.4
		c-0.6,0-1.2,0.4-1.3,1.4H108z"/>
	<path class="st3" d="M111.1,15.1h1.7l0.1,0.9h0.1c0.6-0.6,1.2-1.1,2.1-1.1c1,0,1.6,0.4,1.9,1.2c0.6-0.6,1.3-1.2,2.2-1.2
		c1.5,0,2.2,1.1,2.2,2.8V22h-2.1v-4c0-1-0.3-1.3-0.9-1.3c-0.3,0-0.7,0.2-1.2,0.7V22h-2.1v-4c0-1-0.3-1.3-0.9-1.3
		c-0.3,0-0.7,0.2-1.2,0.7V22h-2.1v-6.9H111.1z"/>
	<path class="st3" d="M123,13c0-0.6,0.5-1.1,1.2-1.1s1.2,0.4,1.2,1.1c0,0.6-0.5,1.1-1.2,1.1C123.5,14,123,13.6,123,13z M123.1,15.1
		h2.1V22h-2.1V15.1z"/>
	<path class="st3" d="M130.6,17.5c0-0.6-0.3-1-1.1-1c-0.6,0-1.2,0.2-1.8,0.6l-0.7-1.4c0.9-0.5,1.9-0.9,3-0.9c1.8,0,2.8,1,2.8,3.1v4
		H131l-0.2-0.7l0,0c-0.6,0.5-1.2,0.9-2,0.9c-1.3,0-2.1-0.9-2.1-2.1C126.7,18.6,127.9,17.8,130.6,17.5z M129.5,20.6
		c0.5,0,0.8-0.2,1.1-0.6v-1.2c-1.5,0.2-1.9,0.6-1.9,1.1C128.7,20.4,129,20.6,129.5,20.6z"/>
</g>
<g>
	<path class="st4" d="M15.1,41.3c0.9,0,1.7,0.5,2.2,1l-0.8,0.9c-0.4-0.4-0.8-0.6-1.4-0.6c-1.3,0-2.2,1.1-2.2,2.8
		c0,1.8,0.8,2.9,2.2,2.9c0.7,0,1.2-0.3,1.6-0.8l0.8,0.9C16.8,49,16,49.4,15,49.4c-2,0-3.6-1.4-3.6-4C11.4,42.8,13.1,41.3,15.1,41.3z
		"/>
	<path class="st4" d="M21.1,43.3c1.5,0,2.8,1.1,2.8,3.1c0,2-1.3,3.1-2.8,3.1c-1.5,0-2.8-1.1-2.8-3.1C18.3,44.4,19.6,43.3,21.1,43.3z
		 M21.1,48.3c0.9,0,1.4-0.8,1.4-2c0-1.2-0.5-2-1.4-2s-1.4,0.8-1.4,2C19.7,47.5,20.2,48.3,21.1,48.3z"/>
	<path class="st4" d="M24.4,43.4h1.4l0.9,3.1c0.2,0.6,0.3,1.2,0.5,1.8h0c0.2-0.6,0.3-1.2,0.5-1.8l0.9-3.1h1.3l-2,5.9h-1.6L24.4,43.4
		z"/>
	<path class="st4" d="M33.4,43.3c1.6,0,2.4,1.2,2.4,2.8c0,0.3,0,0.5-0.1,0.6H32c0.1,1.1,0.8,1.7,1.7,1.7c0.5,0,0.9-0.2,1.4-0.4
		l0.5,0.9c-0.6,0.4-1.3,0.6-2,0.6c-1.6,0-2.9-1.1-2.9-3.1C30.6,44.4,32,43.3,33.4,43.3z M34.6,45.8c0-0.9-0.4-1.5-1.2-1.5
		c-0.7,0-1.3,0.5-1.4,1.5H34.6z"/>
	<path class="st4" d="M37.1,43.4h1.1l0.1,1h0c0.4-0.8,1-1.2,1.7-1.2c0.3,0,0.5,0,0.7,0.1l-0.2,1.2c-0.2-0.1-0.4-0.1-0.6-0.1
		c-0.5,0-1,0.3-1.4,1.2v3.6h-1.4V43.4z"/>
	<path class="st4" d="M44.5,45.5c0-0.6-0.3-1.2-1.1-1.2c-0.6,0-1.1,0.3-1.7,0.6L41.3,44c0.6-0.4,1.5-0.8,2.4-0.8
		c1.5,0,2.2,0.9,2.2,2.5v3.5h-1.1l-0.1-0.6h0c-0.5,0.4-1.1,0.8-1.8,0.8c-1,0-1.8-0.7-1.8-1.7C41,46.5,42.1,45.8,44.5,45.5z
		 M43.2,48.4c0.5,0,0.9-0.2,1.3-0.6v-1.3c-1.6,0.2-2.1,0.6-2.1,1.2C42.4,48.1,42.7,48.4,43.2,48.4z"/>
	<path class="st4" d="M48,49.1L48,49.1c-0.3-0.2-0.5-0.6-0.5-1c0-0.5,0.3-0.9,0.6-1.1v0c-0.4-0.3-0.8-0.9-0.8-1.6
		c0-1.4,1.1-2.1,2.3-2.1c0.3,0,0.6,0.1,0.9,0.1h2.1v1h-1.1c0.2,0.2,0.3,0.6,0.3,1c0,1.3-1,2-2.2,2c-0.3,0-0.5,0-0.8-0.2
		c-0.2,0.2-0.3,0.3-0.3,0.6c0,0.3,0.2,0.5,1,0.5h1c1.4,0,2.2,0.4,2.2,1.5c0,1.2-1.2,2.1-3.1,2.1c-1.4,0-2.4-0.5-2.4-1.5
		C47.1,49.9,47.4,49.4,48,49.1z M49.8,51c0.9,0,1.6-0.4,1.6-0.9c0-0.5-0.4-0.6-1-0.6h-0.8c-0.3,0-0.6,0-0.8-0.1
		c-0.3,0.2-0.5,0.5-0.5,0.8C48.3,50.7,48.9,51,49.8,51z M50.7,45.4c0-0.7-0.4-1.2-1-1.2c-0.6,0-1,0.4-1,1.2c0,0.8,0.5,1.2,1,1.2
		C50.2,46.6,50.7,46.1,50.7,45.4z"/>
	<path class="st4" d="M55.9,43.3c1.6,0,2.4,1.2,2.4,2.8c0,0.3,0,0.5-0.1,0.6h-3.7c0.1,1.1,0.8,1.7,1.7,1.7c0.5,0,0.9-0.2,1.4-0.4
		l0.5,0.9c-0.6,0.4-1.3,0.6-2,0.6c-1.6,0-2.9-1.1-2.9-3.1C53.2,44.4,54.5,43.3,55.9,43.3z M57.2,45.8c0-0.9-0.4-1.5-1.2-1.5
		c-0.7,0-1.3,0.5-1.4,1.5H57.2z"/>
	<path class="st3" d="M11.9,60.5h1.4v3.2h3.2v-3.2h1.4v7.8h-1.4v-3.5h-3.2v3.5h-1.4V60.5z"/>
	<path class="st3" d="M19.4,64.3c0-2.5,1.4-4,3.5-4c2.1,0,3.5,1.5,3.5,4c0,2.5-1.4,4.1-3.5,4.1C20.8,68.4,19.4,66.9,19.4,64.3z
		 M24.9,64.3c0-1.8-0.8-2.8-2-2.8s-2,1.1-2,2.8c0,1.8,0.8,2.9,2,2.9S24.9,66.1,24.9,64.3z"/>
	<path class="st3" d="M27.9,60.5h1.4v7.8h-1.4V60.5z"/>
</g>
</svg>
