<?xml version="1.0" encoding="utf-8"?>
<!-- Generator: Adobe Illustrator 20.0.0, SVG Export Plug-In . SVG Version: 6.00 Build 0)  -->
<svg version="1.1" id="Capa_1" xmlns="http://www.w3.org/2000/svg" xmlns:xlink="http://www.w3.org/1999/xlink" x="0px" y="0px"
	 viewBox="0 0 190.5 88.3" style="enable-background:new 0 0 190.5 88.3;" xml:space="preserve">
<style type="text/css">
	.st0{fill:#FFFFFF;stroke:#000000;stroke-width:0.25;stroke-miterlimit:10;}
	.st1{opacity:0.5;fill:none;stroke:#000000;stroke-width:0.25;stroke-miterlimit:10;enable-background:new    ;}
	.st2{enable-background:new    ;}
	.st3{fill:#44B254;}
	.st4{fill:#495E4A;}
</style>
<polygon class="st0" points="190.4,80.5 104.5,80.5 96.9,88.1 89.3,80.5 0.1,80.5 0.1,0.1 190.4,0.1 "/>
<line class="st1" x1="9.6" y1="53" x2="179.9" y2="53"/>
<g class="st2">
	<path class="st3" d="M10.7,12.9h2.2l1.5,4.1l0.5,1.6H15l0.5-1.6l1.5-4.1h2.2V22h-1.9v-3.3c0-0.9,0.2-2.2,0.3-3.1h-0.1l-0.8,2.1
		l-1.4,3.5h-0.8l-1.4-3.5l-0.7-2.1h-0.1c0.1,0.9,0.3,2.2,0.3,3.1V22h-1.9C10.7,22,10.7,12.9,10.7,12.9z"/>
	<path class="st3" d="M24.1,14.9c2,0,3,1.4,3,3.3c0,0.4,0,0.7-0.1,0.9h-4.2c0.2,1.1,0.9,1.5,1.8,1.5c0.5,0,1-0.2,1.5-0.5l0.7,1.2
		c-0.7,0.5-1.6,0.8-2.5,0.8c-2,0-3.5-1.3-3.5-3.6C20.8,16.3,22.4,14.9,24.1,14.9z M25.3,17.8c0-0.8-0.3-1.4-1.2-1.4
		c-0.6,0-1.2,0.4-1.3,1.4H25.3z"/>
	<path class="st3" d="M28.5,16.7h-1v-1.5l1.1-0.1l0.2-1.8h1.7v1.8h1.7v1.6h-1.7v2.8c0,0.8,0.4,1.1,0.9,1.1c0.2,0,0.5-0.1,0.7-0.1
		l0.3,1.5c-0.4,0.1-0.9,0.3-1.5,0.3c-1.7,0-2.4-1.1-2.4-2.7C28.5,19.6,28.5,16.7,28.5,16.7z"/>
	<path class="st3" d="M36.5,15.1h1.7l0.1,0.9h0.1c0.6-0.6,1.3-1.1,2.2-1.1c1.5,0,2.2,1.1,2.2,2.8V22h-2.1v-4c0-1-0.3-1.3-0.9-1.3
		c-0.5,0-0.8,0.2-1.3,0.7V22h-2.1L36.5,15.1L36.5,15.1z"/>
	<path class="st3" d="M47.3,14.9c2,0,3,1.4,3,3.3c0,0.4,0,0.7-0.1,0.9H46c0.2,1.1,0.9,1.5,1.8,1.5c0.5,0,1-0.2,1.5-0.5l0.7,1.2
		c-0.7,0.5-1.6,0.8-2.5,0.8c-2,0-3.5-1.3-3.5-3.6C44.1,16.3,45.7,14.9,47.3,14.9z M48.5,17.8c0-0.8-0.3-1.4-1.2-1.4
		c-0.6,0-1.2,0.4-1.3,1.4H48.5z"/>
	<path class="st3" d="M54.6,14.9c2,0,3,1.4,3,3.3c0,0.4,0,0.7-0.1,0.9h-4.2c0.2,1.1,0.9,1.5,1.8,1.5c0.5,0,1-0.2,1.5-0.5l0.7,1.2
		c-0.7,0.5-1.6,0.8-2.5,0.8c-2,0-3.5-1.3-3.5-3.6C51.3,16.3,52.9,14.9,54.6,14.9z M55.8,17.8c0-0.8-0.3-1.4-1.2-1.4
		c-0.6,0-1.2,0.4-1.3,1.4H55.8z"/>
	<path class="st3" d="M61.5,14.9c0.8,0,1.2,0.3,1.7,0.7l-0.1-1.1v-2.4h2.1V22h-1.7l-0.1-0.7h-0.1c-0.5,0.5-1.2,0.9-1.8,0.9
		c-1.7,0-2.8-1.4-2.8-3.6C58.6,16.3,60,14.9,61.5,14.9z M62,20.5c0.4,0,0.8-0.2,1.1-0.6V17c-0.4-0.3-0.8-0.4-1.1-0.4
		c-0.7,0-1.2,0.6-1.2,1.9C60.7,19.9,61.2,20.5,62,20.5z"/>
	<path class="st3" d="M73.8,13.8c-0.2-0.1-0.5-0.1-0.7-0.1c-0.5,0-0.8,0.3-0.8,1v0.4h1.2v1.6h-1.2V22h-2.1v-5.3h-0.9v-1.5l0.9-0.1
		v-0.4c0-1.5,0.7-2.7,2.6-2.7c0.6,0,1.1,0.1,1.4,0.3L73.8,13.8z"/>
	<path class="st3" d="M77.5,14.9c1.8,0,3.4,1.3,3.4,3.6s-1.6,3.6-3.4,3.6s-3.4-1.3-3.4-3.6S75.8,14.9,77.5,14.9z M77.5,20.5
		c0.8,0,1.3-0.8,1.3-2s-0.4-2-1.3-2s-1.3,0.8-1.3,2S76.7,20.5,77.5,20.5z"/>
	<path class="st3" d="M82.3,15.1H84l0.1,1.2h0.1c0.5-0.9,1.3-1.4,2-1.4c0.4,0,0.6,0.1,0.8,0.1l-0.3,1.8c-0.3-0.1-0.5-0.1-0.8-0.1
		c-0.5,0-1.2,0.3-1.5,1.3v4h-2.1C82.3,22,82.3,15.1,82.3,15.1z"/>
	<path class="st3" d="M94.7,13.8c-0.2-0.1-0.5-0.1-0.7-0.1c-0.5,0-0.8,0.3-0.8,1v0.4h1.2v1.6h-1.2V22h-2.1v-5.3h-0.9v-1.5l0.9-0.1
		v-0.4c0-1.5,0.7-2.7,2.6-2.7c0.6,0,1.1,0.1,1.4,0.3L94.7,13.8z"/>
	<path class="st3" d="M98.9,17.5c0-0.6-0.3-1-1.1-1c-0.6,0-1.2,0.2-1.8,0.6l-0.7-1.4c0.9-0.5,1.9-0.9,3-0.9c1.8,0,2.8,1,2.8,3.1v4
		h-1.7l-0.2-0.7l0,0c-0.6,0.5-1.2,0.9-2,0.9c-1.3,0-2.1-0.9-2.1-2.1C95,18.6,96.2,17.8,98.9,17.5z M97.8,20.6c0.5,0,0.8-0.2,1.1-0.6
		v-1.2C97.5,19,97,19.4,97,19.9S97.3,20.6,97.8,20.6z"/>
	<path class="st3" d="M102.8,15.1h1.7l0.1,0.9h0.1c0.6-0.6,1.2-1.1,2.1-1.1c1,0,1.6,0.4,1.9,1.2c0.6-0.6,1.3-1.2,2.2-1.2
		c1.5,0,2.2,1.1,2.2,2.8V22H111v-4c0-1-0.3-1.3-0.9-1.3c-0.4,0-0.7,0.2-1.2,0.7V22h-2.1v-4c0-1-0.3-1.3-0.9-1.3
		c-0.3,0-0.7,0.2-1.2,0.7V22h-2.1v-6.9H102.8z"/>
	<path class="st3" d="M114.6,13c0-0.6,0.5-1.1,1.2-1.1s1.2,0.4,1.2,1.1c0,0.6-0.5,1.1-1.2,1.1C115.1,14,114.6,13.6,114.6,13z
		 M114.8,15.1h2.1V22h-2.1V15.1z"/>
	<path class="st3" d="M118.6,12.2h2.1v7.7c0,0.4,0.2,0.6,0.4,0.6c0.1,0,0.1,0,0.3,0l0.3,1.5c-0.2,0.1-0.6,0.2-1,0.2
		c-1.4,0-1.9-0.9-1.9-2.3v-7.7H118.6z"/>
	<path class="st3" d="M123.2,23.1c0.7,0,1-0.4,1.2-0.9l0.1-0.4l-2.7-6.8h2.1l1,3c0.2,0.6,0.4,1.3,0.5,2h0.1c0.2-0.7,0.3-1.3,0.5-2
		l0.8-3h2l-2.4,7c-0.7,1.8-1.4,2.6-3,2.6c-0.4,0-0.7-0.1-1-0.1l0.4-1.6C122.9,23,123.1,23.1,123.2,23.1z"/>
	<path class="st3" d="M134.9,22.5v2h-2.1V15h1.7l0.1,0.7h0.1c0.5-0.5,1.2-0.9,2-0.9c1.7,0,2.7,1.4,2.7,3.5c0,2.4-1.4,3.8-2.9,3.8
		c-0.6,0-1.2-0.3-1.7-0.7L134.9,22.5z M136,20.5c0.7,0,1.3-0.6,1.3-2c0-1.2-0.4-1.9-1.2-1.9c-0.4,0-0.8,0.2-1.2,0.6V20
		C135.2,20.4,135.6,20.5,136,20.5z"/>
	<path class="st3" d="M140.8,12.2h2.1v7.7c0,0.4,0.2,0.6,0.4,0.6c0.1,0,0.1,0,0.3,0l0.3,1.5c-0.2,0.1-0.6,0.2-1,0.2
		c-1.4,0-1.9-0.9-1.9-2.3v-7.7H140.8z"/>
	<path class="st3" d="M148.5,17.5c0-0.6-0.4-1-1.1-1c-0.6,0-1.2,0.2-1.8,0.6l-0.7-1.4c0.9-0.5,1.9-0.9,3-0.9c1.8,0,2.8,1,2.8,3.1v4
		H149l-0.2-0.7l0,0c-0.6,0.5-1.2,0.9-2,0.9c-1.3,0-2.1-0.9-2.1-2.1C144.6,18.6,145.8,17.8,148.5,17.5z M147.4,20.6
		c0.5,0,0.8-0.2,1.1-0.6v-1.2c-1.5,0.2-1.9,0.6-1.9,1.1S146.9,20.6,147.4,20.6z"/>
	<path class="st3" d="M152.3,15.1h1.7l0.1,0.9h0.1c0.6-0.6,1.3-1.1,2.2-1.1c1.5,0,2.2,1.1,2.2,2.8V22h-2.1v-4c0-1-0.3-1.3-0.9-1.3
		c-0.5,0-0.8,0.2-1.3,0.7V22h-2.1v-6.9H152.3z"/>
	<path class="st3" d="M160.3,15.1h1.7l0.1,0.9h0.1c0.6-0.6,1.3-1.1,2.2-1.1c1.5,0,2.2,1.1,2.2,2.8V22h-2.1v-4c0-1-0.3-1.3-0.9-1.3
		c-0.5,0-0.8,0.2-1.3,0.7V22h-2.1v-6.9H160.3z"/>
	<path class="st3" d="M168.2,13c0-0.6,0.5-1.1,1.2-1.1s1.2,0.4,1.2,1.1c0,0.6-0.5,1.1-1.2,1.1C168.7,14,168.2,13.6,168.2,13z
		 M168.3,15.1h2.1V22h-2.1V15.1z"/>
	<path class="st3" d="M172.2,15.1h1.7L174,16h0.1c0.6-0.6,1.3-1.1,2.2-1.1c1.5,0,2.2,1.1,2.2,2.8V22h-2.1v-4c0-1-0.3-1.3-0.9-1.3
		c-0.5,0-0.8,0.2-1.3,0.7V22h-2.1v-6.9H172.2z"/>
	<path class="st3" d="M180.8,21.8L180.8,21.8c-0.4-0.3-0.6-0.7-0.6-1.2s0.3-1,0.8-1.3v-0.1c-0.5-0.3-0.9-1-0.9-1.8
		c0-1.7,1.4-2.5,2.9-2.5c0.4,0,0.8,0.1,1.1,0.2h2.5v1.5h-1.1c0.1,0.2,0.2,0.5,0.2,0.9c0,1.6-1.2,2.3-2.7,2.3c-0.3,0-0.5,0-0.8-0.1
		c-0.2,0.2-0.3,0.3-0.3,0.5c0,0.4,0.3,0.5,1.1,0.5h1.1c1.7,0,2.6,0.5,2.6,1.8c0,1.4-1.5,2.5-3.9,2.5c-1.6,0-2.9-0.5-2.9-1.8
		C179.8,22.6,180.1,22.2,180.8,21.8z M183,23.7c0.9,0,1.6-0.4,1.6-0.9c0-0.4-0.4-0.5-1.1-0.5h-0.7c-0.5,0-0.8,0-1-0.1
		c-0.3,0.2-0.4,0.4-0.4,0.7C181.5,23.4,182.1,23.7,183,23.7z M183.8,17.4c0-0.7-0.4-1.1-1-1.1s-1,0.4-1,1.1c0,0.8,0.4,1.2,1,1.2
		S183.8,18.2,183.8,17.4z"/>
</g>
<g>
	<path class="st4" d="M15.1,41.3c0.9,0,1.7,0.5,2.2,1l-0.8,0.9c-0.4-0.4-0.8-0.6-1.4-0.6c-1.3,0-2.2,1.1-2.2,2.8
		c0,1.8,0.8,2.9,2.2,2.9c0.7,0,1.2-0.3,1.6-0.8l0.8,0.9C16.8,49,16,49.4,15,49.4c-2,0-3.6-1.4-3.6-4C11.4,42.8,13.1,41.3,15.1,41.3z
		"/>
	<path class="st4" d="M21.1,43.3c1.5,0,2.8,1.1,2.8,3.1c0,2-1.3,3.1-2.8,3.1c-1.5,0-2.8-1.1-2.8-3.1C18.3,44.4,19.6,43.3,21.1,43.3z
		 M21.1,48.3c0.9,0,1.4-0.8,1.4-2c0-1.2-0.5-2-1.4-2s-1.4,0.8-1.4,2C19.7,47.5,20.2,48.3,21.1,48.3z"/>
	<path class="st4" d="M24.4,43.4h1.4l0.9,3.1c0.2,0.6,0.3,1.2,0.5,1.8h0c0.2-0.6,0.3-1.2,0.5-1.8l0.9-3.1h1.3l-2,5.9h-1.6L24.4,43.4
		z"/>
	<path class="st4" d="M33.4,43.3c1.6,0,2.4,1.2,2.4,2.8c0,0.3,0,0.5-0.1,0.6H32c0.1,1.1,0.8,1.7,1.7,1.7c0.5,0,0.9-0.2,1.4-0.4
		l0.5,0.9c-0.6,0.4-1.3,0.6-2,0.6c-1.6,0-2.9-1.1-2.9-3.1C30.6,44.4,32,43.3,33.4,43.3z M34.6,45.8c0-0.9-0.4-1.5-1.2-1.5
		c-0.7,0-1.3,0.5-1.4,1.5H34.6z"/>
	<path class="st4" d="M37.1,43.4h1.1l0.1,1h0c0.4-0.8,1-1.2,1.7-1.2c0.3,0,0.5,0,0.7,0.1l-0.2,1.2c-0.2-0.1-0.4-0.1-0.6-0.1
		c-0.5,0-1,0.3-1.4,1.2v3.6h-1.4V43.4z"/>
	<path class="st4" d="M44.5,45.5c0-0.6-0.3-1.2-1.1-1.2c-0.6,0-1.1,0.3-1.7,0.6L41.3,44c0.6-0.4,1.5-0.8,2.4-0.8
		c1.5,0,2.2,0.9,2.2,2.5v3.5h-1.1l-0.1-0.6h0c-0.5,0.4-1.1,0.8-1.8,0.8c-1,0-1.8-0.7-1.8-1.7C41,46.5,42.1,45.8,44.5,45.5z
		 M43.2,48.4c0.5,0,0.9-0.2,1.3-0.6v-1.3c-1.6,0.2-2.1,0.6-2.1,1.2C42.4,48.1,42.7,48.4,43.2,48.4z"/>
	<path class="st4" d="M48,49.1L48,49.1c-0.3-0.2-0.5-0.6-0.5-1c0-0.5,0.3-0.9,0.6-1.1v0c-0.4-0.3-0.8-0.9-0.8-1.6
		c0-1.4,1.1-2.1,2.3-2.1c0.3,0,0.6,0.1,0.9,0.1h2.1v1h-1.1c0.2,0.2,0.3,0.6,0.3,1c0,1.3-1,2-2.2,2c-0.3,0-0.5,0-0.8-0.2
		c-0.2,0.2-0.3,0.3-0.3,0.6c0,0.3,0.2,0.5,1,0.5h1c1.4,0,2.2,0.4,2.2,1.5c0,1.2-1.2,2.1-3.1,2.1c-1.4,0-2.4-0.5-2.4-1.5
		C47.1,49.9,47.4,49.4,48,49.1z M49.8,51c0.9,0,1.6-0.4,1.6-0.9c0-0.5-0.4-0.6-1-0.6h-0.8c-0.3,0-0.6,0-0.8-0.1
		c-0.3,0.2-0.5,0.5-0.5,0.8C48.3,50.7,48.9,51,49.8,51z M50.7,45.4c0-0.7-0.4-1.2-1-1.2c-0.6,0-1,0.4-1,1.2c0,0.8,0.5,1.2,1,1.2
		C50.2,46.6,50.7,46.1,50.7,45.4z"/>
	<path class="st4" d="M55.9,43.3c1.6,0,2.4,1.2,2.4,2.8c0,0.3,0,0.5-0.1,0.6h-3.7c0.1,1.1,0.8,1.7,1.7,1.7c0.5,0,0.9-0.2,1.4-0.4
		l0.5,0.9c-0.6,0.4-1.3,0.6-2,0.6c-1.6,0-2.9-1.1-2.9-3.1C53.2,44.4,54.5,43.3,55.9,43.3z M57.2,45.8c0-0.9-0.4-1.5-1.2-1.5
		c-0.7,0-1.3,0.5-1.4,1.5H57.2z"/>
	<path class="st3" d="M11.9,60.5h1.4v3.2h3.2v-3.2h1.4v7.8h-1.4v-3.5h-3.2v3.5h-1.4V60.5z"/>
	<path class="st3" d="M19.4,64.3c0-2.5,1.4-4,3.5-4c2.1,0,3.5,1.5,3.5,4c0,2.5-1.4,4.1-3.5,4.1C20.8,68.4,19.4,66.9,19.4,64.3z
		 M24.9,64.3c0-1.8-0.8-2.8-2-2.8s-2,1.1-2,2.8c0,1.8,0.8,2.9,2,2.9S24.9,66.1,24.9,64.3z"/>
	<path class="st3" d="M27.9,60.5h1.4v7.8h-1.4V60.5z"/>
</g>
</svg>
