<?xml version="1.0" encoding="utf-8"?>
<!-- Generator: Adobe Illustrator 20.0.0, SVG Export Plug-In . SVG Version: 6.00 Build 0)  -->
<svg version="1.1" id="Capa_1" xmlns="http://www.w3.org/2000/svg" xmlns:xlink="http://www.w3.org/1999/xlink" x="0px" y="0px"
	 viewBox="0 0 190.6 88.3" style="enable-background:new 0 0 190.6 88.3;" xml:space="preserve">
<style type="text/css">
	.st0{fill:#FFFFFF;stroke:#000000;stroke-width:0.25;stroke-miterlimit:10;}
	.st1{opacity:0.5;fill:none;stroke:#000000;stroke-width:0.25;stroke-miterlimit:10;enable-background:new    ;}
	.st2{enable-background:new    ;}
	.st3{fill:#44B254;}
	.st4{fill:#495E4A;}
</style>
<polygon class="st0" points="190.4,80.5 104.5,80.5 96.9,88.1 89.3,80.5 0.1,80.5 0.1,0.1 190.4,0.1 "/>
<line class="st1" x1="9.6" y1="53" x2="179.9" y2="53"/>
<g class="st2">
	<path class="st3" d="M14.6,11.7c1.1,0,2.1,0.6,2.7,1.2l-1.1,1.3c-0.5-0.4-0.9-0.7-1.5-0.7c-1.3,0-2.3,1.1-2.3,2.9
		c0,1.9,0.9,3,2.2,3c0.7,0,1.3-0.3,1.7-0.8l1.1,1.2c-0.8,0.9-1.8,1.3-2.9,1.3c-2.4,0-4.3-1.6-4.3-4.7C10.2,13.5,12.2,11.7,14.6,11.7
		z"/>
	<path class="st3" d="M18.4,14.1h2.1v4c0,1,0.3,1.3,0.9,1.3c0.5,0,0.8-0.2,1.2-0.8V14h2.1v7H23l-0.2-1l0,0c-0.6,0.7-1.2,1.1-2.2,1.1
		c-1.5,0-2.2-1.1-2.2-2.8C18.4,18.3,18.4,14.1,18.4,14.1z"/>
	<path class="st3" d="M26.5,14.1h1.7l0.1,1.2h0.1c0.5-0.9,1.3-1.4,2-1.4c0.4,0,0.6,0.1,0.8,0.1l-0.3,1.8c-0.3-0.1-0.5-0.1-0.8-0.1
		c-0.5,0-1.2,0.3-1.5,1.3v4h-2.1C26.5,21,26.5,14.1,26.5,14.1z"/>
	<path class="st3" d="M32,14.1h1.7l0.1,1.2h0.1c0.5-0.9,1.3-1.4,2-1.4c0.4,0,0.6,0.1,0.8,0.1l-0.3,1.8c-0.3-0.1-0.5-0.1-0.8-0.1
		c-0.5,0-1.2,0.3-1.5,1.3v4H32V14.1z"/>
	<path class="st3" d="M40.3,13.9c2,0,3,1.4,3,3.3c0,0.4,0,0.7-0.1,0.9H39c0.2,1.1,0.9,1.5,1.8,1.5c0.5,0,1-0.2,1.5-0.5l0.7,1.2
		c-0.7,0.5-1.6,0.8-2.5,0.8c-2,0-3.5-1.3-3.5-3.6C37.1,15.3,38.7,13.9,40.3,13.9z M41.6,16.8c0-0.8-0.3-1.4-1.2-1.4
		c-0.6,0-1.2,0.4-1.3,1.4H41.6z"/>
	<path class="st3" d="M44.7,14.1h1.7l0.1,0.9h0.1c0.6-0.6,1.3-1.1,2.2-1.1c1.5,0,2.2,1.1,2.2,2.8V21h-2.1v-4c0-1-0.3-1.3-0.9-1.3
		c-0.5,0-0.8,0.2-1.3,0.7V21h-2.1L44.7,14.1L44.7,14.1z"/>
	<path class="st3" d="M53,15.7h-1v-1.5l1.1-0.1l0.2-1.8H55v1.8h1.7v1.6H55v2.8c0,0.8,0.4,1.1,0.9,1.1c0.2,0,0.5-0.1,0.7-0.1l0.3,1.5
		c-0.4,0.1-0.9,0.3-1.5,0.3c-1.7,0-2.4-1.1-2.4-2.7V15.7z"/>
	<path class="st3" d="M58.1,11.2h2.1v7.7c0,0.4,0.2,0.6,0.4,0.6c0.1,0,0.1,0,0.3,0L61,21c-0.2,0.1-0.6,0.2-1,0.2
		c-1.4,0-1.9-0.9-1.9-2.3V11.2z"/>
	<path class="st3" d="M62.7,22.1c0.7,0,1-0.4,1.2-0.9l0.1-0.4L61.3,14h2.1l1,3c0.2,0.6,0.4,1.3,0.5,2H65c0.2-0.7,0.3-1.3,0.5-2
		l0.8-3h2l-2.4,7c-0.7,1.8-1.4,2.6-3,2.6c-0.4,0-0.7-0.1-1-0.1l0.4-1.6C62.4,22,62.6,22.1,62.7,22.1z"/>
	<path class="st3" d="M76,16.5c0-0.6-0.4-1-1.1-1c-0.6,0-1.2,0.2-1.8,0.6l-0.7-1.4c0.9-0.5,1.9-0.9,3-0.9c1.8,0,2.8,1,2.8,3.1v4
		h-1.7l-0.2-0.7l0,0c-0.6,0.5-1.2,0.9-2,0.9c-1.3,0-2.1-0.9-2.1-2.1C72.1,17.6,73.2,16.8,76,16.5z M74.8,19.6c0.5,0,0.8-0.2,1.1-0.6
		v-1.2C74.5,18,74,18.4,74,18.9S74.3,19.6,74.8,19.6z"/>
	<path class="st3" d="M80.1,15.7h-1v-1.5l1.1-0.1l0.2-1.8h1.7v1.8h1.7v1.6h-1.7v2.8c0,0.8,0.4,1.1,0.9,1.1c0.2,0,0.5-0.1,0.7-0.1
		L84,21c-0.4,0.1-0.9,0.3-1.5,0.3c-1.7,0-2.4-1.1-2.4-2.7C80.1,18.6,80.1,15.7,80.1,15.7z"/>
	<path class="st3" d="M85.4,15.7h-1v-1.5l1.1-0.1l0.2-1.8h1.7v1.8h1.7v1.6h-1.7v2.8c0,0.8,0.4,1.1,0.9,1.1c0.2,0,0.5-0.1,0.7-0.1
		l0.3,1.5c-0.4,0.1-0.9,0.3-1.5,0.3c-1.7,0-2.4-1.1-2.4-2.7C85.4,18.6,85.4,15.7,85.4,15.7z"/>
	<path class="st3" d="M93.2,13.9c2,0,3,1.4,3,3.3c0,0.4,0,0.7-0.1,0.9h-4.2c0.2,1.1,0.9,1.5,1.8,1.5c0.5,0,1-0.2,1.5-0.5l0.7,1.2
		c-0.7,0.5-1.6,0.8-2.5,0.8c-2,0-3.5-1.3-3.5-3.6C90,15.3,91.6,13.9,93.2,13.9z M94.4,16.8c0-0.8-0.3-1.4-1.2-1.4
		c-0.6,0-1.2,0.4-1.3,1.4H94.4z"/>
	<path class="st3" d="M97.6,14.1h1.7l0.1,0.9h0.1c0.6-0.6,1.3-1.1,2.2-1.1c1.5,0,2.2,1.1,2.2,2.8V21h-2.1v-4c0-1-0.3-1.3-0.9-1.3
		c-0.5,0-0.8,0.2-1.3,0.7V21h-2.1v-6.9H97.6z"/>
	<path class="st3" d="M108.1,13.9c0.8,0,1.2,0.3,1.7,0.7l-0.1-1.1v-2.4h2.1V21h-1.7l-0.1-0.7l0,0c-0.5,0.5-1.2,0.9-1.8,0.9
		c-1.7,0-2.8-1.4-2.8-3.6C105.3,15.3,106.7,13.9,108.1,13.9z M108.6,19.5c0.4,0,0.8-0.2,1.1-0.6V16c-0.4-0.3-0.8-0.4-1.1-0.4
		c-0.7,0-1.2,0.6-1.2,1.9C107.4,18.9,107.8,19.5,108.6,19.5z"/>
	<path class="st3" d="M113.5,12c0-0.6,0.5-1.1,1.2-1.1s1.2,0.4,1.2,1.1c0,0.6-0.5,1.1-1.2,1.1C114,13,113.5,12.6,113.5,12z
		 M113.6,14.1h2.1V21h-2.1V14.1z"/>
	<path class="st3" d="M117.5,14.1h1.7l0.1,0.9h0.1c0.6-0.6,1.3-1.1,2.2-1.1c1.5,0,2.2,1.1,2.2,2.8V21h-2.1v-4c0-1-0.3-1.3-0.9-1.3
		c-0.5,0-0.8,0.2-1.3,0.7V21h-2.1v-6.9H117.5z"/>
	<path class="st3" d="M126.1,20.8L126.1,20.8c-0.4-0.3-0.6-0.7-0.6-1.2s0.3-1,0.8-1.3v-0.1c-0.5-0.3-0.9-1-0.9-1.8
		c0-1.7,1.4-2.5,2.9-2.5c0.4,0,0.8,0.1,1.1,0.2h2.5v1.5h-1.1c0.1,0.2,0.2,0.5,0.2,0.9c0,1.6-1.2,2.3-2.7,2.3c-0.3,0-0.5,0-0.8-0.1
		c-0.2,0.2-0.3,0.3-0.3,0.5c0,0.4,0.3,0.5,1.1,0.5h1.1c1.7,0,2.6,0.5,2.6,1.8c0,1.4-1.5,2.5-3.9,2.5c-1.6,0-2.9-0.5-2.9-1.8
		C125.1,21.6,125.4,21.2,126.1,20.8z M128.3,22.7c0.9,0,1.6-0.4,1.6-0.9c0-0.4-0.4-0.5-1.1-0.5h-0.7c-0.5,0-0.8,0-1-0.1
		c-0.3,0.2-0.4,0.4-0.4,0.7C126.8,22.4,127.4,22.7,128.3,22.7z M129.1,16.4c0-0.7-0.4-1.1-1-1.1c-0.5,0-1,0.4-1,1.1
		c0,0.8,0.4,1.2,1,1.2C128.7,17.6,129.1,17.2,129.1,16.4z"/>
	<path class="st3" d="M136.2,18.9c0.6,0.5,1.2,0.7,1.8,0.7s0.9-0.2,0.9-0.6c0-0.5-0.7-0.7-1.4-1c-0.8-0.3-1.8-0.9-1.8-2
		c0-1.3,1.1-2.2,2.7-2.2c1.1,0,1.8,0.4,2.5,0.9l-0.9,1.2c-0.5-0.4-1-0.6-1.5-0.6s-0.8,0.2-0.8,0.5c0,0.4,0.6,0.6,1.4,0.9
		c0.9,0.3,1.9,0.8,1.9,2.1c0,1.3-1,2.2-2.9,2.2c-0.9,0-2-0.4-2.7-1L136.2,18.9z"/>
	<path class="st3" d="M145.3,13.9c0.9,0,1.6,0.3,2,0.8l-0.9,1.3c-0.3-0.3-0.6-0.4-1-0.4c-1,0-1.6,0.8-1.6,2s0.7,2,1.6,2
		c0.5,0,0.9-0.2,1.2-0.5l0.8,1.3c-0.7,0.6-1.6,0.9-2.3,0.9c-1.9,0-3.4-1.3-3.4-3.6C141.7,15.2,143.4,13.9,145.3,13.9z"/>
	<path class="st3" d="M148.6,11.2h2.1v2.4l-0.1,1.2c0.5-0.5,1.2-1,2.1-1c1.5,0,2.2,1.1,2.2,2.8V21h-2.1v-4c0-1-0.3-1.3-0.9-1.3
		c-0.5,0-0.8,0.2-1.3,0.7V21h-2.1v-9.8H148.6z"/>
	<path class="st3" d="M159.6,13.9c1.8,0,3.4,1.3,3.4,3.6s-1.6,3.6-3.4,3.6c-1.8,0-3.4-1.3-3.4-3.6C156.2,15.2,157.9,13.9,159.6,13.9
		z M159.6,19.5c0.8,0,1.3-0.8,1.3-2s-0.4-2-1.3-2c-0.9,0-1.3,0.8-1.3,2S158.8,19.5,159.6,19.5z"/>
	<path class="st3" d="M167.4,13.9c1.8,0,3.4,1.3,3.4,3.6s-1.6,3.6-3.4,3.6c-1.8,0-3.4-1.3-3.4-3.6S165.6,13.9,167.4,13.9z
		 M167.4,19.5c0.8,0,1.3-0.8,1.3-2s-0.4-2-1.3-2c-0.9,0-1.3,0.8-1.3,2C166.1,18.7,166.5,19.5,167.4,19.5z"/>
	<path class="st3" d="M172.2,11.2h2.1v7.7c0,0.4,0.2,0.6,0.4,0.6c0.1,0,0.1,0,0.3,0l0.3,1.5c-0.2,0.1-0.6,0.2-1,0.2
		c-1.4,0-1.9-0.9-1.9-2.3v-7.7H172.2z"/>
</g>
<g>
	<path class="st4" d="M15.1,41.3c0.9,0,1.7,0.5,2.2,1l-0.8,0.9c-0.4-0.4-0.8-0.6-1.4-0.6c-1.3,0-2.2,1.1-2.2,2.8
		c0,1.8,0.8,2.9,2.2,2.9c0.7,0,1.2-0.3,1.6-0.8l0.8,0.9C16.8,49,16,49.4,15,49.4c-2,0-3.6-1.4-3.6-4C11.4,42.8,13.1,41.3,15.1,41.3z
		"/>
	<path class="st4" d="M21.1,43.3c1.5,0,2.8,1.1,2.8,3.1c0,2-1.3,3.1-2.8,3.1c-1.5,0-2.8-1.1-2.8-3.1C18.3,44.4,19.6,43.3,21.1,43.3z
		 M21.1,48.3c0.9,0,1.4-0.8,1.4-2c0-1.2-0.5-2-1.4-2s-1.4,0.8-1.4,2C19.7,47.5,20.2,48.3,21.1,48.3z"/>
	<path class="st4" d="M24.4,43.4h1.4l0.9,3.1c0.2,0.6,0.3,1.2,0.5,1.8h0c0.2-0.6,0.3-1.2,0.5-1.8l0.9-3.1h1.3l-2,5.9h-1.6L24.4,43.4
		z"/>
	<path class="st4" d="M33.4,43.3c1.6,0,2.4,1.2,2.4,2.8c0,0.3,0,0.5-0.1,0.6H32c0.1,1.1,0.8,1.7,1.7,1.7c0.5,0,0.9-0.2,1.4-0.4
		l0.5,0.9c-0.6,0.4-1.3,0.6-2,0.6c-1.6,0-2.9-1.1-2.9-3.1C30.6,44.4,32,43.3,33.4,43.3z M34.6,45.8c0-0.9-0.4-1.5-1.2-1.5
		c-0.7,0-1.3,0.5-1.4,1.5H34.6z"/>
	<path class="st4" d="M37.1,43.4h1.1l0.1,1h0c0.4-0.8,1-1.2,1.7-1.2c0.3,0,0.5,0,0.7,0.1l-0.2,1.2c-0.2-0.1-0.4-0.1-0.6-0.1
		c-0.5,0-1,0.3-1.4,1.2v3.6h-1.4V43.4z"/>
	<path class="st4" d="M44.5,45.5c0-0.6-0.3-1.2-1.1-1.2c-0.6,0-1.1,0.3-1.7,0.6L41.3,44c0.6-0.4,1.5-0.8,2.4-0.8
		c1.5,0,2.2,0.9,2.2,2.5v3.5h-1.1l-0.1-0.6h0c-0.5,0.4-1.1,0.8-1.8,0.8c-1,0-1.8-0.7-1.8-1.7C41,46.5,42.1,45.8,44.5,45.5z
		 M43.2,48.4c0.5,0,0.9-0.2,1.3-0.6v-1.3c-1.6,0.2-2.1,0.6-2.1,1.2C42.4,48.1,42.7,48.4,43.2,48.4z"/>
	<path class="st4" d="M48,49.1L48,49.1c-0.3-0.2-0.5-0.6-0.5-1c0-0.5,0.3-0.9,0.6-1.1v0c-0.4-0.3-0.8-0.9-0.8-1.6
		c0-1.4,1.1-2.1,2.3-2.1c0.3,0,0.6,0.1,0.9,0.1h2.1v1h-1.1c0.2,0.2,0.3,0.6,0.3,1c0,1.3-1,2-2.2,2c-0.3,0-0.5,0-0.8-0.2
		c-0.2,0.2-0.3,0.3-0.3,0.6c0,0.3,0.2,0.5,1,0.5h1c1.4,0,2.2,0.4,2.2,1.5c0,1.2-1.2,2.1-3.1,2.1c-1.4,0-2.4-0.5-2.4-1.5
		C47.1,49.9,47.4,49.4,48,49.1z M49.8,51c0.9,0,1.6-0.4,1.6-0.9c0-0.5-0.4-0.6-1-0.6h-0.8c-0.3,0-0.6,0-0.8-0.1
		c-0.3,0.2-0.5,0.5-0.5,0.8C48.3,50.7,48.9,51,49.8,51z M50.7,45.4c0-0.7-0.4-1.2-1-1.2c-0.6,0-1,0.4-1,1.2c0,0.8,0.5,1.2,1,1.2
		C50.2,46.6,50.7,46.1,50.7,45.4z"/>
	<path class="st4" d="M55.9,43.3c1.6,0,2.4,1.2,2.4,2.8c0,0.3,0,0.5-0.1,0.6h-3.7c0.1,1.1,0.8,1.7,1.7,1.7c0.5,0,0.9-0.2,1.4-0.4
		l0.5,0.9c-0.6,0.4-1.3,0.6-2,0.6c-1.6,0-2.9-1.1-2.9-3.1C53.2,44.4,54.5,43.3,55.9,43.3z M57.2,45.8c0-0.9-0.4-1.5-1.2-1.5
		c-0.7,0-1.3,0.5-1.4,1.5H57.2z"/>
	<path class="st3" d="M11.9,60.5h1.4v3.2h3.2v-3.2h1.4v7.8h-1.4v-3.5h-3.2v3.5h-1.4V60.5z"/>
	<path class="st3" d="M19.4,64.3c0-2.5,1.4-4,3.5-4c2.1,0,3.5,1.5,3.5,4c0,2.5-1.4,4.1-3.5,4.1C20.8,68.4,19.4,66.9,19.4,64.3z
		 M24.9,64.3c0-1.8-0.8-2.8-2-2.8s-2,1.1-2,2.8c0,1.8,0.8,2.9,2,2.9S24.9,66.1,24.9,64.3z"/>
	<path class="st3" d="M27.9,60.5h1.4v7.8h-1.4V60.5z"/>
</g>
</svg>
