<?xml version="1.0" encoding="utf-8"?>
<!-- Generator: Adobe Illustrator 20.0.0, SVG Export Plug-In . SVG Version: 6.00 Build 0)  -->
<svg version="1.1" id="Capa_1" xmlns="http://www.w3.org/2000/svg" xmlns:xlink="http://www.w3.org/1999/xlink" x="0px" y="0px"
	 viewBox="0 0 190.5 88.3" style="enable-background:new 0 0 190.5 88.3;" xml:space="preserve">
<style type="text/css">
	.st0{fill:#FFFFFF;stroke:#000000;stroke-width:0.25;stroke-miterlimit:10;}
	.st1{opacity:0.5;fill:none;stroke:#000000;stroke-width:0.25;stroke-miterlimit:10;enable-background:new    ;}
	.st2{enable-background:new    ;}
	.st3{fill:#44B254;}
	.st4{fill:#495E4A;}
</style>
<polygon class="st0" points="190.4,80.5 104.5,80.5 96.9,88.1 89.3,80.5 0.1,80.5 0.1,0.1 190.4,0.1 "/>
<line class="st1" x1="9.6" y1="53" x2="179.9" y2="53"/>
<g>
	<g class="st2">
		<path class="st3" d="M10.6,7.5H13c2.6,0,4.3,1.3,4.3,4.2S15.6,16,13.1,16h-2.5V7.5z M12.9,14.5c1.4,0,2.4-0.7,2.4-2.7
			s-1-2.7-2.4-2.7h-0.4v5.4H12.9z"/>
		<path class="st3" d="M21.4,9.4c1.8,0,2.7,1.3,2.7,3.1c0,0.3,0,0.6-0.1,0.8h-3.9c0.2,1,0.8,1.4,1.7,1.4c0.5,0,0.9-0.1,1.4-0.4
			l0.6,1.2c-0.7,0.5-1.5,0.7-2.3,0.7c-1.8,0-3.3-1.2-3.3-3.4C18.3,10.7,19.8,9.4,21.4,9.4z M22.5,12.1c0-0.7-0.3-1.3-1.1-1.3
			c-0.6,0-1.1,0.4-1.2,1.3H22.5z"/>
		<path class="st3" d="M25.4,6.9h1.9v7.2c0,0.4,0.2,0.5,0.3,0.5c0.1,0,0.1,0,0.2,0L28,16c-0.2,0.1-0.5,0.2-1,0.2
			c-1.3,0-1.8-0.9-1.8-2.2V6.9H25.4z"/>
		<path class="st3" d="M29,7.6c0-0.6,0.5-1,1.1-1s1.1,0.4,1.1,1s-0.5,1-1.1,1S29,8.2,29,7.6z M29.2,9.6h1.9V16h-1.9V9.6z"/>
		<path class="st3" d="M32.1,9.6H34l0.8,3c0.2,0.6,0.3,1.3,0.5,2h0.1c0.2-0.7,0.3-1.4,0.5-2l0.8-3h1.8L36.4,16h-2.2L32.1,9.6z"/>
		<path class="st3" d="M42.1,9.4c1.8,0,2.7,1.3,2.7,3.1c0,0.3,0,0.6-0.1,0.8h-3.9c0.2,1,0.8,1.4,1.7,1.4c0.5,0,0.9-0.1,1.4-0.4
			l0.6,1.2c-0.7,0.5-1.5,0.7-2.3,0.7c-1.8,0-3.3-1.2-3.3-3.4C39.1,10.7,40.6,9.4,42.1,9.4z M43.2,12.1c0-0.7-0.3-1.3-1.1-1.3
			c-0.6,0-1.1,0.4-1.2,1.3H43.2z"/>
		<path class="st3" d="M46.2,9.6h1.6l0.1,1.1H48c0.5-0.9,1.2-1.3,1.8-1.3c0.4,0,0.6,0.1,0.8,0.1l-0.3,1.7c-0.2-0.1-0.4-0.1-0.7-0.1
			c-0.5,0-1.1,0.3-1.4,1.2V16h-1.9L46.2,9.6L46.2,9.6z"/>
		<path class="st3" d="M52,17c0.6,0,1-0.3,1.1-0.8l0.1-0.3l-2.5-6.3h1.9l0.9,2.8c0.2,0.6,0.3,1.2,0.5,1.8h0.1
			c0.1-0.6,0.3-1.2,0.4-1.8l0.8-2.8h1.8l-2.2,6.5c-0.6,1.6-1.3,2.5-2.8,2.5c-0.4,0-0.6-0.1-0.9-0.1l0.3-1.5C51.7,17,51.8,17,52,17z"
			/>
		<path class="st3" d="M64.3,11.9c0-0.6-0.3-0.9-1-0.9c-0.5,0-1.1,0.2-1.7,0.6l-0.7-1.3c0.8-0.5,1.7-0.8,2.8-0.8
			c1.7,0,2.6,0.9,2.6,2.9V16h-1.6l-0.1-0.7l0,0c-0.5,0.5-1.2,0.8-1.9,0.8c-1.2,0-1.9-0.9-1.9-2C60.6,12.9,61.7,12.1,64.3,11.9z
			 M63.2,14.7c0.4,0,0.7-0.2,1.1-0.5V13c-1.4,0.2-1.8,0.6-1.8,1.1C62.5,14.5,62.8,14.7,63.2,14.7z"/>
		<path class="st3" d="M68.1,11h-0.9V9.6l1-0.1l0.2-1.7H70v1.7h1.5V11H70v2.6c0,0.7,0.3,1,0.8,1c0.2,0,0.4-0.1,0.6-0.1l0.3,1.4
			c-0.3,0.1-0.8,0.2-1.4,0.2c-1.6,0-2.2-1-2.2-2.5C68.1,13.6,68.1,11,68.1,11z"/>
		<path class="st3" d="M73.1,11h-0.9V9.6l1-0.1l0.2-1.7H75v1.7h1.5V11H75v2.6c0,0.7,0.3,1,0.8,1c0.2,0,0.4-0.1,0.6-0.1l0.3,1.4
			c-0.3,0.1-0.8,0.2-1.4,0.2c-1.6,0-2.2-1-2.2-2.5C73.1,13.6,73.1,11,73.1,11z"/>
		<path class="st3" d="M80.3,9.4c1.8,0,2.7,1.3,2.7,3.1c0,0.3,0,0.6-0.1,0.8H79c0.2,1,0.8,1.4,1.7,1.4c0.5,0,0.9-0.1,1.4-0.4
			l0.6,1.2c-0.7,0.5-1.5,0.7-2.3,0.7c-1.8,0-3.3-1.2-3.3-3.4C77.3,10.7,78.8,9.4,80.3,9.4z M81.4,12.1c0-0.7-0.3-1.3-1.1-1.3
			c-0.6,0-1.1,0.4-1.2,1.3H81.4z"/>
		<path class="st3" d="M84.4,9.6H86l0.1,0.8h0.1c0.5-0.5,1.2-1,2.1-1c1.4,0,2,1,2,2.6v4h-1.9v-3.8c0-0.9-0.2-1.2-0.8-1.2
			c-0.5,0-0.8,0.2-1.2,0.6V16h-1.9L84.4,9.6L84.4,9.6z"/>
		<path class="st3" d="M94.2,9.4c0.7,0,1.1,0.3,1.6,0.7l-0.1-1V6.9h1.9V16H96l-0.1-0.6h-0.1c-0.5,0.5-1.1,0.8-1.7,0.8
			c-1.6,0-2.6-1.3-2.6-3.4C91.5,10.7,92.8,9.4,94.2,9.4z M94.6,14.6c0.4,0,0.7-0.2,1.1-0.6v-2.6C95.3,11.1,95,11,94.6,11
			c-0.6,0-1.2,0.6-1.2,1.8S93.9,14.6,94.6,14.6z"/>
		<path class="st3" d="M101.9,9.4c1.8,0,2.7,1.3,2.7,3.1c0,0.3,0,0.6-0.1,0.8h-3.9c0.2,1,0.8,1.4,1.7,1.4c0.5,0,0.9-0.1,1.4-0.4
			l0.6,1.2c-0.7,0.5-1.5,0.7-2.3,0.7c-1.8,0-3.3-1.2-3.3-3.4C98.9,10.7,100.4,9.4,101.9,9.4z M103.1,12.1c0-0.7-0.3-1.3-1.1-1.3
			c-0.6,0-1.1,0.4-1.2,1.3H103.1z"/>
		<path class="st3" d="M108.3,9.4c0.7,0,1.1,0.3,1.6,0.7l-0.1-1V6.9h1.9V16h-1.6l-0.1-0.6h0c-0.5,0.5-1.1,0.8-1.7,0.8
			c-1.6,0-2.6-1.3-2.6-3.4C105.7,10.7,107,9.4,108.3,9.4z M108.8,14.6c0.4,0,0.7-0.2,1.1-0.6v-2.6c-0.3-0.3-0.7-0.4-1.1-0.4
			c-0.6,0-1.2,0.6-1.2,1.8C107.6,14,108.1,14.6,108.8,14.6z"/>
		<path class="st3" d="M116.2,6.9h1.9v2.2l-0.1,1c0.5-0.4,1.1-0.7,1.7-0.7c1.6,0,2.5,1.3,2.5,3.3c0,2.2-1.3,3.5-2.7,3.5
			c-0.6,0-1.2-0.3-1.7-0.8h-0.1l-0.2,0.7H116V6.9H116.2z M119.1,14.6c0.7,0,1.2-0.6,1.2-1.9c0-1.2-0.4-1.7-1.1-1.7
			c-0.4,0-0.7,0.2-1.1,0.6v2.6C118.4,14.5,118.8,14.6,119.1,14.6z"/>
		<path class="st3" d="M124.1,17c0.6,0,1-0.3,1.1-0.8l0.1-0.3l-2.5-6.3h1.9l0.9,2.8c0.2,0.6,0.3,1.2,0.5,1.8h0.1
			c0.1-0.6,0.3-1.2,0.4-1.8l0.8-2.8h1.8l-2.2,6.5c-0.6,1.6-1.3,2.5-2.8,2.5c-0.4,0-0.7-0.1-0.9-0.1l0.3-1.5
			C123.8,17,123.9,17,124.1,17z"/>
		<path class="st3" d="M133.3,14.1c0.6,0.4,1.1,0.7,1.7,0.7c0.6,0,0.8-0.2,0.8-0.5c0-0.4-0.7-0.6-1.3-0.9c-0.8-0.3-1.7-0.8-1.7-1.9
			c0-1.2,1-2,2.5-2c1,0,1.7,0.4,2.3,0.8l-0.9,1.1c-0.5-0.3-0.9-0.5-1.4-0.5s-0.7,0.2-0.7,0.5c0,0.4,0.6,0.6,1.3,0.8
			c0.8,0.3,1.7,0.8,1.7,1.9c0,1.2-0.9,2.1-2.7,2.1c-0.8,0-1.8-0.4-2.5-0.9L133.3,14.1z"/>
		<path class="st3" d="M138.7,6.9h1.9v5.2h0.1l2-2.6h2.1l-2.3,2.7l2.4,3.8h-2.1l-1.5-2.5l-0.8,0.9V16h-1.9V6.9H138.7z"/>
		<path class="st3" d="M145.7,7.6c0-0.6,0.5-1,1.1-1c0.7,0,1.1,0.4,1.1,1s-0.5,1-1.1,1S145.7,8.2,145.7,7.6z M145.9,9.6h1.9V16h-1.9
			V9.6z"/>
		<path class="st3" d="M149.5,6.9h1.9v7.2c0,0.4,0.2,0.5,0.3,0.5s0.1,0,0.2,0l0.2,1.4c-0.2,0.1-0.5,0.2-1,0.2
			c-1.3,0-1.8-0.9-1.8-2.2V6.9H149.5z"/>
		<path class="st3" d="M153.2,6.9h1.9v7.2c0,0.4,0.2,0.5,0.3,0.5s0.1,0,0.2,0l0.2,1.4c-0.2,0.1-0.5,0.2-1,0.2
			c-1.3,0-1.8-0.9-1.8-2.2V6.9H153.2z"/>
		<path class="st3" d="M159.6,9.4c1.8,0,2.7,1.3,2.7,3.1c0,0.3,0,0.6-0.1,0.8h-3.9c0.2,1,0.8,1.4,1.7,1.4c0.5,0,0.9-0.1,1.4-0.4
			l0.6,1.2c-0.7,0.5-1.5,0.7-2.3,0.7c-1.8,0-3.3-1.2-3.3-3.4C156.5,10.7,158,9.4,159.6,9.4z M160.7,12.1c0-0.7-0.3-1.3-1.1-1.3
			c-0.6,0-1.1,0.4-1.2,1.3H160.7z"/>
		<path class="st3" d="M166,9.4c0.7,0,1.1,0.3,1.6,0.7l-0.1-1V6.9h1.9V16h-1.6l-0.1-0.6h-0.1c-0.5,0.5-1.1,0.8-1.7,0.8
			c-1.6,0-2.6-1.3-2.6-3.4C163.3,10.7,164.6,9.4,166,9.4z M166.4,14.6c0.4,0,0.7-0.2,1.1-0.6v-2.6c-0.3-0.3-0.7-0.4-1.1-0.4
			c-0.6,0-1.2,0.6-1.2,1.8S165.7,14.6,166.4,14.6z"/>
	</g>
	<g class="st2">
		<path class="st3" d="M12.4,31.5v1.9h-1.9v-8.8H12l0.1,0.6h0.1c0.5-0.5,1.2-0.8,1.8-0.8c1.6,0,2.5,1.3,2.5,3.3
			c0,2.2-1.3,3.5-2.7,3.5c-0.6,0-1.1-0.2-1.5-0.7L12.4,31.5z M13.4,29.6c0.7,0,1.2-0.6,1.2-1.9c0-1.2-0.4-1.7-1.1-1.7
			c-0.4,0-0.7,0.2-1.1,0.6v2.6C12.7,29.5,13.1,29.6,13.4,29.6z"/>
		<path class="st3" d="M20.6,24.4c1.8,0,2.7,1.3,2.7,3.1c0,0.3,0,0.6-0.1,0.8h-3.9c0.2,1,0.8,1.4,1.7,1.4c0.5,0,0.9-0.1,1.4-0.4
			l0.6,1.2c-0.7,0.5-1.5,0.7-2.3,0.7c-1.8,0-3.3-1.2-3.3-3.4C17.5,25.7,19,24.4,20.6,24.4z M21.7,27.1c0-0.7-0.3-1.3-1.1-1.3
			c-0.6,0-1.1,0.4-1.2,1.3H21.7z"/>
		<path class="st3" d="M24.6,24.6h1.6l0.1,1.1h0.1c0.5-0.9,1.2-1.3,1.8-1.3c0.4,0,0.6,0.1,0.8,0.1l-0.3,1.7
			c-0.2-0.1-0.4-0.1-0.7-0.1c-0.5,0-1.1,0.3-1.4,1.2V31h-1.9v-6.4H24.6z"/>
		<path class="st3" d="M30,29.1c0.6,0.4,1.1,0.7,1.7,0.7c0.6,0,0.8-0.2,0.8-0.5c0-0.4-0.6-0.6-1.3-0.9c-0.8-0.3-1.7-0.8-1.7-1.9
			c0-1.2,1-2,2.5-2c1,0,1.7,0.4,2.3,0.8l-0.9,1.1c-0.5-0.3-0.9-0.5-1.4-0.5c-0.5,0-0.7,0.2-0.7,0.5c0,0.4,0.6,0.6,1.3,0.8
			c0.8,0.3,1.7,0.8,1.7,1.9c0,1.2-0.9,2.1-2.7,2.1c-0.8,0-1.8-0.4-2.5-0.9L30,29.1z"/>
		<path class="st3" d="M38.2,24.4c1.6,0,3.1,1.2,3.1,3.4c0,2.1-1.5,3.4-3.1,3.4s-3.1-1.2-3.1-3.4C35.1,25.6,36.6,24.4,38.2,24.4z
			 M38.2,29.6c0.8,0,1.2-0.7,1.2-1.8c0-1.1-0.4-1.8-1.2-1.8S37,26.7,37,27.8S37.4,29.6,38.2,29.6z"/>
		<path class="st3" d="M42.6,24.6h1.6l0.1,0.8h0.1c0.5-0.5,1.2-1,2.1-1c1.4,0,2,1,2,2.6v4h-1.9v-3.8c0-0.9-0.2-1.2-0.8-1.2
			c-0.5,0-0.8,0.2-1.2,0.6V31h-1.9L42.6,24.6L42.6,24.6z"/>
		<path class="st3" d="M50.1,24.6h1.6l0.1,0.8h0.1c0.5-0.5,1.2-1,2.1-1c1.4,0,2,1,2,2.6v4h-2v-3.8c0-0.9-0.2-1.2-0.8-1.2
			c-0.5,0-0.8,0.2-1.2,0.6V31h-1.9V24.6z"/>
		<path class="st3" d="M60.2,24.4c1.8,0,2.7,1.3,2.7,3.1c0,0.3,0,0.6-0.1,0.8H59c0.2,1,0.8,1.4,1.7,1.4c0.5,0,0.9-0.1,1.4-0.4
			l0.6,1.2c-0.7,0.5-1.5,0.7-2.3,0.7c-1.8,0-3.3-1.2-3.3-3.4C57.1,25.7,58.6,24.4,60.2,24.4z M61.3,27.1c0-0.7-0.3-1.3-1.1-1.3
			c-0.6,0-1.1,0.4-1.2,1.3H61.3z"/>
		<path class="st3" d="M64.3,21.9h1.9v7.2c0,0.4,0.2,0.5,0.3,0.5c0.1,0,0.1,0,0.2,0L67,31c-0.2,0.1-0.5,0.2-1,0.2
			c-1.3,0-1.8-0.9-1.8-2.2v-7.1H64.3z"/>
	</g>
</g>
<g>
	<path class="st4" d="M15.1,41.3c0.9,0,1.7,0.5,2.2,1l-0.8,0.9c-0.4-0.4-0.8-0.6-1.4-0.6c-1.3,0-2.2,1.1-2.2,2.8
		c0,1.8,0.8,2.9,2.2,2.9c0.7,0,1.2-0.3,1.6-0.8l0.8,0.9C16.8,49,16,49.4,15,49.4c-2,0-3.6-1.4-3.6-4C11.4,42.8,13.1,41.3,15.1,41.3z
		"/>
	<path class="st4" d="M21.1,43.3c1.5,0,2.8,1.1,2.8,3.1c0,2-1.3,3.1-2.8,3.1c-1.5,0-2.8-1.1-2.8-3.1C18.3,44.4,19.6,43.3,21.1,43.3z
		 M21.1,48.3c0.9,0,1.4-0.8,1.4-2c0-1.2-0.5-2-1.4-2s-1.4,0.8-1.4,2C19.7,47.5,20.2,48.3,21.1,48.3z"/>
	<path class="st4" d="M24.4,43.4h1.4l0.9,3.1c0.2,0.6,0.3,1.2,0.5,1.8h0c0.2-0.6,0.3-1.2,0.5-1.8l0.9-3.1h1.3l-2,5.9h-1.6L24.4,43.4
		z"/>
	<path class="st4" d="M33.4,43.3c1.6,0,2.4,1.2,2.4,2.8c0,0.3,0,0.5-0.1,0.6H32c0.1,1.1,0.8,1.7,1.7,1.7c0.5,0,0.9-0.2,1.4-0.4
		l0.5,0.9c-0.6,0.4-1.3,0.6-2,0.6c-1.6,0-2.9-1.1-2.9-3.1C30.6,44.4,32,43.3,33.4,43.3z M34.6,45.8c0-0.9-0.4-1.5-1.2-1.5
		c-0.7,0-1.3,0.5-1.4,1.5H34.6z"/>
	<path class="st4" d="M37.1,43.4h1.1l0.1,1h0c0.4-0.8,1-1.2,1.7-1.2c0.3,0,0.5,0,0.7,0.1l-0.2,1.2c-0.2-0.1-0.4-0.1-0.6-0.1
		c-0.5,0-1,0.3-1.4,1.2v3.6h-1.4V43.4z"/>
	<path class="st4" d="M44.5,45.5c0-0.6-0.3-1.2-1.1-1.2c-0.6,0-1.1,0.3-1.7,0.6L41.3,44c0.6-0.4,1.5-0.8,2.4-0.8
		c1.5,0,2.2,0.9,2.2,2.5v3.5h-1.1l-0.1-0.6h0c-0.5,0.4-1.1,0.8-1.8,0.8c-1,0-1.8-0.7-1.8-1.7C41,46.5,42.1,45.8,44.5,45.5z
		 M43.2,48.4c0.5,0,0.9-0.2,1.3-0.6v-1.3c-1.6,0.2-2.1,0.6-2.1,1.2C42.4,48.1,42.7,48.4,43.2,48.4z"/>
	<path class="st4" d="M48,49.1L48,49.1c-0.3-0.2-0.5-0.6-0.5-1c0-0.5,0.3-0.9,0.6-1.1v0c-0.4-0.3-0.8-0.9-0.8-1.6
		c0-1.4,1.1-2.1,2.3-2.1c0.3,0,0.6,0.1,0.9,0.1h2.1v1h-1.1c0.2,0.2,0.3,0.6,0.3,1c0,1.3-1,2-2.2,2c-0.3,0-0.5,0-0.8-0.2
		c-0.2,0.2-0.3,0.3-0.3,0.6c0,0.3,0.2,0.5,1,0.5h1c1.4,0,2.2,0.4,2.2,1.5c0,1.2-1.2,2.1-3.1,2.1c-1.4,0-2.4-0.5-2.4-1.5
		C47.1,49.9,47.4,49.4,48,49.1z M49.8,51c0.9,0,1.6-0.4,1.6-0.9c0-0.5-0.4-0.6-1-0.6h-0.8c-0.3,0-0.6,0-0.8-0.1
		c-0.3,0.2-0.5,0.5-0.5,0.8C48.3,50.7,48.9,51,49.8,51z M50.7,45.4c0-0.7-0.4-1.2-1-1.2c-0.6,0-1,0.4-1,1.2c0,0.8,0.5,1.2,1,1.2
		C50.2,46.6,50.7,46.1,50.7,45.4z"/>
	<path class="st4" d="M55.9,43.3c1.6,0,2.4,1.2,2.4,2.8c0,0.3,0,0.5-0.1,0.6h-3.7c0.1,1.1,0.8,1.7,1.7,1.7c0.5,0,0.9-0.2,1.4-0.4
		l0.5,0.9c-0.6,0.4-1.3,0.6-2,0.6c-1.6,0-2.9-1.1-2.9-3.1C53.2,44.4,54.5,43.3,55.9,43.3z M57.2,45.8c0-0.9-0.4-1.5-1.2-1.5
		c-0.7,0-1.3,0.5-1.4,1.5H57.2z"/>
	<path class="st3" d="M11.9,60.5h1.4v3.2h3.2v-3.2h1.4v7.8h-1.4v-3.5h-3.2v3.5h-1.4V60.5z"/>
	<path class="st3" d="M19.4,64.3c0-2.5,1.4-4,3.5-4c2.1,0,3.5,1.5,3.5,4c0,2.5-1.4,4.1-3.5,4.1C20.8,68.4,19.4,66.9,19.4,64.3z
		 M24.9,64.3c0-1.8-0.8-2.8-2-2.8s-2,1.1-2,2.8c0,1.8,0.8,2.9,2,2.9S24.9,66.1,24.9,64.3z"/>
	<path class="st3" d="M27.9,60.5h1.4v7.8h-1.4V60.5z"/>
</g>
</svg>
