<?xml version="1.0" encoding="utf-8"?>
<!-- Generator: Adobe Illustrator 20.0.0, SVG Export Plug-In . SVG Version: 6.00 Build 0)  -->
<svg version="1.1" id="Capa_1" xmlns="http://www.w3.org/2000/svg" xmlns:xlink="http://www.w3.org/1999/xlink" x="0px" y="0px"
	 viewBox="0 0 190.5 88.3" style="enable-background:new 0 0 190.5 88.3;" xml:space="preserve">
<style type="text/css">
	.st0{fill:#FFFFFF;stroke:#000000;stroke-width:0.25;stroke-miterlimit:10;}
	.st1{opacity:0.5;fill:none;stroke:#000000;stroke-width:0.25;stroke-miterlimit:10;enable-background:new    ;}
	.st2{enable-background:new    ;}
	.st3{fill:#44B254;}
	.st4{fill:#495E4A;}
</style>
<polygon class="st0" points="190.4,80.5 104.5,80.5 96.9,88.1 89.3,80.5 0.1,80.5 0.1,0.1 190.4,0.1 "/>
<line class="st1" x1="9.6" y1="53" x2="179.9" y2="53"/>
<g>
	<g class="st2">
		<path class="st3" d="M11,11.5h5.3v1.6h-3.4v2h2.9v1.6h-2.9V20H11V11.5z"/>
		<path class="st3" d="M20.2,13.4c1.6,0,3.1,1.2,3.1,3.4c0,2.1-1.5,3.4-3.1,3.4s-3.1-1.2-3.1-3.4C17,14.6,18.6,13.4,20.2,13.4z
			 M20.2,18.6c0.8,0,1.2-0.7,1.2-1.8c0-1.1-0.4-1.8-1.2-1.8c-0.8,0-1.2,0.7-1.2,1.8C19,17.9,19.4,18.6,20.2,18.6z"/>
		<path class="st3" d="M24.6,13.6h1.9v3.8c0,0.9,0.2,1.2,0.8,1.2c0.5,0,0.8-0.2,1.1-0.7v-4.3h1.9V20h-1.6l-0.1-0.9l0,0
			c-0.5,0.7-1.1,1.1-2,1.1c-1.4,0-2-1-2-2.6C24.6,17.6,24.6,13.6,24.6,13.6z"/>
		<path class="st3" d="M32,13.6h1.6l0.1,1.1h0.1c0.5-0.9,1.2-1.3,1.8-1.3c0.4,0,0.6,0.1,0.8,0.1l-0.3,1.7c-0.2-0.1-0.4-0.1-0.7-0.1
			c-0.5,0-1.1,0.3-1.4,1.2V20h-2V13.6z"/>
		<path class="st3" d="M43.3,15.9c0-0.6-0.3-0.9-1-0.9c-0.5,0-1.1,0.2-1.7,0.6l-0.7-1.3c0.8-0.5,1.7-0.8,2.8-0.8
			c1.7,0,2.6,0.9,2.6,2.9V20h-1.6l-0.1-0.7l0,0c-0.5,0.5-1.2,0.8-1.9,0.8c-1.2,0-1.9-0.9-1.9-2C39.7,16.9,40.7,16.1,43.3,15.9z
			 M42.2,18.7c0.4,0,0.7-0.2,1.1-0.5V17c-1.4,0.2-1.8,0.6-1.8,1.1C41.5,18.5,41.8,18.7,42.2,18.7z"/>
		<path class="st3" d="M46.8,13.6h1.6l0.1,0.8h0.1c0.5-0.5,1.2-1,2.1-1c1.4,0,2,1,2,2.6v4h-1.9v-3.8c0-0.9-0.2-1.2-0.8-1.2
			c-0.5,0-0.8,0.2-1.2,0.6V20h-1.9L46.8,13.6L46.8,13.6z"/>
		<path class="st3" d="M54.5,15h-0.9v-1.4l1-0.1l0.2-1.7h1.6v1.7H58V15h-1.5v2.6c0,0.7,0.3,1,0.8,1c0.2,0,0.4-0.1,0.6-0.1l0.3,1.4
			c-0.3,0.1-0.8,0.2-1.4,0.2c-1.6,0-2.2-1-2.2-2.5L54.5,15L54.5,15z"/>
		<path class="st3" d="M61.8,13.4c1.8,0,2.7,1.3,2.7,3.1c0,0.3,0,0.6-0.1,0.8h-3.9c0.2,1,0.8,1.4,1.7,1.4c0.5,0,0.9-0.1,1.4-0.4
			l0.6,1.2c-0.7,0.5-1.5,0.7-2.3,0.7c-1.8,0-3.3-1.2-3.3-3.4C58.7,14.7,60.2,13.4,61.8,13.4z M62.9,16.1c0-0.7-0.3-1.3-1.1-1.3
			c-0.6,0-1.1,0.4-1.2,1.3H62.9z"/>
		<path class="st3" d="M65.9,13.6h1.6l0.1,0.8h0.1c0.5-0.5,1.2-1,2.1-1c1.4,0,2,1,2,2.6v4h-1.9v-3.8c0-0.9-0.2-1.2-0.8-1.2
			c-0.5,0-0.8,0.2-1.2,0.6V20H66L65.9,13.6L65.9,13.6z"/>
		<path class="st3" d="M76.7,15.9c0-0.6-0.3-0.9-1-0.9c-0.5,0-1.1,0.2-1.7,0.6l-0.7-1.3c0.8-0.5,1.7-0.8,2.8-0.8
			c1.7,0,2.6,0.9,2.6,2.9V20H77l-0.1-0.7l0,0c-0.5,0.5-1.2,0.8-1.9,0.8c-1.2,0-1.9-0.9-1.9-2C73.1,16.9,74.1,16.1,76.7,15.9z
			 M75.6,18.7c0.4,0,0.7-0.2,1.1-0.5V17c-1.4,0.2-1.8,0.6-1.8,1.1C74.9,18.5,75.2,18.7,75.6,18.7z"/>
		<path class="st3" d="M80.5,15h-0.9v-1.4l1-0.1l0.2-1.7h1.6v1.7H84V15h-1.5v2.6c0,0.7,0.3,1,0.8,1c0.2,0,0.4-0.1,0.6-0.1l0.3,1.4
			c-0.3,0.1-0.8,0.2-1.4,0.2c-1.6,0-2.2-1-2.2-2.5V15H80.5z"/>
		<path class="st3" d="M88.5,15.9c0-0.6-0.3-0.9-1-0.9c-0.5,0-1.1,0.2-1.7,0.6L85,14.2c0.8-0.5,1.7-0.8,2.8-0.8
			c1.7,0,2.6,0.9,2.6,2.9V20h-1.6l-0.1-0.7l0,0c-0.5,0.5-1.2,0.8-1.9,0.8c-1.2,0-1.9-0.9-1.9-2C84.8,16.9,85.9,16.1,88.5,15.9z
			 M87.4,18.7c0.4,0,0.7-0.2,1.1-0.5V17c-1.4,0.2-1.8,0.6-1.8,1.1C86.6,18.5,86.9,18.7,87.4,18.7z"/>
		<path class="st3" d="M92,10.9h1.9v7.2c0,0.4,0.2,0.5,0.3,0.5c0.1,0,0.1,0,0.2,0l0.2,1.4c-0.2,0.1-0.5,0.2-1,0.2
			c-1.3,0-1.8-0.9-1.8-2.2v-7.1H92z"/>
		<path class="st3" d="M101.4,13.4c0.8,0,1.5,0.3,1.9,0.7l-0.9,1.2c-0.3-0.3-0.6-0.4-0.9-0.4c-0.9,0-1.5,0.7-1.5,1.8
			s0.6,1.8,1.4,1.8c0.5,0,0.8-0.2,1.2-0.5l0.8,1.2c-0.6,0.5-1.4,0.8-2.1,0.8c-1.8,0-3.2-1.2-3.2-3.4C98,14.6,99.6,13.4,101.4,13.4z"
			/>
		<path class="st3" d="M107.8,15.9c0-0.6-0.3-0.9-1-0.9c-0.5,0-1.1,0.2-1.7,0.6l-0.7-1.3c0.8-0.5,1.7-0.8,2.8-0.8
			c1.7,0,2.6,0.9,2.6,2.9V20h-1.6l-0.1-0.7l0,0c-0.5,0.5-1.2,0.8-1.9,0.8c-1.2,0-1.9-0.9-1.9-2C104.1,16.9,105.2,16.1,107.8,15.9z
			 M106.7,18.7c0.4,0,0.7-0.2,1.1-0.5V17c-1.4,0.2-1.8,0.6-1.8,1.1C106,18.5,106.2,18.7,106.7,18.7z"/>
		<path class="st3" d="M111.3,13.6h1.6l0.1,1.1h0.1c0.5-0.9,1.2-1.3,1.8-1.3c0.4,0,0.6,0.1,0.8,0.1l-0.3,1.7
			c-0.2-0.1-0.4-0.1-0.7-0.1c-0.5,0-1.1,0.3-1.4,1.2V20h-1.9L111.3,13.6L111.3,13.6z"/>
		<path class="st3" d="M119,13.4c1.8,0,2.7,1.3,2.7,3.1c0,0.3,0,0.6-0.1,0.8h-3.9c0.2,1,0.8,1.4,1.7,1.4c0.5,0,0.9-0.1,1.4-0.4
			l0.6,1.2c-0.7,0.5-1.5,0.7-2.3,0.7c-1.8,0-3.3-1.2-3.3-3.4C116,14.7,117.5,13.4,119,13.4z M120.1,16.1c0-0.7-0.3-1.3-1.1-1.3
			c-0.6,0-1.1,0.4-1.2,1.3H120.1z"/>
		<path class="st3" d="M125.1,13.6h1.9l0.8,3c0.2,0.6,0.3,1.3,0.5,2h0.1c0.2-0.7,0.3-1.4,0.5-2l0.8-3h1.8l-2.1,6.4h-2.2L125.1,13.6z
			"/>
		<path class="st3" d="M132.4,11.6c0-0.6,0.5-1,1.1-1c0.7,0,1.1,0.4,1.1,1s-0.5,1-1.1,1S132.4,12.2,132.4,11.6z M132.6,13.6h1.9V20
			h-1.9V13.6z"/>
		<path class="st3" d="M136.5,18.1c0.6,0.4,1.1,0.7,1.7,0.7c0.6,0,0.8-0.2,0.8-0.5c0-0.4-0.6-0.6-1.3-0.9c-0.8-0.3-1.7-0.8-1.7-1.9
			c0-1.2,1-2,2.5-2c1,0,1.7,0.4,2.3,0.8l-0.9,1.1c-0.5-0.3-0.9-0.5-1.4-0.5s-0.7,0.2-0.7,0.5c0,0.4,0.6,0.6,1.3,0.8
			c0.8,0.3,1.7,0.8,1.7,1.9c0,1.2-0.9,2.1-2.7,2.1c-0.8,0-1.8-0.4-2.5-0.9L136.5,18.1z"/>
		<path class="st3" d="M141.8,11.6c0-0.6,0.5-1,1.1-1s1.1,0.4,1.1,1s-0.5,1-1.1,1C142.2,12.6,141.8,12.2,141.8,11.6z M141.9,13.6
			h1.9V20h-1.9V13.6z"/>
		<path class="st3" d="M145.8,15h-0.9v-1.4l1-0.1l0.2-1.7h1.6v1.7h1.5V15h-1.5v2.6c0,0.7,0.3,1,0.8,1c0.2,0,0.4-0.1,0.6-0.1l0.3,1.4
			c-0.3,0.1-0.8,0.2-1.4,0.2c-1.6,0-2.2-1-2.2-2.5L145.8,15L145.8,15z"/>
		<path class="st3" d="M150.8,18.1c0.6,0.4,1.1,0.7,1.7,0.7c0.6,0,0.8-0.2,0.8-0.5c0-0.4-0.7-0.6-1.3-0.9c-0.8-0.3-1.7-0.8-1.7-1.9
			c0-1.2,1-2,2.5-2c1,0,1.7,0.4,2.3,0.8l-0.9,1.1c-0.5-0.3-0.9-0.5-1.4-0.5s-0.7,0.2-0.7,0.5c0,0.4,0.6,0.6,1.3,0.8
			c0.8,0.3,1.7,0.8,1.7,1.9c0,1.2-0.9,2.1-2.7,2.1c-0.8,0-1.8-0.4-2.5-0.9L150.8,18.1z"/>
	</g>
</g>
<g>
	<path class="st4" d="M15.1,41.3c0.9,0,1.7,0.5,2.2,1l-0.8,0.9c-0.4-0.4-0.8-0.6-1.4-0.6c-1.3,0-2.2,1.1-2.2,2.8
		c0,1.8,0.8,2.9,2.2,2.9c0.7,0,1.2-0.3,1.6-0.8l0.8,0.9C16.8,49,16,49.4,15,49.4c-2,0-3.6-1.4-3.6-4C11.4,42.8,13.1,41.3,15.1,41.3z
		"/>
	<path class="st4" d="M21.1,43.3c1.5,0,2.8,1.1,2.8,3.1c0,2-1.3,3.1-2.8,3.1c-1.5,0-2.8-1.1-2.8-3.1C18.3,44.4,19.6,43.3,21.1,43.3z
		 M21.1,48.3c0.9,0,1.4-0.8,1.4-2c0-1.2-0.5-2-1.4-2s-1.4,0.8-1.4,2C19.7,47.5,20.2,48.3,21.1,48.3z"/>
	<path class="st4" d="M24.4,43.4h1.4l0.9,3.1c0.2,0.6,0.3,1.2,0.5,1.8h0c0.2-0.6,0.3-1.2,0.5-1.8l0.9-3.1h1.3l-2,5.9h-1.6L24.4,43.4
		z"/>
	<path class="st4" d="M33.4,43.3c1.6,0,2.4,1.2,2.4,2.8c0,0.3,0,0.5-0.1,0.6H32c0.1,1.1,0.8,1.7,1.7,1.7c0.5,0,0.9-0.2,1.4-0.4
		l0.5,0.9c-0.6,0.4-1.3,0.6-2,0.6c-1.6,0-2.9-1.1-2.9-3.1C30.6,44.4,32,43.3,33.4,43.3z M34.6,45.8c0-0.9-0.4-1.5-1.2-1.5
		c-0.7,0-1.3,0.5-1.4,1.5H34.6z"/>
	<path class="st4" d="M37.1,43.4h1.1l0.1,1h0c0.4-0.8,1-1.2,1.7-1.2c0.3,0,0.5,0,0.7,0.1l-0.2,1.2c-0.2-0.1-0.4-0.1-0.6-0.1
		c-0.5,0-1,0.3-1.4,1.2v3.6h-1.4V43.4z"/>
	<path class="st4" d="M44.5,45.5c0-0.6-0.3-1.2-1.1-1.2c-0.6,0-1.1,0.3-1.7,0.6L41.3,44c0.6-0.4,1.5-0.8,2.4-0.8
		c1.5,0,2.2,0.9,2.2,2.5v3.5h-1.1l-0.1-0.6h0c-0.5,0.4-1.1,0.8-1.8,0.8c-1,0-1.8-0.7-1.8-1.7C41,46.5,42.1,45.8,44.5,45.5z
		 M43.2,48.4c0.5,0,0.9-0.2,1.3-0.6v-1.3c-1.6,0.2-2.1,0.6-2.1,1.2C42.4,48.1,42.7,48.4,43.2,48.4z"/>
	<path class="st4" d="M48,49.1L48,49.1c-0.3-0.2-0.5-0.6-0.5-1c0-0.5,0.3-0.9,0.6-1.1v0c-0.4-0.3-0.8-0.9-0.8-1.6
		c0-1.4,1.1-2.1,2.3-2.1c0.3,0,0.6,0.1,0.9,0.1h2.1v1h-1.1c0.2,0.2,0.3,0.6,0.3,1c0,1.3-1,2-2.2,2c-0.3,0-0.5,0-0.8-0.2
		c-0.2,0.2-0.3,0.3-0.3,0.6c0,0.3,0.2,0.5,1,0.5h1c1.4,0,2.2,0.4,2.2,1.5c0,1.2-1.2,2.1-3.1,2.1c-1.4,0-2.4-0.5-2.4-1.5
		C47.1,49.9,47.4,49.4,48,49.1z M49.8,51c0.9,0,1.6-0.4,1.6-0.9c0-0.5-0.4-0.6-1-0.6h-0.8c-0.3,0-0.6,0-0.8-0.1
		c-0.3,0.2-0.5,0.5-0.5,0.8C48.3,50.7,48.9,51,49.8,51z M50.7,45.4c0-0.7-0.4-1.2-1-1.2c-0.6,0-1,0.4-1,1.2c0,0.8,0.5,1.2,1,1.2
		C50.2,46.6,50.7,46.1,50.7,45.4z"/>
	<path class="st4" d="M55.9,43.3c1.6,0,2.4,1.2,2.4,2.8c0,0.3,0,0.5-0.1,0.6h-3.7c0.1,1.1,0.8,1.7,1.7,1.7c0.5,0,0.9-0.2,1.4-0.4
		l0.5,0.9c-0.6,0.4-1.3,0.6-2,0.6c-1.6,0-2.9-1.1-2.9-3.1C53.2,44.4,54.5,43.3,55.9,43.3z M57.2,45.8c0-0.9-0.4-1.5-1.2-1.5
		c-0.7,0-1.3,0.5-1.4,1.5H57.2z"/>
	<path class="st3" d="M11.9,60.5h1.4v3.2h3.2v-3.2h1.4v7.8h-1.4v-3.5h-3.2v3.5h-1.4V60.5z"/>
	<path class="st3" d="M19.4,64.3c0-2.5,1.4-4,3.5-4c2.1,0,3.5,1.5,3.5,4c0,2.5-1.4,4.1-3.5,4.1C20.8,68.4,19.4,66.9,19.4,64.3z
		 M24.9,64.3c0-1.8-0.8-2.8-2-2.8s-2,1.1-2,2.8c0,1.8,0.8,2.9,2,2.9S24.9,66.1,24.9,64.3z"/>
	<path class="st3" d="M27.9,60.5h1.4v7.8h-1.4V60.5z"/>
</g>
</svg>
