<?xml version="1.0" encoding="utf-8"?>
<!-- Generator: Adobe Illustrator 20.0.0, SVG Export Plug-In . SVG Version: 6.00 Build 0)  -->
<svg version="1.1" id="Capa_1" xmlns="http://www.w3.org/2000/svg" xmlns:xlink="http://www.w3.org/1999/xlink" x="0px" y="0px"
	 viewBox="0 0 190.5 88.3" style="enable-background:new 0 0 190.5 88.3;" xml:space="preserve">
<style type="text/css">
	.st0{fill:#FFFFFF;stroke:#000000;stroke-width:0.25;stroke-miterlimit:10;}
	.st1{opacity:0.5;fill:none;stroke:#000000;stroke-width:0.25;stroke-miterlimit:10;enable-background:new    ;}
	.st2{enable-background:new    ;}
	.st3{fill:#44B254;}
	.st4{fill:#495E4A;}
</style>
<polygon class="st0" points="190.4,80.4 104.5,80.4 96.9,88.1 89.3,80.4 0.1,80.4 0.1,0.1 190.4,0.1 "/>
<line class="st1" x1="9.6" y1="52.9" x2="179.9" y2="52.9"/>
<g>
	<g class="st2">
		<path class="st3" d="M10.6,7.3h1.9v8.5h-1.9V7.3z"/>
		<path class="st3" d="M14.4,9.4H16l0.1,0.8h0.1c0.5-0.5,1.2-1,2.1-1c1.4,0,2,1,2,2.6v4h-1.9V12c0-0.9-0.2-1.2-0.8-1.2
			c-0.5,0-0.8,0.2-1.2,0.6v4.4h-1.9V9.4H14.4z"/>
		<path class="st3" d="M25.4,8.2C25.2,8.1,25,8,24.8,8C24.3,8,24,8.3,24,9v0.4h1.2v1.5H24v5h-1.9v-5h-0.9V9.4l0.9-0.1V9
			c0-1.4,0.6-2.5,2.4-2.5c0.5,0,1,0.1,1.3,0.2L25.4,8.2z"/>
		<path class="st3" d="M29.4,11.7c0-0.6-0.3-0.9-1-0.9c-0.5,0-1.1,0.2-1.7,0.6L26,10c0.8-0.5,1.7-0.8,2.8-0.8c1.7,0,2.6,0.9,2.6,2.9
			v3.7h-1.6l-0.1-0.7l0,0C29,15.6,28.4,16,27.6,16c-1.2,0-1.9-0.9-1.9-2C25.7,12.7,26.8,11.9,29.4,11.7z M28.3,14.5
			c0.4,0,0.7-0.2,1.1-0.5v-1.1c-1.4,0.2-1.8,0.6-1.8,1.1C27.6,14.3,27.8,14.5,28.3,14.5z"/>
		<path class="st3" d="M32.9,9.4h1.6l0.1,0.8h0.1c0.5-0.5,1.2-1,2.1-1c1.4,0,2,1,2,2.6v4h-1.9V12c0-0.9-0.2-1.2-0.8-1.2
			c-0.5,0-0.8,0.2-1.2,0.6v4.4H33L32.9,9.4L32.9,9.4z"/>
		<path class="st3" d="M40.6,10.8h-0.9V9.4l1-0.1l0.2-1.7h1.6v1.7H44v1.5h-1.5v2.6c0,0.7,0.3,1,0.8,1c0.2,0,0.4-0.1,0.6-0.1l0.3,1.4
			c-0.3,0.1-0.8,0.2-1.4,0.2c-1.6,0-2.2-1-2.2-2.5C40.6,13.4,40.6,10.8,40.6,10.8z"/>
		<path class="st3" d="M51,9.2c0.8,0,1.5,0.3,1.9,0.7L52,11.1c-0.3-0.3-0.6-0.4-0.9-0.4c-0.9,0-1.5,0.7-1.5,1.8s0.6,1.8,1.4,1.8
			c0.5,0,0.8-0.2,1.2-0.5L53,15c-0.6,0.5-1.4,0.8-2.1,0.8c-1.8,0-3.2-1.2-3.2-3.4C47.7,10.4,49.2,9.2,51,9.2z"/>
		<path class="st3" d="M54.1,6.7H56v2.2l-0.1,1.2c0.5-0.4,1.1-0.9,2-0.9c1.4,0,2,1,2,2.6v4H58V12c0-0.9-0.2-1.2-0.8-1.2
			c-0.5,0-0.8,0.2-1.2,0.6v4.4h-1.9V6.7z"/>
		<path class="st3" d="M64.2,9.2c1.8,0,2.7,1.3,2.7,3.1c0,0.3,0,0.6-0.1,0.8H63c0.2,1,0.8,1.4,1.7,1.4c0.5,0,0.9-0.1,1.4-0.4
			l0.6,1.2C66,15.7,65.2,16,64.4,16c-1.8,0-3.3-1.2-3.3-3.4C61.1,10.5,62.6,9.2,64.2,9.2z M65.3,11.9c0-0.7-0.3-1.3-1.1-1.3
			c-0.6,0-1.1,0.4-1.2,1.3H65.3z"/>
		<path class="st3" d="M71.2,9.2c0.8,0,1.5,0.3,1.9,0.7l-0.9,1.2c-0.3-0.3-0.6-0.4-0.9-0.4c-0.9,0-1.5,0.7-1.5,1.8s0.6,1.8,1.4,1.8
			c0.5,0,0.8-0.2,1.2-0.5l0.8,1.2c-0.6,0.5-1.4,0.8-2.1,0.8c-1.8,0-3.2-1.2-3.2-3.4C67.9,10.4,69.5,9.2,71.2,9.2z"/>
		<path class="st3" d="M74.3,6.7h1.9v5.2h0.1l2-2.6h2.1L78.1,12l2.4,3.8h-2.1L77,13.3l-0.8,0.9v1.6h-1.9
			C74.3,15.8,74.3,6.7,74.3,6.7z"/>
		<path class="st3" d="M81.2,9.4h1.9v3.8c0,0.9,0.2,1.2,0.8,1.2c0.5,0,0.8-0.2,1.1-0.7V9.4h1.9v6.4h-1.6l-0.1-0.9l0,0
			c-0.5,0.7-1.1,1.1-2,1.1c-1.4,0-2-1-2-2.6C81.2,13.4,81.2,9.4,81.2,9.4z"/>
		<path class="st3" d="M90.5,16.3v1.9h-1.9V9.4h1.6l0.1,0.6h0.1c0.5-0.5,1.2-0.8,1.8-0.8c1.6,0,2.5,1.3,2.5,3.3
			c0,2.2-1.3,3.5-2.7,3.5c-0.6,0-1.1-0.2-1.5-0.7V16.3z M91.5,14.4c0.7,0,1.2-0.6,1.2-1.9c0-1.2-0.4-1.7-1.1-1.7
			c-0.4,0-0.7,0.2-1.1,0.6V14C90.8,14.3,91.2,14.4,91.5,14.4z"/>
		<path class="st3" d="M98.2,9.4h1.9l0.6,3c0.1,0.6,0.2,1.3,0.3,1.9h0.1c0.1-0.7,0.2-1.3,0.4-1.9l0.7-3h1.7l0.7,3
			c0.2,0.6,0.3,1.3,0.4,1.9h0.1c0.1-0.7,0.2-1.3,0.3-1.9l0.6-3h1.8l-1.5,6.4h-2.2l-0.6-2.6c-0.1-0.6-0.2-1.2-0.4-1.9H103
			c-0.1,0.7-0.2,1.3-0.3,1.9l-0.6,2.6h-2.2L98.2,9.4z"/>
		<path class="st3" d="M108.7,7.4c0-0.6,0.5-1,1.1-1s1.1,0.4,1.1,1s-0.5,1-1.1,1S108.7,8,108.7,7.4z M108.8,9.4h1.9v6.4h-1.9V9.4z"
			/>
		<path class="st3" d="M112.7,10.8h-0.9V9.4l1-0.1l0.2-1.7h1.6v1.7h1.5v1.5h-1.5v2.6c0,0.7,0.3,1,0.8,1c0.2,0,0.4-0.1,0.6-0.1
			l0.3,1.4c-0.3,0.1-0.8,0.2-1.4,0.2c-1.6,0-2.2-1-2.2-2.5V10.8z"/>
		<path class="st3" d="M117.4,6.7h1.9v2.2l-0.1,1.2c0.5-0.4,1.1-0.9,2-0.9c1.4,0,2,1,2,2.6v4h-1.9V12c0-0.9-0.2-1.2-0.8-1.2
			c-0.5,0-0.8,0.2-1.2,0.6v4.4h-1.9V6.7z"/>
		<path class="st3" d="M124.7,7.4c0-0.6,0.5-1,1.1-1c0.7,0,1.1,0.4,1.1,1s-0.5,1-1.1,1C125.1,8.4,124.7,8,124.7,7.4z M124.8,9.4h1.9
			v6.4h-1.9V9.4z"/>
		<path class="st3" d="M128.4,9.4h1.6l0.1,0.8h0.1c0.5-0.5,1.2-1,2.1-1c1.4,0,2,1,2,2.6v4h-1.9V12c0-0.9-0.2-1.2-0.8-1.2
			c-0.5,0-0.8,0.2-1.2,0.6v4.4h-1.9V9.4H128.4z"/>
	</g>
	<g class="st2">
		<path class="st3" d="M10.7,25.8H9.8v-1.4l1-0.1l0.2-1.7h1.6v1.7h1.5v1.5h-1.5v2.6c0,0.7,0.3,1,0.8,1c0.2,0,0.4-0.1,0.6-0.1
			l0.3,1.4C14,30.8,13.6,31,12.9,31c-1.6,0-2.2-1-2.2-2.5V25.8z"/>
		<path class="st3" d="M14.9,24.4h1.9l0.6,3c0.1,0.6,0.2,1.3,0.3,1.9h0.1c0.1-0.7,0.2-1.3,0.4-1.9l0.7-3h1.7l0.7,3
			c0.2,0.6,0.3,1.3,0.4,1.9h0.1c0.1-0.7,0.2-1.3,0.3-1.9l0.6-3h1.8L23,30.8h-2.2L20,28.2c-0.1-0.6-0.2-1.2-0.4-1.9h-0.1
			c-0.1,0.7-0.2,1.3-0.3,1.9l-0.6,2.6h-2.2L14.9,24.4z"/>
		<path class="st3" d="M28.2,24.2c1.6,0,3.1,1.2,3.1,3.4c0,2.1-1.5,3.4-3.1,3.4s-3.1-1.2-3.1-3.4C25,25.4,26.5,24.2,28.2,24.2z
			 M28.2,29.4c0.8,0,1.2-0.7,1.2-1.8c0-1.1-0.4-1.8-1.2-1.8c-0.8,0-1.2,0.7-1.2,1.8C27,28.7,27.4,29.4,28.2,29.4z"/>
		<path class="st3" d="M35.3,24.4h1.6l0.1,0.8h0.1c0.5-0.5,1.1-1,2-1s1.5,0.4,1.8,1.1c0.6-0.6,1.2-1.1,2-1.1c1.4,0,2,1,2,2.6v4H43
			V27c0-0.9-0.2-1.2-0.8-1.2c-0.3,0-0.7,0.2-1.1,0.6v4.4h-1.9V27c0-0.9-0.2-1.2-0.8-1.2c-0.3,0-0.7,0.2-1.1,0.6v4.4h-1.9L35.3,24.4
			L35.3,24.4z"/>
		<path class="st3" d="M49.2,24.2c1.6,0,3.1,1.2,3.1,3.4c0,2.1-1.5,3.4-3.1,3.4s-3.1-1.2-3.1-3.4C46.1,25.4,47.6,24.2,49.2,24.2z
			 M49.2,29.4c0.8,0,1.2-0.7,1.2-1.8c0-1.1-0.4-1.8-1.2-1.8S48,26.5,48,27.6C48.1,28.7,48.4,29.4,49.2,29.4z"/>
		<path class="st3" d="M53.7,24.4h1.6l0.1,0.8h0.1c0.5-0.5,1.2-1,2.1-1c1.4,0,2,1,2,2.6v4h-1.9V27c0-0.9-0.2-1.2-0.8-1.2
			c-0.5,0-0.8,0.2-1.2,0.6v4.4h-1.9L53.7,24.4L53.7,24.4z"/>
		<path class="st3" d="M61.4,25.8h-0.9v-1.4l1-0.1l0.2-1.7h1.6v1.7h1.5v1.5h-1.5v2.6c0,0.7,0.3,1,0.8,1c0.2,0,0.4-0.1,0.6-0.1
			l0.3,1.4c-0.3,0.1-0.8,0.2-1.4,0.2c-1.6,0-2.2-1-2.2-2.5C61.4,28.4,61.4,25.8,61.4,25.8z"/>
		<path class="st3" d="M66.1,21.7H68v2.2l-0.1,1.2c0.5-0.4,1.1-0.9,2-0.9c1.4,0,2,1,2,2.6v4H70V27c0-0.9-0.2-1.2-0.8-1.2
			c-0.5,0-0.8,0.2-1.2,0.6v4.4h-1.9V21.7z"/>
		<path class="st3" d="M73.8,28.9c0.6,0.4,1.1,0.7,1.7,0.7s0.8-0.2,0.8-0.5c0-0.4-0.7-0.6-1.3-0.9c-0.8-0.3-1.7-0.8-1.7-1.9
			c0-1.2,1-2,2.5-2c1,0,1.7,0.4,2.3,0.8l-0.9,1.1c-0.5-0.3-0.9-0.5-1.4-0.5s-0.7,0.2-0.7,0.5c0,0.4,0.6,0.6,1.3,0.8
			c0.8,0.3,1.7,0.8,1.7,1.9c0,1.2-0.9,2.1-2.7,2.1c-0.8,0-1.8-0.4-2.5-0.9L73.8,28.9z"/>
		<path class="st3" d="M85.4,26.7c0-0.6-0.3-0.9-1-0.9c-0.5,0-1.1,0.2-1.7,0.6L82,25c0.8-0.5,1.7-0.8,2.8-0.8c1.7,0,2.6,0.9,2.6,2.9
			v3.7h-1.6l-0.1-0.7l0,0c-0.7,0.5-1.3,0.9-2,0.9c-1.2,0-1.9-0.9-1.9-2C81.7,27.7,82.8,26.9,85.4,26.7z M84.3,29.5
			c0.4,0,0.7-0.2,1.1-0.5v-1.1c-1.4,0.2-1.8,0.6-1.8,1.1C83.6,29.3,83.9,29.5,84.3,29.5z"/>
		<path class="st3" d="M96.8,30.7C96.5,30.8,96,31,95.4,31c-1.6,0-2.2-1-2.2-2.5v-2.6h-2v5h-1.9v-5h-0.9v-1.4l0.9-0.1V24
			c0-1.4,0.6-2.5,2.4-2.5c0.5,0,1,0.1,1.3,0.2l-0.4,1.4C92.4,23,92.1,23,91.9,23c-0.5,0-0.7,0.3-0.7,0.9v0.4h2.1l0.2-1.7h1.6v1.7
			h1.5v1.5h-1.5v2.6c0,0.7,0.3,1,0.8,1c0.2,0,0.4-0.1,0.6-0.1L96.8,30.7z"/>
		<path class="st3" d="M100.4,24.2c1.8,0,2.7,1.3,2.7,3.1c0,0.3,0,0.6-0.1,0.8h-3.9c0.2,1,0.8,1.4,1.7,1.4c0.5,0,0.9-0.1,1.4-0.4
			l0.6,1.2c-0.7,0.5-1.5,0.7-2.3,0.7c-1.8,0-3.3-1.2-3.3-3.4C97.4,25.5,98.9,24.2,100.4,24.2z M101.5,26.9c0-0.7-0.3-1.3-1.1-1.3
			c-0.6,0-1.1,0.4-1.2,1.3H101.5z"/>
		<path class="st3" d="M104.5,24.4h1.6l0.1,1.1h0.1c0.5-0.9,1.2-1.3,1.8-1.3c0.4,0,0.6,0.1,0.8,0.1l-0.3,1.7
			c-0.2-0.1-0.4-0.1-0.7-0.1c-0.5,0-1.1,0.3-1.4,1.2v3.7h-1.9L104.5,24.4L104.5,24.4z"/>
		<path class="st3" d="M114.7,24.2c0.7,0,1.1,0.3,1.6,0.7l-0.1-1v-2.2h1.9v9.1h-1.6l-0.1-0.6h-0.1c-0.5,0.5-1.1,0.8-1.7,0.8
			c-1.6,0-2.6-1.3-2.6-3.4C112,25.5,113.3,24.2,114.7,24.2z M115.1,29.4c0.4,0,0.7-0.2,1.1-0.6v-2.6c-0.3-0.3-0.7-0.4-1.1-0.4
			c-0.6,0-1.2,0.6-1.2,1.8C114,28.8,114.4,29.4,115.1,29.4z"/>
		<path class="st3" d="M122.5,24.2c1.8,0,2.7,1.3,2.7,3.1c0,0.3,0,0.6-0.1,0.8h-3.9c0.2,1,0.8,1.4,1.7,1.4c0.5,0,0.9-0.1,1.4-0.4
			l0.6,1.2c-0.7,0.5-1.5,0.7-2.3,0.7c-1.8,0-3.3-1.2-3.3-3.4C119.4,25.5,120.9,24.2,122.5,24.2z M123.6,26.9c0-0.7-0.3-1.3-1.1-1.3
			c-0.6,0-1.1,0.4-1.2,1.3H123.6z"/>
		<path class="st3" d="M126.5,21.7h1.9v7.2c0,0.4,0.2,0.5,0.3,0.5s0.1,0,0.2,0l0.2,1.4c-0.2,0.1-0.5,0.2-1,0.2
			c-1.3,0-1.8-0.9-1.8-2.2v-7.1H126.5z"/>
		<path class="st3" d="M130.1,22.4c0-0.6,0.5-1,1.1-1c0.7,0,1.1,0.4,1.1,1s-0.5,1-1.1,1S130.1,23,130.1,22.4z M130.3,24.4h1.9v6.4
			h-1.9V24.4z"/>
		<path class="st3" d="M133.1,24.4h1.9l0.8,3c0.2,0.6,0.3,1.3,0.5,2h0.1c0.2-0.7,0.3-1.4,0.5-2l0.8-3h1.8l-2.1,6.4h-2.2L133.1,24.4z
			"/>
		<path class="st3" d="M143.2,24.2c1.8,0,2.7,1.3,2.7,3.1c0,0.3,0,0.6-0.1,0.8H142c0.2,1,0.8,1.4,1.7,1.4c0.5,0,0.9-0.1,1.4-0.4
			l0.6,1.2c-0.7,0.5-1.5,0.7-2.3,0.7c-1.8,0-3.3-1.2-3.3-3.4C140.2,25.5,141.7,24.2,143.2,24.2z M144.3,26.9c0-0.7-0.3-1.3-1.1-1.3
			c-0.6,0-1.1,0.4-1.2,1.3H144.3z"/>
		<path class="st3" d="M147.3,24.4h1.6l0.1,1.1h0.1c0.5-0.9,1.2-1.3,1.8-1.3c0.4,0,0.6,0.1,0.8,0.1l-0.3,1.7
			c-0.2-0.1-0.4-0.1-0.7-0.1c-0.5,0-1.1,0.3-1.4,1.2v3.7h-1.9v-6.4H147.3z"/>
		<path class="st3" d="M153.1,31.8c0.6,0,1-0.3,1.1-0.8l0.1-0.3l-2.5-6.3h1.9l0.9,2.8c0.2,0.6,0.3,1.2,0.5,1.8h0.1
			c0.1-0.6,0.3-1.2,0.4-1.8l0.8-2.8h1.8l-2.2,6.5c-0.6,1.6-1.3,2.5-2.8,2.5c-0.4,0-0.6-0.1-0.9-0.1l0.3-1.5
			C152.8,31.8,152.9,31.8,153.1,31.8z"/>
	</g>
</g>
<g>
	<path class="st4" d="M15.1,41.3c0.9,0,1.7,0.5,2.2,1l-0.8,0.9c-0.4-0.4-0.8-0.6-1.4-0.6c-1.3,0-2.2,1.1-2.2,2.8
		c0,1.8,0.8,2.9,2.2,2.9c0.7,0,1.2-0.3,1.6-0.8l0.8,0.9C16.8,49,16,49.4,15,49.4c-2,0-3.6-1.4-3.6-4C11.4,42.8,13.1,41.3,15.1,41.3z
		"/>
	<path class="st4" d="M21.1,43.3c1.5,0,2.8,1.1,2.8,3.1c0,2-1.3,3.1-2.8,3.1c-1.5,0-2.8-1.1-2.8-3.1C18.3,44.4,19.6,43.3,21.1,43.3z
		 M21.1,48.3c0.9,0,1.4-0.8,1.4-2c0-1.2-0.5-2-1.4-2s-1.4,0.8-1.4,2C19.7,47.5,20.2,48.3,21.1,48.3z"/>
	<path class="st4" d="M24.4,43.4h1.4l0.9,3.1c0.2,0.6,0.3,1.2,0.5,1.8h0c0.2-0.6,0.3-1.2,0.5-1.8l0.9-3.1h1.3l-2,5.9h-1.6L24.4,43.4
		z"/>
	<path class="st4" d="M33.4,43.3c1.6,0,2.4,1.2,2.4,2.8c0,0.3,0,0.5-0.1,0.6H32c0.1,1.1,0.8,1.7,1.7,1.7c0.5,0,0.9-0.2,1.4-0.4
		l0.5,0.9c-0.6,0.4-1.3,0.6-2,0.6c-1.6,0-2.9-1.1-2.9-3.1C30.6,44.4,32,43.3,33.4,43.3z M34.6,45.8c0-0.9-0.4-1.5-1.2-1.5
		c-0.7,0-1.3,0.5-1.4,1.5H34.6z"/>
	<path class="st4" d="M37.1,43.4h1.1l0.1,1h0c0.4-0.8,1-1.2,1.7-1.2c0.3,0,0.5,0,0.7,0.1l-0.2,1.2c-0.2-0.1-0.4-0.1-0.6-0.1
		c-0.5,0-1,0.3-1.4,1.2v3.6h-1.4V43.4z"/>
	<path class="st4" d="M44.5,45.5c0-0.6-0.3-1.2-1.1-1.2c-0.6,0-1.1,0.3-1.7,0.6L41.3,44c0.6-0.4,1.5-0.8,2.4-0.8
		c1.5,0,2.2,0.9,2.2,2.5v3.5h-1.1l-0.1-0.6h0c-0.5,0.4-1.1,0.8-1.8,0.8c-1,0-1.8-0.7-1.8-1.7C41,46.5,42.1,45.8,44.5,45.5z
		 M43.2,48.4c0.5,0,0.9-0.2,1.3-0.6v-1.3c-1.6,0.2-2.1,0.6-2.1,1.2C42.4,48.1,42.7,48.4,43.2,48.4z"/>
	<path class="st4" d="M48,49.1L48,49.1c-0.3-0.2-0.5-0.6-0.5-1c0-0.5,0.3-0.9,0.6-1.1v0c-0.4-0.3-0.8-0.9-0.8-1.6
		c0-1.4,1.1-2.1,2.3-2.1c0.3,0,0.6,0.1,0.9,0.1h2.1v1h-1.1c0.2,0.2,0.3,0.6,0.3,1c0,1.3-1,2-2.2,2c-0.3,0-0.5,0-0.8-0.2
		c-0.2,0.2-0.3,0.3-0.3,0.6c0,0.3,0.2,0.5,1,0.5h1c1.4,0,2.2,0.4,2.2,1.5c0,1.2-1.2,2.1-3.1,2.1c-1.4,0-2.4-0.5-2.4-1.5
		C47.1,49.9,47.4,49.4,48,49.1z M49.8,51c0.9,0,1.6-0.4,1.6-0.9c0-0.5-0.4-0.6-1-0.6h-0.8c-0.3,0-0.6,0-0.8-0.1
		c-0.3,0.2-0.5,0.5-0.5,0.8C48.3,50.7,48.9,51,49.8,51z M50.7,45.4c0-0.7-0.4-1.2-1-1.2c-0.6,0-1,0.4-1,1.2c0,0.8,0.5,1.2,1,1.2
		C50.2,46.6,50.7,46.1,50.7,45.4z"/>
	<path class="st4" d="M55.9,43.3c1.6,0,2.4,1.2,2.4,2.8c0,0.3,0,0.5-0.1,0.6h-3.7c0.1,1.1,0.8,1.7,1.7,1.7c0.5,0,0.9-0.2,1.4-0.4
		l0.5,0.9c-0.6,0.4-1.3,0.6-2,0.6c-1.6,0-2.9-1.1-2.9-3.1C53.2,44.4,54.5,43.3,55.9,43.3z M57.2,45.8c0-0.9-0.4-1.5-1.2-1.5
		c-0.7,0-1.3,0.5-1.4,1.5H57.2z"/>
	<path class="st3" d="M11.9,60.5h1.4v3.2h3.2v-3.2h1.4v7.8h-1.4v-3.5h-3.2v3.5h-1.4V60.5z"/>
	<path class="st3" d="M19.4,64.3c0-2.5,1.4-4,3.5-4c2.1,0,3.5,1.5,3.5,4c0,2.5-1.4,4.1-3.5,4.1C20.8,68.4,19.4,66.9,19.4,64.3z
		 M24.9,64.3c0-1.8-0.8-2.8-2-2.8s-2,1.1-2,2.8c0,1.8,0.8,2.9,2,2.9S24.9,66.1,24.9,64.3z"/>
	<path class="st3" d="M27.9,60.5h1.4v7.8h-1.4V60.5z"/>
</g>
</svg>
