<?xml version="1.0" encoding="utf-8"?>
<!-- Generator: Adobe Illustrator 20.0.0, SVG Export Plug-In . SVG Version: 6.00 Build 0)  -->
<svg version="1.1" id="Capa_1" xmlns="http://www.w3.org/2000/svg" xmlns:xlink="http://www.w3.org/1999/xlink" x="0px" y="0px"
	 viewBox="0 0 190.5 88.3" style="enable-background:new 0 0 190.5 88.3;" xml:space="preserve">
<style type="text/css">
	.st0{fill:#FFFFFF;stroke:#000000;stroke-width:0.25;stroke-miterlimit:10;}
	.st1{opacity:0.5;fill:none;stroke:#000000;stroke-width:0.25;stroke-miterlimit:10;enable-background:new    ;}
	.st2{enable-background:new    ;}
	.st3{fill:#44B254;}
	.st4{fill:#495E4A;}
</style>
<polygon class="st0" points="190.4,80.4 104.5,80.4 96.9,88.1 89.3,80.4 0.1,80.4 0.1,0.1 190.4,0.1 "/>
<line class="st1" x1="9.6" y1="52.9" x2="179.9" y2="52.9"/>
<g>
	<g class="st2">
		<path class="st3" d="M10.6,7.5h1.9v3.3h2.9V7.5h1.9V16h-1.9v-3.5h-2.9V16h-1.9V7.5z"/>
		<path class="st3" d="M22.6,11.9c0-0.6-0.3-0.9-1-0.9c-0.5,0-1.1,0.2-1.7,0.6l-0.7-1.3C20,9.8,20.9,9.5,22,9.5
			c1.7,0,2.6,0.9,2.6,2.9V16H23l-0.1-0.7l0,0c-0.5,0.5-1.2,0.8-1.9,0.8c-1.2,0-1.9-0.9-1.9-2C19,12.9,20.1,12.1,22.6,11.9z
			 M21.5,14.7c0.4,0,0.7-0.2,1.1-0.5V13c-1.4,0.2-1.8,0.6-1.8,1.1C20.8,14.5,21.1,14.7,21.5,14.7z"/>
		<path class="st3" d="M25.5,9.6h1.9l0.8,3c0.2,0.6,0.3,1.3,0.5,2h0.1c0.2-0.7,0.3-1.4,0.5-2l0.8-3h1.8L29.8,16h-2.2L25.5,9.6z"/>
		<path class="st3" d="M32.8,7.6c0-0.6,0.5-1,1.1-1c0.7,0,1.1,0.4,1.1,1s-0.5,1-1.1,1S32.8,8.2,32.8,7.6z M32.9,9.6h1.9V16h-1.9V9.6
			z"/>
		<path class="st3" d="M36.5,9.6h1.6l0.1,0.8h0.1c0.5-0.5,1.2-1,2.1-1c1.4,0,2,1,2,2.6v4h-1.9v-3.8c0-0.9-0.2-1.2-0.8-1.2
			c-0.5,0-0.8,0.2-1.2,0.6V16h-1.9L36.5,9.6L36.5,9.6z"/>
		<path class="st3" d="M44.5,15.8L44.5,15.8c-0.3-0.3-0.6-0.6-0.6-1.1s0.3-0.9,0.7-1.2v-0.1c-0.5-0.3-0.9-0.9-0.9-1.7
			c0-1.5,1.3-2.3,2.7-2.3c0.4,0,0.7,0.1,1,0.2h2.4V11h-1c0.1,0.2,0.2,0.5,0.2,0.8c0,1.5-1.1,2.2-2.5,2.2c-0.2,0-0.5,0-0.8-0.1
			c-0.2,0.1-0.2,0.3-0.2,0.5c0,0.3,0.3,0.5,1,0.5h1c1.6,0,2.5,0.5,2.5,1.6c0,1.3-1.4,2.3-3.6,2.3c-1.5,0-2.7-0.5-2.7-1.6
			C43.6,16.6,43.9,16.1,44.5,15.8z M46.6,17.5c0.9,0,1.5-0.4,1.5-0.8s-0.4-0.5-1-0.5h-0.7c-0.4,0-0.7,0-0.9-0.1
			c-0.2,0.2-0.4,0.4-0.4,0.6C45.1,17.3,45.7,17.5,46.6,17.5z M47.3,11.7c0-0.7-0.4-1-0.9-1s-0.9,0.4-0.9,1c0,0.7,0.4,1.1,0.9,1.1
			S47.3,12.4,47.3,11.7z"/>
		<path class="st3" d="M53.6,6.9h1.9v2.2l-0.1,1c0.5-0.4,1.1-0.7,1.7-0.7c1.6,0,2.5,1.3,2.5,3.3c0,2.2-1.3,3.5-2.7,3.5
			c-0.6,0-1.2-0.3-1.7-0.8h-0.1l0,0.6h-1.5V6.9z M56.6,14.6c0.7,0,1.2-0.6,1.2-1.9c0-1.2-0.4-1.7-1.1-1.7c-0.4,0-0.7,0.2-1.1,0.6
			v2.6C55.9,14.5,56.2,14.6,56.6,14.6z"/>
		<path class="st3" d="M63.7,9.4c1.8,0,2.7,1.3,2.7,3.1c0,0.3,0,0.6-0.1,0.8h-3.9c0.2,1,0.8,1.4,1.7,1.4c0.5,0,0.9-0.1,1.4-0.4
			l0.6,1.2c-0.7,0.5-1.5,0.7-2.3,0.7c-1.8,0-3.3-1.2-3.3-3.4C60.7,10.7,62.2,9.4,63.7,9.4z M64.9,12.1c0-0.7-0.3-1.3-1.1-1.3
			c-0.6,0-1.1,0.4-1.2,1.3H64.9z"/>
		<path class="st3" d="M70.5,9.4c1.8,0,2.7,1.3,2.7,3.1c0,0.3,0,0.6-0.1,0.8h-3.9c0.2,1,0.8,1.4,1.7,1.4c0.5,0,0.9-0.1,1.4-0.4
			l0.6,1.2c-0.7,0.5-1.5,0.7-2.3,0.7c-1.8,0-3.3-1.2-3.3-3.4C67.4,10.7,68.9,9.4,70.5,9.4z M71.6,12.1c0-0.7-0.3-1.3-1.1-1.3
			c-0.6,0-1.1,0.4-1.2,1.3H71.6z"/>
		<path class="st3" d="M74.5,9.6h1.6l0.1,0.8h0.1c0.5-0.5,1.2-1,2.1-1c1.4,0,2,1,2,2.6v4h-1.9v-3.8c0-0.9-0.2-1.2-0.8-1.2
			c-0.5,0-0.8,0.2-1.2,0.6V16h-1.9L74.5,9.6L74.5,9.6z"/>
		<path class="st3" d="M87.4,9.4c1.6,0,3.1,1.2,3.1,3.4c0,2.1-1.5,3.4-3.1,3.4s-3.1-1.2-3.1-3.4S85.8,9.4,87.4,9.4z M87.4,14.6
			c0.8,0,1.2-0.7,1.2-1.8S88.2,11,87.4,11c-0.8,0-1.2,0.7-1.2,1.8C86.3,13.9,86.7,14.6,87.4,14.6z"/>
		<path class="st3" d="M99.6,8.4c-0.2-0.1-0.5-0.1-0.7-0.1c-0.5,0-0.7,0.3-0.7,0.9v0.4h1.2V11h-1.2v5h-1.9v-5h-2.2v5h-1.9v-5h-0.9
			V9.6l0.9-0.1V9.3c0-1.3,0.7-2.4,2.4-2.4c0.5,0,1,0.1,1.3,0.2l-0.4,1.4c-0.2-0.1-0.4-0.1-0.8-0.1s-0.8,0.3-0.8,0.9v0.3h2.2V9.2
			c0-1.4,0.6-2.5,2.4-2.5c0.5,0,1,0.1,1.3,0.2L99.6,8.4z"/>
		<path class="st3" d="M102.9,9.4c1.8,0,2.7,1.3,2.7,3.1c0,0.3,0,0.6-0.1,0.8h-3.9c0.2,1,0.8,1.4,1.7,1.4c0.5,0,0.9-0.1,1.4-0.4
			l0.6,1.2c-0.7,0.5-1.5,0.7-2.3,0.7c-1.8,0-3.3-1.2-3.3-3.4C99.8,10.7,101.3,9.4,102.9,9.4z M104,12.1c0-0.7-0.3-1.3-1.1-1.3
			c-0.6,0-1.1,0.4-1.2,1.3H104z"/>
		<path class="st3" d="M107,9.6h1.6l0.1,1.1h0.1c0.5-0.9,1.2-1.3,1.8-1.3c0.4,0,0.6,0.1,0.8,0.1l-0.3,1.7c-0.2-0.1-0.4-0.1-0.7-0.1
			c-0.5,0-1.1,0.3-1.4,1.2V16h-2V9.6z"/>
		<path class="st3" d="M114.7,9.4c1.8,0,2.7,1.3,2.7,3.1c0,0.3,0,0.6-0.1,0.8h-3.9c0.2,1,0.8,1.4,1.7,1.4c0.5,0,0.9-0.1,1.4-0.4
			l0.6,1.2c-0.7,0.5-1.5,0.7-2.3,0.7c-1.8,0-3.3-1.2-3.3-3.4C111.6,10.7,113.1,9.4,114.7,9.4z M115.8,12.1c0-0.7-0.3-1.3-1.1-1.3
			c-0.6,0-1.1,0.4-1.2,1.3H115.8z"/>
		<path class="st3" d="M121.1,9.4c0.7,0,1.1,0.3,1.6,0.7l-0.1-1V6.9h1.9V16h-1.6l-0.1-0.6h-0.1c-0.5,0.5-1.1,0.8-1.7,0.8
			c-1.6,0-2.6-1.3-2.6-3.4C118.4,10.7,119.7,9.4,121.1,9.4z M121.5,14.6c0.4,0,0.7-0.2,1.1-0.6v-2.6c-0.3-0.3-0.7-0.4-1.1-0.4
			c-0.6,0-1.2,0.6-1.2,1.8C120.4,14,120.8,14.6,121.5,14.6z"/>
		<path class="st3" d="M132.3,11.9c0-0.6-0.3-0.9-1-0.9c-0.5,0-1.1,0.2-1.7,0.6l-0.7-1.3c0.8-0.5,1.7-0.8,2.8-0.8
			c1.7,0,2.6,0.9,2.6,2.9V16h-1.6l-0.1-0.7l0,0c-0.5,0.5-1.2,0.8-1.9,0.8c-1.2,0-1.9-0.9-1.9-2C128.7,12.9,129.7,12.1,132.3,11.9z
			 M131.2,14.7c0.4,0,0.7-0.2,1.1-0.5V13c-1.4,0.2-1.8,0.6-1.8,1.1C130.5,14.5,130.8,14.7,131.2,14.7z"/>
		<path class="st3" d="M135.8,9.6h1.6l0.1,0.8h0.1c0.5-0.5,1.2-1,2.1-1c1.4,0,2,1,2,2.6v4h-1.9v-3.8c0-0.9-0.2-1.2-0.8-1.2
			c-0.5,0-0.8,0.2-1.2,0.6V16h-1.9V9.6H135.8z"/>
		<path class="st3" d="M146.1,7.5h1.9v3.3h2.9V7.5h1.9V16H151v-3.5h-3V16h-1.9V7.5z"/>
		<path class="st3" d="M154.9,7.5h1.9V16h-1.9V7.5z"/>
		<path class="st3" d="M157.7,7.5h2l1,4c0.3,0.9,0.4,1.8,0.7,2.7h0.1c0.2-0.9,0.4-1.8,0.7-2.7l1-4h2l-2.5,8.5h-2.3L157.7,7.5z"/>
	</g>
	<g class="st2">
		<path class="st3" d="M10.7,26H9.8v-1.4l1-0.1l0.2-1.7h1.6v1.7h1.5V26h-1.5v2.6c0,0.7,0.3,1,0.8,1c0.2,0,0.4-0.1,0.6-0.1l0.3,1.4
			c-0.3,0.1-0.8,0.2-1.4,0.2c-1.6,0-2.2-1-2.2-2.5C10.7,28.6,10.7,26,10.7,26z"/>
		<path class="st3" d="M18,24.4c1.8,0,2.7,1.3,2.7,3.1c0,0.3,0,0.6-0.1,0.8h-3.9c0.2,1,0.8,1.4,1.7,1.4c0.5,0,0.9-0.1,1.4-0.4
			l0.6,1.2c-0.7,0.5-1.5,0.7-2.3,0.7c-1.8,0-3.3-1.2-3.3-3.4C14.9,25.7,16.4,24.4,18,24.4z M19.1,27.1c0-0.7-0.3-1.3-1.1-1.3
			c-0.6,0-1.1,0.4-1.2,1.3H19.1z"/>
		<path class="st3" d="M22.3,29.1c0.6,0.4,1.1,0.7,1.7,0.7s0.8-0.2,0.8-0.5c0-0.4-0.7-0.6-1.3-0.9c-0.8-0.3-1.7-0.8-1.7-1.9
			c0-1.2,1-2,2.5-2c1,0,1.7,0.4,2.3,0.8l-0.9,1.1c-0.5-0.3-0.9-0.5-1.4-0.5s-0.7,0.2-0.7,0.5c0,0.4,0.6,0.6,1.3,0.8
			c0.8,0.3,1.7,0.8,1.7,1.9c0,1.2-0.9,2.1-2.7,2.1c-0.8,0-1.8-0.4-2.5-0.9L22.3,29.1z"/>
		<path class="st3" d="M28,26h-0.9v-1.4l1-0.1l0.2-1.7H30v1.7h1.5V26H30v2.6c0,0.7,0.3,1,0.8,1c0.2,0,0.4-0.1,0.6-0.1l0.3,1.4
			c-0.3,0.1-0.8,0.2-1.4,0.2c-1.6,0-2.2-1-2.2-2.5L28,26L28,26z"/>
		<path class="st3" d="M37.8,24.4c0.7,0,1.1,0.3,1.6,0.7l-0.1-1v-2.2h1.9V31h-1.6l-0.1-0.6h-0.1c-0.5,0.5-1.1,0.8-1.7,0.8
			c-1.6,0-2.6-1.3-2.6-3.4C35.1,25.7,36.4,24.4,37.8,24.4z M38.3,29.6c0.4,0,0.7-0.2,1.1-0.6v-2.6C39,26.1,38.6,26,38.3,26
			c-0.6,0-1.2,0.6-1.2,1.8C37.1,29,37.5,29.6,38.3,29.6z"/>
		<path class="st3" d="M42.9,24.6h1.9v3.8c0,0.9,0.2,1.2,0.8,1.2c0.5,0,0.8-0.2,1.1-0.7v-4.3h1.9V31H47l-0.1-0.9l0,0
			c-0.5,0.7-1.1,1.1-2,1.1c-1.4,0-2-1-2-2.6C42.9,28.6,42.9,24.6,42.9,24.6z"/>
		<path class="st3" d="M50.3,24.6h1.6l0.1,1.1h0c0.5-0.9,1.2-1.3,1.8-1.3c0.4,0,0.6,0.1,0.8,0.1l-0.3,1.7c-0.2-0.1-0.4-0.1-0.7-0.1
			c-0.5,0-1.1,0.3-1.4,1.2V31h-1.9C50.3,31,50.3,24.6,50.3,24.6z"/>
		<path class="st3" d="M55.3,22.6c0-0.6,0.5-1,1.1-1c0.7,0,1.1,0.4,1.1,1s-0.5,1-1.1,1S55.3,23.2,55.3,22.6z M55.5,24.6h1.9V31h-1.9
			V24.6z"/>
		<path class="st3" d="M59.1,24.6h1.6l0.1,0.8h0.1c0.5-0.5,1.2-1,2.1-1c1.4,0,2,1,2,2.6v4h-2v-3.8c0-0.9-0.2-1.2-0.8-1.2
			c-0.5,0-0.8,0.2-1.2,0.6V31h-1.9V24.6z"/>
		<path class="st3" d="M67,30.8L67,30.8c-0.3-0.3-0.6-0.6-0.6-1.1s0.3-0.9,0.7-1.2v-0.1c-0.5-0.3-0.9-0.9-0.9-1.7
			c0-1.5,1.3-2.3,2.7-2.3c0.4,0,0.7,0.1,1,0.2h2.4V26h-1c0.1,0.2,0.2,0.5,0.2,0.8c0,1.5-1.1,2.2-2.5,2.2c-0.2,0-0.5,0-0.8-0.1
			C68,29,68,29.2,68,29.4c0,0.3,0.3,0.5,1,0.5h1c1.6,0,2.5,0.5,2.5,1.6c0,1.3-1.4,2.3-3.6,2.3c-1.5,0-2.7-0.5-2.7-1.6
			C66.1,31.6,66.4,31.1,67,30.8z M69.1,32.5c0.9,0,1.5-0.4,1.5-0.8c0-0.4-0.4-0.5-1-0.5h-0.7c-0.4,0-0.7,0-0.9-0.1
			c-0.2,0.2-0.4,0.4-0.4,0.6C67.7,32.3,68.2,32.5,69.1,32.5z M69.8,26.7c0-0.7-0.4-1-0.9-1s-0.9,0.4-0.9,1c0,0.7,0.4,1.1,0.9,1.1
			C69.5,27.8,69.8,27.4,69.8,26.7z"/>
		<path class="st3" d="M78.1,31.5v1.9h-1.9v-8.8h1.6l0.1,0.6H78c0.5-0.5,1.2-0.8,1.8-0.8c1.6,0,2.5,1.3,2.5,3.3
			c0,2.2-1.3,3.5-2.7,3.5c-0.6,0-1.1-0.2-1.5-0.7V31.5z M79.1,29.6c0.7,0,1.2-0.6,1.2-1.9c0-1.2-0.4-1.7-1.1-1.7
			c-0.4,0-0.7,0.2-1.1,0.6v2.6C78.4,29.5,78.8,29.6,79.1,29.6z"/>
		<path class="st3" d="M83.6,24.6h1.6l0.1,1.1h0.1c0.5-0.9,1.2-1.3,1.8-1.3c0.4,0,0.6,0.1,0.8,0.1l-0.3,1.7
			c-0.2-0.1-0.4-0.1-0.7-0.1c-0.5,0-1.1,0.3-1.4,1.2V31h-1.9L83.6,24.6L83.6,24.6z"/>
		<path class="st3" d="M91.3,24.4c1.8,0,2.7,1.3,2.7,3.1c0,0.3,0,0.6-0.1,0.8H90c0.2,1,0.8,1.4,1.7,1.4c0.5,0,0.9-0.1,1.4-0.4
			l0.6,1.2c-0.7,0.5-1.5,0.7-2.3,0.7c-1.8,0-3.3-1.2-3.3-3.4C88.3,25.7,89.8,24.4,91.3,24.4z M92.4,27.1c0-0.7-0.3-1.3-1.1-1.3
			c-0.6,0-1.1,0.4-1.2,1.3H92.4z"/>
		<path class="st3" d="M95.8,30.8L95.8,30.8c-0.3-0.3-0.6-0.6-0.6-1.1s0.3-0.9,0.7-1.2v-0.1c-0.5-0.3-0.9-0.9-0.9-1.7
			c0-1.5,1.3-2.3,2.7-2.3c0.4,0,0.7,0.1,1,0.2h2.4V26h-1c0.1,0.2,0.2,0.5,0.2,0.8c0,1.5-1.1,2.2-2.5,2.2c-0.2,0-0.5,0-0.8-0.1
			c-0.2,0.1-0.2,0.3-0.2,0.5c0,0.3,0.3,0.5,1,0.5h1c1.6,0,2.5,0.5,2.5,1.6c0,1.3-1.4,2.3-3.6,2.3c-1.5,0-2.7-0.5-2.7-1.6
			C94.8,31.6,95.2,31.1,95.8,30.8z M97.8,32.5c0.9,0,1.5-0.4,1.5-0.8c0-0.4-0.4-0.5-1-0.5h-0.7c-0.4,0-0.7,0-0.9-0.1
			c-0.2,0.2-0.4,0.4-0.4,0.6C96.4,32.3,97,32.5,97.8,32.5z M98.6,26.7c0-0.7-0.4-1-0.9-1s-0.9,0.4-0.9,1c0,0.7,0.4,1.1,0.9,1.1
			S98.6,27.4,98.6,26.7z"/>
		<path class="st3" d="M102.2,24.6h1.6l0.1,0.8h0.1c0.5-0.5,1.2-1,2.1-1c1.4,0,2,1,2,2.6v4h-1.9v-3.8c0-0.9-0.2-1.2-0.8-1.2
			c-0.5,0-0.8,0.2-1.2,0.6V31h-1.9L102.2,24.6L102.2,24.6z"/>
		<path class="st3" d="M113,26.9c0-0.6-0.3-0.9-1-0.9c-0.5,0-1.1,0.2-1.7,0.6l-0.7-1.3c0.8-0.5,1.7-0.8,2.8-0.8
			c1.7,0,2.6,0.9,2.6,2.9V31h-1.6l-0.1-0.7l0,0c-0.5,0.5-1.2,0.8-1.9,0.8c-1.2,0-1.9-0.9-1.9-2C109.4,27.9,110.5,27.1,113,26.9z
			 M111.9,29.7c0.4,0,0.7-0.2,1.1-0.5V28c-1.4,0.2-1.8,0.6-1.8,1.1C111.2,29.5,111.5,29.7,111.9,29.7z"/>
		<path class="st3" d="M116.6,24.6h1.6l0.1,0.8h0.1c0.5-0.5,1.2-1,2.1-1c1.4,0,2,1,2,2.6v4h-1.9v-3.8c0-0.9-0.2-1.2-0.8-1.2
			c-0.5,0-0.8,0.2-1.2,0.6V31h-1.9L116.6,24.6L116.6,24.6z"/>
		<path class="st3" d="M127,24.4c0.8,0,1.5,0.3,1.9,0.7l-0.9,1.2c-0.3-0.3-0.6-0.4-0.9-0.4c-0.9,0-1.5,0.7-1.5,1.8
			c0,1.1,0.6,1.8,1.4,1.8c0.5,0,0.8-0.2,1.2-0.5l0.8,1.2c-0.6,0.5-1.4,0.8-2.1,0.8c-1.8,0-3.2-1.2-3.2-3.4
			C123.6,25.6,125.2,24.4,127,24.4z"/>
		<path class="st3" d="M130.6,32c0.6,0,1-0.3,1.1-0.8l0.1-0.3l-2.5-6.3h1.9l0.9,2.8c0.2,0.6,0.3,1.2,0.5,1.8h0.1
			c0.1-0.6,0.3-1.2,0.4-1.8l0.8-2.8h1.8l-2.2,6.5c-0.6,1.6-1.3,2.5-2.8,2.5c-0.4,0-0.6-0.1-0.9-0.1l0.3-1.5
			C130.3,32,130.5,32,130.6,32z"/>
	</g>
</g>
<g>
	<path class="st4" d="M15.1,41.3c0.9,0,1.7,0.5,2.2,1l-0.8,0.9c-0.4-0.4-0.8-0.6-1.4-0.6c-1.3,0-2.2,1.1-2.2,2.8
		c0,1.8,0.8,2.9,2.2,2.9c0.7,0,1.2-0.3,1.6-0.8l0.8,0.9C16.8,49,16,49.4,15,49.4c-2,0-3.6-1.4-3.6-4C11.4,42.8,13.1,41.3,15.1,41.3z
		"/>
	<path class="st4" d="M21.1,43.3c1.5,0,2.8,1.1,2.8,3.1c0,2-1.3,3.1-2.8,3.1c-1.5,0-2.8-1.1-2.8-3.1C18.3,44.4,19.6,43.3,21.1,43.3z
		 M21.1,48.3c0.9,0,1.4-0.8,1.4-2c0-1.2-0.5-2-1.4-2s-1.4,0.8-1.4,2C19.7,47.5,20.2,48.3,21.1,48.3z"/>
	<path class="st4" d="M24.4,43.4h1.4l0.9,3.1c0.2,0.6,0.3,1.2,0.5,1.8h0c0.2-0.6,0.3-1.2,0.5-1.8l0.9-3.1h1.3l-2,5.9h-1.6L24.4,43.4
		z"/>
	<path class="st4" d="M33.4,43.3c1.6,0,2.4,1.2,2.4,2.8c0,0.3,0,0.5-0.1,0.6H32c0.1,1.1,0.8,1.7,1.7,1.7c0.5,0,0.9-0.2,1.4-0.4
		l0.5,0.9c-0.6,0.4-1.3,0.6-2,0.6c-1.6,0-2.9-1.1-2.9-3.1C30.6,44.4,32,43.3,33.4,43.3z M34.6,45.8c0-0.9-0.4-1.5-1.2-1.5
		c-0.7,0-1.3,0.5-1.4,1.5H34.6z"/>
	<path class="st4" d="M37.1,43.4h1.1l0.1,1h0c0.4-0.8,1-1.2,1.7-1.2c0.3,0,0.5,0,0.7,0.1l-0.2,1.2c-0.2-0.1-0.4-0.1-0.6-0.1
		c-0.5,0-1,0.3-1.4,1.2v3.6h-1.4V43.4z"/>
	<path class="st4" d="M44.5,45.5c0-0.6-0.3-1.2-1.1-1.2c-0.6,0-1.1,0.3-1.7,0.6L41.3,44c0.6-0.4,1.5-0.8,2.4-0.8
		c1.5,0,2.2,0.9,2.2,2.5v3.5h-1.1l-0.1-0.6h0c-0.5,0.4-1.1,0.8-1.8,0.8c-1,0-1.8-0.7-1.8-1.7C41,46.5,42.1,45.8,44.5,45.5z
		 M43.2,48.4c0.5,0,0.9-0.2,1.3-0.6v-1.3c-1.6,0.2-2.1,0.6-2.1,1.2C42.4,48.1,42.7,48.4,43.2,48.4z"/>
	<path class="st4" d="M48,49.1L48,49.1c-0.3-0.2-0.5-0.6-0.5-1c0-0.5,0.3-0.9,0.6-1.1v0c-0.4-0.3-0.8-0.9-0.8-1.6
		c0-1.4,1.1-2.1,2.3-2.1c0.3,0,0.6,0.1,0.9,0.1h2.1v1h-1.1c0.2,0.2,0.3,0.6,0.3,1c0,1.3-1,2-2.2,2c-0.3,0-0.5,0-0.8-0.2
		c-0.2,0.2-0.3,0.3-0.3,0.6c0,0.3,0.2,0.5,1,0.5h1c1.4,0,2.2,0.4,2.2,1.5c0,1.2-1.2,2.1-3.1,2.1c-1.4,0-2.4-0.5-2.4-1.5
		C47.1,49.9,47.4,49.4,48,49.1z M49.8,51c0.9,0,1.6-0.4,1.6-0.9c0-0.5-0.4-0.6-1-0.6h-0.8c-0.3,0-0.6,0-0.8-0.1
		c-0.3,0.2-0.5,0.5-0.5,0.8C48.3,50.7,48.9,51,49.8,51z M50.7,45.4c0-0.7-0.4-1.2-1-1.2c-0.6,0-1,0.4-1,1.2c0,0.8,0.5,1.2,1,1.2
		C50.2,46.6,50.7,46.1,50.7,45.4z"/>
	<path class="st4" d="M55.9,43.3c1.6,0,2.4,1.2,2.4,2.8c0,0.3,0,0.5-0.1,0.6h-3.7c0.1,1.1,0.8,1.7,1.7,1.7c0.5,0,0.9-0.2,1.4-0.4
		l0.5,0.9c-0.6,0.4-1.3,0.6-2,0.6c-1.6,0-2.9-1.1-2.9-3.1C53.2,44.4,54.5,43.3,55.9,43.3z M57.2,45.8c0-0.9-0.4-1.5-1.2-1.5
		c-0.7,0-1.3,0.5-1.4,1.5H57.2z"/>
	<path class="st3" d="M11.9,60.5h1.4v3.2h3.2v-3.2h1.4v7.8h-1.4v-3.5h-3.2v3.5h-1.4V60.5z"/>
	<path class="st3" d="M19.4,64.3c0-2.5,1.4-4,3.5-4c2.1,0,3.5,1.5,3.5,4c0,2.5-1.4,4.1-3.5,4.1C20.8,68.4,19.4,66.9,19.4,64.3z
		 M24.9,64.3c0-1.8-0.8-2.8-2-2.8s-2,1.1-2,2.8c0,1.8,0.8,2.9,2,2.9S24.9,66.1,24.9,64.3z"/>
	<path class="st3" d="M27.9,60.5h1.4v7.8h-1.4V60.5z"/>
</g>
</svg>
