<?xml version="1.0" encoding="utf-8"?>
<!-- Generator: Adobe Illustrator 20.0.0, SVG Export Plug-In . SVG Version: 6.00 Build 0)  -->
<svg version="1.1" id="Capa_1" xmlns="http://www.w3.org/2000/svg" xmlns:xlink="http://www.w3.org/1999/xlink" x="0px" y="0px"
	 viewBox="0 0 15.2 8.1" style="enable-background:new 0 0 15.2 8.1;" xml:space="preserve">
<style type="text/css">
	.st0{fill:#3D3D3D;stroke:#3D3D3D;stroke-miterlimit:10;}
</style>
<path class="st0" d="M14.3,0.5c-0.1,0-0.2,0-0.3,0.1L7.6,6.7L1.1,0.6C1,0.5,1,0.5,0.9,0.5c-0.2,0-0.4,0.2-0.4,0.4
	c0,0.1,0,0.2,0.1,0.3l6.7,6.4c0.1,0.1,0.2,0.1,0.3,0.1c0.1,0,0.2,0,0.3-0.1l6.7-6.4C14.6,1,14.7,1,14.7,0.9
	C14.7,0.7,14.5,0.5,14.3,0.5"/>
</svg>
