<?xml version="1.0" encoding="utf-8"?>
<!-- Generator: Adobe Illustrator 20.0.0, SVG Export Plug-In . SVG Version: 6.00 Build 0)  -->
<svg version="1.1" id="Capa_1" xmlns="http://www.w3.org/2000/svg" xmlns:xlink="http://www.w3.org/1999/xlink" x="0px" y="0px"
	 viewBox="0 0 298.1 653" style="enable-background:new 0 0 298.1 653;" xml:space="preserve">
<style type="text/css">
	.st0{opacity:0.98;fill:#FFFFFF;}
	.st1{fill:#FF9719;}
	.st2{opacity:0.99;}
	.st3{opacity:0.99;fill:#44B254;}
	.st4{opacity:0.99;fill:#495E4A;}
	.st5{opacity:0.95;fill:none;stroke:#000000;stroke-width:0.25;stroke-miterlimit:10;}
	.st6{fill:#ED1C24;}
	.st7{opacity:0.5;}
	.st8{opacity:0.94;fill:none;stroke:#000000;stroke-width:0.25;stroke-miterlimit:10;}
	.st9{fill:none;stroke:#ED1C24;stroke-miterlimit:10;}
	.st10{font-family:'SourceSansPro-Regular';}
	.st11{font-size:10px;}
</style>
<polygon class="st0" points="-0.9,83.2 -0.9,83.2 -0.9,0.3 297.2,0.3 297.2,654 -0.9,654 -0.9,119.9 -0.9,119.9 "/>
<g>
	<g class="st2">
		<g>
			<path class="st3" d="M9.9,8.1h1.4v6.6h3.2V16H9.9V8.1z"/>
			<path class="st3" d="M20.1,12.2c0-0.6-0.3-1.1-1.1-1.1c-0.6,0-1.1,0.3-1.6,0.6l-0.5-0.9c0.6-0.4,1.5-0.8,2.4-0.8
				c1.5,0,2.2,0.9,2.2,2.5V16h-1.1l-0.1-0.6h0c-0.5,0.4-1.1,0.8-1.8,0.8c-1,0-1.7-0.7-1.7-1.7C16.7,13.1,17.7,12.5,20.1,12.2z
				 M18.9,15c0.5,0,0.8-0.2,1.3-0.6v-1.3c-1.6,0.2-2.1,0.6-2.1,1.2C18,14.8,18.4,15,18.9,15z"/>
			<path class="st3" d="M26.9,9.9c0.8,0,1.3,0.3,1.7,0.7L28,11.5c-0.3-0.3-0.6-0.4-1-0.4c-0.9,0-1.6,0.8-1.6,2
				c0,1.2,0.6,1.9,1.6,1.9c0.5,0,0.9-0.2,1.2-0.5l0.6,0.9c-0.5,0.5-1.3,0.8-1.9,0.8C25.2,16.1,24,15,24,13
				C24,11.1,25.4,9.9,26.9,9.9z"/>
			<path class="st3" d="M31.3,11.2h-0.8v-1l0.9-0.1l0.2-1.6h1.1v1.6h1.5v1.1h-1.5V14c0,0.7,0.3,1,0.8,1c0.2,0,0.4-0.1,0.6-0.1l0.2,1
				c-0.3,0.1-0.7,0.2-1.2,0.2c-1.4,0-1.9-0.9-1.9-2.1V11.2z"/>
			<path class="st3" d="M39.6,12.2c0-0.6-0.3-1.1-1.1-1.1c-0.6,0-1.1,0.3-1.6,0.6l-0.5-0.9c0.6-0.4,1.5-0.8,2.4-0.8
				c1.5,0,2.2,0.9,2.2,2.5V16h-1.1l-0.1-0.6h0c-0.5,0.4-1.1,0.8-1.8,0.8c-1,0-1.7-0.7-1.7-1.7C36.2,13.1,37.2,12.5,39.6,12.2z
				 M38.4,15c0.5,0,0.8-0.2,1.3-0.6v-1.3c-1.6,0.2-2.1,0.6-2.1,1.2C37.5,14.8,37.9,15,38.4,15z"/>
			<path class="st3" d="M43.9,10.1H45l0.1,0.8h0c0.5-0.5,1.1-0.9,1.9-0.9c1.3,0,1.8,0.8,1.8,2.3V16h-1.4v-3.5c0-1-0.3-1.3-0.9-1.3
				c-0.5,0-0.8,0.3-1.3,0.7V16h-1.4V10.1z"/>
			<path class="st3" d="M54.3,9.9c0.8,0,1.3,0.3,1.7,0.7l-0.7,0.9c-0.3-0.3-0.6-0.4-1-0.4c-0.9,0-1.6,0.8-1.6,2
				c0,1.2,0.6,1.9,1.6,1.9c0.5,0,0.9-0.2,1.2-0.5l0.6,0.9c-0.5,0.5-1.3,0.8-1.9,0.8c-1.6,0-2.8-1.1-2.8-3.1
				C51.4,11.1,52.7,9.9,54.3,9.9z"/>
			<path class="st3" d="M58.3,8.3c0-0.5,0.4-0.8,0.8-0.8c0.5,0,0.8,0.3,0.8,0.8c0,0.5-0.4,0.8-0.8,0.8C58.7,9.1,58.3,8.7,58.3,8.3z
				 M58.5,10.1h1.4V16h-1.4V10.1z"/>
			<path class="st3" d="M66,12.2c0-0.6-0.3-1.1-1.1-1.1c-0.6,0-1.1,0.3-1.6,0.6l-0.5-0.9c0.6-0.4,1.5-0.8,2.4-0.8
				c1.5,0,2.2,0.9,2.2,2.5V16h-1.1l-0.1-0.6h0c-0.5,0.4-1.1,0.8-1.8,0.8c-1,0-1.7-0.7-1.7-1.7C62.5,13.1,63.6,12.5,66,12.2z
				 M64.7,15c0.5,0,0.8-0.2,1.3-0.6v-1.3c-1.6,0.2-2.1,0.6-2.1,1.2C63.9,14.8,64.2,15,64.7,15z"/>
			<path class="st3" d="M73.9,10.1H75l0.1,0.8h0c0.5-0.5,1.1-0.9,1.8-0.9c0.9,0,1.4,0.4,1.6,1.1c0.6-0.6,1.1-1.1,1.9-1.1
				c1.2,0,1.8,0.8,1.8,2.3V16h-1.4v-3.5c0-1-0.3-1.3-0.9-1.3c-0.4,0-0.8,0.2-1.2,0.7V16h-1.4v-3.5c0-1-0.3-1.3-0.9-1.3
				c-0.4,0-0.8,0.2-1.2,0.7V16h-1.4V10.1z"/>
			<path class="st3" d="M88.3,12.2c0-0.6-0.3-1.1-1.1-1.1c-0.6,0-1.1,0.3-1.6,0.6l-0.5-0.9c0.6-0.4,1.5-0.8,2.4-0.8
				c1.5,0,2.2,0.9,2.2,2.5V16h-1.1l-0.1-0.6h0c-0.5,0.4-1.1,0.8-1.8,0.8c-1,0-1.7-0.7-1.7-1.7C84.9,13.1,85.9,12.5,88.3,12.2z
				 M87.1,15c0.5,0,0.8-0.2,1.3-0.6v-1.3c-1.6,0.2-2.1,0.6-2.1,1.2C86.2,14.8,86.6,15,87.1,15z"/>
			<path class="st3" d="M92.8,11.2H92v-1l0.9-0.1L93,8.5h1.1v1.6h1.5v1.1h-1.5V14c0,0.7,0.3,1,0.8,1c0.2,0,0.4-0.1,0.6-0.1l0.2,1
				c-0.3,0.1-0.7,0.2-1.2,0.2c-1.4,0-1.9-0.9-1.9-2.1V11.2z"/>
			<path class="st3" d="M100.3,9.9c1.6,0,2.4,1.1,2.4,2.8c0,0.3,0,0.5-0.1,0.6h-3.7c0.1,1.1,0.8,1.7,1.7,1.7c0.5,0,0.9-0.2,1.4-0.4
				l0.5,0.9c-0.6,0.4-1.3,0.6-2,0.6c-1.6,0-2.9-1.1-2.9-3.1C97.6,11.1,98.9,9.9,100.3,9.9z M101.5,12.5c0-0.9-0.4-1.5-1.2-1.5
				c-0.7,0-1.3,0.5-1.4,1.5H101.5z"/>
			<path class="st3" d="M105.2,10.1h1.1l0.1,1h0c0.4-0.8,1-1.2,1.7-1.2c0.3,0,0.5,0,0.7,0.1l-0.2,1.2c-0.2-0.1-0.4-0.1-0.6-0.1
				c-0.5,0-1,0.3-1.4,1.2V16h-1.4V10.1z"/>
			<path class="st3" d="M110.9,10.1h1.1l0.1,0.8h0c0.5-0.5,1.1-0.9,1.9-0.9c1.3,0,1.8,0.8,1.8,2.3V16h-1.4v-3.5c0-1-0.3-1.3-0.9-1.3
				c-0.5,0-0.8,0.3-1.3,0.7V16h-1.4V10.1z"/>
			<path class="st3" d="M122,12.2c0-0.6-0.3-1.1-1.1-1.1c-0.6,0-1.1,0.3-1.6,0.6l-0.5-0.9c0.6-0.4,1.5-0.8,2.4-0.8
				c1.5,0,2.2,0.9,2.2,2.5V16h-1.1l-0.1-0.6h0c-0.5,0.4-1.1,0.8-1.8,0.8c-1,0-1.7-0.7-1.7-1.7C118.5,13.1,119.6,12.5,122,12.2z
				 M120.7,15c0.5,0,0.8-0.2,1.3-0.6v-1.3c-1.6,0.2-2.1,0.6-2.1,1.2C119.8,14.8,120.2,15,120.7,15z"/>
			<path class="st3" d="M132.2,9.9c1.6,0,2.4,1.1,2.4,2.8c0,0.3,0,0.5-0.1,0.6h-3.7c0.1,1.1,0.8,1.7,1.7,1.7c0.5,0,0.9-0.2,1.4-0.4
				l0.5,0.9c-0.6,0.4-1.3,0.6-2,0.6c-1.6,0-2.9-1.1-2.9-3.1C129.5,11.1,130.8,9.9,132.2,9.9z M133.4,12.5c0-0.9-0.4-1.5-1.2-1.5
				c-0.7,0-1.3,0.5-1.4,1.5H133.4z"/>
			<path class="st3" d="M138.1,12.9l-1.7-2.8h1.5l0.7,1.1c0.2,0.3,0.4,0.7,0.5,1h0c0.1-0.3,0.3-0.7,0.5-1l0.6-1.1h1.4l-1.7,3
				l1.9,2.9h-1.5l-0.7-1.2c-0.2-0.3-0.4-0.7-0.6-1h0c-0.2,0.3-0.3,0.7-0.5,1l-0.6,1.2h-1.4L138.1,12.9z"/>
			<path class="st3" d="M146.2,9.9c0.8,0,1.3,0.3,1.7,0.7l-0.7,0.9c-0.3-0.3-0.6-0.4-1-0.4c-0.9,0-1.6,0.8-1.6,2
				c0,1.2,0.6,1.9,1.6,1.9c0.5,0,0.9-0.2,1.2-0.5l0.6,0.9c-0.5,0.5-1.3,0.8-1.9,0.8c-1.6,0-2.8-1.1-2.8-3.1
				C143.3,11.1,144.6,9.9,146.2,9.9z"/>
			<path class="st3" d="M150.3,7.5h1.4v7c0,0.3,0.2,0.5,0.3,0.5c0.1,0,0.1,0,0.2,0l0.2,1c-0.2,0.1-0.4,0.1-0.7,0.1
				c-1,0-1.3-0.6-1.3-1.6V7.5z"/>
			<path class="st3" d="M154.7,10.1h1.4v3.5c0,1,0.3,1.3,0.9,1.3c0.5,0,0.9-0.2,1.3-0.8v-4h1.4V16h-1.1l-0.1-0.9h0
				c-0.5,0.6-1.1,1-1.9,1c-1.3,0-1.8-0.8-1.8-2.3V10.1z"/>
			<path class="st3" d="M162.7,14.4c0.5,0.4,1,0.7,1.6,0.7c0.6,0,0.9-0.3,0.9-0.7c0-0.5-0.6-0.7-1.3-0.9c-0.8-0.3-1.6-0.7-1.6-1.7
				c0-1,0.8-1.8,2.1-1.8c0.8,0,1.5,0.3,1.9,0.7l-0.6,0.8c-0.4-0.3-0.8-0.5-1.3-0.5c-0.6,0-0.9,0.3-0.9,0.6c0,0.5,0.6,0.6,1.2,0.9
				c0.8,0.3,1.7,0.7,1.7,1.8c0,1-0.8,1.8-2.3,1.8c-0.8,0-1.6-0.3-2.2-0.8L162.7,14.4z"/>
			<path class="st3" d="M168.8,8.3c0-0.5,0.4-0.8,0.8-0.8c0.5,0,0.8,0.3,0.8,0.8c0,0.5-0.4,0.8-0.8,0.8
				C169.2,9.1,168.8,8.7,168.8,8.3z M169,10.1h1.4V16H169V10.1z"/>
			<path class="st3" d="M172.6,10.1h1.4l0.9,3c0.2,0.6,0.3,1.2,0.5,1.8h0c0.2-0.6,0.3-1.2,0.5-1.8l0.9-3h1.3l-2,5.9h-1.6L172.6,10.1
				z"/>
			<path class="st3" d="M183.4,12.2c0-0.6-0.3-1.1-1.1-1.1c-0.6,0-1.1,0.3-1.6,0.6l-0.5-0.9c0.6-0.4,1.5-0.8,2.4-0.8
				c1.5,0,2.2,0.9,2.2,2.5V16h-1.1l-0.1-0.6h0c-0.5,0.4-1.1,0.8-1.8,0.8c-1,0-1.7-0.7-1.7-1.7C179.9,13.1,181,12.5,183.4,12.2z
				 M182.1,15c0.5,0,0.8-0.2,1.3-0.6v-1.3c-1.6,0.2-2.1,0.6-2.1,1.2C181.2,14.8,181.6,15,182.1,15z"/>
			<path class="st3" d="M11.9,24.3c0.7,0,1.1,0.3,1.5,0.6l0-0.9v-2.1h1.4v8.4h-1.1l-0.1-0.6h0c-0.4,0.4-1,0.8-1.7,0.8
				c-1.5,0-2.4-1.1-2.4-3.1C9.4,25.4,10.6,24.3,11.9,24.3z M12.1,29.3c0.5,0,0.8-0.2,1.2-0.7v-2.7c-0.4-0.4-0.8-0.5-1.2-0.5
				c-0.8,0-1.4,0.7-1.4,1.9C10.8,28.6,11.3,29.3,12.1,29.3z"/>
			<path class="st3" d="M17.6,24.4H19v3.5c0,1,0.3,1.3,0.9,1.3c0.5,0,0.9-0.2,1.3-0.8v-4h1.4v5.9h-1.1l-0.1-0.9h0
				c-0.5,0.6-1.1,1-1.9,1c-1.3,0-1.8-0.8-1.8-2.3V24.4z"/>
			<path class="st3" d="M25.5,24.4h1.1l0.1,1h0c0.4-0.8,1-1.2,1.7-1.2c0.3,0,0.5,0,0.7,0.1l-0.2,1.2c-0.2-0.1-0.4-0.1-0.6-0.1
				c-0.5,0-1,0.3-1.4,1.2v3.6h-1.4V24.4z"/>
			<path class="st3" d="M34.1,26.5c0-0.6-0.3-1.1-1.1-1.1c-0.6,0-1.1,0.3-1.6,0.6L30.8,25c0.6-0.4,1.5-0.8,2.4-0.8
				c1.5,0,2.2,0.9,2.2,2.5v3.5h-1.1l-0.1-0.6h0c-0.5,0.4-1.1,0.8-1.8,0.8c-1,0-1.7-0.7-1.7-1.7C30.6,27.5,31.7,26.8,34.1,26.5z
				 M32.8,29.4c0.5,0,0.8-0.2,1.3-0.6v-1.3c-1.6,0.2-2.1,0.6-2.1,1.2C31.9,29.1,32.3,29.4,32.8,29.4z"/>
			<path class="st3" d="M38.3,24.4h1.1l0.1,0.8h0c0.5-0.5,1.1-0.9,1.9-0.9c1.3,0,1.8,0.8,1.8,2.3v3.7h-1.4v-3.5c0-1-0.3-1.3-0.9-1.3
				c-0.5,0-0.8,0.3-1.3,0.7v4.1h-1.4V24.4z"/>
			<path class="st3" d="M46.4,25.5h-0.8v-1l0.9-0.1l0.2-1.6h1.1v1.6h1.5v1.1h-1.5v2.8c0,0.7,0.3,1,0.8,1c0.2,0,0.4-0.1,0.6-0.1
				l0.2,1c-0.3,0.1-0.7,0.2-1.2,0.2c-1.4,0-1.9-0.9-1.9-2.1V25.5z"/>
			<path class="st3" d="M53.9,24.3c1.6,0,2.4,1.1,2.4,2.8c0,0.3,0,0.5-0.1,0.6h-3.7c0.1,1.1,0.8,1.7,1.7,1.7c0.5,0,0.9-0.2,1.4-0.4
				l0.5,0.9c-0.6,0.4-1.3,0.6-2,0.6c-1.6,0-2.9-1.1-2.9-3.1C51.2,25.4,52.5,24.3,53.9,24.3z M55.1,26.8c0-0.9-0.4-1.5-1.2-1.5
				c-0.7,0-1.3,0.5-1.4,1.5H55.1z"/>
			<path class="st3" d="M66.4,24.2c-0.3-0.3-0.8-0.6-1.2-0.6c-1,0-1.7,0.7-1.8,2.8c0.4-0.6,1.1-0.9,1.6-0.9c1.3,0,2.2,0.8,2.2,2.4
				c0,1.5-1.1,2.5-2.4,2.5c-1.5,0-2.8-1.2-2.8-3.7c0-3,1.4-4.2,3-4.2c0.9,0,1.6,0.4,2,0.9L66.4,24.2z M66,27.9
				c0-0.9-0.4-1.4-1.2-1.4c-0.4,0-0.9,0.2-1.4,0.9c0.1,1.4,0.7,1.9,1.4,1.9C65.5,29.4,66,28.9,66,27.9z"/>
			<path class="st3" d="M73.4,24.4h1.1l0.1,0.8h0c0.5-0.5,1.1-0.9,1.8-0.9c0.9,0,1.4,0.4,1.6,1.1c0.6-0.6,1.1-1.1,1.9-1.1
				c1.2,0,1.8,0.8,1.8,2.3v3.7h-1.4v-3.5c0-1-0.3-1.3-0.9-1.3c-0.4,0-0.8,0.2-1.2,0.7v4.1h-1.4v-3.5c0-1-0.3-1.3-0.9-1.3
				c-0.4,0-0.8,0.2-1.2,0.7v4.1h-1.4V24.4z"/>
			<path class="st3" d="M87,24.3c1.6,0,2.4,1.1,2.4,2.8c0,0.3,0,0.5-0.1,0.6h-3.7c0.1,1.1,0.8,1.7,1.7,1.7c0.5,0,0.9-0.2,1.4-0.4
				l0.5,0.9c-0.6,0.4-1.3,0.6-2,0.6c-1.6,0-2.9-1.1-2.9-3.1C84.3,25.4,85.6,24.3,87,24.3z M88.2,26.8c0-0.9-0.4-1.5-1.2-1.5
				c-0.7,0-1.3,0.5-1.4,1.5H88.2z"/>
			<path class="st3" d="M92,28.7c0.5,0.4,1,0.7,1.6,0.7c0.6,0,0.9-0.3,0.9-0.7c0-0.5-0.6-0.7-1.3-0.9c-0.8-0.3-1.6-0.7-1.6-1.7
				c0-1,0.8-1.8,2.1-1.8c0.8,0,1.5,0.3,1.9,0.7l-0.6,0.8c-0.4-0.3-0.8-0.5-1.3-0.5c-0.6,0-0.9,0.3-0.9,0.6c0,0.5,0.6,0.6,1.2,0.9
				c0.8,0.3,1.7,0.7,1.7,1.8c0,1-0.8,1.8-2.3,1.8c-0.8,0-1.6-0.3-2.2-0.8L92,28.7z"/>
			<path class="st3" d="M100.6,24.3c1.6,0,2.4,1.1,2.4,2.8c0,0.3,0,0.5-0.1,0.6h-3.7c0.1,1.1,0.8,1.7,1.7,1.7c0.5,0,0.9-0.2,1.4-0.4
				l0.5,0.9c-0.6,0.4-1.3,0.6-2,0.6c-1.6,0-2.9-1.1-2.9-3.1C97.9,25.4,99.2,24.3,100.6,24.3z M101.8,26.8c0-0.9-0.4-1.5-1.2-1.5
				c-0.7,0-1.3,0.5-1.4,1.5H101.8z"/>
			<path class="st3" d="M105.6,28.7c0.5,0.4,1,0.7,1.6,0.7c0.6,0,0.9-0.3,0.9-0.7c0-0.5-0.6-0.7-1.3-0.9c-0.8-0.3-1.6-0.7-1.6-1.7
				c0-1,0.8-1.8,2.1-1.8c0.8,0,1.5,0.3,1.9,0.7l-0.6,0.8c-0.4-0.3-0.8-0.5-1.3-0.5c-0.6,0-0.9,0.3-0.9,0.6c0,0.5,0.6,0.6,1.2,0.9
				c0.8,0.3,1.7,0.7,1.7,1.8c0,1-0.8,1.8-2.3,1.8c-0.8,0-1.6-0.3-2.2-0.8L105.6,28.7z"/>
		</g>
	</g>
	<g>
		<g>
			<path class="st4" d="M12.6,42.1c0.8,0,1.5,0.4,1.9,0.9L14,43.6c-0.4-0.4-0.8-0.7-1.4-0.7c-1.3,0-2.2,1.1-2.2,2.9
				c0,1.8,0.9,2.9,2.2,2.9c0.7,0,1.2-0.3,1.6-0.8l0.5,0.5c-0.6,0.6-1.2,1-2.2,1c-1.8,0-3.1-1.4-3.1-3.7
				C9.4,43.5,10.8,42.1,12.6,42.1z"/>
			<path class="st4" d="M19,44c1.3,0,2.4,1,2.4,2.8c0,1.7-1.1,2.7-2.4,2.7c-1.3,0-2.4-1-2.4-2.7C16.6,45,17.7,44,19,44z M19,48.7
				c0.9,0,1.5-0.8,1.5-2c0-1.2-0.6-2-1.5-2c-0.9,0-1.5,0.8-1.5,2C17.5,47.9,18.1,48.7,19,48.7z"/>
			<path class="st4" d="M23.9,41.7h0.9v2.1l0,0.9c0.5-0.4,1.1-0.7,1.6-0.7c1.4,0,2.1,1,2.1,2.7c0,1.8-1.1,2.8-2.3,2.8
				c-0.5,0-1-0.2-1.5-0.6h0l-0.1,0.5h-0.7V41.7z M26,48.7c0.9,0,1.5-0.8,1.5-2.1c0-1.2-0.4-1.9-1.4-1.9c-0.4,0-0.9,0.2-1.4,0.7v2.7
				C25.2,48.6,25.7,48.7,26,48.7z"/>
			<path class="st4" d="M32.9,44c1.3,0,2.1,1,2.1,2.5c0,0.2,0,0.4,0,0.5h-3.5c0.1,1.1,0.7,1.8,1.7,1.8c0.5,0,0.9-0.2,1.3-0.4
				l0.3,0.6c-0.5,0.3-1,0.5-1.7,0.5c-1.4,0-2.5-1-2.5-2.7C30.5,45,31.7,44,32.9,44z M34.2,46.3c0-1.1-0.5-1.7-1.3-1.7
				c-0.7,0-1.4,0.6-1.5,1.7H34.2z"/>
			<path class="st4" d="M37.3,44.1h0.7l0.1,0.9h0c0.4-0.7,0.9-1.1,1.5-1.1c0.2,0,0.4,0,0.6,0.1L40,44.9c-0.2-0.1-0.3-0.1-0.5-0.1
				c-0.4,0-1,0.3-1.3,1.2v3.4h-0.9V44.1z"/>
			<path class="st4" d="M42.3,44.8h-0.8v-0.7l0.8-0.1l0.1-1.5h0.7v1.5h1.4v0.7h-1.4v2.9c0,0.6,0.2,1,0.8,1c0.2,0,0.4-0.1,0.6-0.1
				l0.2,0.7c-0.3,0.1-0.6,0.2-1,0.2c-1.1,0-1.5-0.7-1.5-1.7V44.8z"/>
			<path class="st4" d="M46.7,44.1h0.9v3.2c0,1,0.3,1.4,1,1.4c0.5,0,0.9-0.3,1.4-0.9v-3.7h0.9v5.2h-0.7l-0.1-0.8h0
				c-0.5,0.6-1,0.9-1.7,0.9c-1.1,0-1.6-0.7-1.6-2V44.1z"/>
			<path class="st4" d="M53.7,44.1h0.7l0.1,0.9h0c0.4-0.7,0.9-1.1,1.5-1.1c0.2,0,0.4,0,0.6,0.1l-0.2,0.8c-0.2-0.1-0.3-0.1-0.5-0.1
				c-0.4,0-1,0.3-1.3,1.2v3.4h-0.9V44.1z"/>
			<path class="st4" d="M61.2,46c0-0.7-0.2-1.3-1.1-1.3c-0.6,0-1.2,0.3-1.6,0.6l-0.4-0.6c0.5-0.3,1.2-0.7,2.1-0.7
				c1.3,0,1.8,0.8,1.8,2.2v3.2h-0.7l-0.1-0.6h0c-0.5,0.4-1.1,0.8-1.7,0.8c-0.9,0-1.5-0.5-1.5-1.5C58,46.8,59,46.3,61.2,46z
				 M59.8,48.8c0.5,0,0.9-0.2,1.4-0.7v-1.5c-1.8,0.2-2.3,0.6-2.3,1.3C58.9,48.5,59.3,48.8,59.8,48.8z"/>
		</g>
	</g>
	<line class="st5" x1="8.9" y1="53.5" x2="287.7" y2="53.5"/>
	<line class="st5" x1="8.9" y1="72.9" x2="287.7" y2="72.9"/>
	<g class="st2">
		<g>
			<path class="st3" d="M9.8,60.3h0.9v7.1H9.8V60.3z"/>
			<path class="st3" d="M13.3,63.8c0-2.3,1.2-3.6,3-3.6c1.8,0,3,1.4,3,3.6c0,2.3-1.2,3.7-3,3.7C14.6,67.4,13.3,66,13.3,63.8z
				 M18.4,63.8c0-1.8-0.8-2.8-2.1-2.8c-1.3,0-2.1,1.1-2.1,2.8c0,1.8,0.8,2.9,2.1,2.9C17.6,66.7,18.4,65.5,18.4,63.8z"/>
			<path class="st3" d="M22,60.3h0.9v3h3.3v-3H27v7.1h-0.9V64h-3.3v3.3H22V60.3z"/>
		</g>
	</g>
	<path class="st1" d="M279.1,18.6l6.8-6.8c0.1-0.1,0.1-0.2,0.1-0.3c0-0.2-0.2-0.4-0.4-0.4c-0.1,0-0.2,0-0.3,0.1l-6.8,6.8l-6.8-6.8
		c-0.1-0.1-0.2-0.1-0.3-0.1c-0.2,0-0.4,0.2-0.4,0.4c0,0.1,0,0.2,0.1,0.3l6.8,6.8l-6.8,6.8c-0.1,0.1-0.1,0.2-0.1,0.3
		c0,0.2,0.2,0.4,0.4,0.4c0.1,0,0.2,0,0.3-0.1l6.8-6.8l6.8,6.8c0.1,0.1,0.2,0.1,0.3,0.1c0.2,0,0.4-0.2,0.4-0.4c0-0.1,0-0.2-0.1-0.3
		L279.1,18.6z"/>
</g>
<g>
	<g>
		<path class="st6" d="M39.1,101.2h-1.6v-0.6h1.6v-1.7h0.6v1.7h1.6v0.6h-1.6v1.7h-0.6V101.2z"/>
		<path class="st6" d="M45.8,98.2c0-0.3,0.2-0.5,0.5-0.5s0.5,0.2,0.5,0.5c0,0.3-0.2,0.5-0.5,0.5S45.8,98.5,45.8,98.2z M45.9,99.5
			h0.7v4.3h-0.7V99.5z"/>
		<path class="st6" d="M49,99.5h0.6l0.1,0.6h0c0.4-0.4,0.9-0.7,1.5-0.7c0.9,0,1.3,0.6,1.3,1.7v2.7h-0.7v-2.6c0-0.8-0.2-1.2-0.8-1.2
			c-0.4,0-0.7,0.2-1.2,0.7v3.1H49V99.5z"/>
		<path class="st6" d="M56.7,98.1c-0.2-0.1-0.3-0.1-0.5-0.1c-0.4,0-0.6,0.3-0.6,0.8v0.7h0.9v0.6h-0.9v3.7h-0.7v-3.7h-0.6v-0.6l0.6,0
			v-0.7c0-0.9,0.4-1.4,1.3-1.4c0.3,0,0.5,0.1,0.7,0.1L56.7,98.1z"/>
		<path class="st6" d="M58.2,97.5H59v5.5c0,0.2,0.1,0.3,0.2,0.3c0,0,0.1,0,0.2,0l0.1,0.6c-0.1,0-0.2,0.1-0.4,0.1
			c-0.6,0-0.8-0.3-0.8-1V97.5z"/>
		<path class="st6" d="M61.3,99.5h0.7v2.6c0,0.8,0.2,1.2,0.8,1.2c0.4,0,0.8-0.2,1.2-0.7v-3.1h0.7v4.3h-0.6l-0.1-0.7h0
			c-0.4,0.5-0.8,0.8-1.4,0.8c-0.9,0-1.3-0.6-1.3-1.7V99.5z"/>
		<path class="st6" d="M68.8,99.4c1.1,0,1.7,0.8,1.7,2c0,0.2,0,0.3,0,0.4h-2.9c0.1,0.9,0.6,1.5,1.4,1.5c0.4,0,0.8-0.1,1.1-0.3
			l0.3,0.5c-0.4,0.2-0.8,0.4-1.4,0.4c-1.2,0-2.1-0.8-2.1-2.3S67.8,99.4,68.8,99.4z M69.8,101.4c0-0.9-0.4-1.4-1.1-1.4
			c-0.6,0-1.2,0.5-1.2,1.4H69.8z"/>
		<path class="st6" d="M72.4,99.5H73l0.1,0.6h0c0.4-0.4,0.9-0.7,1.5-0.7c0.9,0,1.3,0.6,1.3,1.7v2.7h-0.7v-2.6c0-0.8-0.2-1.2-0.8-1.2
			c-0.4,0-0.7,0.2-1.2,0.7v3.1h-0.7V99.5z"/>
		<path class="st6" d="M80,99.4c0.6,0,1,0.2,1.3,0.5l-0.4,0.5c-0.3-0.2-0.5-0.4-0.9-0.4c-0.8,0-1.4,0.7-1.4,1.7c0,1,0.5,1.7,1.3,1.7
			c0.4,0,0.8-0.2,1-0.4l0.3,0.5c-0.4,0.3-0.9,0.6-1.4,0.6c-1.1,0-2-0.8-2-2.3C77.9,100.3,78.8,99.4,80,99.4z"/>
		<path class="st6" d="M83,98.2c0-0.3,0.2-0.5,0.5-0.5c0.3,0,0.5,0.2,0.5,0.5c0,0.3-0.2,0.5-0.5,0.5C83.2,98.7,83,98.5,83,98.2z
			 M83.1,99.5h0.7v4.3h-0.7V99.5z"/>
		<path class="st6" d="M88.7,101.1c0-0.6-0.2-1.1-0.9-1.1c-0.5,0-1,0.2-1.3,0.5l-0.3-0.5c0.4-0.3,1-0.6,1.7-0.6
			c1.1,0,1.5,0.7,1.5,1.8v2.7h-0.6l-0.1-0.5h0c-0.4,0.3-0.9,0.6-1.4,0.6c-0.7,0-1.3-0.5-1.3-1.2C86,101.8,86.8,101.3,88.7,101.1z
			 M87.5,103.4c0.4,0,0.8-0.2,1.2-0.6v-1.2c-1.5,0.2-1.9,0.5-1.9,1.1C86.7,103.2,87.1,103.4,87.5,103.4z"/>
	</g>
</g>
<g class="st7">
	<g>
		<path class="st6" d="M37.9,636.7h2v0.6h-2V636.7z"/>
		<path class="st6" d="M44.5,633.5c0-0.3,0.2-0.5,0.5-0.5s0.5,0.2,0.5,0.5c0,0.3-0.2,0.5-0.5,0.5S44.5,633.8,44.5,633.5z
			 M44.7,634.9h0.7v4.3h-0.7V634.9z"/>
		<path class="st6" d="M47.7,634.9h0.6l0.1,0.6h0c0.4-0.4,0.9-0.7,1.5-0.7c0.9,0,1.3,0.6,1.3,1.7v2.7h-0.7v-2.6
			c0-0.8-0.2-1.2-0.8-1.2c-0.4,0-0.7,0.2-1.2,0.7v3.1h-0.7V634.9z"/>
		<path class="st6" d="M55.4,633.5c-0.2-0.1-0.3-0.1-0.5-0.1c-0.4,0-0.6,0.3-0.6,0.8v0.7h0.9v0.6h-0.9v3.7h-0.7v-3.7H53v-0.6l0.6,0
			v-0.7c0-0.9,0.4-1.4,1.3-1.4c0.3,0,0.5,0.1,0.7,0.1L55.4,633.5z"/>
		<path class="st6" d="M57,632.9h0.7v5.5c0,0.2,0.1,0.3,0.2,0.3c0,0,0.1,0,0.2,0l0.1,0.6c-0.1,0-0.2,0.1-0.4,0.1
			c-0.6,0-0.8-0.3-0.8-1V632.9z"/>
		<path class="st6" d="M60.1,634.9h0.7v2.6c0,0.8,0.2,1.2,0.8,1.2c0.4,0,0.8-0.2,1.2-0.7v-3.1h0.7v4.3h-0.6l-0.1-0.7h0
			c-0.4,0.5-0.8,0.8-1.4,0.8c-0.9,0-1.3-0.6-1.3-1.7V634.9z"/>
		<path class="st6" d="M67.5,634.8c1.1,0,1.7,0.8,1.7,2c0,0.2,0,0.3,0,0.4h-2.9c0.1,0.9,0.6,1.5,1.4,1.5c0.4,0,0.8-0.1,1.1-0.3
			l0.3,0.5c-0.4,0.2-0.8,0.4-1.4,0.4c-1.2,0-2.1-0.8-2.1-2.3S66.5,634.8,67.5,634.8z M68.6,636.7c0-0.9-0.4-1.4-1.1-1.4
			c-0.6,0-1.2,0.5-1.2,1.4H68.6z"/>
		<path class="st6" d="M71.2,634.9h0.6l0.1,0.6h0c0.4-0.4,0.9-0.7,1.5-0.7c0.9,0,1.3,0.6,1.3,1.7v2.7h-0.7v-2.6
			c0-0.8-0.2-1.2-0.8-1.2c-0.4,0-0.7,0.2-1.2,0.7v3.1h-0.7V634.9z"/>
		<path class="st6" d="M78.7,634.8c0.6,0,1,0.2,1.3,0.5l-0.4,0.5c-0.3-0.2-0.5-0.4-0.9-0.4c-0.8,0-1.4,0.7-1.4,1.7
			c0,1,0.5,1.7,1.3,1.7c0.4,0,0.8-0.2,1-0.4l0.3,0.5c-0.4,0.3-0.9,0.6-1.4,0.6c-1.1,0-2-0.8-2-2.3C76.6,635.6,77.6,634.8,78.7,634.8
			z"/>
		<path class="st6" d="M81.7,633.5c0-0.3,0.2-0.5,0.5-0.5c0.3,0,0.5,0.2,0.5,0.5c0,0.3-0.2,0.5-0.5,0.5
			C82,634,81.7,633.8,81.7,633.5z M81.9,634.9h0.7v4.3h-0.7V634.9z"/>
		<path class="st6" d="M87.4,636.5c0-0.6-0.2-1.1-0.9-1.1c-0.5,0-1,0.2-1.3,0.5l-0.3-0.5c0.4-0.3,1-0.6,1.7-0.6
			c1.1,0,1.5,0.7,1.5,1.8v2.7h-0.6l-0.1-0.5h0c-0.4,0.3-0.9,0.6-1.4,0.6c-0.7,0-1.3-0.5-1.3-1.2C84.7,637.1,85.6,636.7,87.4,636.5z
			 M86.2,638.7c0.4,0,0.8-0.2,1.2-0.6v-1.2c-1.5,0.2-1.9,0.5-1.9,1.1C85.5,638.5,85.8,638.7,86.2,638.7z"/>
	</g>
</g>
<rect x="108.3" y="98.6" class="st8" width="21" height="540.7"/>
<polyline class="st9" points="97.1,98.6 97.1,333.6 93.2,338 97.1,342.8 97.1,639.3 "/>
<g>
	<path class="st6" d="M9,334.4H11c2.2,0,3.5,1.2,3.5,3.6c0,2.4-1.3,3.6-3.4,3.6H9V334.4z M10.9,340.6c1.5,0,2.3-0.8,2.3-2.6
		c0-1.8-0.8-2.5-2.3-2.5h-0.6v5.1H10.9z"/>
	<path class="st6" d="M17,334.4h4.3v1.1h-3.1v1.8h2.6v1.1h-2.6v2.1h3.2v1.1H17V334.4z"/>
	<path class="st6" d="M24.3,339.8c0.5,0.5,1.2,0.8,1.9,0.8c0.8,0,1.3-0.4,1.3-0.9c0-0.6-0.5-0.8-1.1-1.1l-1-0.4
		c-0.7-0.3-1.5-0.9-1.5-1.9c0-1.1,1-2,2.4-2c0.8,0,1.7,0.4,2.2,0.9l-0.7,0.8c-0.5-0.4-0.9-0.6-1.6-0.6c-0.7,0-1.1,0.3-1.1,0.9
		c0,0.6,0.6,0.8,1.1,1l1,0.4c0.8,0.4,1.5,0.9,1.5,2c0,1.2-1,2.1-2.6,2.1c-1,0-1.9-0.4-2.6-1.1L24.3,339.8z"/>
	<path class="st6" d="M31.2,334.4h1.3v7.2h-1.3V334.4z"/>
	<path class="st6" d="M38.5,334.3c1,0,1.7,0.5,2.2,0.9l-0.7,0.8c-0.4-0.4-0.8-0.6-1.4-0.6c-1.3,0-2.1,1-2.1,2.6
		c0,1.6,0.8,2.6,2.2,2.6c0.4,0,0.8-0.1,1-0.3v-1.6h-1.4v-1h2.5v3.2c-0.5,0.5-1.3,0.9-2.3,0.9c-1.9,0-3.4-1.3-3.4-3.7
		C35,335.7,36.5,334.3,38.5,334.3z"/>
	<path class="st6" d="M43.4,334.4h1.3v4.1c0,1.6,0.6,2.1,1.5,2.1c0.9,0,1.5-0.5,1.5-2.1v-4.1h1.2v4c0,2.4-1,3.3-2.7,3.3
		c-1.7,0-2.7-0.9-2.7-3.3V334.4z"/>
	<path class="st6" d="M55,339.7h-2.4l-0.6,2h-1.3l2.4-7.2h1.5l2.4,7.2h-1.3L55,339.7z M54.7,338.7l-0.3-0.9
		c-0.2-0.8-0.4-1.6-0.7-2.4h0c-0.2,0.8-0.4,1.6-0.6,2.4l-0.3,0.9H54.7z"/>
	<path class="st6" d="M58.9,334.4h1.3v6.1h3v1.1h-4.3V334.4z"/>
	<path class="st6" d="M65.5,334.4h1.9c2.2,0,3.5,1.2,3.5,3.6c0,2.4-1.3,3.6-3.4,3.6h-2V334.4z M67.4,340.6c1.5,0,2.3-0.8,2.3-2.6
		c0-1.8-0.8-2.5-2.3-2.5h-0.6v5.1H67.4z"/>
	<path class="st6" d="M76.8,339.7h-2.4l-0.6,2h-1.3l2.4-7.2h1.5l2.4,7.2h-1.3L76.8,339.7z M76.5,338.7l-0.3-0.9
		c-0.2-0.8-0.4-1.6-0.7-2.4h0c-0.2,0.8-0.4,1.6-0.6,2.4l-0.3,0.9H76.5z"/>
	<path class="st6" d="M80.7,334.4h1.9c2.2,0,3.5,1.2,3.5,3.6c0,2.4-1.3,3.6-3.4,3.6h-2V334.4z M82.5,340.6c1.5,0,2.3-0.8,2.3-2.6
		c0-1.8-0.8-2.5-2.3-2.5H82v5.1H82.5z"/>
</g>
<text transform="matrix(1 0 0 1 9.0322 356.9885)"><tspan x="0" y="0" class="st10 st11">¿Qué factores </tspan><tspan x="0" y="12" class="st10 st11">influyen más</tspan><tspan x="0" y="24" class="st10 st11">en la diferen-</tspan><tspan x="0" y="36" class="st10 st11">cia entre</tspan><tspan x="0" y="48" class="st10 st11">cobertura</tspan><tspan x="0" y="60" class="st10 st11">y IOH?</tspan></text>
</svg>
