<?xml version="1.0" encoding="utf-8"?>
<!-- Generator: Adobe Illustrator 20.0.0, SVG Export Plug-In . SVG Version: 6.00 Build 0)  -->
<svg version="1.1" id="Capa_1" xmlns="http://www.w3.org/2000/svg" xmlns:xlink="http://www.w3.org/1999/xlink" x="0px" y="0px"
	 viewBox="0 0 106.7 81.6" style="enable-background:new 0 0 106.7 81.6;" xml:space="preserve">
<style type="text/css">
	.st0{opacity:0.5;fill:none;stroke:#000000;stroke-width:0.25;stroke-miterlimit:10;enable-background:new    ;}
	.st1{fill:#495E4A;}
	.st2{opacity:0.99;fill:#44B254;enable-background:new    ;}
	.st3{fill:none;stroke:#000000;stroke-width:0.25;stroke-miterlimit:10;}
	.st4{fill:#EF0707;}
</style>
<g>
	<rect x="0.1" y="0.1" class="st0" width="81.4" height="81.4"/>
	<rect x="6.3" y="29.3" class="st1" width="69.7" height="1"/>
	<rect x="6.3" y="43.7" class="st2" width="69.7" height="30.3"/>
	<line class="st3" x1="76.6" y1="29.8" x2="106.7" y2="29.8"/>
	<line class="st3" x1="76.6" y1="49.8" x2="106.7" y2="49.8"/>
	<g>
		<path class="st4" d="M10.1,34.3h1.5v6.5h-1.5V34.3z"/>
		<path class="st4" d="M14.1,34.3h1.5l1.7,3.2l0.6,1.4h0c-0.1-0.7-0.2-1.6-0.2-2.4v-2.3h1.4v6.5h-1.5L16,37.6l-0.6-1.4h0
			c0.1,0.7,0.2,1.6,0.2,2.4v2.3h-1.4V34.3z"/>
		<path class="st4" d="M21.7,34.3h4.1v1.2h-2.6v1.3h2.2v1.2h-2.2v1.5h2.7v1.2h-4.2V34.3z"/>
		<path class="st4" d="M34.2,42.4c-0.2,0.1-0.6,0.2-1.1,0.2c-1.4,0-2.4-0.7-2.8-1.7c-1.4-0.3-2.3-1.5-2.3-3.3c0-2.1,1.2-3.3,3-3.3
			s3,1.2,3,3.3c0,1.7-0.8,2.9-2.1,3.3c0.3,0.4,0.9,0.6,1.4,0.6c0.3,0,0.5-0.1,0.7-0.1L34.2,42.4z M30.9,39.7c0.9,0,1.4-0.8,1.4-2.2
			c0-1.3-0.6-2.1-1.4-2.1s-1.4,0.8-1.4,2.1C29.4,38.9,30,39.7,30.9,39.7z"/>
		<path class="st4" d="M36,34.3h1.5v3.6c0,1.3,0.4,1.7,1.1,1.7s1.1-0.4,1.1-1.7v-3.6h1.4v3.5c0,2.2-0.9,3.1-2.6,3.1
			c-1.7,0-2.6-0.9-2.6-3.1V34.3z"/>
		<path class="st4" d="M46.6,39.3h-2l-0.4,1.5h-1.5l2-6.5h1.8l2,6.5H47L46.6,39.3z M46.3,38.1l-0.2-0.6c-0.2-0.6-0.4-1.4-0.5-2.1h0
			c-0.2,0.7-0.3,1.4-0.5,2.1l-0.2,0.6H46.3z"/>
		<path class="st4" d="M50.3,34.3h1.5v5.3h2.6v1.2h-4V34.3z"/>
		<path class="st4" d="M56.5,34.3H58v6.5h-1.5V34.3z"/>
		<path class="st4" d="M61.8,35.5H60v-1.2H65v1.2h-1.8v5.3h-1.5V35.5z"/>
		<path class="st4" d="M68,38.5l-2-4.2h1.6l0.6,1.5c0.2,0.5,0.3,0.9,0.5,1.4h0c0.2-0.5,0.4-0.9,0.5-1.4l0.6-1.5h1.5l-2,4.2v2.3H68
			V38.5z"/>
	</g>
</g>
</svg>
