<?xml version="1.0" encoding="utf-8"?>
<!-- Generator: Adobe Illustrator 20.0.0, SVG Export Plug-In . SVG Version: 6.00 Build 0)  -->
<svg version="1.1" id="Capa_1" xmlns="http://www.w3.org/2000/svg" xmlns:xlink="http://www.w3.org/1999/xlink" x="0px" y="0px"
	 viewBox="0 0 190.6 88.3" style="enable-background:new 0 0 190.6 88.3;" xml:space="preserve">
<style type="text/css">
	.st0{fill:#FFFFFF;stroke:#000000;stroke-width:0.25;stroke-miterlimit:10;}
	.st1{opacity:0.5;fill:none;stroke:#000000;stroke-width:0.25;stroke-miterlimit:10;enable-background:new    ;}
	.st2{enable-background:new    ;}
	.st3{fill:#44B254;}
	.st4{fill:#495E4A;}
</style>
<polygon class="st0" points="190.4,80.5 104.5,80.5 96.9,88.1 89.3,80.5 0.1,80.5 0.1,0.1 190.4,0.1 "/>
<line class="st1" x1="9.6" y1="53" x2="179.9" y2="53"/>
<g class="st2">
	<path class="st3" d="M10,13.5h2l1.4,3.8l0.5,1.5H14l0.5-1.5l1.4-3.8h2V22h-1.8v-3.1c0-0.8,0.2-2.1,0.2-2.9h-0.1l-0.7,2l-1.3,3.3
		h-0.8L12.2,18l-0.7-2h-0.1c0.1,0.8,0.2,2.1,0.2,2.9V22H10V13.5z"/>
	<path class="st3" d="M22.4,15.4c1.8,0,2.7,1.3,2.7,3.1c0,0.3,0,0.6-0.1,0.8h-3.9c0.2,1,0.8,1.4,1.7,1.4c0.5,0,0.9-0.1,1.4-0.4
		l0.6,1.2c-0.7,0.5-1.5,0.7-2.3,0.7c-1.8,0-3.3-1.2-3.3-3.4C19.4,16.7,20.9,15.4,22.4,15.4z M23.5,18.1c0-0.7-0.3-1.3-1.1-1.3
		c-0.6,0-1.1,0.4-1.2,1.3H23.5z"/>
	<path class="st3" d="M26.5,17h-0.9v-1.4l1-0.1l0.2-1.7h1.6v1.7H30V17h-1.5v2.6c0,0.7,0.3,1,0.8,1c0.2,0,0.4-0.1,0.6-0.1l0.3,1.4
		c-0.3,0.1-0.8,0.2-1.4,0.2c-1.6,0-2.2-1-2.2-2.5L26.5,17L26.5,17z"/>
	<path class="st3" d="M33.9,15.6h1.6l0.1,0.8h0.1c0.5-0.5,1.2-1,2.1-1c1.4,0,2,1,2,2.6v4h-1.9v-3.8c0-0.9-0.2-1.2-0.8-1.2
		c-0.5,0-0.8,0.2-1.2,0.6V22H34L33.9,15.6L33.9,15.6z"/>
	<path class="st3" d="M44,15.4c1.8,0,2.7,1.3,2.7,3.1c0,0.3,0,0.6-0.1,0.8h-3.9c0.2,1,0.8,1.4,1.7,1.4c0.5,0,0.9-0.1,1.4-0.4
		l0.6,1.2c-0.7,0.5-1.5,0.7-2.3,0.7c-1.8,0-3.3-1.2-3.3-3.4C41,16.7,42.5,15.4,44,15.4z M45.2,18.1c0-0.7-0.3-1.3-1.1-1.3
		c-0.6,0-1.1,0.4-1.2,1.3H45.2z"/>
	<path class="st3" d="M50.8,15.4c1.8,0,2.7,1.3,2.7,3.1c0,0.3,0,0.6-0.1,0.8h-3.9c0.2,1,0.8,1.4,1.7,1.4c0.5,0,0.9-0.1,1.4-0.4
		l0.6,1.2c-0.7,0.5-1.5,0.7-2.3,0.7c-1.8,0-3.3-1.2-3.3-3.4C47.7,16.7,49.2,15.4,50.8,15.4z M51.9,18.1c0-0.7-0.3-1.3-1.1-1.3
		c-0.6,0-1.1,0.4-1.2,1.3H51.9z"/>
	<path class="st3" d="M57.2,15.4c0.7,0,1.1,0.3,1.6,0.7l-0.1-1v-2.2h1.9V22H59l-0.1-0.6h-0.1c-0.5,0.5-1.1,0.8-1.7,0.8
		c-1.6,0-2.6-1.3-2.6-3.4C54.5,16.7,55.8,15.4,57.2,15.4z M57.6,20.6c0.4,0,0.7-0.2,1.1-0.6v-2.6C58.3,17.1,58,17,57.6,17
		c-0.6,0-1.2,0.6-1.2,1.8C56.5,20,56.9,20.6,57.6,20.6z"/>
	<path class="st3" d="M68.6,14.4c-0.2-0.1-0.5-0.1-0.7-0.1c-0.5,0-0.7,0.3-0.7,0.9v0.4h1.2V17h-1.2v5h-1.9v-5h-0.9v-1.4l0.9-0.1
		v-0.4c0-1.4,0.6-2.5,2.4-2.5c0.5,0,1,0.1,1.3,0.2L68.6,14.4z"/>
	<path class="st3" d="M72.1,15.4c1.6,0,3.1,1.2,3.1,3.4c0,2.1-1.5,3.4-3.1,3.4S69,21,69,18.8C68.9,16.6,70.4,15.4,72.1,15.4z
		 M72.1,20.6c0.8,0,1.2-0.7,1.2-1.8c0-1.1-0.4-1.8-1.2-1.8c-0.8,0-1.2,0.7-1.2,1.8S71.3,20.6,72.1,20.6z"/>
	<path class="st3" d="M76.5,15.6h1.6l0.1,1.1h0.1c0.5-0.9,1.2-1.3,1.8-1.3c0.4,0,0.6,0.1,0.8,0.1l-0.3,1.7c-0.2-0.1-0.4-0.1-0.7-0.1
		c-0.5,0-1.1,0.3-1.4,1.2V22h-1.9L76.5,15.6L76.5,15.6z"/>
	<path class="st3" d="M88,14.4c-0.2-0.1-0.5-0.1-0.7-0.1c-0.5,0-0.7,0.3-0.7,0.9v0.4h1.2V17h-1.2v5h-1.9v-5h-0.9v-1.4l0.9-0.1v-0.4
		c0-1.4,0.6-2.5,2.4-2.5c0.5,0,1,0.1,1.3,0.2L88,14.4z"/>
	<path class="st3" d="M92,17.9c0-0.6-0.3-0.9-1-0.9c-0.5,0-1.1,0.2-1.7,0.6l-0.7-1.3c0.8-0.5,1.7-0.8,2.8-0.8c1.7,0,2.6,0.9,2.6,2.9
		V22h-1.6l-0.1-0.7l0,0c-0.5,0.5-1.2,0.8-1.9,0.8c-1.2,0-1.9-0.9-1.9-2C88.3,18.9,89.4,18.1,92,17.9z M90.9,20.7
		c0.4,0,0.7-0.2,1.1-0.5V19c-1.4,0.2-1.8,0.6-1.8,1.1C90.1,20.5,90.4,20.7,90.9,20.7z"/>
	<path class="st3" d="M95.5,15.6h1.6l0.1,0.8h0.1c0.5-0.5,1.1-1,2-1s1.5,0.4,1.8,1.1c0.6-0.6,1.2-1.1,2-1.1c1.4,0,2,1,2,2.6v4h-1.9
		v-3.8c0-0.9-0.2-1.2-0.8-1.2c-0.3,0-0.7,0.2-1.1,0.6V22h-1.9v-3.8c0-0.9-0.2-1.2-0.8-1.2c-0.3,0-0.7,0.2-1.1,0.6V22h-1.9L95.5,15.6
		L95.5,15.6z"/>
	<path class="st3" d="M106.5,13.6c0-0.6,0.5-1,1.1-1c0.7,0,1.1,0.4,1.1,1s-0.5,1-1.1,1S106.5,14.2,106.5,13.6z M106.6,15.6h1.9V22
		h-1.9V15.6z"/>
	<path class="st3" d="M110.2,12.9h1.9v7.2c0,0.4,0.2,0.5,0.3,0.5c0.1,0,0.1,0,0.2,0l0.2,1.4c-0.2,0.1-0.5,0.2-1,0.2
		c-1.3,0-1.8-0.9-1.8-2.2v-7.1H110.2z"/>
	<path class="st3" d="M114.5,23c0.6,0,1-0.3,1.1-0.8l0.1-0.3l-2.5-6.3h1.9l0.9,2.8c0.2,0.6,0.3,1.2,0.5,1.8h0.1
		c0.1-0.6,0.3-1.2,0.4-1.8l0.8-2.8h1.8l-2.2,6.5c-0.6,1.6-1.3,2.5-2.8,2.5c-0.4,0-0.6-0.1-0.9-0.1L114,23
		C114.2,23,114.4,23,114.5,23z"/>
	<path class="st3" d="M125.3,22.5v1.9h-1.9v-8.8h1.6l0.1,0.6h0.1c0.5-0.5,1.2-0.8,1.8-0.8c1.6,0,2.5,1.3,2.5,3.3
		c0,2.2-1.3,3.5-2.7,3.5c-0.6,0-1.1-0.2-1.5-0.7V22.5z M126.4,20.6c0.7,0,1.2-0.6,1.2-1.9c0-1.2-0.4-1.7-1.1-1.7
		c-0.4,0-0.7,0.2-1.1,0.6v2.6C125.7,20.5,126,20.6,126.4,20.6z"/>
	<path class="st3" d="M130.9,12.9h1.9v7.2c0,0.4,0.2,0.5,0.3,0.5s0.1,0,0.2,0l0.2,1.4c-0.2,0.1-0.5,0.2-1,0.2
		c-1.3,0-1.8-0.9-1.8-2.2v-7.1H130.9z"/>
	<path class="st3" d="M138,17.9c0-0.6-0.3-0.9-1-0.9c-0.5,0-1.1,0.2-1.7,0.6l-0.7-1.3c0.8-0.5,1.7-0.8,2.8-0.8
		c1.7,0,2.6,0.9,2.6,2.9V22h-1.6l-0.1-0.7l0,0c-0.5,0.5-1.2,0.8-1.9,0.8c-1.2,0-1.9-0.9-1.9-2C134.4,18.9,135.4,18.1,138,17.9z
		 M136.9,20.7c0.4,0,0.7-0.2,1.1-0.5V19c-1.4,0.2-1.8,0.6-1.8,1.1C136.2,20.5,136.5,20.7,136.9,20.7z"/>
	<path class="st3" d="M141.5,15.6h1.6l0.1,0.8h0.1c0.5-0.5,1.2-1,2.1-1c1.4,0,2,1,2,2.6v4h-1.9v-3.8c0-0.9-0.2-1.2-0.8-1.2
		c-0.5,0-0.8,0.2-1.2,0.6V22h-1.9v-6.4H141.5z"/>
	<path class="st3" d="M149,15.6h1.6l0.1,0.8h0.1c0.5-0.5,1.2-1,2.1-1c1.4,0,2,1,2,2.6v4H153v-3.8c0-0.9-0.2-1.2-0.8-1.2
		c-0.5,0-0.8,0.2-1.2,0.6V22h-2V15.6z"/>
	<path class="st3" d="M156.2,13.6c0-0.6,0.5-1,1.1-1c0.7,0,1.1,0.4,1.1,1s-0.5,1-1.1,1S156.2,14.2,156.2,13.6z M156.4,15.6h1.9V22
		h-1.9V15.6z"/>
	<path class="st3" d="M160,15.6h1.6l0.1,0.8h0.1c0.5-0.5,1.2-1,2.1-1c1.4,0,2,1,2,2.6v4H164v-3.8c0-0.9-0.2-1.2-0.8-1.2
		c-0.5,0-0.8,0.2-1.2,0.6V22h-2V15.6z"/>
	<path class="st3" d="M167.9,21.8L167.9,21.8c-0.3-0.3-0.6-0.6-0.6-1.1s0.3-0.9,0.7-1.2v-0.1c-0.5-0.3-0.9-0.9-0.9-1.7
		c0-1.5,1.3-2.3,2.7-2.3c0.4,0,0.7,0.1,1,0.2h2.4V17h-1c0.1,0.2,0.2,0.5,0.2,0.8c0,1.5-1.1,2.2-2.5,2.2c-0.2,0-0.5,0-0.8-0.1
		c-0.2,0.1-0.2,0.3-0.2,0.5c0,0.3,0.3,0.5,1,0.5h1c1.6,0,2.5,0.5,2.5,1.6c0,1.3-1.4,2.3-3.6,2.3c-1.5,0-2.7-0.5-2.7-1.6
		C167,22.6,167.4,22.1,167.9,21.8z M170,23.5c0.9,0,1.5-0.4,1.5-0.8s-0.4-0.5-1-0.5h-0.7c-0.4,0-0.7,0-0.9-0.1
		c-0.2,0.2-0.4,0.4-0.4,0.6C168.6,23.3,169.2,23.5,170,23.5z M170.8,17.7c0-0.7-0.4-1-0.9-1s-0.9,0.4-0.9,1c0,0.7,0.4,1.1,0.9,1.1
		S170.8,18.4,170.8,17.7z"/>
</g>
<g>
	<path class="st4" d="M15.1,41.3c0.9,0,1.7,0.5,2.2,1l-0.8,0.9c-0.4-0.4-0.8-0.6-1.4-0.6c-1.3,0-2.2,1.1-2.2,2.8
		c0,1.8,0.8,2.9,2.2,2.9c0.7,0,1.2-0.3,1.6-0.8l0.8,0.9C16.8,49,16,49.4,15,49.4c-2,0-3.6-1.4-3.6-4C11.4,42.8,13.1,41.3,15.1,41.3z
		"/>
	<path class="st4" d="M21.1,43.3c1.5,0,2.8,1.1,2.8,3.1c0,2-1.3,3.1-2.8,3.1c-1.5,0-2.8-1.1-2.8-3.1C18.3,44.4,19.6,43.3,21.1,43.3z
		 M21.1,48.3c0.9,0,1.4-0.8,1.4-2c0-1.2-0.5-2-1.4-2s-1.4,0.8-1.4,2C19.7,47.5,20.2,48.3,21.1,48.3z"/>
	<path class="st4" d="M24.4,43.4h1.4l0.9,3.1c0.2,0.6,0.3,1.2,0.5,1.8h0c0.2-0.6,0.3-1.2,0.5-1.8l0.9-3.1h1.3l-2,5.9h-1.6L24.4,43.4
		z"/>
	<path class="st4" d="M33.4,43.3c1.6,0,2.4,1.2,2.4,2.8c0,0.3,0,0.5-0.1,0.6H32c0.1,1.1,0.8,1.7,1.7,1.7c0.5,0,0.9-0.2,1.4-0.4
		l0.5,0.9c-0.6,0.4-1.3,0.6-2,0.6c-1.6,0-2.9-1.1-2.9-3.1C30.6,44.4,32,43.3,33.4,43.3z M34.6,45.8c0-0.9-0.4-1.5-1.2-1.5
		c-0.7,0-1.3,0.5-1.4,1.5H34.6z"/>
	<path class="st4" d="M37.1,43.4h1.1l0.1,1h0c0.4-0.8,1-1.2,1.7-1.2c0.3,0,0.5,0,0.7,0.1l-0.2,1.2c-0.2-0.1-0.4-0.1-0.6-0.1
		c-0.5,0-1,0.3-1.4,1.2v3.6h-1.4V43.4z"/>
	<path class="st4" d="M44.5,45.5c0-0.6-0.3-1.2-1.1-1.2c-0.6,0-1.1,0.3-1.7,0.6L41.3,44c0.6-0.4,1.5-0.8,2.4-0.8
		c1.5,0,2.2,0.9,2.2,2.5v3.5h-1.1l-0.1-0.6h0c-0.5,0.4-1.1,0.8-1.8,0.8c-1,0-1.8-0.7-1.8-1.7C41,46.5,42.1,45.8,44.5,45.5z
		 M43.2,48.4c0.5,0,0.9-0.2,1.3-0.6v-1.3c-1.6,0.2-2.1,0.6-2.1,1.2C42.4,48.1,42.7,48.4,43.2,48.4z"/>
	<path class="st4" d="M48,49.1L48,49.1c-0.3-0.2-0.5-0.6-0.5-1c0-0.5,0.3-0.9,0.6-1.1v0c-0.4-0.3-0.8-0.9-0.8-1.6
		c0-1.4,1.1-2.1,2.3-2.1c0.3,0,0.6,0.1,0.9,0.1h2.1v1h-1.1c0.2,0.2,0.3,0.6,0.3,1c0,1.3-1,2-2.2,2c-0.3,0-0.5,0-0.8-0.2
		c-0.2,0.2-0.3,0.3-0.3,0.6c0,0.3,0.2,0.5,1,0.5h1c1.4,0,2.2,0.4,2.2,1.5c0,1.2-1.2,2.1-3.1,2.1c-1.4,0-2.4-0.5-2.4-1.5
		C47.1,49.9,47.4,49.4,48,49.1z M49.8,51c0.9,0,1.6-0.4,1.6-0.9c0-0.5-0.4-0.6-1-0.6h-0.8c-0.3,0-0.6,0-0.8-0.1
		c-0.3,0.2-0.5,0.5-0.5,0.8C48.3,50.7,48.9,51,49.8,51z M50.7,45.4c0-0.7-0.4-1.2-1-1.2c-0.6,0-1,0.4-1,1.2c0,0.8,0.5,1.2,1,1.2
		C50.2,46.6,50.7,46.1,50.7,45.4z"/>
	<path class="st4" d="M55.9,43.3c1.6,0,2.4,1.2,2.4,2.8c0,0.3,0,0.5-0.1,0.6h-3.7c0.1,1.1,0.8,1.7,1.7,1.7c0.5,0,0.9-0.2,1.4-0.4
		l0.5,0.9c-0.6,0.4-1.3,0.6-2,0.6c-1.6,0-2.9-1.1-2.9-3.1C53.2,44.4,54.5,43.3,55.9,43.3z M57.2,45.8c0-0.9-0.4-1.5-1.2-1.5
		c-0.7,0-1.3,0.5-1.4,1.5H57.2z"/>
	<path class="st3" d="M11.9,60.5h1.4v3.2h3.2v-3.2h1.4v7.8h-1.4v-3.5h-3.2v3.5h-1.4V60.5z"/>
	<path class="st3" d="M19.4,64.3c0-2.5,1.4-4,3.5-4c2.1,0,3.5,1.5,3.5,4c0,2.5-1.4,4.1-3.5,4.1C20.8,68.4,19.4,66.9,19.4,64.3z
		 M24.9,64.3c0-1.8-0.8-2.8-2-2.8s-2,1.1-2,2.8c0,1.8,0.8,2.9,2,2.9S24.9,66.1,24.9,64.3z"/>
	<path class="st3" d="M27.9,60.5h1.4v7.8h-1.4V60.5z"/>
</g>
</svg>
