<?xml version="1.0" encoding="utf-8"?>
<!-- Generator: Adobe Illustrator 20.0.0, SVG Export Plug-In . SVG Version: 6.00 Build 0)  -->
<svg version="1.1" id="Capa_1" xmlns="http://www.w3.org/2000/svg" xmlns:xlink="http://www.w3.org/1999/xlink" x="0px" y="0px"
	 viewBox="0 0 190.6 88.3" style="enable-background:new 0 0 190.6 88.3;" xml:space="preserve">
<style type="text/css">
	.st0{fill:#FFFFFF;stroke:#000000;stroke-width:0.25;stroke-miterlimit:10;}
	.st1{opacity:0.5;fill:none;stroke:#000000;stroke-width:0.25;stroke-miterlimit:10;enable-background:new    ;}
	.st2{enable-background:new    ;}
	.st3{fill:#44B254;}
	.st4{fill:#495E4A;}
</style>
<polygon class="st0" points="190.4,80.5 104.5,80.5 96.9,88.1 89.3,80.5 0.1,80.5 0.1,0.1 190.4,0.1 "/>
<line class="st1" x1="9.6" y1="53" x2="179.9" y2="53"/>
<g class="st2">
	<path class="st3" d="M11,7.5h1.9V11H13l2.5-3.5h2.1L15,10.9l3,5.1h-2l-2.1-3.6l-1,1.3V16H11V7.5z"/>
	<path class="st3" d="M18.8,9.6h1.6l0.1,0.8h0.1c0.5-0.5,1.2-1,2.1-1c1.4,0,2,1,2,2.6v4h-1.9v-3.8c0-0.9-0.2-1.2-0.8-1.2
		c-0.5,0-0.8,0.2-1.2,0.6V16h-1.9V9.6H18.8z"/>
	<path class="st3" d="M29,9.4c1.6,0,3.1,1.2,3.1,3.4c0,2.1-1.5,3.4-3.1,3.4s-3.1-1.2-3.1-3.4C25.9,10.6,27.4,9.4,29,9.4z M29,14.6
		c0.8,0,1.2-0.7,1.2-1.8S29.8,11,29,11c-0.8,0-1.2,0.7-1.2,1.8S28.2,14.6,29,14.6z"/>
	<path class="st3" d="M32.8,9.6h1.9l0.6,3c0.1,0.6,0.2,1.3,0.3,1.9h0.1c0.1-0.7,0.2-1.3,0.4-1.9l0.7-3h1.7l0.7,3
		c0.2,0.6,0.3,1.3,0.4,1.9h0.1c0.1-0.7,0.2-1.3,0.3-1.9l0.6-3h1.8L40.8,16h-2.2L38,13.4c-0.1-0.6-0.2-1.2-0.4-1.9h-0.1
		c-0.1,0.7-0.2,1.3-0.3,1.9L36.6,16h-2.2L32.8,9.6z"/>
	<path class="st3" d="M43.5,6.9h1.9v7.2c0,0.4,0.2,0.5,0.3,0.5s0.1,0,0.2,0l0.2,1.4c-0.2,0.1-0.5,0.2-1,0.2c-1.3,0-1.8-0.9-1.8-2.2
		V6.9H43.5z"/>
	<path class="st3" d="M49.8,9.4c1.8,0,2.7,1.3,2.7,3.1c0,0.3,0,0.6-0.1,0.8h-3.9c0.2,1,0.8,1.4,1.7,1.4c0.5,0,0.9-0.1,1.4-0.4
		l0.6,1.2c-0.7,0.5-1.5,0.7-2.3,0.7c-1.8,0-3.3-1.2-3.3-3.4C46.8,10.7,48.3,9.4,49.8,9.4z M51,12.1c0-0.7-0.3-1.3-1.1-1.3
		c-0.6,0-1.1,0.4-1.2,1.3H51z"/>
	<path class="st3" d="M56.3,9.4c0.7,0,1.1,0.3,1.6,0.7l-0.1-1V6.9h1.9V16h-1.6L58,15.4h-0.1c-0.5,0.5-1.1,0.8-1.7,0.8
		c-1.6,0-2.6-1.3-2.6-3.4C53.6,10.7,54.9,9.4,56.3,9.4z M56.7,14.6c0.4,0,0.7-0.2,1.1-0.6v-2.6C57.4,11.1,57,11,56.7,11
		c-0.6,0-1.2,0.6-1.2,1.8S56,14.6,56.7,14.6z"/>
	<path class="st3" d="M61.9,15.8L61.9,15.8c-0.3-0.3-0.6-0.6-0.6-1.1s0.3-0.9,0.7-1.2v-0.1c-0.5-0.3-0.9-0.9-0.9-1.7
		c0-1.5,1.3-2.3,2.7-2.3c0.4,0,0.7,0.1,1,0.2h2.4V11h-1c0.1,0.2,0.2,0.5,0.2,0.8c0,1.5-1.1,2.2-2.5,2.2c-0.2,0-0.5,0-0.8-0.1
		c-0.2,0.1-0.2,0.3-0.2,0.5c0,0.3,0.3,0.5,1,0.5h1c1.6,0,2.5,0.5,2.5,1.6c0,1.3-1.4,2.3-3.6,2.3c-1.5,0-2.7-0.5-2.7-1.6
		C61,16.6,61.3,16.1,61.9,15.8z M64,17.5c0.9,0,1.5-0.4,1.5-0.8s-0.4-0.5-1-0.5h-0.7c-0.4,0-0.7,0-0.9-0.1c-0.2,0.2-0.4,0.4-0.4,0.6
		C62.5,17.3,63.1,17.5,64,17.5z M64.7,11.7c0-0.7-0.4-1-0.9-1s-0.9,0.4-0.9,1c0,0.7,0.4,1.1,0.9,1.1S64.7,12.4,64.7,11.7z"/>
	<path class="st3" d="M70.7,9.4c1.8,0,2.7,1.3,2.7,3.1c0,0.3,0,0.6-0.1,0.8h-3.9c0.2,1,0.8,1.4,1.7,1.4c0.5,0,0.9-0.1,1.4-0.4
		l0.6,1.2c-0.7,0.5-1.5,0.7-2.3,0.7c-1.8,0-3.3-1.2-3.3-3.4C67.7,10.7,69.2,9.4,70.7,9.4z M71.9,12.1c0-0.7-0.3-1.3-1.1-1.3
		c-0.6,0-1.1,0.4-1.2,1.3H71.9z"/>
	<path class="st3" d="M80.3,9.4c1.6,0,3.1,1.2,3.1,3.4c0,2.1-1.5,3.4-3.1,3.4s-3.1-1.2-3.1-3.4C77.1,10.6,78.6,9.4,80.3,9.4z
		 M80.3,14.6c0.8,0,1.2-0.7,1.2-1.8S81.1,11,80.3,11c-0.8,0-1.2,0.7-1.2,1.8C79.1,13.9,79.5,14.6,80.3,14.6z"/>
	<path class="st3" d="M88.3,8.4c-0.2-0.1-0.5-0.1-0.7-0.1c-0.5,0-0.7,0.3-0.7,0.9v0.4h1.2V11h-1.2v5H85v-5h-0.9V9.6H85V9.2
		c0-1.4,0.6-2.5,2.4-2.5c0.5,0,1,0.1,1.3,0.2L88.3,8.4z"/>
	<path class="st3" d="M95.2,11.9c0-0.6-0.3-0.9-1-0.9c-0.5,0-1.1,0.2-1.7,0.6l-0.7-1.3c0.8-0.5,1.7-0.8,2.8-0.8
		c1.7,0,2.6,0.9,2.6,2.9V16h-1.6l-0.1-0.7l0,0c-0.5,0.5-1.2,0.8-1.9,0.8c-1.2,0-1.9-0.9-1.9-2C91.6,12.9,92.6,12.1,95.2,11.9z
		 M94.1,14.7c0.4,0,0.7-0.2,1.1-0.5V13c-1.4,0.2-1.8,0.6-1.8,1.1C93.4,14.5,93.7,14.7,94.1,14.7z"/>
	<path class="st3" d="M103.4,16.5v1.9h-1.9V9.6h1.6l0.1,0.6h0.1c0.5-0.5,1.2-0.8,1.8-0.8c1.6,0,2.5,1.3,2.5,3.3
		c0,2.2-1.3,3.5-2.7,3.5c-0.6,0-1.1-0.2-1.5-0.7V16.5z M104.4,14.6c0.7,0,1.2-0.6,1.2-1.9c0-1.2-0.4-1.7-1.1-1.7
		c-0.4,0-0.7,0.2-1.1,0.6v2.6C103.7,14.5,104.1,14.6,104.4,14.6z"/>
	<path class="st3" d="M108.9,6.9h1.9v7.2c0,0.4,0.2,0.5,0.3,0.5c0.1,0,0.1,0,0.2,0l0.2,1.4c-0.2,0.1-0.5,0.2-1,0.2
		c-1.3,0-1.8-0.9-1.8-2.2V6.9H108.9z"/>
	<path class="st3" d="M116,11.9c0-0.6-0.3-0.9-1-0.9c-0.5,0-1.1,0.2-1.7,0.6l-0.7-1.3c0.8-0.5,1.7-0.8,2.8-0.8
		c1.7,0,2.6,0.9,2.6,2.9V16h-1.6l-0.1-0.7l0,0c-0.5,0.5-1.2,0.8-1.9,0.8c-1.2,0-1.9-0.9-1.9-2C112.4,12.9,113.5,12.1,116,11.9z
		 M114.9,14.7c0.4,0,0.7-0.2,1.1-0.5V13c-1.4,0.2-1.8,0.6-1.8,1.1C114.2,14.5,114.5,14.7,114.9,14.7z"/>
	<path class="st3" d="M122.5,9.4c0.8,0,1.5,0.3,1.9,0.7l-0.9,1.2c-0.3-0.3-0.6-0.4-0.9-0.4c-0.9,0-1.5,0.7-1.5,1.8s0.6,1.8,1.4,1.8
		c0.5,0,0.8-0.2,1.2-0.5l0.8,1.2c-0.6,0.5-1.4,0.8-2.1,0.8c-1.8,0-3.2-1.2-3.2-3.4C119.2,10.6,120.7,9.4,122.5,9.4z"/>
	<path class="st3" d="M127.9,9.4c1.8,0,2.7,1.3,2.7,3.1c0,0.3,0,0.6-0.1,0.8h-3.9c0.2,1,0.8,1.4,1.7,1.4c0.5,0,0.9-0.1,1.4-0.4
		l0.6,1.2c-0.7,0.5-1.5,0.7-2.3,0.7c-1.8,0-3.3-1.2-3.3-3.4C124.9,10.7,126.4,9.4,127.9,9.4z M129,12.1c0-0.7-0.3-1.3-1.1-1.3
		c-0.6,0-1.1,0.4-1.2,1.3H129z"/>
	<path class="st3" d="M134.2,9.6h1.9l0.6,3c0.1,0.6,0.2,1.3,0.3,1.9h0.1c0.1-0.7,0.2-1.3,0.4-1.9l0.7-3h1.7l0.7,3
		c0.2,0.6,0.3,1.3,0.4,1.9h0.1c0.1-0.7,0.2-1.3,0.3-1.9l0.6-3h1.8l-1.5,6.4h-2.2l-0.6-2.6c-0.1-0.6-0.2-1.2-0.4-1.9H139
		c-0.1,0.7-0.2,1.3-0.3,1.9L138,16h-2.2L134.2,9.6z"/>
	<path class="st3" d="M144.8,6.9h1.9v2.2l-0.1,1.2c0.5-0.4,1.1-0.9,2-0.9c1.4,0,2,1,2,2.6v4h-1.9v-3.8c0-0.9-0.2-1.2-0.8-1.2
		c-0.5,0-0.8,0.2-1.2,0.6V16h-1.9V6.9z"/>
	<path class="st3" d="M154.9,9.4c1.8,0,2.7,1.3,2.7,3.1c0,0.3,0,0.6-0.1,0.8h-3.9c0.2,1,0.8,1.4,1.7,1.4c0.5,0,0.9-0.1,1.4-0.4
		l0.6,1.2c-0.7,0.5-1.5,0.7-2.3,0.7c-1.8,0-3.3-1.2-3.3-3.4C151.8,10.7,153.3,9.4,154.9,9.4z M156,12.1c0-0.7-0.3-1.3-1.1-1.3
		c-0.6,0-1.1,0.4-1.2,1.3H156z"/>
	<path class="st3" d="M158.9,9.6h1.6l0.1,1.1h0.1c0.5-0.9,1.2-1.3,1.8-1.3c0.4,0,0.6,0.1,0.8,0.1l-0.3,1.7c-0.2-0.1-0.4-0.1-0.7-0.1
		c-0.5,0-1.1,0.3-1.4,1.2V16H159V9.6H158.9z"/>
	<path class="st3" d="M166.6,9.4c1.8,0,2.7,1.3,2.7,3.1c0,0.3,0,0.6-0.1,0.8h-3.9c0.2,1,0.8,1.4,1.7,1.4c0.5,0,0.9-0.1,1.4-0.4
		l0.6,1.2c-0.7,0.5-1.5,0.7-2.3,0.7c-1.8,0-3.3-1.2-3.3-3.4C163.6,10.7,165.1,9.4,166.6,9.4z M167.8,12.1c0-0.7-0.3-1.3-1.1-1.3
		c-0.6,0-1.1,0.4-1.2,1.3H167.8z"/>
</g>
<g class="st2">
	<path class="st3" d="M11.1,26h-0.9v-1.4l1-0.1l0.2-1.7H13v1.7h1.5V26H13v2.6c0,0.7,0.3,1,0.8,1c0.2,0,0.4-0.1,0.6-0.1l0.3,1.4
		c-0.3,0.1-0.8,0.2-1.4,0.2c-1.6,0-2.2-1-2.2-2.5C11.1,28.6,11.1,26,11.1,26z"/>
	<path class="st3" d="M18.5,24.4c1.6,0,3.1,1.2,3.1,3.4c0,2.1-1.5,3.4-3.1,3.4s-3.1-1.2-3.1-3.4C15.3,25.6,16.8,24.4,18.5,24.4z
		 M18.5,29.6c0.8,0,1.2-0.7,1.2-1.8c0-1.1-0.4-1.8-1.2-1.8c-0.8,0-1.2,0.7-1.2,1.8S17.7,29.6,18.5,29.6z"/>
	<path class="st3" d="M26.1,30.8L26.1,30.8c-0.3-0.3-0.6-0.6-0.6-1.1s0.3-0.9,0.7-1.2v-0.1c-0.5-0.3-0.9-0.9-0.9-1.7
		c0-1.5,1.3-2.3,2.7-2.3c0.4,0,0.7,0.1,1,0.2h2.4V26h-1c0.1,0.2,0.2,0.5,0.2,0.8c0,1.5-1.1,2.2-2.5,2.2c-0.2,0-0.5,0-0.8-0.1
		C27.1,29,27,29.1,27,29.3c0,0.3,0.3,0.5,1,0.5h1c1.6,0,2.5,0.5,2.5,1.6c0,1.3-1.4,2.3-3.6,2.3c-1.5,0-2.7-0.5-2.7-1.6
		C25.2,31.6,25.5,31.1,26.1,30.8z M28.2,32.5c0.9,0,1.5-0.4,1.5-0.8c0-0.4-0.4-0.5-1-0.5H28c-0.4,0-0.7,0-0.9-0.1
		c-0.2,0.2-0.4,0.4-0.4,0.6C26.8,32.3,27.4,32.5,28.2,32.5z M28.9,26.7c0-0.7-0.4-1-0.9-1s-0.9,0.4-0.9,1c0,0.7,0.4,1.1,0.9,1.1
		S28.9,27.4,28.9,26.7z"/>
	<path class="st3" d="M35,24.4c1.8,0,2.7,1.3,2.7,3.1c0,0.3,0,0.6-0.1,0.8h-3.9c0.2,1,0.8,1.4,1.7,1.4c0.5,0,0.9-0.1,1.4-0.4
		l0.6,1.2c-0.7,0.5-1.5,0.7-2.3,0.7c-1.8,0-3.3-1.2-3.3-3.4C31.9,25.7,33.4,24.4,35,24.4z M36.1,27.1c0-0.7-0.3-1.3-1.1-1.3
		c-0.6,0-1.1,0.4-1.2,1.3H36.1z"/>
	<path class="st3" d="M39.1,26h-0.9v-1.4l1-0.1l0.2-1.7H41v1.7h1.5V26H41v2.6c0,0.7,0.3,1,0.8,1c0.2,0,0.4-0.1,0.6-0.1l0.3,1.4
		c-0.3,0.1-0.8,0.2-1.4,0.2c-1.6,0-2.2-1-2.2-2.5C39.1,28.6,39.1,26,39.1,26z"/>
	<path class="st3" d="M49.9,26.9c0-0.6-0.3-0.9-1-0.9c-0.5,0-1.1,0.2-1.7,0.6l-0.7-1.3c0.8-0.5,1.7-0.8,2.8-0.8
		c1.7,0,2.6,0.9,2.6,2.9V31h-1.6l-0.1-0.7l0,0c-0.5,0.5-1.2,0.8-1.9,0.8c-1.2,0-1.9-0.9-1.9-2C46.3,27.9,47.3,27.1,49.9,26.9z
		 M48.8,29.7c0.4,0,0.7-0.2,1.1-0.5V28c-1.4,0.2-1.8,0.6-1.8,1.1C48.1,29.5,48.4,29.7,48.8,29.7z"/>
	<path class="st3" d="M53.4,24.6H55l0.1,0.8h0.1c0.5-0.5,1.2-1,2.1-1c1.4,0,2,1,2,2.6v4h-1.9v-3.8c0-0.9-0.2-1.2-0.8-1.2
		c-0.5,0-0.8,0.2-1.2,0.6V31h-1.9L53.4,24.6L53.4,24.6z"/>
	<path class="st3" d="M63.7,22.5h1.9v3.3h2.9v-3.3h1.9V31h-1.9v-3.5h-2.9V31h-1.9C63.7,31,63.7,22.5,63.7,22.5z"/>
	<path class="st3" d="M72.5,22.5h1.9V31h-1.9V22.5z"/>
	<path class="st3" d="M75.3,22.5h2l1,4c0.3,0.9,0.4,1.8,0.7,2.7h0.1c0.2-0.9,0.4-1.8,0.7-2.7l1-4h2L80.2,31h-2.3L75.3,22.5z"/>
	<path class="st3" d="M86.5,26h-0.9v-1.4l1-0.1l0.2-1.7h1.6v1.7h1.5V26h-1.5v2.6c0,0.7,0.3,1,0.8,1c0.2,0,0.4-0.1,0.6-0.1l0.3,1.4
		c-0.3,0.1-0.8,0.2-1.4,0.2c-1.6,0-2.2-1-2.2-2.5V26z"/>
	<path class="st3" d="M93.7,24.4c1.8,0,2.7,1.3,2.7,3.1c0,0.3,0,0.6-0.1,0.8h-3.9c0.2,1,0.8,1.4,1.7,1.4c0.5,0,0.9-0.1,1.4-0.4
		l0.6,1.2c-0.7,0.5-1.5,0.7-2.3,0.7c-1.8,0-3.3-1.2-3.3-3.4C90.7,25.7,92.2,24.4,93.7,24.4z M94.8,27.1c0-0.7-0.3-1.3-1.1-1.3
		c-0.6,0-1.1,0.4-1.2,1.3H94.8z"/>
	<path class="st3" d="M98.1,29.1c0.6,0.4,1.1,0.7,1.7,0.7s0.8-0.2,0.8-0.5c0-0.4-0.6-0.6-1.3-0.9c-0.8-0.3-1.7-0.8-1.7-1.9
		c0-1.2,1-2,2.5-2c1,0,1.7,0.4,2.3,0.8l-0.9,1.1c-0.5-0.3-0.9-0.5-1.4-0.5s-0.7,0.2-0.7,0.5c0,0.4,0.6,0.6,1.3,0.8
		c0.8,0.3,1.7,0.8,1.7,1.9c0,1.2-0.9,2.1-2.7,2.1c-0.8,0-1.8-0.4-2.5-0.9L98.1,29.1z"/>
	<path class="st3" d="M103.8,26h-0.9v-1.4l1-0.1l0.2-1.7h1.6v1.7h1.5V26h-1.5v2.6c0,0.7,0.3,1,0.8,1c0.2,0,0.4-0.1,0.6-0.1l0.3,1.4
		c-0.3,0.1-0.8,0.2-1.4,0.2c-1.6,0-2.2-1-2.2-2.5V26z"/>
</g>
<g>
	<path class="st4" d="M15.1,41.3c0.9,0,1.7,0.5,2.2,1l-0.8,0.9c-0.4-0.4-0.8-0.6-1.4-0.6c-1.3,0-2.2,1.1-2.2,2.8
		c0,1.8,0.8,2.9,2.2,2.9c0.7,0,1.2-0.3,1.6-0.8l0.8,0.9C16.8,49,16,49.4,15,49.4c-2,0-3.6-1.4-3.6-4C11.4,42.8,13.1,41.3,15.1,41.3z
		"/>
	<path class="st4" d="M21.1,43.3c1.5,0,2.8,1.1,2.8,3.1c0,2-1.3,3.1-2.8,3.1c-1.5,0-2.8-1.1-2.8-3.1C18.3,44.4,19.6,43.3,21.1,43.3z
		 M21.1,48.3c0.9,0,1.4-0.8,1.4-2c0-1.2-0.5-2-1.4-2s-1.4,0.8-1.4,2C19.7,47.5,20.2,48.3,21.1,48.3z"/>
	<path class="st4" d="M24.4,43.4h1.4l0.9,3.1c0.2,0.6,0.3,1.2,0.5,1.8h0c0.2-0.6,0.3-1.2,0.5-1.8l0.9-3.1h1.3l-2,5.9h-1.6L24.4,43.4
		z"/>
	<path class="st4" d="M33.4,43.3c1.6,0,2.4,1.2,2.4,2.8c0,0.3,0,0.5-0.1,0.6H32c0.1,1.1,0.8,1.7,1.7,1.7c0.5,0,0.9-0.2,1.4-0.4
		l0.5,0.9c-0.6,0.4-1.3,0.6-2,0.6c-1.6,0-2.9-1.1-2.9-3.1C30.6,44.4,32,43.3,33.4,43.3z M34.6,45.8c0-0.9-0.4-1.5-1.2-1.5
		c-0.7,0-1.3,0.5-1.4,1.5H34.6z"/>
	<path class="st4" d="M37.1,43.4h1.1l0.1,1h0c0.4-0.8,1-1.2,1.7-1.2c0.3,0,0.5,0,0.7,0.1l-0.2,1.2c-0.2-0.1-0.4-0.1-0.6-0.1
		c-0.5,0-1,0.3-1.4,1.2v3.6h-1.4V43.4z"/>
	<path class="st4" d="M44.5,45.5c0-0.6-0.3-1.2-1.1-1.2c-0.6,0-1.1,0.3-1.7,0.6L41.3,44c0.6-0.4,1.5-0.8,2.4-0.8
		c1.5,0,2.2,0.9,2.2,2.5v3.5h-1.1l-0.1-0.6h0c-0.5,0.4-1.1,0.8-1.8,0.8c-1,0-1.8-0.7-1.8-1.7C41,46.5,42.1,45.8,44.5,45.5z
		 M43.2,48.4c0.5,0,0.9-0.2,1.3-0.6v-1.3c-1.6,0.2-2.1,0.6-2.1,1.2C42.4,48.1,42.7,48.4,43.2,48.4z"/>
	<path class="st4" d="M48,49.1L48,49.1c-0.3-0.2-0.5-0.6-0.5-1c0-0.5,0.3-0.9,0.6-1.1v0c-0.4-0.3-0.8-0.9-0.8-1.6
		c0-1.4,1.1-2.1,2.3-2.1c0.3,0,0.6,0.1,0.9,0.1h2.1v1h-1.1c0.2,0.2,0.3,0.6,0.3,1c0,1.3-1,2-2.2,2c-0.3,0-0.5,0-0.8-0.2
		c-0.2,0.2-0.3,0.3-0.3,0.6c0,0.3,0.2,0.5,1,0.5h1c1.4,0,2.2,0.4,2.2,1.5c0,1.2-1.2,2.1-3.1,2.1c-1.4,0-2.4-0.5-2.4-1.5
		C47.1,49.9,47.4,49.4,48,49.1z M49.8,51c0.9,0,1.6-0.4,1.6-0.9c0-0.5-0.4-0.6-1-0.6h-0.8c-0.3,0-0.6,0-0.8-0.1
		c-0.3,0.2-0.5,0.5-0.5,0.8C48.3,50.7,48.9,51,49.8,51z M50.7,45.4c0-0.7-0.4-1.2-1-1.2c-0.6,0-1,0.4-1,1.2c0,0.8,0.5,1.2,1,1.2
		C50.2,46.6,50.7,46.1,50.7,45.4z"/>
	<path class="st4" d="M55.9,43.3c1.6,0,2.4,1.2,2.4,2.8c0,0.3,0,0.5-0.1,0.6h-3.7c0.1,1.1,0.8,1.7,1.7,1.7c0.5,0,0.9-0.2,1.4-0.4
		l0.5,0.9c-0.6,0.4-1.3,0.6-2,0.6c-1.6,0-2.9-1.1-2.9-3.1C53.2,44.4,54.5,43.3,55.9,43.3z M57.2,45.8c0-0.9-0.4-1.5-1.2-1.5
		c-0.7,0-1.3,0.5-1.4,1.5H57.2z"/>
	<path class="st3" d="M11.9,60.5h1.4v3.2h3.2v-3.2h1.4v7.8h-1.4v-3.5h-3.2v3.5h-1.4V60.5z"/>
	<path class="st3" d="M19.4,64.3c0-2.5,1.4-4,3.5-4c2.1,0,3.5,1.5,3.5,4c0,2.5-1.4,4.1-3.5,4.1C20.8,68.4,19.4,66.9,19.4,64.3z
		 M24.9,64.3c0-1.8-0.8-2.8-2-2.8s-2,1.1-2,2.8c0,1.8,0.8,2.9,2,2.9S24.9,66.1,24.9,64.3z"/>
	<path class="st3" d="M27.9,60.5h1.4v7.8h-1.4V60.5z"/>
</g>
</svg>
