<?xml version="1.0" encoding="utf-8"?>
<!-- Generator: Adobe Illustrator 20.0.0, SVG Export Plug-In . SVG Version: 6.00 Build 0)  -->
<svg version="1.1" id="Capa_1" xmlns="http://www.w3.org/2000/svg" xmlns:xlink="http://www.w3.org/1999/xlink" x="0px" y="0px"
	 viewBox="0 0 190.6 88.3" style="enable-background:new 0 0 190.6 88.3;" xml:space="preserve">
<style type="text/css">
	.st0{fill:#FFFFFF;stroke:#000000;stroke-width:0.25;stroke-miterlimit:10;}
	.st1{opacity:0.5;fill:none;stroke:#000000;stroke-width:0.25;stroke-miterlimit:10;enable-background:new    ;}
	.st2{enable-background:new    ;}
	.st3{fill:#44B254;}
	.st4{fill:#495E4A;}
</style>
<polygon class="st0" points="190.4,80.4 104.5,80.4 96.9,88.1 89.3,80.4 0.1,80.4 0.1,0.1 190.4,0.1 "/>
<line class="st1" x1="9.6" y1="52.9" x2="179.9" y2="52.9"/>
<g>
	<g class="st2">
		<path class="st3" d="M10.6,6.8h2l1.4,3.8l0.5,1.5h0.1l0.5-1.5l1.4-3.8h2v8.5h-1.8v-3.1c0-0.8,0.2-2.1,0.2-2.9h-0.1l-0.7,2
			l-1.3,3.3H14l-1.3-3.3l-0.7-2h-0.1c0.1,0.8,0.2,2.1,0.2,2.9v3.1h-1.8V6.8H10.6z"/>
		<path class="st3" d="M23.7,11.2c0-0.6-0.3-0.9-1-0.9c-0.5,0-1.1,0.2-1.7,0.6l-0.7-1.3c0.8-0.5,1.7-0.8,2.8-0.8
			c1.7,0,2.6,0.9,2.6,2.9v3.7h-1.6L24,14.6l0,0c-0.5,0.5-1.2,0.8-1.9,0.8c-1.2,0-1.9-0.9-1.9-2C20.1,12.2,21.2,11.4,23.7,11.2z
			 M22.7,14c0.4,0,0.7-0.2,1.1-0.5v-1.1C22.4,12.6,22,13,22,13.5C21.9,13.8,22.2,14,22.7,14z"/>
		<path class="st3" d="M27.3,6.2h1.9v7.2c0,0.4,0.2,0.5,0.3,0.5c0.1,0,0.1,0,0.2,0l0.2,1.4c-0.2,0.1-0.5,0.2-1,0.2
			c-1.3,0-1.8-0.9-1.8-2.2V6.2H27.3z"/>
		<path class="st3" d="M34.4,11.2c0-0.6-0.3-0.9-1-0.9c-0.5,0-1.1,0.2-1.7,0.6L31,9.5c0.8-0.5,1.7-0.8,2.8-0.8
			c1.7,0,2.6,0.9,2.6,2.9v3.7h-1.6l-0.1-0.7l0,0c-0.5,0.5-1.2,0.8-1.9,0.8c-1.2,0-1.9-0.9-1.9-2C30.8,12.2,31.9,11.4,34.4,11.2z
			 M33.3,14c0.4,0,0.7-0.2,1.1-0.5v-1.1c-1.4,0.2-1.8,0.6-1.8,1.1C32.6,13.8,32.9,14,33.3,14z"/>
		<path class="st3" d="M38,8.9h1.6l0.1,1.1h0.1c0.5-0.9,1.2-1.3,1.8-1.3c0.4,0,0.6,0.1,0.8,0.1L42,10.5c-0.2-0.1-0.4-0.1-0.7-0.1
			c-0.5,0-1.1,0.3-1.4,1.2v3.7H38V8.9z"/>
		<path class="st3" d="M43,6.9c0-0.6,0.5-1,1.1-1c0.7,0,1.1,0.4,1.1,1s-0.5,1-1.1,1C43.4,7.9,43,7.5,43,6.9z M43.1,8.9H45v6.4h-1.9
			V8.9z"/>
		<path class="st3" d="M50.1,11.2c0-0.6-0.3-0.9-1-0.9c-0.5,0-1.1,0.2-1.7,0.6l-0.7-1.3c0.8-0.5,1.7-0.8,2.8-0.8
			c1.7,0,2.6,0.9,2.6,2.9v3.7h-1.6l-0.1-0.7l0,0c-0.5,0.5-1.2,0.8-1.9,0.8c-1.2,0-1.9-0.9-1.9-2C46.5,12.2,47.6,11.4,50.1,11.2z
			 M49,14c0.4,0,0.7-0.2,1.1-0.5v-1.1c-1.4,0.2-1.8,0.6-1.8,1.1C48.3,13.8,48.6,14,49,14z"/>
		<path class="st3" d="M58.3,15.8v1.9h-1.9V8.9H58l0.1,0.6h0.1C58.7,9,59.4,8.7,60,8.7c1.6,0,2.5,1.3,2.5,3.3c0,2.2-1.3,3.5-2.7,3.5
			c-0.6,0-1.1-0.2-1.5-0.7L58.3,15.8z M59.3,13.9c0.7,0,1.2-0.6,1.2-1.9c0-1.2-0.4-1.7-1.1-1.7c-0.4,0-0.7,0.2-1.1,0.6v2.6
			C58.6,13.8,59,13.9,59.3,13.9z"/>
		<path class="st3" d="M63.8,8.9h1.6l0.1,1.1h0.1c0.5-0.9,1.2-1.3,1.8-1.3c0.4,0,0.6,0.1,0.8,0.1l-0.3,1.7c-0.2-0.1-0.4-0.1-0.7-0.1
			c-0.5,0-1.1,0.3-1.4,1.2v3.7h-1.9V8.9H63.8z"/>
		<path class="st3" d="M71.6,8.7c1.6,0,3.1,1.2,3.1,3.4c0,2.1-1.5,3.4-3.1,3.4s-3.1-1.2-3.1-3.4S70,8.7,71.6,8.7z M71.6,13.9
			c0.8,0,1.2-0.7,1.2-1.8s-0.4-1.8-1.2-1.8c-0.8,0-1.2,0.7-1.2,1.8S70.8,13.9,71.6,13.9z"/>
		<path class="st3" d="M78,15.8v1.9h-1.9V8.9h1.6l0.1,0.6h0.1C78.3,9,79,8.7,79.6,8.7c1.6,0,2.5,1.3,2.5,3.3c0,2.2-1.3,3.5-2.7,3.5
			c-0.6,0-1.1-0.2-1.5-0.7L78,15.8z M79,13.9c0.7,0,1.2-0.6,1.2-1.9c0-1.2-0.4-1.7-1.1-1.7c-0.4,0-0.7,0.2-1.1,0.6v2.6
			C78.3,13.8,78.7,13.9,79,13.9z"/>
		<path class="st3" d="M83.5,6.2h1.9v2.2l-0.1,1.2c0.5-0.4,1.1-0.9,2-0.9c1.4,0,2,1,2,2.6v4h-1.9v-3.8c0-0.9-0.2-1.2-0.8-1.2
			c-0.5,0-0.8,0.2-1.2,0.6v4.4h-1.9V6.2z"/>
		<path class="st3" d="M91.5,16.3c0.6,0,1-0.3,1.1-0.8l0.1-0.3l-2.5-6.3h1.9l0.9,2.8c0.2,0.6,0.3,1.2,0.5,1.8h0.1
			c0.1-0.6,0.3-1.2,0.4-1.8l0.8-2.8h1.8l-2.2,6.5c-0.6,1.6-1.3,2.5-2.8,2.5c-0.4,0-0.6-0.1-0.9-0.1l0.3-1.5
			C91.2,16.3,91.4,16.3,91.5,16.3z"/>
		<path class="st3" d="M97.7,6.2h1.9v7.2c0,0.4,0.2,0.5,0.3,0.5c0.1,0,0.1,0,0.2,0l0.2,1.4c-0.2,0.1-0.5,0.2-1,0.2
			c-1.3,0-1.8-0.9-1.8-2.2V6.2H97.7z"/>
		<path class="st3" d="M104.8,11.2c0-0.6-0.3-0.9-1-0.9c-0.5,0-1.1,0.2-1.7,0.6l-0.7-1.3c0.8-0.5,1.7-0.8,2.8-0.8
			c1.7,0,2.6,0.9,2.6,2.9v3.7h-1.6l-0.1-0.7l0,0c-0.5,0.5-1.2,0.8-1.9,0.8c-1.2,0-1.9-0.9-1.9-2C101.2,12.2,102.3,11.4,104.8,11.2z
			 M103.8,14c0.4,0,0.7-0.2,1.1-0.5v-1.1c-1.4,0.2-1.8,0.6-1.8,1.1C103,13.8,103.3,14,103.8,14z"/>
		<path class="st3" d="M109.7,11.9l-1.9-3.1h2.1l0.6,1c0.2,0.4,0.4,0.7,0.5,1.1h0.1c0.1-0.4,0.3-0.7,0.4-1.1l0.4-1h2l-1.9,3.3l2,3.1
			h-2l-0.6-1.1c-0.2-0.4-0.4-0.8-0.6-1.1h-0.1c-0.2,0.4-0.3,0.7-0.5,1.1l-0.5,1.1h-2L109.7,11.9z"/>
		<path class="st3" d="M114.9,6.9c0-0.6,0.5-1,1.1-1c0.7,0,1.1,0.4,1.1,1s-0.5,1-1.1,1S114.9,7.5,114.9,6.9z M115.1,8.9h1.9v6.4
			h-1.9V8.9z"/>
		<path class="st3" d="M118.9,13.4c0.6,0.4,1.1,0.7,1.7,0.7s0.8-0.2,0.8-0.5c0-0.4-0.6-0.6-1.3-0.9c-0.8-0.3-1.7-0.8-1.7-1.9
			c0-1.2,1-2,2.5-2c1,0,1.7,0.4,2.3,0.8l-0.9,1.1c-0.5-0.3-0.9-0.5-1.4-0.5s-0.7,0.2-0.7,0.5c0,0.4,0.6,0.6,1.3,0.8
			c0.8,0.3,1.7,0.8,1.7,1.9c0,1.2-0.9,2.1-2.7,2.1c-0.8,0-1.8-0.4-2.5-0.9L118.9,13.4z"/>
	</g>
	<g class="st2">
		<path class="st3" d="M12.8,23.7c0.7,0,1.1,0.3,1.6,0.7l-0.1-1v-2.2h1.9v9.1h-1.6l-0.1-0.6h-0.1c-0.5,0.5-1.1,0.8-1.7,0.8
			c-1.6,0-2.6-1.3-2.6-3.4S11.4,23.7,12.8,23.7z M13.2,28.9c0.4,0,0.7-0.2,1.1-0.6v-2.6c-0.3-0.3-0.7-0.4-1.1-0.4
			c-0.6,0-1.2,0.6-1.2,1.8C12.1,28.3,12.5,28.9,13.2,28.9z"/>
		<path class="st3" d="M17.8,23.9h1.9v3.8c0,0.9,0.2,1.2,0.8,1.2c0.5,0,0.8-0.2,1.1-0.7v-4.3h1.9v6.4H22l-0.1-0.9l0,0
			c-0.5,0.7-1.1,1.1-2,1.1c-1.4,0-2-1-2-2.6v-4H17.8z"/>
		<path class="st3" d="M25.3,23.9h1.6L27,25l0,0c0.5-0.9,1.2-1.3,1.8-1.3c0.4,0,0.6,0.1,0.8,0.1l-0.3,1.7c-0.2-0.1-0.4-0.1-0.7-0.1
			c-0.5,0-1.1,0.3-1.4,1.2v3.7h-1.9V23.9z"/>
		<path class="st3" d="M30.3,21.9c0-0.6,0.5-1,1.1-1c0.7,0,1.1,0.4,1.1,1s-0.5,1-1.1,1S30.3,22.5,30.3,21.9z M30.5,23.9h1.9v6.4
			h-1.9C30.5,30.3,30.5,23.9,30.5,23.9z"/>
		<path class="st3" d="M34,23.9h1.6l0.1,0.8h0.1c0.5-0.5,1.2-1,2.1-1c1.4,0,2,1,2,2.6v4H38v-3.8c0-0.9-0.2-1.2-0.8-1.2
			c-0.5,0-0.8,0.2-1.2,0.6v4.4h-2V23.9z"/>
		<path class="st3" d="M42,30.1L42,30.1c-0.3-0.3-0.6-0.6-0.6-1.1s0.3-0.9,0.7-1.2v-0.1c-0.5-0.3-0.9-0.9-0.9-1.7
			c0-1.5,1.3-2.3,2.7-2.3c0.4,0,0.7,0.1,1,0.2h2.4v1.4h-1c0.1,0.2,0.2,0.5,0.2,0.8c0,1.5-1.1,2.2-2.5,2.2c-0.2,0-0.5,0-0.8-0.1
			C43,28.3,43,28.5,43,28.7c0,0.3,0.3,0.5,1,0.5h1c1.6,0,2.5,0.5,2.5,1.6c0,1.3-1.4,2.3-3.6,2.3c-1.5,0-2.7-0.5-2.7-1.6
			C41.1,30.9,41.4,30.4,42,30.1z M44.1,31.8c0.9,0,1.5-0.4,1.5-0.8s-0.4-0.5-1-0.5h-0.7c-0.4,0-0.7,0-0.9-0.1
			c-0.2,0.2-0.4,0.4-0.4,0.6C42.6,31.6,43.2,31.8,44.1,31.8z M44.8,26c0-0.7-0.4-1-0.9-1S43,25.3,43,26s0.4,1.1,0.9,1.1
			S44.8,26.7,44.8,26z"/>
		<path class="st3" d="M53,30.8v1.9h-1.9v-8.8h1.6l0.1,0.6h0.1c0.5-0.5,1.2-0.8,1.8-0.8c1.6,0,2.5,1.3,2.5,3.3
			c0,2.2-1.3,3.5-2.7,3.5c-0.6,0-1.1-0.2-1.5-0.7L53,30.8z M54.1,28.9c0.7,0,1.2-0.6,1.2-1.9c0-1.2-0.4-1.7-1.1-1.7
			c-0.4,0-0.7,0.2-1.1,0.6v2.6C53.4,28.8,53.7,28.9,54.1,28.9z"/>
		<path class="st3" d="M58.6,23.9h1.6l0.1,1.1h0.1c0.5-0.9,1.2-1.3,1.8-1.3c0.4,0,0.6,0.1,0.8,0.1l-0.3,1.7
			c-0.2-0.1-0.4-0.1-0.7-0.1c-0.5,0-1.1,0.3-1.4,1.2v3.7h-1.9L58.6,23.9L58.6,23.9z"/>
		<path class="st3" d="M66.3,23.7c1.8,0,2.7,1.3,2.7,3.1c0,0.3,0,0.6-0.1,0.8H65c0.2,1,0.8,1.4,1.7,1.4c0.5,0,0.9-0.1,1.4-0.4
			l0.6,1.2c-0.7,0.5-1.5,0.7-2.3,0.7c-1.8,0-3.3-1.2-3.3-3.4C63.2,25,64.7,23.7,66.3,23.7z M67.4,26.4c0-0.7-0.3-1.3-1.1-1.3
			c-0.6,0-1.1,0.4-1.2,1.3H67.4z"/>
		<path class="st3" d="M70.7,30.1L70.7,30.1c-0.3-0.3-0.6-0.6-0.6-1.1s0.3-0.9,0.7-1.2v-0.1C70.4,27.4,70,26.8,70,26
			c0-1.5,1.3-2.3,2.7-2.3c0.4,0,0.7,0.1,1,0.2H76v1.4h-1c0.1,0.2,0.2,0.5,0.2,0.8c0,1.5-1.1,2.2-2.5,2.2c-0.2,0-0.5,0-0.8-0.1
			c-0.2,0.1-0.2,0.3-0.2,0.5c0,0.3,0.3,0.5,1,0.5h1c1.6,0,2.5,0.5,2.5,1.6c0,1.3-1.4,2.3-3.6,2.3c-1.5,0-2.7-0.5-2.7-1.6
			C69.8,30.9,70.1,30.4,70.7,30.1z M72.8,31.8c0.9,0,1.5-0.4,1.5-0.8s-0.4-0.5-1-0.5h-0.7c-0.4,0-0.7,0-0.9-0.1
			c-0.2,0.2-0.4,0.4-0.4,0.6C71.4,31.6,72,31.8,72.8,31.8z M73.5,26c0-0.7-0.4-1-0.9-1s-0.9,0.4-0.9,1c0,0.7,0.4,1.1,0.9,1.1
			S73.5,26.7,73.5,26z"/>
		<path class="st3" d="M77.2,23.9h1.6l0.1,0.8H79c0.5-0.5,1.2-1,2.1-1c1.4,0,2,1,2,2.6v4h-1.9v-3.8c0-0.9-0.2-1.2-0.8-1.2
			c-0.5,0-0.8,0.2-1.2,0.6v4.4h-1.9L77.2,23.9L77.2,23.9z"/>
		<path class="st3" d="M88,26.2c0-0.6-0.3-0.9-1-0.9c-0.5,0-1.1,0.2-1.7,0.6l-0.7-1.3c0.8-0.5,1.7-0.8,2.8-0.8
			c1.7,0,2.6,0.9,2.6,2.9v3.7h-1.6l-0.1-0.7l0,0c-0.5,0.5-1.2,0.8-1.9,0.8c-1.2,0-1.9-0.9-1.9-2C84.4,27.2,85.4,26.4,88,26.2z
			 M86.9,29c0.4,0,0.7-0.2,1.1-0.5v-1.1c-1.4,0.2-1.8,0.6-1.8,1.1C86.2,28.8,86.5,29,86.9,29z"/>
		<path class="st3" d="M91.5,23.9h1.6l0.1,0.8h0.1c0.5-0.5,1.2-1,2.1-1c1.4,0,2,1,2,2.6v4h-1.9v-3.8c0-0.9-0.2-1.2-0.8-1.2
			c-0.5,0-0.8,0.2-1.2,0.6v4.4h-1.9L91.5,23.9L91.5,23.9z"/>
		<path class="st3" d="M102,23.7c0.8,0,1.5,0.3,1.9,0.7l-0.9,1.2c-0.3-0.3-0.6-0.4-0.9-0.4c-0.9,0-1.5,0.7-1.5,1.8
			c0,1.1,0.6,1.8,1.4,1.8c0.5,0,0.8-0.2,1.2-0.5l0.8,1.2c-0.6,0.5-1.4,0.8-2.1,0.8c-1.8,0-3.2-1.2-3.2-3.4
			C98.6,24.9,100.2,23.7,102,23.7z"/>
		<path class="st3" d="M105.6,31.3c0.6,0,1-0.3,1.1-0.8l0.1-0.3l-2.5-6.3h1.9l0.9,2.8c0.2,0.6,0.3,1.2,0.5,1.8h0.1
			c0.1-0.6,0.3-1.2,0.4-1.8l0.8-2.8h1.8l-2.2,6.5c-0.6,1.6-1.3,2.5-2.8,2.5c-0.4,0-0.7-0.1-0.9-0.1l0.3-1.5
			C105.3,31.3,105.5,31.3,105.6,31.3z"/>
	</g>
</g>
<g>
	<path class="st4" d="M15.1,41.3c0.9,0,1.7,0.5,2.2,1l-0.8,0.9c-0.4-0.4-0.8-0.6-1.4-0.6c-1.3,0-2.2,1.1-2.2,2.8
		c0,1.8,0.8,2.9,2.2,2.9c0.7,0,1.2-0.3,1.6-0.8l0.8,0.9C16.8,49,16,49.4,15,49.4c-2,0-3.6-1.4-3.6-4C11.4,42.8,13.1,41.3,15.1,41.3z
		"/>
	<path class="st4" d="M21.1,43.3c1.5,0,2.8,1.1,2.8,3.1c0,2-1.3,3.1-2.8,3.1c-1.5,0-2.8-1.1-2.8-3.1C18.3,44.4,19.6,43.3,21.1,43.3z
		 M21.1,48.3c0.9,0,1.4-0.8,1.4-2c0-1.2-0.5-2-1.4-2s-1.4,0.8-1.4,2C19.7,47.5,20.2,48.3,21.1,48.3z"/>
	<path class="st4" d="M24.4,43.4h1.4l0.9,3.1c0.2,0.6,0.3,1.2,0.5,1.8h0c0.2-0.6,0.3-1.2,0.5-1.8l0.9-3.1h1.3l-2,5.9h-1.6L24.4,43.4
		z"/>
	<path class="st4" d="M33.4,43.3c1.6,0,2.4,1.2,2.4,2.8c0,0.3,0,0.5-0.1,0.6H32c0.1,1.1,0.8,1.7,1.7,1.7c0.5,0,0.9-0.2,1.4-0.4
		l0.5,0.9c-0.6,0.4-1.3,0.6-2,0.6c-1.6,0-2.9-1.1-2.9-3.1C30.6,44.4,32,43.3,33.4,43.3z M34.6,45.8c0-0.9-0.4-1.5-1.2-1.5
		c-0.7,0-1.3,0.5-1.4,1.5H34.6z"/>
	<path class="st4" d="M37.1,43.4h1.1l0.1,1h0c0.4-0.8,1-1.2,1.7-1.2c0.3,0,0.5,0,0.7,0.1l-0.2,1.2c-0.2-0.1-0.4-0.1-0.6-0.1
		c-0.5,0-1,0.3-1.4,1.2v3.6h-1.4V43.4z"/>
	<path class="st4" d="M44.5,45.5c0-0.6-0.3-1.2-1.1-1.2c-0.6,0-1.1,0.3-1.7,0.6L41.3,44c0.6-0.4,1.5-0.8,2.4-0.8
		c1.5,0,2.2,0.9,2.2,2.5v3.5h-1.1l-0.1-0.6h0c-0.5,0.4-1.1,0.8-1.8,0.8c-1,0-1.8-0.7-1.8-1.7C41,46.5,42.1,45.8,44.5,45.5z
		 M43.2,48.4c0.5,0,0.9-0.2,1.3-0.6v-1.3c-1.6,0.2-2.1,0.6-2.1,1.2C42.4,48.1,42.7,48.4,43.2,48.4z"/>
	<path class="st4" d="M48,49.1L48,49.1c-0.3-0.2-0.5-0.6-0.5-1c0-0.5,0.3-0.9,0.6-1.1v0c-0.4-0.3-0.8-0.9-0.8-1.6
		c0-1.4,1.1-2.1,2.3-2.1c0.3,0,0.6,0.1,0.9,0.1h2.1v1h-1.1c0.2,0.2,0.3,0.6,0.3,1c0,1.3-1,2-2.2,2c-0.3,0-0.5,0-0.8-0.2
		c-0.2,0.2-0.3,0.3-0.3,0.6c0,0.3,0.2,0.5,1,0.5h1c1.4,0,2.2,0.4,2.2,1.5c0,1.2-1.2,2.1-3.1,2.1c-1.4,0-2.4-0.5-2.4-1.5
		C47.1,49.9,47.4,49.4,48,49.1z M49.8,51c0.9,0,1.6-0.4,1.6-0.9c0-0.5-0.4-0.6-1-0.6h-0.8c-0.3,0-0.6,0-0.8-0.1
		c-0.3,0.2-0.5,0.5-0.5,0.8C48.3,50.7,48.9,51,49.8,51z M50.7,45.4c0-0.7-0.4-1.2-1-1.2c-0.6,0-1,0.4-1,1.2c0,0.8,0.5,1.2,1,1.2
		C50.2,46.6,50.7,46.1,50.7,45.4z"/>
	<path class="st4" d="M55.9,43.3c1.6,0,2.4,1.2,2.4,2.8c0,0.3,0,0.5-0.1,0.6h-3.7c0.1,1.1,0.8,1.7,1.7,1.7c0.5,0,0.9-0.2,1.4-0.4
		l0.5,0.9c-0.6,0.4-1.3,0.6-2,0.6c-1.6,0-2.9-1.1-2.9-3.1C53.2,44.4,54.5,43.3,55.9,43.3z M57.2,45.8c0-0.9-0.4-1.5-1.2-1.5
		c-0.7,0-1.3,0.5-1.4,1.5H57.2z"/>
	<path class="st3" d="M11.9,60.5h1.4v3.2h3.2v-3.2h1.4v7.8h-1.4v-3.5h-3.2v3.5h-1.4V60.5z"/>
	<path class="st3" d="M19.4,64.3c0-2.5,1.4-4,3.5-4c2.1,0,3.5,1.5,3.5,4c0,2.5-1.4,4.1-3.5,4.1C20.8,68.4,19.4,66.9,19.4,64.3z
		 M24.9,64.3c0-1.8-0.8-2.8-2-2.8s-2,1.1-2,2.8c0,1.8,0.8,2.9,2,2.9S24.9,66.1,24.9,64.3z"/>
	<path class="st3" d="M27.9,60.5h1.4v7.8h-1.4V60.5z"/>
</g>
</svg>
