<?xml version="1.0" encoding="utf-8"?>
<!-- Generator: Adobe Illustrator 20.0.0, SVG Export Plug-In . SVG Version: 6.00 Build 0)  -->
<svg version="1.1" id="Capa_1" xmlns="http://www.w3.org/2000/svg" xmlns:xlink="http://www.w3.org/1999/xlink" x="0px" y="0px"
	 viewBox="0 0 304.8 505" style="enable-background:new 0 0 304.8 505;" xml:space="preserve">
<style type="text/css">
	.st0{fill:#FFFFFF;stroke:#000000;stroke-width:0.25;stroke-miterlimit:10;}
	.st1{fill:#FF9719;}
	.st2{opacity:0.99;fill:#44B254;enable-background:new    ;}
	.st3{opacity:0.99;fill:#66AF6E;enable-background:new    ;}
	.st4{fill:#495E4A;}
	.st5{fill:#ED1C24;}
	.st6{opacity:0.5;}
	.st7{fill:none;stroke:#000000;stroke-width:0.75;stroke-miterlimit:10;}
	.st8{fill:none;stroke:#000000;stroke-width:0.75;stroke-miterlimit:10;stroke-dasharray:3.0233,4.0311;}
	.st9{fill:none;stroke:#000000;stroke-width:0.25;stroke-miterlimit:10;}
	.st10{fill:none;stroke:#000000;stroke-width:0.5;stroke-miterlimit:10;}
</style>
<g>
	<polygon class="st0" points="85.9,500 0.1,500 0.1,0.1 304.6,0.1 304.6,500 100.5,500 	"/>
	<path class="st1" d="M285.3,19.2l6.9-6.9c0.1-0.1,0.1-0.2,0.1-0.3c0-0.2-0.2-0.4-0.4-0.4c-0.1,0-0.2,0-0.3,0.1l-6.9,6.9l-6.9-6.9
		c-0.1-0.1-0.2-0.1-0.3-0.1c-0.2,0-0.4,0.2-0.4,0.4c0,0.1,0,0.2,0.1,0.3l6.9,6.9l-6.9,6.9c-0.1,0.1-0.1,0.2-0.1,0.3
		c0,0.2,0.2,0.4,0.4,0.4c0.1,0,0.2,0,0.3-0.1l6.9-6.9l6.9,6.9c0.1,0.1,0.2,0.1,0.3,0.1c0.2,0,0.4-0.2,0.4-0.4c0-0.1,0-0.2-0.1-0.3
		L285.3,19.2z"/>
	<g>
		<path class="st2" d="M34.2,354.7H36v7.8h-1.8V354.7z"/>
		<path class="st2" d="M38.7,358.6c0-2.6,1.4-4,3.5-4s3.5,1.5,3.5,4c0,2.6-1.4,4.1-3.5,4.1C40.1,362.6,38.7,361.1,38.7,358.6z
			 M43.9,358.6c0-1.6-0.7-2.5-1.7-2.5s-1.7,0.9-1.7,2.5s0.7,2.6,1.7,2.6S43.9,360.1,43.9,358.6z"/>
		<path class="st2" d="M48.4,354.7h1.8v3h2.7v-3h1.8v7.8h-1.8v-3.3h-2.7v3.3h-1.8V354.7z"/>
		<path class="st3" d="M61.3,359.2c0-2.1,0.6-3.8,1.6-5.5l0.9,0.4c-0.9,1.5-1.3,3.3-1.3,5.1c0,1.8,0.4,3.5,1.3,5.1l-0.9,0.4
			C61.9,363,61.3,361.3,61.3,359.2z"/>
		<path class="st3" d="M67.6,354.1h-1.1l1-1.4H69L67.6,354.1z M66.5,354.7h1.4v7.8h-1.4V354.7z"/>
		<path class="st3" d="M71,356.6h1.1l0.1,0.8l0,0c0.5-0.5,1.1-0.9,1.9-0.9c1.3,0,1.8,0.9,1.8,2.3v3.7h-1.4V359c0-1-0.3-1.3-0.9-1.3
			c-0.5,0-0.9,0.3-1.3,0.7v4.1H71V356.6z"/>
		<path class="st3" d="M81,356.5c0.7,0,1.1,0.3,1.5,0.6v-0.9V354h1.4v8.5h-1.1l-0.1-0.6l0,0c-0.4,0.4-1,0.8-1.7,0.8
			c-1.5,0-2.4-1.1-2.4-3.1C78.5,357.6,79.7,356.5,81,356.5z M81.3,361.5c0.5,0,0.8-0.2,1.2-0.7v-2.7c-0.4-0.4-0.8-0.5-1.2-0.5
			c-0.8,0-1.4,0.7-1.4,1.9C80,360.8,80.4,361.5,81.3,361.5z"/>
		<path class="st3" d="M86.7,354.8c0-0.5,0.4-0.8,0.9-0.8s0.9,0.3,0.9,0.8s-0.4,0.8-0.9,0.8C87.1,355.6,86.7,355.3,86.7,354.8z
			 M86.9,356.6h1.4v5.9h-1.4V356.6z"/>
		<path class="st3" d="M93.8,356.5c0.8,0,1.3,0.3,1.7,0.7l-0.7,0.9c-0.3-0.3-0.6-0.4-1-0.4c-0.9,0-1.6,0.8-1.6,2s0.6,2,1.6,2
			c0.5,0,0.9-0.2,1.2-0.5l0.6,0.9c-0.6,0.5-1.3,0.8-1.9,0.8c-1.6,0-2.8-1.1-2.8-3.1C90.8,357.6,92.2,356.5,93.8,356.5z"/>
		<path class="st3" d="M100,356.5c1.6,0,2.4,1.2,2.4,2.8c0,0.3,0,0.5-0.1,0.6h-3.7c0.1,1.1,0.8,1.7,1.7,1.7c0.5,0,0.9-0.2,1.4-0.4
			l0.5,0.9c-0.6,0.4-1.3,0.6-2,0.6c-1.6,0-2.9-1.1-2.9-3.1S98.6,356.5,100,356.5z M101.2,359c0-0.9-0.4-1.5-1.2-1.5
			c-0.7,0-1.3,0.5-1.4,1.5H101.2z"/>
		<path class="st3" d="M110.7,356.5c0.7,0,1.1,0.3,1.5,0.6v-0.9V354h1.4v8.5h-1.1l-0.1-0.6l0,0c-0.4,0.4-1,0.8-1.7,0.8
			c-1.5,0-2.4-1.1-2.4-3.1C108.2,357.6,109.5,356.5,110.7,356.5z M111,361.5c0.5,0,0.8-0.2,1.2-0.7v-2.7c-0.4-0.4-0.8-0.5-1.2-0.5
			c-0.8,0-1.4,0.7-1.4,1.9C109.7,360.8,110.1,361.5,111,361.5z"/>
		<path class="st3" d="M118.9,356.5c1.6,0,2.4,1.2,2.4,2.8c0,0.3,0,0.5-0.1,0.6h-3.7c0.1,1.1,0.8,1.7,1.7,1.7c0.5,0,0.9-0.2,1.4-0.4
			l0.5,0.9c-0.6,0.4-1.3,0.6-2,0.6c-1.6,0-2.9-1.1-2.9-3.1C116.2,357.6,117.5,356.5,118.9,356.5z M120.1,359c0-0.9-0.4-1.5-1.2-1.5
			c-0.7,0-1.3,0.5-1.4,1.5H120.1z"/>
		<path class="st3" d="M129.9,356.5c1.5,0,2.8,1.1,2.8,3.1s-1.3,3.1-2.8,3.1s-2.8-1.1-2.8-3.1C127.1,357.6,128.5,356.5,129.9,356.5z
			 M129.9,361.5c0.9,0,1.4-0.8,1.4-2s-0.5-2-1.4-2s-1.4,0.8-1.4,2S129.1,361.5,129.9,361.5z"/>
		<path class="st3" d="M136.7,363v1.8h-1.4v-8.2h1.1l0.1,0.6l0,0c0.5-0.4,1.1-0.8,1.8-0.8c1.5,0,2.3,1.2,2.3,3c0,2-1.2,3.2-2.5,3.2
			c-0.5,0-1-0.2-1.5-0.6L136.7,363z M137.9,361.5c0.8,0,1.4-0.7,1.4-2c0-1.2-0.4-1.9-1.3-1.9c-0.4,0-0.8,0.2-1.3,0.7v2.7
			C137.1,361.4,137.5,361.5,137.9,361.5z"/>
		<path class="st3" d="M145.7,356.5c1.5,0,2.8,1.1,2.8,3.1s-1.3,3.1-2.8,3.1s-2.8-1.1-2.8-3.1S144.2,356.5,145.7,356.5z
			 M145.7,361.5c0.9,0,1.4-0.8,1.4-2s-0.5-2-1.4-2s-1.4,0.8-1.4,2S144.8,361.5,145.7,361.5z"/>
		<path class="st3" d="M151.1,356.6h1.1l0.1,1l0,0c0.4-0.8,1-1.2,1.7-1.2c0.3,0,0.5,0,0.7,0.1l-0.2,1.2c-0.2-0.1-0.4-0.1-0.6-0.1
			c-0.5,0-1,0.3-1.4,1.2v3.6h-1.4L151.1,356.6L151.1,356.6z"/>
		<path class="st3" d="M156.9,357.7h-0.8v-1l0.9-0.1l0.2-1.6h1.2v1.6h1.5v1.1h-1.5v2.8c0,0.7,0.3,1,0.8,1c0.2,0,0.4-0.1,0.6-0.1
			l0.2,1c-0.3,0.1-0.7,0.2-1.2,0.2c-1.4,0-1.9-0.9-1.9-2.1V357.7z"/>
		<path class="st3" d="M162.2,356.6h1.4v3.5c0,1,0.3,1.3,0.9,1.3c0.5,0,0.9-0.2,1.3-0.8v-4h1.4v5.9H166l-0.1-0.9l0,0
			c-0.5,0.6-1.1,1-1.9,1c-1.3,0-1.8-0.9-1.8-2.3V356.6z"/>
		<path class="st3" d="M170.1,356.6h1.1l0.1,0.8l0,0c0.5-0.5,1.1-0.9,1.9-0.9c1.3,0,1.8,0.9,1.8,2.3v3.7h-1.4V359
			c0-1-0.3-1.3-0.9-1.3c-0.5,0-0.9,0.3-1.3,0.7v4.1H170L170.1,356.6L170.1,356.6z"/>
		<path class="st3" d="M177.9,354.8c0-0.5,0.4-0.8,0.9-0.8s0.9,0.3,0.9,0.8s-0.4,0.8-0.9,0.8C178.2,355.6,177.9,355.3,177.9,354.8z
			 M178,356.6h1.4v5.9H178V356.6z"/>
		<path class="st3" d="M184.5,356.5c0.7,0,1.1,0.3,1.5,0.6v-0.9V354h1.4v8.5h-1.1l-0.1-0.6l0,0c-0.4,0.4-1,0.8-1.7,0.8
			c-1.5,0-2.4-1.1-2.4-3.1C182,357.6,183.2,356.5,184.5,356.5z M184.8,361.5c0.5,0,0.8-0.2,1.2-0.7v-2.7c-0.4-0.4-0.8-0.5-1.2-0.5
			c-0.8,0-1.4,0.7-1.4,1.9C183.4,360.8,183.9,361.5,184.8,361.5z"/>
		<path class="st3" d="M193.5,358.7c0-0.6-0.3-1.2-1.1-1.2c-0.6,0-1.1,0.3-1.7,0.6l-0.5-0.9c0.6-0.4,1.5-0.8,2.4-0.8
			c1.5,0,2.2,0.9,2.2,2.5v3.5h-1.1l-0.1-0.6l0,0c-0.5,0.4-1.1,0.8-1.8,0.8c-1,0-1.8-0.7-1.8-1.7C190.1,359.7,191.1,359,193.5,358.7z
			 M192.3,361.6c0.5,0,0.9-0.2,1.3-0.6v-1.3c-1.6,0.2-2.1,0.6-2.1,1.2C191.4,361.3,191.8,361.6,192.3,361.6z"/>
		<path class="st3" d="M199.9,356.5c0.7,0,1.1,0.3,1.5,0.6v-0.9V354h1.4v8.5h-1.1l-0.1-0.6l0,0c-0.4,0.4-1,0.8-1.7,0.8
			c-1.5,0-2.4-1.1-2.4-3.1C197.4,357.6,198.6,356.5,199.9,356.5z M200.2,361.5c0.5,0,0.8-0.2,1.2-0.7v-2.7c-0.4-0.4-0.8-0.5-1.2-0.5
			c-0.8,0-1.4,0.7-1.4,1.9C198.9,360.8,199.3,361.5,200.2,361.5z"/>
		<path class="st3" d="M208.1,356.5c1.6,0,2.4,1.2,2.4,2.8c0,0.3,0,0.5-0.1,0.6h-3.7c0.1,1.1,0.8,1.7,1.7,1.7c0.5,0,0.9-0.2,1.4-0.4
			l0.5,0.9c-0.6,0.4-1.3,0.6-2,0.6c-1.6,0-2.9-1.1-2.9-3.1S206.7,356.5,208.1,356.5z M209.3,359c0-0.9-0.4-1.5-1.2-1.5
			c-0.7,0-1.3,0.5-1.4,1.5H209.3z"/>
		<path class="st3" d="M213.1,360.9c0.5,0.4,1,0.7,1.6,0.7s0.9-0.3,0.9-0.7c0-0.5-0.6-0.7-1.3-0.9c-0.8-0.3-1.7-0.7-1.7-1.7
			s0.8-1.8,2.1-1.8c0.8,0,1.5,0.3,2,0.7l-0.6,0.8c-0.4-0.3-0.8-0.5-1.3-0.5c-0.6,0-0.9,0.3-0.9,0.6c0,0.5,0.6,0.6,1.2,0.9
			c0.8,0.3,1.7,0.7,1.7,1.8c0,1-0.8,1.8-2.3,1.8c-0.8,0-1.7-0.3-2.2-0.8L213.1,360.9z"/>
		<path class="st3" d="M223.1,354h1.4v2.2v1.1c0.5-0.5,1.1-0.9,1.9-0.9c1.3,0,1.8,0.9,1.8,2.3v3.7h-1.4V359c0-1-0.3-1.3-0.9-1.3
			c-0.5,0-0.9,0.3-1.3,0.7v4.1h-1.4V354H223.1z"/>
		<path class="st3" d="M230.9,356.6h1.4v3.5c0,1,0.3,1.3,0.9,1.3c0.5,0,0.9-0.2,1.3-0.8v-4h1.4v5.9h-1.1l-0.1-0.9l0,0
			c-0.5,0.6-1.1,1-1.9,1c-1.3,0-1.8-0.9-1.8-2.3L230.9,356.6L230.9,356.6z"/>
		<path class="st3" d="M238.8,356.6h1.1l0.1,0.8l0,0c0.5-0.5,1.1-0.9,1.8-0.9c0.9,0,1.4,0.4,1.6,1.1c0.6-0.6,1.2-1.1,1.9-1.1
			c1.2,0,1.8,0.9,1.8,2.3v3.7h-1.4V359c0-1-0.3-1.3-0.9-1.3c-0.4,0-0.8,0.2-1.2,0.7v4.1h-1.4V359c0-1-0.3-1.3-0.9-1.3
			c-0.4,0-0.8,0.2-1.2,0.7v4.1h-1.4L238.8,356.6L238.8,356.6z"/>
		<path class="st3" d="M253.4,358.7c0-0.6-0.3-1.2-1.1-1.2c-0.6,0-1.1,0.3-1.7,0.6l-0.5-0.9c0.6-0.4,1.5-0.8,2.4-0.8
			c1.5,0,2.2,0.9,2.2,2.5v3.5h-1.1l-0.1-0.6l0,0c-0.5,0.4-1.1,0.8-1.8,0.8c-1,0-1.8-0.7-1.8-1.7C249.9,359.7,251,359,253.4,358.7z
			 M252.1,361.6c0.5,0,0.9-0.2,1.3-0.6v-1.3c-1.6,0.2-2.1,0.6-2.1,1.2C251.3,361.3,251.6,361.6,252.1,361.6z"/>
		<path class="st3" d="M257.6,356.6h1.1l0.1,0.8l0,0c0.5-0.5,1.1-0.9,1.9-0.9c1.3,0,1.8,0.9,1.8,2.3v3.7h-1.4V359
			c0-1-0.3-1.3-0.9-1.3c-0.5,0-0.9,0.3-1.3,0.7v4.1h-1.4L257.6,356.6L257.6,356.6z"/>
		<path class="st3" d="M268.8,358.7c0-0.6-0.3-1.2-1.1-1.2c-0.6,0-1.1,0.3-1.7,0.6l-0.5-0.9c0.6-0.4,1.5-0.8,2.4-0.8
			c1.5,0,2.2,0.9,2.2,2.5v3.5H269l-0.1-0.6l0,0c-0.5,0.4-1.1,0.8-1.8,0.8c-1,0-1.8-0.7-1.8-1.7C265.3,359.7,266.4,359,268.8,358.7z
			 M267.5,361.6c0.5,0,0.9-0.2,1.3-0.6v-1.3c-1.6,0.2-2.1,0.6-2.1,1.2C266.7,361.3,267,361.6,267.5,361.6z"/>
		<path class="st3" d="M273.1,360.9c0.5,0.4,1,0.7,1.6,0.7s0.9-0.3,0.9-0.7c0-0.5-0.6-0.7-1.3-0.9c-0.8-0.3-1.7-0.7-1.7-1.7
			s0.8-1.8,2.1-1.8c0.8,0,1.5,0.3,2,0.7l-0.6,0.8c-0.4-0.3-0.8-0.5-1.3-0.5c-0.6,0-0.9,0.3-0.9,0.6c0,0.5,0.6,0.6,1.2,0.9
			c0.8,0.3,1.7,0.7,1.7,1.8c0,1-0.8,1.8-2.3,1.8c-0.8,0-1.7-0.3-2.2-0.8L273.1,360.9z"/>
		<path class="st3" d="M280.4,359.2c0-1.8-0.4-3.5-1.3-5.1l0.9-0.4c1,1.6,1.6,3.4,1.6,5.5s-0.6,3.8-1.6,5.5l-0.9-0.4
			C279.9,362.7,280.4,360.9,280.4,359.2z"/>
		<path d="M21.8,371.2c0.9,0,1.6,0.4,2,0.9l-0.5,0.6c-0.4-0.4-0.8-0.7-1.4-0.7c-1.4,0-2.3,1.1-2.3,2.9s0.9,3,2.2,3
			c0.7,0,1.2-0.3,1.7-0.8l0.5,0.6c-0.6,0.7-1.3,1-2.2,1c-1.8,0-3.2-1.4-3.2-3.7C18.6,372.6,19.9,371.2,21.8,371.2z"/>
		<path d="M28.4,373c1.3,0,2.5,1,2.5,2.8s-1.2,2.8-2.5,2.8s-2.5-1-2.5-2.8S27.1,373,28.4,373z M28.4,377.9c0.9,0,1.5-0.8,1.5-2
			s-0.6-2.1-1.5-2.1s-1.5,0.8-1.5,2.1C26.8,377.1,27.5,377.9,28.4,377.9z"/>
		<path d="M33.4,370.7h0.9v2.1v1c0.5-0.4,1.1-0.7,1.7-0.7c1.4,0,2.1,1.1,2.1,2.7c0,1.8-1.1,2.9-2.3,2.9c-0.5,0-1.1-0.2-1.5-0.7l0,0
			l-0.1,0.5h-0.7v-7.8H33.4z M35.6,377.9c0.9,0,1.5-0.8,1.5-2.1c0-1.2-0.4-2-1.4-2c-0.5,0-0.9,0.3-1.4,0.7v2.8
			C34.7,377.7,35.2,377.9,35.6,377.9z"/>
		<path d="M42.6,373c1.4,0,2.1,1,2.1,2.5c0,0.2,0,0.4,0,0.5h-3.6c0.1,1.2,0.8,1.9,1.8,1.9c0.5,0,0.9-0.2,1.3-0.4l0.3,0.6
			c-0.5,0.3-1,0.5-1.8,0.5c-1.4,0-2.6-1-2.6-2.8C40.2,374.1,41.3,373,42.6,373z M43.9,375.4c0-1.1-0.5-1.7-1.3-1.7
			c-0.7,0-1.4,0.6-1.5,1.7H43.9z"/>
		<path d="M47.1,373.2h0.7l0.1,1l0,0c0.4-0.7,0.9-1.1,1.5-1.1c0.2,0,0.4,0,0.6,0.1l-0.2,0.8c-0.2-0.1-0.3-0.1-0.5-0.1
			c-0.5,0-1,0.3-1.4,1.2v3.4H47v-5.3H47.1z"/>
		<path d="M52.2,373.9h-0.8v-0.7l0.8-0.1l0.1-1.5h0.8v1.5h1.4v0.7h-1.4v3c0,0.7,0.2,1,0.8,1c0.2,0,0.4-0.1,0.6-0.1l0.2,0.7
			c-0.3,0.1-0.7,0.2-1,0.2c-1.1,0-1.5-0.7-1.5-1.8C52.2,376.8,52.2,373.9,52.2,373.9z"/>
		<path d="M56.7,373.2h0.9v3.3c0,1,0.3,1.4,1,1.4c0.5,0,0.9-0.3,1.4-0.9v-3.8h1v5.3h-0.7l-0.1-0.8l0,0c-0.5,0.6-1,1-1.8,1
			c-1.1,0-1.6-0.7-1.6-2.1v-3.4H56.7z"/>
		<path d="M63.9,373.2h0.7l0.1,1l0,0c0.4-0.7,0.9-1.1,1.5-1.1c0.2,0,0.4,0,0.6,0.1l-0.2,0.8c-0.2-0.1-0.3-0.1-0.5-0.1
			c-0.5,0-1,0.3-1.4,1.2v3.4h-0.9v-5.3H63.9z"/>
		<path d="M71.5,375.1c0-0.7-0.2-1.3-1.1-1.3c-0.6,0-1.2,0.3-1.6,0.6l-0.4-0.6c0.5-0.3,1.2-0.7,2.1-0.7c1.3,0,1.9,0.9,1.9,2.2v3.3
			h-0.7l-0.1-0.6l0,0c-0.5,0.4-1.1,0.8-1.8,0.8c-0.9,0-1.6-0.6-1.6-1.5C68.2,376,69.3,375.4,71.5,375.1z M70.1,377.9
			c0.5,0,0.9-0.3,1.5-0.7v-1.5c-1.8,0.2-2.4,0.7-2.4,1.3C69.1,377.7,69.5,377.9,70.1,377.9z"/>
		<path d="M81.6,375.1c0-0.7-0.2-1.3-1.1-1.3c-0.6,0-1.2,0.3-1.6,0.6l-0.4-0.6c0.5-0.3,1.2-0.7,2.1-0.7c1.3,0,1.9,0.9,1.9,2.2v3.3
			h-0.7l-0.1-0.6l0,0c-0.5,0.4-1.1,0.8-1.8,0.8c-0.9,0-1.6-0.6-1.6-1.5C78.3,376,79.3,375.4,81.6,375.1z M80.1,377.9
			c0.5,0,0.9-0.3,1.5-0.7v-1.5c-1.8,0.2-2.4,0.7-2.4,1.3C79.2,377.7,79.6,377.9,80.1,377.9z"/>
		<path d="M85.3,373.2h0.9v6c0,1.1-0.4,1.8-1.5,1.8c-0.3,0-0.6-0.1-0.8-0.1l0.2-0.7c0.1,0,0.3,0.1,0.5,0.1c0.5,0,0.7-0.4,0.7-1
			C85.3,379.3,85.3,373.2,85.3,373.2z M85.1,371.5c0-0.4,0.3-0.6,0.6-0.6c0.3,0,0.6,0.2,0.6,0.6c0,0.3-0.3,0.6-0.6,0.6
			S85.1,371.8,85.1,371.5z"/>
		<path d="M89,373.2h0.9v3.3c0,1,0.3,1.4,1,1.4c0.6,0,0.9-0.3,1.4-0.9v-3.8h0.9v5.3h-0.7l-0.1-0.8l0,0c-0.5,0.6-1,1-1.8,1
			c-1.1,0-1.6-0.7-1.6-2.1C89,376.6,89,373.2,89,373.2z"/>
		<path d="M96.1,377.3c0.5,0.4,0.9,0.6,1.6,0.6s1.1-0.4,1.1-0.8c0-0.5-0.6-0.8-1.2-1c-0.8-0.3-1.6-0.6-1.6-1.5s0.7-1.5,1.8-1.5
			c0.7,0,1.3,0.3,1.7,0.6l-0.4,0.6c-0.4-0.3-0.7-0.5-1.2-0.5c-0.7,0-1,0.4-1,0.8c0,0.5,0.6,0.7,1.2,0.9c0.8,0.3,1.6,0.6,1.6,1.6
			c0,0.9-0.7,1.6-2,1.6c-0.8,0-1.5-0.3-2-0.7L96.1,377.3z"/>
		<path d="M102.1,373.9h-0.8v-0.7l0.8-0.1l0.1-1.5h0.8v1.5h1.4v0.7H103v3c0,0.7,0.2,1,0.8,1c0.2,0,0.4-0.1,0.6-0.1l0.2,0.7
			c-0.3,0.1-0.7,0.2-1,0.2c-1.1,0-1.5-0.7-1.5-1.8V373.9z"/>
		<path d="M109.6,375.1c0-0.7-0.2-1.3-1.1-1.3c-0.6,0-1.2,0.3-1.6,0.6l-0.4-0.6c0.5-0.3,1.2-0.7,2.1-0.7c1.3,0,1.9,0.9,1.9,2.2v3.3
			h-0.7l-0.1-0.6l0,0c-0.5,0.4-1.1,0.8-1.8,0.8c-0.9,0-1.6-0.6-1.6-1.5C106.3,376,107.3,375.4,109.6,375.1z M108.1,377.9
			c0.5,0,0.9-0.3,1.5-0.7v-1.5c-1.8,0.2-2.4,0.7-2.4,1.3C107.2,377.7,107.6,377.9,108.1,377.9z"/>
		<path d="M115.2,373c0.6,0,1,0.2,1.5,0.6v-0.9v-2.1h0.9v7.8h-0.7l-0.1-0.6l0,0c-0.4,0.4-1,0.8-1.6,0.8c-1.3,0-2.2-1-2.2-2.8
			C112.9,374.1,114,373,115.2,373z M115.3,377.9c0.5,0,0.9-0.2,1.4-0.7v-2.8c-0.5-0.4-0.9-0.6-1.3-0.6c-0.9,0-1.5,0.8-1.5,2
			C113.8,377.1,114.3,377.9,115.3,377.9z"/>
		<path d="M123.5,375.1c0-0.7-0.2-1.3-1.1-1.3c-0.6,0-1.2,0.3-1.6,0.6l-0.4-0.6c0.5-0.3,1.2-0.7,2.1-0.7c1.3,0,1.9,0.9,1.9,2.2v3.3
			h-0.7l-0.1-0.6l0,0c-0.5,0.4-1.1,0.8-1.8,0.8c-0.9,0-1.6-0.6-1.6-1.5C120.2,376,121.2,375.4,123.5,375.1z M122,377.9
			c0.5,0,0.9-0.3,1.5-0.7v-1.5c-1.8,0.2-2.4,0.7-2.4,1.3C121.1,377.7,121.5,377.9,122,377.9z"/>
		<path d="M126.8,379.8c0.6-0.3,1-0.7,1-1.3h-0.1c-0.4,0-0.6-0.2-0.6-0.6s0.3-0.6,0.7-0.6c0.5,0,0.8,0.4,0.8,1.1
			c0,0.9-0.5,1.7-1.4,2.1L126.8,379.8z"/>
		<path d="M136.5,373c0.7,0,1.2,0.3,1.6,0.6l-0.5,0.6c-0.3-0.3-0.6-0.5-1.1-0.5c-1,0-1.7,0.8-1.7,2.1c0,1.2,0.7,2,1.7,2
			c0.5,0,0.9-0.3,1.3-0.5l0.4,0.6c-0.5,0.4-1.1,0.7-1.7,0.7c-1.4,0-2.5-1-2.5-2.8C134,374,135.2,373,136.5,373z"/>
		<path d="M142.3,373c1.3,0,2.5,1,2.5,2.8s-1.2,2.8-2.5,2.8s-2.5-1-2.5-2.8S141,373,142.3,373z M142.3,377.9c0.9,0,1.5-0.8,1.5-2
			s-0.6-2.1-1.5-2.1s-1.5,0.8-1.5,2.1C140.8,377.1,141.4,377.9,142.3,377.9z"/>
		<path d="M147.3,373.2h0.7l0.1,0.8l0,0c0.5-0.5,1.1-0.9,1.8-0.9c1.1,0,1.6,0.7,1.6,2.1v3.4h-0.9v-3.3c0-1-0.3-1.4-1-1.4
			c-0.5,0-0.9,0.3-1.5,0.8v3.9h-0.9L147.3,373.2L147.3,373.2z"/>
		<path d="M154.3,377.3c0.5,0.4,0.9,0.6,1.6,0.6c0.7,0,1.1-0.4,1.1-0.8c0-0.5-0.6-0.8-1.2-1c-0.8-0.3-1.6-0.6-1.6-1.5
			s0.7-1.5,1.8-1.5c0.7,0,1.3,0.3,1.7,0.6l-0.4,0.6c-0.4-0.3-0.7-0.5-1.2-0.5c-0.7,0-1,0.4-1,0.8c0,0.5,0.6,0.7,1.2,0.9
			c0.8,0.3,1.6,0.6,1.6,1.6c0,0.9-0.7,1.6-2,1.6c-0.8,0-1.5-0.3-2-0.7L154.3,377.3z"/>
		<path d="M160,371.5c0-0.4,0.3-0.6,0.6-0.6c0.4,0,0.6,0.2,0.6,0.6c0,0.3-0.3,0.6-0.6,0.6C160.2,372.1,160,371.8,160,371.5z
			 M160.1,373.2h0.9v5.3h-0.9V373.2z"/>
		<path d="M165.9,373c0.6,0,1,0.2,1.5,0.6v-0.9v-2.1h0.9v7.8h-0.7l-0.1-0.6l0,0c-0.4,0.4-1,0.8-1.6,0.8c-1.3,0-2.2-1-2.2-2.8
			C163.5,374.1,164.6,373,165.9,373z M166,377.9c0.5,0,0.9-0.2,1.4-0.7v-2.8c-0.5-0.4-0.9-0.6-1.3-0.6c-0.9,0-1.5,0.8-1.5,2
			C164.5,377.1,165,377.9,166,377.9z"/>
		<path d="M173.1,373c1.4,0,2.1,1,2.1,2.5c0,0.2,0,0.4,0,0.5h-3.6c0.1,1.2,0.8,1.9,1.8,1.9c0.5,0,0.9-0.2,1.3-0.4l0.3,0.6
			c-0.5,0.3-1,0.5-1.8,0.5c-1.4,0-2.6-1-2.6-2.8C170.7,374.1,171.9,373,173.1,373z M174.5,375.4c0-1.1-0.5-1.7-1.3-1.7
			c-0.7,0-1.4,0.6-1.5,1.7H174.5z"/>
		<path d="M177.7,373.2h0.7l0.1,1l0,0c0.4-0.7,0.9-1.1,1.5-1.1c0.2,0,0.4,0,0.6,0.1l-0.2,0.8c-0.2-0.1-0.3-0.1-0.5-0.1
			c-0.5,0-1,0.3-1.4,1.2v3.4h-0.9L177.7,373.2L177.7,373.2z"/>
		<path d="M185.4,375.1c0-0.7-0.2-1.3-1.1-1.3c-0.6,0-1.2,0.3-1.6,0.6l-0.4-0.6c0.5-0.3,1.2-0.7,2.1-0.7c1.3,0,1.9,0.9,1.9,2.2v3.3
			h-0.7l-0.1-0.6l0,0c-0.5,0.4-1.1,0.8-1.8,0.8c-0.9,0-1.6-0.6-1.6-1.5C182.1,376,183.1,375.4,185.4,375.1z M183.9,377.9
			c0.5,0,0.9-0.3,1.5-0.7v-1.5c-1.8,0.2-2.4,0.7-2.4,1.3C183,377.7,183.4,377.9,183.9,377.9z"/>
		<path d="M189.1,373.2h0.7l0.1,0.8l0,0c0.5-0.5,1.1-0.9,1.8-0.9c1.1,0,1.6,0.7,1.6,2.1v3.4h-0.9v-3.3c0-1-0.3-1.4-1-1.4
			c-0.6,0-0.9,0.3-1.5,0.8v3.9H189L189.1,373.2L189.1,373.2z"/>
		<path d="M198.1,373c0.6,0,1,0.2,1.5,0.6v-0.9v-2.1h0.9v7.8h-0.7l-0.1-0.6l0,0c-0.4,0.4-1,0.8-1.6,0.8c-1.3,0-2.2-1-2.2-2.8
			C195.8,374.1,196.9,373,198.1,373z M198.2,377.9c0.5,0,0.9-0.2,1.4-0.7v-2.8c-0.5-0.4-0.9-0.6-1.3-0.6c-0.9,0-1.5,0.8-1.5,2
			C196.7,377.1,197.3,377.9,198.2,377.9z"/>
		<path d="M205.5,373c1.3,0,2.5,1,2.5,2.8s-1.2,2.8-2.5,2.8s-2.5-1-2.5-2.8S204.2,373,205.5,373z M205.5,377.9c0.9,0,1.5-0.8,1.5-2
			s-0.6-2.1-1.5-2.1s-1.5,0.8-1.5,2.1C203.9,377.1,204.6,377.9,205.5,377.9z"/>
		<path d="M213.8,370.7h0.9v6.8c0,0.3,0.1,0.4,0.3,0.4c0.1,0,0.1,0,0.2,0l0.1,0.7c-0.1,0.1-0.3,0.1-0.5,0.1c-0.7,0-1-0.4-1-1.2
			V370.7z"/>
		<path d="M220.7,375.1c0-0.7-0.2-1.3-1.1-1.3c-0.6,0-1.2,0.3-1.6,0.6l-0.4-0.6c0.5-0.3,1.2-0.7,2.1-0.7c1.3,0,1.9,0.9,1.9,2.2v3.3
			h-0.7l-0.1-0.6l0,0c-0.5,0.4-1.1,0.8-1.8,0.8c-0.9,0-1.6-0.6-1.6-1.5C217.4,376,218.4,375.4,220.7,375.1z M219.2,377.9
			c0.5,0,0.9-0.3,1.5-0.7v-1.5c-1.8,0.2-2.4,0.7-2.4,1.3C218.3,377.7,218.7,377.9,219.2,377.9z"/>
		<path d="M229.7,373c0.6,0,1,0.2,1.5,0.6v-0.9v-2.1h0.9v7.8h-0.7l-0.1-0.6l0,0c-0.4,0.4-1,0.8-1.6,0.8c-1.3,0-2.2-1-2.2-2.8
			C227.3,374.1,228.4,373,229.7,373z M229.8,377.9c0.5,0,0.9-0.2,1.4-0.7v-2.8c-0.5-0.4-0.9-0.6-1.3-0.6c-0.9,0-1.5,0.8-1.5,2
			C228.3,377.1,228.8,377.9,229.8,377.9z"/>
		<path d="M234.8,371.5c0-0.4,0.3-0.6,0.6-0.6c0.4,0,0.6,0.2,0.6,0.6c0,0.3-0.3,0.6-0.6,0.6C235,372.1,234.8,371.8,234.8,371.5z
			 M234.9,373.2h0.9v5.3h-0.9V373.2z"/>
		<path d="M238.6,377.3c0.5,0.4,0.9,0.6,1.6,0.6c0.7,0,1.1-0.4,1.1-0.8c0-0.5-0.6-0.8-1.2-1c-0.8-0.3-1.6-0.6-1.6-1.5
			s0.7-1.5,1.8-1.5c0.7,0,1.3,0.3,1.7,0.6l-0.4,0.6c-0.4-0.3-0.7-0.5-1.2-0.5c-0.7,0-1,0.4-1,0.8c0,0.5,0.6,0.7,1.2,0.9
			c0.8,0.3,1.6,0.6,1.6,1.6c0,0.9-0.7,1.6-2,1.6c-0.8,0-1.5-0.3-2-0.7L238.6,377.3z"/>
		<path d="M244.6,373.9h-0.8v-0.7l0.8-0.1l0.1-1.5h0.8v1.5h1.4v0.7h-1.4v3c0,0.7,0.2,1,0.8,1c0.2,0,0.4-0.1,0.6-0.1l0.2,0.7
			c-0.3,0.1-0.7,0.2-1,0.2c-1.1,0-1.5-0.7-1.5-1.8L244.6,373.9L244.6,373.9z"/>
		<path d="M249.3,373.2h0.7l0.1,1l0,0c0.4-0.7,0.9-1.1,1.5-1.1c0.2,0,0.4,0,0.6,0.1L252,374c-0.2-0.1-0.3-0.1-0.5-0.1
			c-0.5,0-1,0.3-1.4,1.2v3.4h-0.9L249.3,373.2L249.3,373.2z"/>
		<path d="M254,371.5c0-0.4,0.3-0.6,0.6-0.6c0.4,0,0.6,0.2,0.6,0.6c0,0.3-0.3,0.6-0.6,0.6S254,371.8,254,371.5z M254.2,373.2h0.9
			v5.3h-0.9V373.2z"/>
		<path d="M258,370.7h0.9v2.1v1c0.5-0.4,1.1-0.7,1.7-0.7c1.4,0,2.1,1.1,2.1,2.7c0,1.8-1.1,2.9-2.3,2.9c-0.5,0-1.1-0.2-1.5-0.7l0,0
			l-0.1,0.5H258V370.7z M260.2,377.9c0.9,0,1.5-0.8,1.5-2.1c0-1.2-0.4-2-1.4-2c-0.5,0-0.9,0.3-1.4,0.7v2.8
			C259.4,377.7,259.9,377.9,260.2,377.9z"/>
		<path d="M265.1,373.2h0.9v3.3c0,1,0.3,1.4,1,1.4c0.5,0,0.9-0.3,1.4-0.9v-3.8h0.9v5.3h-0.7l-0.1-0.8l0,0c-0.5,0.6-1,1-1.8,1
			c-1.1,0-1.6-0.7-1.6-2.1L265.1,373.2L265.1,373.2z"/>
		<path d="M274.5,373c0.7,0,1.2,0.3,1.6,0.6l-0.5,0.6c-0.3-0.3-0.6-0.5-1.1-0.5c-1,0-1.7,0.8-1.7,2.1c0,1.2,0.7,2,1.7,2
			c0.5,0,0.9-0.3,1.3-0.5l0.4,0.6c-0.5,0.4-1.1,0.7-1.7,0.7c-1.4,0-2.5-1-2.5-2.8C271.9,374,273.1,373,274.5,373z"/>
		<path d="M278.2,371.5c0-0.4,0.3-0.6,0.6-0.6c0.4,0,0.6,0.2,0.6,0.6c0,0.3-0.3,0.6-0.6,0.6S278.2,371.8,278.2,371.5z M278.4,373.2
			h0.9v5.3h-0.9V373.2z"/>
		<path d="M284.3,373c1.3,0,2.5,1,2.5,2.8s-1.2,2.8-2.5,2.8s-2.5-1-2.5-2.8S283,373,284.3,373z M284.3,377.9c0.9,0,1.5-0.8,1.5-2
			s-0.6-2.1-1.5-2.1s-1.5,0.8-1.5,2.1C282.7,377.1,283.4,377.9,284.3,377.9z M284.3,372.2h-0.7l1-1.6h0.9L284.3,372.2z"/>
		<path d="M289.3,373.2h0.7l0.1,0.8l0,0c0.5-0.5,1.1-0.9,1.8-0.9c1.1,0,1.6,0.7,1.6,2.1v3.4h-0.9v-3.3c0-1-0.3-1.4-1-1.4
			c-0.5,0-0.9,0.3-1.5,0.8v3.9h-0.9L289.3,373.2L289.3,373.2z"/>
		<path d="M43.7,389c0.6,0,1,0.2,1.5,0.6v-0.9v-2.1h0.9v7.8h-0.7l-0.1-0.6l0,0c-0.4,0.4-1,0.8-1.6,0.8c-1.3,0-2.2-1-2.2-2.8
			C41.4,390.1,42.5,389,43.7,389z M43.8,393.9c0.5,0,0.9-0.2,1.4-0.7v-2.8c-0.5-0.4-0.9-0.6-1.3-0.6c-0.9,0-1.5,0.8-1.5,2
			C42.3,393.1,42.9,393.9,43.8,393.9z"/>
		<path d="M51,389c1.4,0,2.1,1,2.1,2.5c0,0.2,0,0.4,0,0.5h-3.6c0.1,1.2,0.8,1.9,1.8,1.9c0.5,0,0.9-0.2,1.3-0.4l0.3,0.6
			c-0.5,0.3-1,0.5-1.8,0.5c-1.4,0-2.6-1-2.6-2.8C48.6,390.1,49.8,389,51,389z M52.3,391.4c0-1.1-0.5-1.7-1.3-1.7
			c-0.7,0-1.4,0.6-1.5,1.7H52.3z"/>
		<path d="M55.4,393.3c0.5,0.4,0.9,0.6,1.6,0.6c0.7,0,1.1-0.4,1.1-0.8c0-0.5-0.6-0.8-1.2-1c-0.8-0.3-1.6-0.6-1.6-1.5
			s0.7-1.5,1.8-1.5c0.7,0,1.3,0.3,1.7,0.6l-0.4,0.6c-0.4-0.3-0.7-0.5-1.2-0.5c-0.7,0-1,0.4-1,0.8c0,0.5,0.6,0.7,1.2,0.9
			c0.8,0.3,1.6,0.6,1.6,1.6c0,0.9-0.7,1.6-2,1.6c-0.8,0-1.5-0.3-2-0.7L55.4,393.3z"/>
		<path d="M61.1,387.5c0-0.4,0.3-0.6,0.6-0.6c0.4,0,0.6,0.2,0.6,0.6c0,0.3-0.3,0.6-0.6,0.6C61.4,388.1,61.1,387.8,61.1,387.5z
			 M61.3,389.2h0.9v5.3h-0.9V389.2z"/>
		<path d="M65.4,394.3L65.4,394.3c-0.3-0.2-0.5-0.5-0.5-0.9c0-0.5,0.3-0.8,0.6-1l0,0c-0.4-0.3-0.7-0.8-0.7-1.4c0-1.2,0.9-1.9,2-1.9
			c0.3,0,0.6,0.1,0.8,0.1h1.9v0.7h-1.1c0.3,0.2,0.4,0.6,0.4,1.1c0,1.1-0.9,1.9-2,1.9c-0.3,0-0.6-0.1-0.8-0.2
			c-0.2,0.2-0.3,0.3-0.3,0.6c0,0.3,0.2,0.6,0.9,0.6h1c1.2,0,1.9,0.4,1.9,1.3c0,1-1,1.8-2.7,1.8c-1.3,0-2.2-0.5-2.2-1.4
			C64.7,395.1,65,394.6,65.4,394.3z M67,396.3c1,0,1.7-0.5,1.7-1.1c0-0.5-0.4-0.7-1.1-0.7h-0.9c-0.2,0-0.5,0-0.7-0.1
			c-0.4,0.3-0.5,0.6-0.5,0.9C65.5,396,66,396.3,67,396.3z M68,390.9c0-0.8-0.5-1.2-1.1-1.2s-1.1,0.5-1.1,1.2s0.5,1.3,1.1,1.3
			S68,391.7,68,390.9z"/>
		<path d="M71.6,389.2h0.9v3.3c0,1,0.3,1.4,1,1.4c0.6,0,0.9-0.3,1.4-0.9v-3.8h0.9v5.3h-0.7l-0.1-0.8l0,0c-0.5,0.6-1,1-1.8,1
			c-1.1,0-1.6-0.7-1.6-2.1C71.6,392.6,71.6,389.2,71.6,389.2z"/>
		<path d="M81.8,391.1c0-0.7-0.2-1.3-1.1-1.3c-0.6,0-1.2,0.3-1.6,0.6l-0.4-0.6c0.5-0.3,1.2-0.7,2.1-0.7c1.3,0,1.9,0.9,1.9,2.2v3.3
			H82l-0.1-0.6l0,0c-0.5,0.4-1.1,0.8-1.8,0.8c-0.9,0-1.6-0.6-1.6-1.5C78.5,392,79.5,391.4,81.8,391.1z M80.4,393.9
			c0.5,0,0.9-0.3,1.5-0.7v-1.5c-1.8,0.2-2.4,0.7-2.4,1.3C79.4,393.7,79.8,393.9,80.4,393.9z"/>
		<path d="M85.5,386.7h0.9v6.8c0,0.3,0.1,0.4,0.3,0.4c0.1,0,0.1,0,0.2,0l0.1,0.7c-0.1,0.1-0.3,0.1-0.5,0.1c-0.7,0-1-0.4-1-1.2V386.7
			z"/>
		<path d="M94.7,389c0.6,0,1,0.2,1.5,0.6v-0.9v-2.1h0.9v7.8h-0.7l-0.1-0.6l0,0c-0.4,0.4-1,0.8-1.6,0.8c-1.3,0-2.2-1-2.2-2.8
			C92.4,390.1,93.5,389,94.7,389z M94.8,393.9c0.5,0,0.9-0.2,1.4-0.7v-2.8c-0.5-0.4-0.9-0.6-1.3-0.6c-0.9,0-1.5,0.8-1.5,2
			C93.3,393.1,93.8,393.9,94.8,393.9z"/>
		<path d="M102,389c1.4,0,2.1,1,2.1,2.5c0,0.2,0,0.4,0,0.5h-3.6c0.1,1.2,0.8,1.9,1.8,1.9c0.5,0,0.9-0.2,1.3-0.4l0.3,0.6
			c-0.5,0.3-1,0.5-1.8,0.5c-1.4,0-2.6-1-2.6-2.8C99.6,390.1,100.7,389,102,389z M103.3,391.4c0-1.1-0.5-1.7-1.3-1.7
			c-0.7,0-1.4,0.6-1.5,1.7H103.3z"/>
		<path d="M111.9,389c1.3,0,2.5,1,2.5,2.8s-1.2,2.8-2.5,2.8s-2.5-1-2.5-2.8S110.6,389,111.9,389z M111.9,393.9c0.9,0,1.5-0.8,1.5-2
			s-0.6-2.1-1.5-2.1s-1.5,0.8-1.5,2.1C110.4,393.1,111,393.9,111.9,393.9z"/>
		<path d="M117.8,395v1.8h-0.9v-7.6h0.7l0.1,0.6l0,0c0.5-0.4,1.1-0.7,1.7-0.7c1.4,0,2.1,1.1,2.1,2.7c0,1.8-1.1,2.9-2.3,2.9
			c-0.5,0-1-0.2-1.5-0.6L117.8,395z M119.1,393.9c0.9,0,1.5-0.8,1.5-2.1c0-1.2-0.4-2-1.4-2c-0.5,0-0.9,0.3-1.4,0.7v2.8
			C118.3,393.7,118.8,393.9,119.1,393.9z"/>
		<path d="M126.2,389c1.3,0,2.5,1,2.5,2.8s-1.2,2.8-2.5,2.8s-2.5-1-2.5-2.8S124.9,389,126.2,389z M126.2,393.9c0.9,0,1.5-0.8,1.5-2
			s-0.6-2.1-1.5-2.1s-1.5,0.8-1.5,2.1C124.6,393.1,125.3,393.9,126.2,393.9z"/>
		<path d="M131.2,389.2h0.7l0.1,1l0,0c0.4-0.7,0.9-1.1,1.5-1.1c0.2,0,0.4,0,0.6,0.1l-0.2,0.8c-0.2-0.1-0.3-0.1-0.5-0.1
			c-0.5,0-1,0.3-1.4,1.2v3.4h-0.9L131.2,389.2L131.2,389.2z"/>
		<path d="M136.2,389.9h-0.8v-0.7l0.8-0.1l0.1-1.5h0.8v1.5h1.4v0.7h-1.4v3c0,0.7,0.2,1,0.8,1c0.2,0,0.4-0.1,0.6-0.1l0.2,0.7
			c-0.3,0.1-0.7,0.2-1,0.2c-1.1,0-1.5-0.7-1.5-1.8L136.2,389.9L136.2,389.9z"/>
		<path d="M140.8,389.2h0.9v3.3c0,1,0.3,1.4,1,1.4c0.6,0,0.9-0.3,1.4-0.9v-3.8h0.9v5.3h-0.7l-0.1-0.8l0,0c-0.5,0.6-1,1-1.8,1
			c-1.1,0-1.6-0.7-1.6-2.1L140.8,389.2L140.8,389.2z"/>
		<path d="M147.9,389.2h0.7l0.1,0.8l0,0c0.5-0.5,1.1-0.9,1.8-0.9c1.1,0,1.6,0.7,1.6,2.1v3.4h-0.9v-3.3c0-1-0.3-1.4-1-1.4
			c-0.5,0-0.9,0.3-1.5,0.8v3.9h-0.9L147.9,389.2L147.9,389.2z"/>
		<path d="M154.9,387.5c0-0.4,0.3-0.6,0.6-0.6c0.4,0,0.6,0.2,0.6,0.6c0,0.3-0.3,0.6-0.6,0.6C155.1,388.1,154.9,387.8,154.9,387.5z
			 M155,389.2h0.9v5.3H155V389.2z"/>
		<path d="M160.8,389c0.6,0,1,0.2,1.5,0.6v-0.9v-2.1h0.9v7.8h-0.7l-0.1-0.6l0,0c-0.4,0.4-1,0.8-1.6,0.8c-1.3,0-2.2-1-2.2-2.8
			C158.5,390.1,159.6,389,160.8,389z M160.9,393.9c0.5,0,0.9-0.2,1.4-0.7v-2.8c-0.5-0.4-0.9-0.6-1.3-0.6c-0.9,0-1.5,0.8-1.5,2
			C159.4,393.1,159.9,393.9,160.9,393.9z"/>
		<path d="M169.1,391.1c0-0.7-0.2-1.3-1.1-1.3c-0.6,0-1.2,0.3-1.6,0.6l-0.4-0.6c0.5-0.3,1.2-0.7,2.1-0.7c1.3,0,1.9,0.9,1.9,2.2v3.3
			h-0.7l-0.1-0.6l0,0c-0.5,0.4-1.1,0.8-1.8,0.8c-0.9,0-1.6-0.6-1.6-1.5C165.8,392,166.8,391.4,169.1,391.1z M167.6,393.9
			c0.5,0,0.9-0.3,1.5-0.7v-1.5c-1.8,0.2-2.4,0.7-2.4,1.3C166.7,393.7,167.1,393.9,167.6,393.9z"/>
		<path d="M174.7,389c0.6,0,1,0.2,1.5,0.6v-0.9v-2.1h0.9v7.8h-0.7l-0.1-0.6l0,0c-0.4,0.4-1,0.8-1.6,0.8c-1.3,0-2.2-1-2.2-2.8
			C172.4,390.1,173.5,389,174.7,389z M174.8,393.9c0.5,0,0.9-0.2,1.4-0.7v-2.8c-0.5-0.4-0.9-0.6-1.3-0.6c-0.9,0-1.5,0.8-1.5,2
			C173.3,393.1,173.9,393.9,174.8,393.9z"/>
		<path d="M182,389c1.4,0,2.1,1,2.1,2.5c0,0.2,0,0.4,0,0.5h-3.6c0.1,1.2,0.8,1.9,1.8,1.9c0.5,0,0.9-0.2,1.3-0.4l0.3,0.6
			c-0.5,0.3-1,0.5-1.8,0.5c-1.4,0-2.6-1-2.6-2.8C179.6,390.1,180.8,389,182,389z M183.3,391.4c0-1.1-0.5-1.7-1.3-1.7
			c-0.7,0-1.4,0.6-1.5,1.7H183.3z"/>
		<path d="M186.4,393.3c0.5,0.4,0.9,0.6,1.6,0.6c0.7,0,1.1-0.4,1.1-0.8c0-0.5-0.6-0.8-1.2-1c-0.8-0.3-1.6-0.6-1.6-1.5
			s0.7-1.5,1.8-1.5c0.7,0,1.3,0.3,1.7,0.6l-0.4,0.6c-0.4-0.3-0.7-0.5-1.2-0.5c-0.7,0-1,0.4-1,0.8c0,0.5,0.6,0.7,1.2,0.9
			c0.8,0.3,1.6,0.6,1.6,1.6c0,0.9-0.7,1.6-2,1.6c-0.8,0-1.5-0.3-2-0.7L186.4,393.3z"/>
		<path d="M197.6,389c1.4,0,2.1,1,2.1,2.5c0,0.2,0,0.4,0,0.5h-3.6c0.1,1.2,0.8,1.9,1.8,1.9c0.5,0,0.9-0.2,1.3-0.4l0.3,0.6
			c-0.5,0.3-1,0.5-1.8,0.5c-1.4,0-2.6-1-2.6-2.8C195.2,390.1,196.4,389,197.6,389z M198.9,391.4c0-1.1-0.5-1.7-1.3-1.7
			c-0.7,0-1.4,0.6-1.5,1.7H198.9z"/>
		<path d="M202.1,389.2h0.7l0.1,0.8l0,0c0.5-0.5,1.1-0.9,1.8-0.9c1.1,0,1.6,0.7,1.6,2.1v3.4h-0.9v-3.3c0-1-0.3-1.4-1-1.4
			c-0.5,0-0.9,0.3-1.5,0.8v3.9H202L202.1,389.2L202.1,389.2z"/>
		<path d="M209.4,389.9h-0.8v-0.7l0.8-0.1l0.1-1.5h0.8v1.5h1.4v0.7h-1.4v3c0,0.7,0.2,1,0.8,1c0.2,0,0.4-0.1,0.6-0.1l0.2,0.7
			c-0.3,0.1-0.7,0.2-1,0.2c-1.1,0-1.5-0.7-1.5-1.8L209.4,389.9L209.4,389.9z"/>
		<path d="M214.1,389.2h0.7l0.1,1l0,0c0.4-0.7,0.9-1.1,1.5-1.1c0.2,0,0.4,0,0.6,0.1l-0.2,0.8c-0.2-0.1-0.3-0.1-0.5-0.1
			c-0.5,0-1,0.3-1.4,1.2v3.4H214L214.1,389.2L214.1,389.2z"/>
		<path d="M220.9,389c1.4,0,2.1,1,2.1,2.5c0,0.2,0,0.4,0,0.5h-3.6c0.1,1.2,0.8,1.9,1.8,1.9c0.5,0,0.9-0.2,1.3-0.4l0.3,0.6
			c-0.5,0.3-1,0.5-1.8,0.5c-1.4,0-2.6-1-2.6-2.8C218.5,390.1,219.7,389,220.9,389z M222.2,391.4c0-1.1-0.5-1.7-1.3-1.7
			c-0.7,0-1.4,0.6-1.5,1.7H222.2z"/>
		<path d="M228.7,389.2h0.7l0.1,0.8l0,0c0.5-0.5,1-0.9,1.7-0.9c0.8,0,1.3,0.4,1.5,1c0.6-0.6,1.1-1,1.8-1c1.1,0,1.6,0.7,1.6,2.1v3.4
			h-0.9v-3.3c0-1-0.3-1.4-1-1.4c-0.4,0-0.8,0.3-1.3,0.8v3.9H232v-3.3c0-1-0.3-1.4-1-1.4c-0.4,0-0.8,0.3-1.3,0.8v3.9h-0.9v-5.4H228.7
			z"/>
		<path d="M238.9,389.2h0.9v3.3c0,1,0.3,1.4,1,1.4c0.5,0,0.9-0.3,1.4-0.9v-3.8h0.9v5.3h-0.7l-0.1-0.8l0,0c-0.5,0.6-1,1-1.8,1
			c-1.1,0-1.6-0.7-1.6-2.1L238.9,389.2L238.9,389.2z"/>
		<path d="M246.1,389.2h0.9v6c0,1.1-0.4,1.8-1.5,1.8c-0.3,0-0.6-0.1-0.8-0.1l0.2-0.7c0.1,0,0.3,0.1,0.5,0.1c0.5,0,0.7-0.4,0.7-1
			L246.1,389.2L246.1,389.2z M245.9,387.5c0-0.4,0.3-0.6,0.6-0.6s0.6,0.2,0.6,0.6c0,0.3-0.3,0.6-0.6,0.6S245.9,387.8,245.9,387.5z"
			/>
		<path d="M251.9,389c1.4,0,2.1,1,2.1,2.5c0,0.2,0,0.4,0,0.5h-3.6c0.1,1.2,0.8,1.9,1.8,1.9c0.5,0,0.9-0.2,1.3-0.4l0.3,0.6
			c-0.5,0.3-1,0.5-1.8,0.5c-1.4,0-2.6-1-2.6-2.8C249.5,390.1,250.6,389,251.9,389z M253.2,391.4c0-1.1-0.5-1.7-1.3-1.7
			c-0.7,0-1.4,0.6-1.5,1.7H253.2z"/>
		<path d="M256.4,389.2h0.7l0.1,1l0,0c0.4-0.7,0.9-1.1,1.5-1.1c0.2,0,0.4,0,0.6,0.1l-0.2,0.8c-0.2-0.1-0.3-0.1-0.5-0.1
			c-0.5,0-1,0.3-1.4,1.2v3.4h-0.9L256.4,389.2L256.4,389.2z"/>
		<path d="M263.2,389c1.4,0,2.1,1,2.1,2.5c0,0.2,0,0.4,0,0.5h-3.6c0.1,1.2,0.8,1.9,1.8,1.9c0.5,0,0.9-0.2,1.3-0.4l0.3,0.6
			c-0.5,0.3-1,0.5-1.8,0.5c-1.4,0-2.6-1-2.6-2.8C260.8,390.1,262,389,263.2,389z M264.6,391.4c0-1.1-0.5-1.7-1.3-1.7
			c-0.7,0-1.4,0.6-1.5,1.7H264.6z"/>
		<path d="M267.6,393.3c0.5,0.4,0.9,0.6,1.6,0.6s1.1-0.4,1.1-0.8c0-0.5-0.6-0.8-1.2-1c-0.8-0.3-1.6-0.6-1.6-1.5s0.7-1.5,1.8-1.5
			c0.7,0,1.3,0.3,1.7,0.6l-0.4,0.6c-0.4-0.3-0.7-0.5-1.2-0.5c-0.7,0-1,0.4-1,0.8c0,0.5,0.6,0.7,1.2,0.9c0.8,0.3,1.6,0.6,1.6,1.6
			c0,0.9-0.7,1.6-2,1.6c-0.8,0-1.5-0.3-2-0.7L267.6,393.3z"/>
		<path d="M82,405c1.4,0,2.1,1,2.1,2.5c0,0.2,0,0.4,0,0.5h-3.6c0.1,1.2,0.8,1.9,1.8,1.9c0.5,0,0.9-0.2,1.3-0.4l0.3,0.6
			c-0.5,0.3-1,0.5-1.8,0.5c-1.4,0-2.6-1-2.6-2.8C79.6,406.1,80.8,405,82,405z M83.4,407.4c0-1.1-0.5-1.7-1.3-1.7
			c-0.7,0-1.4,0.6-1.5,1.7H83.4z"/>
		<path d="M86.6,405.2h0.7l0.1,0.8l0,0c0.5-0.5,1.1-0.9,1.8-0.9c1.1,0,1.6,0.7,1.6,2.1v3.4h-0.9v-3.3c0-1-0.3-1.4-1-1.4
			c-0.6,0-0.9,0.3-1.5,0.8v3.9h-0.9v-5.4H86.6z"/>
		<path d="M99.2,405c0.7,0,1.2,0.3,1.6,0.6l-0.5,0.6c-0.3-0.3-0.6-0.5-1.1-0.5c-1,0-1.7,0.8-1.7,2.1c0,1.2,0.7,2,1.7,2
			c0.5,0,0.9-0.3,1.3-0.5l0.4,0.6c-0.5,0.4-1.1,0.7-1.7,0.7c-1.4,0-2.5-1-2.5-2.8C96.6,406,97.8,405,99.2,405z"/>
		<path d="M103,403.5c0-0.4,0.3-0.6,0.6-0.6c0.4,0,0.6,0.2,0.6,0.6c0,0.3-0.3,0.6-0.6,0.6C103.2,404.1,103,403.8,103,403.5z
			 M103.1,405.2h0.9v5.3h-0.9V405.2z"/>
		<path d="M106.9,405.2h0.7l0.1,1l0,0c0.4-0.7,0.9-1.1,1.5-1.1c0.2,0,0.4,0,0.6,0.1l-0.2,0.8c-0.2-0.1-0.3-0.1-0.5-0.1
			c-0.5,0-1,0.3-1.4,1.2v3.4h-0.9v-5.3H106.9z"/>
		<path d="M113.9,405c0.7,0,1.2,0.3,1.6,0.6l-0.5,0.6c-0.3-0.3-0.6-0.5-1.1-0.5c-1,0-1.7,0.8-1.7,2.1c0,1.2,0.7,2,1.6,2
			c0.5,0,0.9-0.3,1.3-0.5l0.4,0.6c-0.5,0.4-1.1,0.7-1.7,0.7c-1.4,0-2.5-1-2.5-2.8C111.3,406,112.5,405,113.9,405z"/>
		<path d="M117.8,405.2h0.9v3.3c0,1,0.3,1.4,1,1.4c0.6,0,0.9-0.3,1.4-0.9v-3.8h0.9v5.3h-0.7l-0.1-0.8l0,0c-0.5,0.6-1,1-1.8,1
			c-1.1,0-1.6-0.7-1.6-2.1C117.8,408.6,117.8,405.2,117.8,405.2z"/>
		<path d="M124.9,405.2h0.7l0.1,0.8l0,0c0.5-0.5,1.1-0.9,1.8-0.9c1.1,0,1.6,0.7,1.6,2.1v3.4h-0.9v-3.3c0-1-0.3-1.4-1-1.4
			c-0.5,0-0.9,0.3-1.5,0.8v3.9h-0.9L124.9,405.2L124.9,405.2z"/>
		<path d="M131.9,409.3c0.5,0.4,0.9,0.6,1.6,0.6c0.7,0,1.1-0.4,1.1-0.8c0-0.5-0.6-0.8-1.2-1c-0.8-0.3-1.6-0.6-1.6-1.5
			s0.7-1.5,1.8-1.5c0.7,0,1.3,0.3,1.7,0.6l-0.4,0.6c-0.4-0.3-0.7-0.5-1.2-0.5c-0.7,0-1,0.4-1,0.8c0,0.5,0.6,0.7,1.2,0.9
			c0.8,0.3,1.6,0.6,1.6,1.6c0,0.9-0.7,1.6-2,1.6c-0.8,0-1.5-0.3-2-0.7L131.9,409.3z"/>
		<path d="M137.9,405.9h-0.8v-0.7l0.8-0.1l0.1-1.5h0.8v1.5h1.4v0.7h-1.4v3c0,0.7,0.2,1,0.8,1c0.2,0,0.4-0.1,0.6-0.1l0.2,0.7
			c-0.3,0.1-0.7,0.2-1,0.2c-1.1,0-1.5-0.7-1.5-1.8L137.9,405.9L137.9,405.9z"/>
		<path d="M145.4,407.1c0-0.7-0.2-1.3-1.1-1.3c-0.6,0-1.2,0.3-1.6,0.6l-0.4-0.6c0.5-0.3,1.2-0.7,2.1-0.7c1.3,0,1.9,0.9,1.9,2.2v3.3
			h-0.7l-0.1-0.6l0,0c-0.5,0.4-1.1,0.8-1.8,0.8c-0.9,0-1.6-0.6-1.6-1.5C142.1,408,143.1,407.4,145.4,407.1z M143.9,409.9
			c0.5,0,0.9-0.3,1.5-0.7v-1.5c-1.8,0.2-2.4,0.7-2.4,1.3C143,409.7,143.4,409.9,143.9,409.9z"/>
		<path d="M149.1,405.2h0.7l0.1,0.8l0,0c0.5-0.5,1.1-0.9,1.8-0.9c1.1,0,1.6,0.7,1.6,2.1v3.4h-0.9v-3.3c0-1-0.3-1.4-1-1.4
			c-0.5,0-0.9,0.3-1.5,0.8v3.9H149L149.1,405.2L149.1,405.2z"/>
		<path d="M158.4,405c0.7,0,1.2,0.3,1.6,0.6l-0.5,0.6c-0.3-0.3-0.6-0.5-1.1-0.5c-1,0-1.7,0.8-1.7,2.1c0,1.2,0.7,2,1.7,2
			c0.5,0,0.9-0.3,1.3-0.5l0.4,0.6c-0.5,0.4-1.1,0.7-1.7,0.7c-1.4,0-2.5-1-2.5-2.8C155.8,406,157,405,158.4,405z"/>
		<path d="M162.2,403.5c0-0.4,0.3-0.6,0.6-0.6c0.4,0,0.6,0.2,0.6,0.6c0,0.3-0.3,0.6-0.6,0.6S162.2,403.8,162.2,403.5z M162.3,405.2
			h0.9v5.3h-0.9V405.2z"/>
		<path d="M169.2,407.1c0-0.7-0.2-1.3-1.1-1.3c-0.6,0-1.2,0.3-1.6,0.6l-0.4-0.6c0.5-0.3,1.2-0.7,2.1-0.7c1.3,0,1.9,0.9,1.9,2.2v3.3
			h-0.7l-0.1-0.6l0,0c-0.5,0.4-1.1,0.8-1.8,0.8c-0.9,0-1.6-0.6-1.6-1.5C165.9,408,166.9,407.4,169.2,407.1z M167.7,409.9
			c0.5,0,0.9-0.3,1.5-0.7v-1.5c-1.8,0.2-2.4,0.7-2.4,1.3C166.8,409.7,167.2,409.9,167.7,409.9z"/>
		<path d="M172.7,409.3c0.5,0.4,0.9,0.6,1.6,0.6c0.7,0,1.1-0.4,1.1-0.8c0-0.5-0.6-0.8-1.2-1c-0.8-0.3-1.6-0.6-1.6-1.5
			s0.7-1.5,1.8-1.5c0.7,0,1.3,0.3,1.7,0.6l-0.4,0.6c-0.4-0.3-0.7-0.5-1.2-0.5c-0.7,0-1,0.4-1,0.8c0,0.5,0.6,0.7,1.2,0.9
			c0.8,0.3,1.6,0.6,1.6,1.6c0,0.9-0.7,1.6-2,1.6c-0.8,0-1.5-0.3-2-0.7L172.7,409.3z"/>
		<path d="M183.9,405c0.6,0,1,0.2,1.5,0.6v-0.9v-2.1h0.9v7.8h-0.7l-0.1-0.6l0,0c-0.4,0.4-1,0.8-1.6,0.8c-1.3,0-2.2-1-2.2-2.8
			C181.5,406.1,182.6,405,183.9,405z M183.9,409.9c0.5,0,0.9-0.2,1.4-0.7v-2.8c-0.5-0.4-0.9-0.6-1.3-0.6c-0.9,0-1.5,0.8-1.5,2
			C182.5,409.1,183,409.9,183.9,409.9z"/>
		<path d="M189,403.5c0-0.4,0.3-0.6,0.6-0.6c0.4,0,0.6,0.2,0.6,0.6c0,0.3-0.3,0.6-0.6,0.6C189.2,404.1,189,403.8,189,403.5z
			 M189.1,405.2h0.9v5.3h-0.9V405.2z"/>
		<path d="M192.8,409.3c0.5,0.4,0.9,0.6,1.6,0.6c0.7,0,1.1-0.4,1.1-0.8c0-0.5-0.6-0.8-1.2-1c-0.8-0.3-1.6-0.6-1.6-1.5
			s0.7-1.5,1.8-1.5c0.7,0,1.3,0.3,1.7,0.6l-0.4,0.6c-0.4-0.3-0.7-0.5-1.2-0.5c-0.7,0-1,0.4-1,0.8c0,0.5,0.6,0.7,1.2,0.9
			c0.8,0.3,1.6,0.6,1.6,1.6c0,0.9-0.7,1.6-2,1.6c-0.8,0-1.5-0.3-2-0.7L192.8,409.3z"/>
		<path d="M198.8,405.9H198v-0.7l0.8-0.1l0.1-1.5h0.8v1.5h1.4v0.7h-1.4v3c0,0.7,0.2,1,0.8,1c0.2,0,0.4-0.1,0.6-0.1l0.2,0.7
			c-0.3,0.1-0.7,0.2-1,0.2c-1.1,0-1.5-0.7-1.5-1.8L198.8,405.9L198.8,405.9z"/>
		<path d="M203.3,403.5c0-0.4,0.3-0.6,0.6-0.6c0.4,0,0.6,0.2,0.6,0.6c0,0.3-0.3,0.6-0.6,0.6S203.3,403.8,203.3,403.5z M203.5,405.2
			h0.9v5.3h-0.9V405.2z"/>
		<path d="M207.3,405.2h0.7l0.1,0.8l0,0c0.5-0.5,1.1-0.9,1.8-0.9c1.1,0,1.6,0.7,1.6,2.1v3.4h-0.9v-3.3c0-1-0.3-1.4-1-1.4
			c-0.6,0-0.9,0.3-1.5,0.8v3.9h-0.9L207.3,405.2L207.3,405.2z"/>
		<path d="M214.5,405.9h-0.8v-0.7l0.8-0.1l0.1-1.5h0.8v1.5h1.4v0.7h-1.4v3c0,0.7,0.2,1,0.8,1c0.2,0,0.4-0.1,0.6-0.1l0.2,0.7
			c-0.3,0.1-0.7,0.2-1,0.2c-1.1,0-1.5-0.7-1.5-1.8L214.5,405.9L214.5,405.9z"/>
		<path d="M222,407.1c0-0.7-0.2-1.3-1.1-1.3c-0.6,0-1.2,0.3-1.6,0.6l-0.4-0.6c0.5-0.3,1.2-0.7,2.1-0.7c1.3,0,1.9,0.9,1.9,2.2v3.3
			h-0.7l-0.1-0.6l0,0c-0.5,0.4-1.1,0.8-1.8,0.8c-0.9,0-1.6-0.6-1.6-1.5C218.7,408,219.7,407.4,222,407.1z M220.6,409.9
			c0.5,0,0.9-0.3,1.5-0.7v-1.5c-1.8,0.2-2.4,0.7-2.4,1.3C219.6,409.7,220,409.9,220.6,409.9z"/>
		<path d="M225.6,409.3c0.5,0.4,0.9,0.6,1.6,0.6c0.7,0,1.1-0.4,1.1-0.8c0-0.5-0.6-0.8-1.2-1c-0.8-0.3-1.6-0.6-1.6-1.5
			s0.7-1.5,1.8-1.5c0.7,0,1.3,0.3,1.7,0.6l-0.4,0.6c-0.4-0.3-0.7-0.5-1.2-0.5c-0.7,0-1,0.4-1,0.8c0,0.5,0.6,0.7,1.2,0.9
			c0.8,0.3,1.6,0.6,1.6,1.6c0,0.9-0.7,1.6-2,1.6c-0.8,0-1.5-0.3-2-0.7L225.6,409.3z"/>
		<path d="M231.9,409.3c0.4,0,0.6,0.3,0.6,0.7c0,0.4-0.3,0.7-0.6,0.7c-0.4,0-0.7-0.3-0.7-0.7C231.3,409.5,231.5,409.3,231.9,409.3z"
			/>
		<path d="M56.1,419.2c0.9,0,1.6,0.4,2.1,0.9l-0.9,1c-0.4-0.3-0.7-0.5-1.2-0.5c-1,0-1.8,0.9-1.8,2.3c0,1.5,0.7,2.3,1.7,2.3
			c0.6,0,1-0.3,1.4-0.6l0.9,1c-0.6,0.7-1.4,1.1-2.3,1.1c-1.9,0-3.4-1.3-3.4-3.7C52.7,420.6,54.3,419.2,56.1,419.2z"/>
		<path d="M60.2,421h1.6v3.2c0,0.8,0.2,1,0.7,1c0.4,0,0.6-0.2,1-0.6V421h1.6v5.5h-1.3l-0.1-0.8l0,0c-0.5,0.5-1,0.9-1.7,0.9
			c-1.2,0-1.7-0.8-1.7-2.2L60.2,421L60.2,421z"/>
		<path d="M70.5,423c0-0.5-0.3-0.8-0.9-0.8c-0.5,0-0.9,0.2-1.5,0.5l-0.6-1.1c0.7-0.4,1.5-0.7,2.3-0.7c1.4,0,2.2,0.8,2.2,2.5v3.1
			h-1.3l-0.1-0.6l0,0c-0.5,0.4-1,0.7-1.6,0.7c-1,0-1.6-0.7-1.6-1.7C67.4,423.8,68.3,423.2,70.5,423z M69.6,425.4
			c0.4,0,0.6-0.2,0.9-0.5v-1c-1.2,0.2-1.5,0.5-1.5,0.9C69,425.2,69.2,425.4,69.6,425.4z"/>
		<path d="M74.6,421h1.3l0.1,0.7l0,0c0.5-0.4,1-0.8,1.7-0.8c1.2,0,1.7,0.8,1.7,2.2v3.4h-1.6v-3.2c0-0.8-0.2-1-0.7-1
			c-0.4,0-0.7,0.2-1,0.5v3.7h-1.6L74.6,421L74.6,421z"/>
		<path d="M82.2,422.3h-0.7v-1.2l0.8-0.1l0.2-1.5h1.3v1.5h1.3v1.3h-1.3v2.2c0,0.6,0.3,0.9,0.7,0.9c0.2,0,0.4-0.1,0.5-0.1l0.3,1.2
			c-0.3,0.1-0.7,0.2-1.2,0.2c-1.4,0-1.9-0.8-1.9-2.1C82.2,424.6,82.2,422.3,82.2,422.3z"/>
		<path d="M89.5,420.9c1.4,0,2.7,1,2.7,2.9s-1.3,2.9-2.7,2.9c-1.4,0-2.7-1-2.7-2.9S88.2,420.9,89.5,420.9z M89.5,425.3
			c0.7,0,1-0.6,1-1.6s-0.3-1.6-1-1.6s-1,0.6-1,1.6S88.9,425.3,89.5,425.3z"/>
		<path d="M97.8,421h1.3l0.1,0.7l0,0c0.5-0.5,0.9-0.8,1.6-0.8c0.8,0,1.2,0.3,1.5,0.9c0.5-0.5,1-0.9,1.7-0.9c1.2,0,1.7,0.8,1.7,2.2
			v3.4h-1.6v-3.2c0-0.8-0.2-1-0.7-1c-0.3,0-0.6,0.2-0.9,0.5v3.7H101v-3.2c0-0.8-0.2-1-0.7-1c-0.3,0-0.6,0.2-0.9,0.5v3.7h-1.6V421z"
			/>
		<path d="M111.2,423c0-0.5-0.3-0.8-0.9-0.8c-0.5,0-0.9,0.2-1.5,0.5l-0.6-1.1c0.7-0.4,1.5-0.7,2.3-0.7c1.4,0,2.2,0.8,2.2,2.5v3.1
			h-1.3l-0.1-0.6l0,0c-0.5,0.4-1,0.7-1.6,0.7c-1,0-1.6-0.7-1.6-1.7C108.1,423.8,109,423.2,111.2,423z M110.3,425.4
			c0.4,0,0.6-0.2,0.9-0.5v-1c-1.2,0.2-1.5,0.5-1.5,0.9C109.7,425.2,109.9,425.4,110.3,425.4z"/>
		<path d="M115.8,427.4c0.5,0,0.8-0.3,1-0.7l0.1-0.3l-2.1-5.3h1.6l0.8,2.3c0.2,0.5,0.3,1,0.4,1.6l0,0c0.1-0.5,0.2-1,0.4-1.6l0.7-2.3
			h1.6l-1.9,5.5c-0.5,1.4-1.1,2.1-2.4,2.1c-0.3,0-0.6,0-0.8-0.1l0.3-1.2C115.5,427.3,115.7,427.4,115.8,427.4z"/>
		<path d="M124.4,420.9c1.4,0,2.7,1,2.7,2.9s-1.3,2.9-2.7,2.9c-1.4,0-2.7-1-2.7-2.9S123,420.9,124.4,420.9z M124.4,425.3
			c0.7,0,1-0.6,1-1.6s-0.3-1.6-1-1.6s-1,0.6-1,1.6S123.7,425.3,124.4,425.3z"/>
		<path d="M129.2,421h1.3l0.1,1l0,0c0.4-0.7,1-1.1,1.6-1.1c0.3,0,0.5,0,0.6,0.1l-0.3,1.4c-0.2-0.1-0.4-0.1-0.6-0.1
			c-0.4,0-0.9,0.3-1.2,1v3.2h-1.6L129.2,421L129.2,421z"/>
		<path d="M140.4,420.9c1.6,0,2.3,1.1,2.3,2.6c0,0.3,0,0.6-0.1,0.7h-3.3c0.1,0.8,0.7,1.2,1.4,1.2c0.4,0,0.8-0.1,1.2-0.4l0.5,1
			c-0.6,0.4-1.3,0.6-1.9,0.6c-1.6,0-2.8-1.1-2.8-2.9C137.8,422,139.1,420.9,140.4,420.9z M141.3,423.2c0-0.6-0.3-1.1-0.9-1.1
			c-0.5,0-0.9,0.3-1.1,1.1H141.3z"/>
		<path d="M145.1,424.9c0.5,0.4,0.9,0.6,1.4,0.6s0.7-0.2,0.7-0.5c0-0.4-0.5-0.5-1.1-0.7c-0.7-0.3-1.4-0.7-1.4-1.6
			c0-1,0.8-1.7,2.1-1.7c0.8,0,1.5,0.3,1.9,0.7l-0.7,1c-0.4-0.3-0.8-0.5-1.2-0.5s-0.6,0.2-0.6,0.4c0,0.4,0.5,0.5,1.1,0.7
			c0.7,0.3,1.5,0.6,1.5,1.6s-0.8,1.8-2.2,1.8c-0.7,0-1.5-0.3-2.1-0.8L145.1,424.9z"/>
		<path d="M154.3,418.8h1.6v6.1c0,0.3,0.2,0.5,0.3,0.5s0.1,0,0.2,0l0.2,1.2c-0.2,0.1-0.5,0.1-0.8,0.1c-1.1,0-1.5-0.7-1.5-1.8V418.8z
			"/>
		<path d="M161.4,423c0-0.5-0.3-0.8-0.9-0.8c-0.5,0-0.9,0.2-1.5,0.5l-0.6-1.1c0.7-0.4,1.5-0.7,2.3-0.7c1.4,0,2.2,0.8,2.2,2.5v3.1
			h-1.3l-0.1-0.6l0,0c-0.5,0.4-1,0.7-1.6,0.7c-1,0-1.6-0.7-1.6-1.7C158.3,423.8,159.2,423.2,161.4,423z M160.5,425.4
			c0.4,0,0.6-0.2,0.9-0.5v-1c-1.2,0.2-1.5,0.5-1.5,0.9C159.9,425.2,160.1,425.4,160.5,425.4z"/>
		<path d="M170.9,420.9c0.6,0,1,0.2,1.3,0.6l-0.1-0.8v-1.9h1.6v7.7h-1.3l-0.1-0.5l0,0c-0.4,0.4-0.9,0.7-1.5,0.7
			c-1.4,0-2.2-1.1-2.2-2.9S169.7,420.9,170.9,420.9z M171.2,425.3c0.4,0,0.6-0.1,0.9-0.5v-2.2c-0.3-0.3-0.6-0.4-0.9-0.4
			c-0.5,0-1,0.5-1,1.5C170.2,424.8,170.6,425.3,171.2,425.3z"/>
		<path d="M176.1,419.4c0-0.5,0.4-0.8,0.9-0.8c0.6,0,0.9,0.3,0.9,0.8s-0.4,0.8-0.9,0.8C176.5,420.2,176.1,419.9,176.1,419.4z
			 M176.3,421h1.6v5.5h-1.6V421z"/>
		<path d="M183.5,420c-0.2-0.1-0.4-0.1-0.6-0.1c-0.4,0-0.6,0.2-0.6,0.8v0.3h1v1.3h-1v4.2h-1.6v-4.2H180v-1.2l0.7-0.1v-0.3
			c0-1.2,0.5-2.1,2-2.1c0.5,0,0.8,0.1,1.1,0.2L183.5,420z"/>
		<path d="M187.4,420.9c1.6,0,2.3,1.1,2.3,2.6c0,0.3,0,0.6-0.1,0.7h-3.3c0.1,0.8,0.7,1.2,1.4,1.2c0.4,0,0.8-0.1,1.2-0.4l0.5,1
			c-0.6,0.4-1.3,0.6-1.9,0.6c-1.6,0-2.8-1.1-2.8-2.9C184.8,422,186.1,420.9,187.4,420.9z M188.4,423.2c0-0.6-0.3-1.1-0.9-1.1
			c-0.5,0-0.9,0.3-1.1,1.1H188.4z"/>
		<path d="M191.9,421h1.3l0.1,1l0,0c0.4-0.7,1-1.1,1.6-1.1c0.3,0,0.5,0,0.6,0.1l-0.3,1.4c-0.2-0.1-0.4-0.1-0.6-0.1
			c-0.4,0-0.9,0.3-1.2,1v3.2h-1.6L191.9,421L191.9,421z"/>
		<path d="M199.6,420.9c1.6,0,2.3,1.1,2.3,2.6c0,0.3,0,0.6-0.1,0.7h-3.3c0.1,0.8,0.7,1.2,1.4,1.2c0.4,0,0.8-0.1,1.2-0.4l0.5,1
			c-0.6,0.4-1.3,0.6-1.9,0.6c-1.6,0-2.8-1.1-2.8-2.9C197,422,198.3,420.9,199.6,420.9z M200.5,423.2c0-0.6-0.3-1.1-0.9-1.1
			c-0.5,0-0.9,0.3-1.1,1.1H200.5z"/>
		<path d="M204.1,421h1.3l0.1,0.7l0,0c0.5-0.4,1-0.8,1.7-0.8c1.2,0,1.7,0.8,1.7,2.2v3.4h-1.6v-3.2c0-0.8-0.2-1-0.7-1
			c-0.4,0-0.7,0.2-1,0.5v3.7H204V421H204.1z"/>
		<path d="M214,420.9c0.7,0,1.2,0.3,1.6,0.6l-0.7,1c-0.3-0.2-0.5-0.3-0.8-0.3c-0.8,0-1.3,0.6-1.3,1.6s0.5,1.6,1.2,1.6
			c0.4,0,0.7-0.2,1-0.4l0.6,1c-0.5,0.5-1.2,0.7-1.8,0.7c-1.5,0-2.7-1-2.7-2.9S212.5,420.9,214,420.9z"/>
		<path d="M217.6,419.4c0-0.5,0.4-0.8,0.9-0.8s0.9,0.3,0.9,0.8s-0.4,0.8-0.9,0.8C218,420.2,217.6,419.9,217.6,419.4z M217.7,421h1.6
			v5.5h-1.6V421z"/>
		<path d="M224.8,423c0-0.5-0.3-0.8-0.9-0.8c-0.5,0-0.9,0.2-1.5,0.5l-0.6-1.1c0.7-0.4,1.5-0.7,2.3-0.7c1.4,0,2.2,0.8,2.2,2.5v3.1
			H225l-0.1-0.6l0,0c-0.5,0.4-1,0.7-1.6,0.7c-1,0-1.6-0.7-1.6-1.7C221.7,423.8,222.6,423.2,224.8,423z M223.8,425.4
			c0.4,0,0.6-0.2,0.9-0.5v-1c-1.2,0.2-1.5,0.5-1.5,0.9C223.2,425.2,223.5,425.4,223.8,425.4z"/>
		<path d="M234.4,421c1.4,0,2.1,1,2.1,2.5c0,0.2,0,0.4,0,0.5h-3.6c0.1,1.2,0.8,1.9,1.8,1.9c0.5,0,0.9-0.2,1.3-0.4l0.3,0.6
			c-0.5,0.3-1,0.5-1.8,0.5c-1.4,0-2.6-1-2.6-2.8C232,422.1,233.1,421,234.4,421z M235.7,423.4c0-1.1-0.5-1.7-1.3-1.7
			c-0.7,0-1.4,0.6-1.5,1.7H235.7z"/>
		<path d="M238.9,421.2h0.7l0.1,0.8l0,0c0.5-0.5,1.1-0.9,1.8-0.9c1.1,0,1.6,0.7,1.6,2.1v3.4h-0.9v-3.3c0-1-0.3-1.4-1-1.4
			c-0.5,0-0.9,0.3-1.5,0.8v3.9h-0.9L238.9,421.2L238.9,421.2z"/>
		<path d="M246.2,421.9h-0.8v-0.7l0.8-0.1l0.1-1.5h0.8v1.5h1.4v0.7h-1.4v3c0,0.7,0.2,1,0.8,1c0.2,0,0.4-0.1,0.6-0.1l0.2,0.7
			c-0.3,0.1-0.7,0.2-1,0.2c-1.1,0-1.5-0.7-1.5-1.8L246.2,421.9L246.2,421.9z"/>
		<path d="M250.9,421.2h0.7l0.1,1l0,0c0.4-0.7,0.9-1.1,1.5-1.1c0.2,0,0.4,0,0.6,0.1l-0.2,0.8c-0.2-0.1-0.3-0.1-0.5-0.1
			c-0.5,0-1,0.3-1.4,1.2v3.4h-0.9L250.9,421.2L250.9,421.2z"/>
		<path d="M257.7,421c1.4,0,2.1,1,2.1,2.5c0,0.2,0,0.4,0,0.5h-3.6c0.1,1.2,0.8,1.9,1.8,1.9c0.5,0,0.9-0.2,1.3-0.4l0.3,0.6
			c-0.5,0.3-1,0.5-1.8,0.5c-1.4,0-2.6-1-2.6-2.8C255.3,422.1,256.4,421,257.7,421z M259,423.4c0-1.1-0.5-1.7-1.3-1.7
			c-0.7,0-1.4,0.6-1.5,1.7H259z"/>
		<path d="M28.7,437c1.4,0,2.1,1,2.1,2.5c0,0.2,0,0.4,0,0.5h-3.6c0.1,1.2,0.8,1.9,1.8,1.9c0.5,0,0.9-0.2,1.3-0.4l0.3,0.6
			c-0.5,0.3-1,0.5-1.8,0.5c-1.4,0-2.6-1-2.6-2.8C26.3,438.1,27.4,437,28.7,437z M30,439.4c0-1.1-0.5-1.7-1.3-1.7
			c-0.7,0-1.4,0.6-1.5,1.7H30z"/>
		<path d="M33.2,434.7h0.9v6.8c0,0.3,0.1,0.4,0.3,0.4c0.1,0,0.1,0,0.2,0l0.1,0.7c-0.1,0.1-0.3,0.1-0.5,0.1c-0.7,0-1-0.4-1-1.2V434.7
			z"/>
		<path class="st2" d="M40.5,434.7h1.8v7.8h-1.8V434.7z"/>
		<path class="st2" d="M44.9,438.6c0-2.6,1.4-4,3.5-4s3.6,1.5,3.6,4c0,2.6-1.4,4.1-3.6,4.1C46.3,442.6,44.9,441.1,44.9,438.6z
			 M50.2,438.6c0-1.6-0.7-2.5-1.7-2.5s-1.7,0.9-1.7,2.5s0.7,2.6,1.7,2.6S50.2,440.1,50.2,438.6z"/>
		<path class="st2" d="M54.7,434.7h1.8v3h2.7v-3H61v7.8h-1.8v-3.3h-2.7v3.3h-1.8V434.7z"/>
		<path d="M67.7,444.1c0.6,0,1-0.5,1.2-1.1l0.1-0.4l-2.1-5.4h0.9l1.1,3c0.2,0.5,0.4,1,0.5,1.5l0,0c0.2-0.5,0.3-1,0.5-1.5l1-3h0.9
			l-2,5.8c-0.4,1.1-0.9,1.9-2,1.9c-0.2,0-0.5,0-0.6-0.1l0.2-0.7C67.4,444,67.5,444.1,67.7,444.1z"/>
		<path d="M77.2,434.7h0.9v6.8c0,0.3,0.1,0.4,0.3,0.4c0.1,0,0.1,0,0.2,0l0.1,0.7c-0.1,0.1-0.3,0.1-0.5,0.1c-0.7,0-1-0.4-1-1.2V434.7
			z"/>
		<path d="M84.1,439.1c0-0.7-0.2-1.3-1.1-1.3c-0.6,0-1.2,0.3-1.6,0.6l-0.4-0.6c0.5-0.3,1.2-0.7,2.1-0.7c1.3,0,1.9,0.9,1.9,2.2v3.3
			h-0.7l-0.1-0.6l0,0c-0.5,0.4-1.1,0.8-1.8,0.8c-0.9,0-1.6-0.6-1.6-1.5C80.8,440,81.8,439.4,84.1,439.1z M82.7,441.9
			c0.5,0,0.9-0.3,1.5-0.7v-1.5c-1.8,0.2-2.4,0.7-2.4,1.3C81.7,441.7,82.1,441.9,82.7,441.9z"/>
		<path class="st4" d="M94.5,434.5c1,0,1.8,0.5,2.3,1l-1,1.1c-0.4-0.4-0.8-0.6-1.3-0.6c-1.1,0-1.9,0.9-1.9,2.5s0.7,2.5,1.9,2.5
			c0.6,0,1.1-0.3,1.5-0.7l1,1.1c-0.6,0.8-1.5,1.2-2.5,1.2c-2,0-3.7-1.4-3.7-4C90.8,436.1,92.5,434.5,94.5,434.5z"/>
		<path class="st4" d="M98.5,438.6c0-2.6,1.4-4,3.5-4s3.6,1.5,3.6,4c0,2.6-1.4,4.1-3.6,4.1C100,442.6,98.5,441.1,98.5,438.6z
			 M103.8,438.6c0-1.6-0.7-2.5-1.7-2.5s-1.7,0.9-1.7,2.5s0.7,2.6,1.7,2.6S103.8,440.1,103.8,438.6z"/>
		<path class="st4" d="M108.3,434.7h2.7c1.6,0,2.9,0.4,2.9,1.9c0,0.7-0.4,1.5-1.3,1.7l0,0c1.1,0.2,1.7,0.8,1.7,1.8
			c0,1.6-1.3,2.3-3,2.3h-2.9L108.3,434.7L108.3,434.7z M110.9,437.8c0.9,0,1.2-0.4,1.2-1s-0.4-0.8-1.2-0.8h-0.8v1.8H110.9z
			 M111.1,441.1c1,0,1.5-0.4,1.5-1.1s-0.5-1-1.5-1h-1v2.1H111.1z"/>
		<path class="st4" d="M116.8,434.7h4.9v1.5h-3.1v1.6h2.7v1.5h-2.7v1.8h3.2v1.5h-5V434.7z"/>
		<path class="st4" d="M128.8,442.5l-1.5-2.8h-1v2.8h-1.8v-7.8h2.8c1.7,0,3,0.6,3,2.4c0,1.2-0.6,1.9-1.4,2.3l1.8,3.1H128.8z
			 M126.3,438.3h0.9c0.9,0,1.4-0.4,1.4-1.2s-0.5-1-1.4-1h-0.9V438.3z"/>
		<path class="st4" d="M134.4,436.2h-2.1v-1.5h6.1v1.5h-2.1v6.3h-1.8L134.4,436.2L134.4,436.2z"/>
		<path class="st4" d="M140.7,434.7h1.8v4.4c0,1.5,0.5,2.1,1.4,2.1s1.4-0.5,1.4-2.1v-4.4h1.7v4.2c0,2.6-1.1,3.8-3.1,3.8
			s-3.1-1.1-3.1-3.8L140.7,434.7L140.7,434.7z"/>
		<path class="st4" d="M154.2,442.5l-1.5-2.8h-1v2.8H150v-7.8h2.8c1.7,0,3,0.6,3,2.4c0,1.2-0.6,1.9-1.4,2.3l1.8,3.1H154.2z
			 M151.7,438.3h0.9c0.9,0,1.4-0.4,1.4-1.2s-0.5-1-1.4-1h-0.9V438.3z"/>
		<path class="st4" d="M162.1,440.6h-2.4l-0.5,1.9h-1.8l2.4-7.8h2.1l2.4,7.8h-1.9L162.1,440.6z M161.7,439.3l-0.2-0.7
			c-0.2-0.8-0.4-1.7-0.6-2.5l0,0c-0.2,0.8-0.4,1.7-0.6,2.5l-0.2,0.7H161.7z"/>
		<path d="M170.2,437.2h0.7l0.1,0.8l0,0c0.5-0.5,1-0.9,1.7-0.9c0.8,0,1.3,0.4,1.5,1c0.6-0.6,1.1-1,1.8-1c1.1,0,1.6,0.7,1.6,2.1v3.4
			h-0.9v-3.3c0-1-0.3-1.4-1-1.4c-0.4,0-0.8,0.3-1.3,0.8v3.9h-0.9v-3.3c0-1-0.3-1.4-1-1.4c-0.4,0-0.8,0.3-1.3,0.8v3.9h-0.9v-5.4
			H170.2z"/>
		<path d="M182.4,437c1.4,0,2.1,1,2.1,2.5c0,0.2,0,0.4,0,0.5h-3.6c0.1,1.2,0.8,1.9,1.8,1.9c0.5,0,0.9-0.2,1.3-0.4l0.3,0.6
			c-0.5,0.3-1,0.5-1.8,0.5c-1.4,0-2.6-1-2.6-2.8C180,438.1,181.2,437,182.4,437z M183.7,439.4c0-1.1-0.5-1.7-1.3-1.7
			c-0.7,0-1.4,0.6-1.5,1.7H183.7z"/>
		<path d="M188.9,437c0.6,0,1,0.2,1.5,0.6v-0.9v-2.1h0.9v7.8h-0.7l-0.1-0.6l0,0c-0.4,0.4-1,0.8-1.6,0.8c-1.3,0-2.2-1-2.2-2.8
			C186.6,438.1,187.7,437,188.9,437z M189,441.9c0.5,0,0.9-0.2,1.4-0.7v-2.8c-0.5-0.4-0.9-0.6-1.3-0.6c-0.9,0-1.5,0.8-1.5,2
			C187.5,441.1,188,441.9,189,441.9z"/>
		<path d="M194,435.5c0-0.4,0.3-0.6,0.6-0.6c0.4,0,0.6,0.2,0.6,0.6c0,0.3-0.3,0.6-0.6,0.6S194,435.8,194,435.5z M194.2,437.2h0.9
			v5.3h-0.9V437.2z"/>
		<path d="M201,439.1c0-0.7-0.2-1.3-1.1-1.3c-0.6,0-1.2,0.3-1.6,0.6l-0.4-0.6c0.5-0.3,1.2-0.7,2.1-0.7c1.3,0,1.9,0.9,1.9,2.2v3.3
			h-0.7l-0.1-0.6l0,0c-0.5,0.4-1.1,0.8-1.8,0.8c-0.9,0-1.6-0.6-1.6-1.5C197.7,440,198.7,439.4,201,439.1z M199.5,441.9
			c0.5,0,0.9-0.3,1.5-0.7v-1.5c-1.8,0.2-2.4,0.7-2.4,1.3C198.6,441.7,199,441.9,199.5,441.9z"/>
		<path d="M204.3,443.8c0.6-0.3,1-0.7,1-1.3h-0.1c-0.4,0-0.6-0.2-0.6-0.6s0.3-0.6,0.7-0.6c0.5,0,0.8,0.4,0.8,1.1
			c0,0.9-0.5,1.7-1.4,2.1L204.3,443.8z"/>
		<path class="st5" d="M211.7,437h1.3l0.1,0.7l0,0c0.5-0.5,0.9-0.8,1.7-0.8s1.2,0.3,1.5,0.9c0.5-0.5,1-0.9,1.7-0.9
			c1.2,0,1.7,0.8,1.7,2.2v3.4h-1.6v-3.2c0-0.8-0.2-1-0.7-1c-0.3,0-0.6,0.2-0.9,0.5v3.7h-1.6v-3.2c0-0.8-0.2-1-0.7-1
			c-0.3,0-0.6,0.2-0.9,0.5v3.7h-1.6V437z"/>
		<path class="st5" d="M225.1,439c0-0.5-0.3-0.8-0.9-0.8c-0.5,0-0.9,0.2-1.5,0.5l-0.6-1.1c0.7-0.4,1.5-0.7,2.3-0.7
			c1.4,0,2.2,0.8,2.2,2.5v3.1h-1.3l-0.1-0.6l0,0c-0.5,0.4-1,0.7-1.6,0.7c-1,0-1.6-0.7-1.6-1.7C222,439.8,222.9,439.2,225.1,439z
			 M224.2,441.4c0.4,0,0.6-0.2,0.9-0.5v-1c-1.2,0.2-1.5,0.5-1.5,0.9C223.5,441.2,223.8,441.4,224.2,441.4z M224.9,436.2h-1.2l1-1.7
			h1.6L224.9,436.2z"/>
		<path class="st5" d="M229.4,440.9c0.5,0.4,0.9,0.6,1.4,0.6s0.7-0.2,0.7-0.5c0-0.4-0.5-0.5-1.1-0.7c-0.7-0.3-1.4-0.7-1.4-1.6
			c0-1,0.8-1.7,2.1-1.7c0.8,0,1.5,0.3,1.9,0.7l-0.7,1c-0.4-0.3-0.8-0.5-1.2-0.5s-0.6,0.2-0.6,0.4c0,0.4,0.5,0.5,1.1,0.7
			c0.7,0.3,1.5,0.6,1.5,1.6s-0.8,1.8-2.2,1.8c-0.7,0-1.5-0.3-2.1-0.8L229.4,440.9z"/>
		<path class="st5" d="M240.5,436.9c0.6,0,1,0.2,1.3,0.6l-0.1-0.8v-1.9h1.6v7.7H242V442l0,0c-0.4,0.4-0.9,0.7-1.5,0.7
			c-1.4,0-2.2-1.1-2.2-2.9S239.4,436.9,240.5,436.9z M240.9,441.3c0.4,0,0.6-0.1,0.9-0.5v-2.2c-0.3-0.3-0.6-0.4-0.9-0.4
			c-0.5,0-1,0.5-1,1.5C239.9,440.8,240.3,441.3,240.9,441.3z"/>
		<path class="st5" d="M248.2,436.9c1.6,0,2.3,1.1,2.3,2.6c0,0.3,0,0.6-0.1,0.7h-3.3c0.1,0.8,0.7,1.2,1.4,1.2c0.4,0,0.8-0.1,1.2-0.4
			l0.5,1c-0.6,0.4-1.3,0.6-1.9,0.6c-1.6,0-2.8-1.1-2.8-2.9C245.6,438,246.9,436.9,248.2,436.9z M249.1,439.2c0-0.6-0.3-1.1-0.9-1.1
			c-0.5,0-0.9,0.3-1.1,1.1H249.1z"/>
		<path class="st5" d="M253,440.9c0.5,0.4,0.9,0.6,1.4,0.6s0.7-0.2,0.7-0.5c0-0.4-0.5-0.5-1.1-0.7c-0.7-0.3-1.4-0.7-1.4-1.6
			c0-1,0.8-1.7,2.1-1.7c0.8,0,1.5,0.3,1.9,0.7l-0.7,1c-0.4-0.3-0.8-0.5-1.2-0.5s-0.6,0.2-0.6,0.4c0,0.4,0.5,0.5,1.1,0.7
			c0.7,0.3,1.5,0.6,1.5,1.6s-0.8,1.8-2.2,1.8c-0.7,0-1.5-0.3-2.1-0.8L253,440.9z"/>
		<path class="st5" d="M258.6,435.4c0-0.5,0.4-0.8,0.9-0.8s0.9,0.3,0.9,0.8s-0.4,0.8-0.9,0.8C259,436.2,258.6,435.9,258.6,435.4z
			 M258.7,437h1.6v5.5h-1.6V437z"/>
		<path class="st5" d="M263.3,442.3L263.3,442.3c-0.3-0.2-0.5-0.5-0.5-1c0-0.4,0.3-0.8,0.6-1l0,0c-0.4-0.3-0.7-0.8-0.7-1.4
			c0-1.3,1.1-2,2.3-2c0.3,0,0.6,0,0.8,0.1h2v1.2h-0.9c0.1,0.2,0.2,0.4,0.2,0.7c0,1.3-0.9,1.8-2.1,1.8c-0.2,0-0.4,0-0.7-0.1
			c-0.1,0.1-0.2,0.2-0.2,0.4c0,0.3,0.2,0.4,0.8,0.4h0.9c1.3,0,2.1,0.4,2.1,1.4c0,1.1-1.2,2-3,2c-1.3,0-2.3-0.4-2.3-1.4
			C262.5,443,262.8,442.6,263.3,442.3z M265,443.8c0.7,0,1.3-0.3,1.3-0.7c0-0.3-0.3-0.4-0.8-0.4h-0.6c-0.4,0-0.6,0-0.8-0.1
			c-0.2,0.2-0.3,0.3-0.3,0.5C263.8,443.6,264.3,443.8,265,443.8z M265.7,438.9c0-0.6-0.3-0.9-0.7-0.9c-0.4,0-0.7,0.3-0.7,0.9
			s0.3,0.9,0.7,0.9C265.3,439.8,265.7,439.5,265.7,438.9z"/>
		<path class="st5" d="M269.8,437h1.6v3.2c0,0.8,0.2,1,0.7,1c0.4,0,0.6-0.2,1-0.6V437h1.6v5.5h-1.3l-0.1-0.8l0,0
			c-0.5,0.5-1,0.9-1.7,0.9c-1.2,0-1.7-0.8-1.7-2.2V437H269.8z"/>
		<path class="st5" d="M280,439c0-0.5-0.3-0.8-0.9-0.8c-0.5,0-0.9,0.2-1.5,0.5l-0.6-1.1c0.7-0.4,1.5-0.7,2.3-0.7
			c1.4,0,2.2,0.8,2.2,2.5v3.1h-1.3l-0.1-0.6l0,0c-0.5,0.4-1,0.7-1.6,0.7c-1,0-1.6-0.7-1.6-1.7C277,439.8,277.9,439.2,280,439z
			 M279.1,441.4c0.4,0,0.6-0.2,0.9-0.5v-1c-1.2,0.2-1.5,0.5-1.5,0.9C278.5,441.2,278.8,441.4,279.1,441.4z"/>
		<path class="st5" d="M284.1,434.8h1.6v6.1c0,0.3,0.2,0.5,0.3,0.5c0.1,0,0.1,0,0.2,0l0.2,1.2c-0.2,0.1-0.5,0.1-0.8,0.1
			c-1.1,0-1.5-0.7-1.5-1.8L284.1,434.8L284.1,434.8z"/>
		<path class="st5" d="M26.8,452.9c1.6,0,2.3,1.1,2.3,2.6c0,0.3,0,0.6-0.1,0.7h-3.3c0.1,0.8,0.7,1.2,1.4,1.2c0.4,0,0.8-0.1,1.2-0.4
			l0.5,1c-0.6,0.4-1.3,0.6-1.9,0.6c-1.6,0-2.8-1.1-2.8-2.9C24.3,454,25.5,452.9,26.8,452.9z M27.8,455.2c0-0.6-0.3-1.1-0.9-1.1
			c-0.5,0-0.9,0.3-1.1,1.1H27.8z"/>
		<path class="st5" d="M31.6,456.9c0.5,0.4,0.9,0.6,1.4,0.6s0.7-0.2,0.7-0.5c0-0.4-0.6-0.5-1.1-0.7c-0.7-0.3-1.4-0.7-1.4-1.6
			c0-1,0.8-1.7,2.1-1.7c0.8,0,1.5,0.3,1.9,0.7l-0.7,1c-0.4-0.3-0.8-0.5-1.2-0.5s-0.6,0.2-0.6,0.4c0,0.4,0.5,0.5,1.1,0.7
			c0.7,0.3,1.5,0.6,1.5,1.6s-0.8,1.8-2.2,1.8c-0.7,0-1.5-0.3-2.1-0.8L31.6,456.9z"/>
		<path class="st5" d="M40.7,450.8h1.6v6.1c0,0.3,0.2,0.5,0.3,0.5s0.1,0,0.2,0l0.2,1.2c-0.2,0.1-0.5,0.1-0.8,0.1
			c-1.1,0-1.5-0.7-1.5-1.8V450.8z"/>
		<path class="st5" d="M47.9,455c0-0.5-0.3-0.8-0.9-0.8c-0.5,0-0.9,0.2-1.5,0.5l-0.6-1.1c0.7-0.4,1.5-0.7,2.3-0.7
			c1.4,0,2.2,0.8,2.2,2.5v3.1h-1.3l-0.1-0.6l0,0c-0.5,0.4-1,0.7-1.6,0.7c-1,0-1.6-0.7-1.6-1.7C44.8,455.8,45.7,455.2,47.9,455z
			 M46.9,457.4c0.4,0,0.6-0.2,0.9-0.5v-1c-1.2,0.2-1.5,0.5-1.5,0.9C46.3,457.2,46.6,457.4,46.9,457.4z"/>
		<path class="st5" d="M57.3,452.9c0.6,0,1,0.2,1.3,0.6l-0.1-0.8v-1.9h1.6v7.7h-1.3l-0.1-0.5l0,0c-0.4,0.4-0.9,0.7-1.5,0.7
			c-1.4,0-2.2-1.1-2.2-2.9S56.2,452.9,57.3,452.9z M57.7,457.3c0.4,0,0.6-0.1,0.9-0.5v-2.2c-0.3-0.3-0.6-0.4-0.9-0.4
			c-0.5,0-1,0.5-1,1.5C56.7,456.8,57.1,457.3,57.7,457.3z"/>
		<path class="st5" d="M62.6,451.4c0-0.5,0.4-0.8,0.9-0.8s0.9,0.3,0.9,0.8s-0.4,0.8-0.9,0.8C63,452.2,62.6,451.9,62.6,451.4z
			 M62.7,453h1.6v5.5h-1.6C62.7,458.5,62.7,453,62.7,453z"/>
		<path class="st5" d="M67.1,456.9c0.5,0.4,0.9,0.6,1.4,0.6s0.7-0.2,0.7-0.5c0-0.4-0.5-0.5-1.1-0.7c-0.7-0.3-1.4-0.7-1.4-1.6
			c0-1,0.8-1.7,2.1-1.7c0.8,0,1.5,0.3,1.9,0.7l-0.7,1c-0.4-0.3-0.8-0.5-1.2-0.5c-0.4,0-0.6,0.2-0.6,0.4c0,0.4,0.5,0.5,1.1,0.7
			c0.7,0.3,1.5,0.6,1.5,1.6s-0.8,1.8-2.2,1.8c-0.7,0-1.5-0.3-2.1-0.8L67.1,456.9z"/>
		<path class="st5" d="M73.1,454.3h-0.7v-1.2l0.8-0.1l0.2-1.5h1.3v1.5H76v1.3h-1.3v2.2c0,0.6,0.3,0.9,0.7,0.9c0.2,0,0.4-0.1,0.5-0.1
			l0.3,1.2c-0.3,0.1-0.7,0.2-1.2,0.2c-1.4,0-1.9-0.8-1.9-2.1V454.3z"/>
		<path class="st5" d="M78.2,453h1.3l0.1,1l0,0c0.4-0.7,1-1.1,1.6-1.1c0.3,0,0.5,0,0.6,0.1l-0.3,1.4c-0.2-0.1-0.4-0.1-0.6-0.1
			c-0.4,0-0.9,0.3-1.2,1v3.2h-1.6L78.2,453L78.2,453z"/>
		<path class="st5" d="M83.5,451.4c0-0.5,0.4-0.8,0.9-0.8c0.6,0,0.9,0.3,0.9,0.8s-0.4,0.8-0.9,0.8C83.9,452.2,83.5,451.9,83.5,451.4
			z M83.6,453h1.6v5.5h-1.6V453z"/>
		<path class="st5" d="M87.8,450.8h1.6v1.9v0.8c0.4-0.4,0.9-0.6,1.4-0.6c1.3,0,2.1,1.1,2.1,2.8c0,1.9-1.1,3-2.3,3
			c-0.5,0-1-0.2-1.4-0.7l0,0l-0.1,0.6h-1.3C87.8,458.6,87.8,450.8,87.8,450.8z M90.3,457.3c0.6,0,1-0.5,1-1.6c0-1-0.3-1.5-0.9-1.5
			c-0.3,0-0.6,0.2-0.9,0.5v2.2C89.7,457.2,90,457.3,90.3,457.3z"/>
		<path class="st5" d="M95.1,453h1.6v3.2c0,0.8,0.2,1,0.7,1c0.4,0,0.6-0.2,1-0.6V453h1.6v5.5h-1.3l-0.1-0.8l0,0
			c-0.5,0.5-1,0.9-1.7,0.9c-1.2,0-1.7-0.8-1.7-2.2L95.1,453L95.1,453z"/>
		<path class="st5" d="M105.1,452.9c0.7,0,1.2,0.3,1.6,0.6l-0.7,1c-0.3-0.2-0.5-0.3-0.8-0.3c-0.8,0-1.3,0.6-1.3,1.6s0.5,1.6,1.2,1.6
			c0.4,0,0.7-0.2,1-0.4l0.6,1c-0.5,0.5-1.2,0.7-1.8,0.7c-1.5,0-2.7-1-2.7-2.9S103.5,452.9,105.1,452.9z"/>
		<path class="st5" d="M108.6,451.4c0-0.5,0.4-0.8,0.9-0.8s0.9,0.3,0.9,0.8s-0.4,0.8-0.9,0.8C109,452.2,108.6,451.9,108.6,451.4z
			 M108.8,453h1.6v5.5h-1.6V453z"/>
		<path class="st5" d="M115.2,452.9c1.4,0,2.7,1,2.7,2.9s-1.3,2.9-2.7,2.9c-1.4,0-2.7-1-2.7-2.9S113.9,452.9,115.2,452.9z
			 M115.2,457.3c0.7,0,1-0.6,1-1.6s-0.3-1.6-1-1.6s-1,0.6-1,1.6S114.6,457.3,115.2,457.3z M115.5,452.2h-1.2l1-1.7h1.6L115.5,452.2z
			"/>
		<path class="st5" d="M120.1,453h1.3l0.1,0.7l0,0c0.5-0.4,1-0.8,1.7-0.8c1.2,0,1.7,0.8,1.7,2.2v3.4h-1.6v-3.2c0-0.8-0.2-1-0.7-1
			c-0.4,0-0.7,0.2-1,0.5v3.7H120L120.1,453L120.1,453z"/>
		<path class="st5" d="M132.9,452.9c0.6,0,1,0.2,1.3,0.6l-0.1-0.8v-1.9h1.6v7.7h-1.3l-0.1-0.5l0,0c-0.4,0.4-0.9,0.7-1.5,0.7
			c-1.4,0-2.2-1.1-2.2-2.9S131.7,452.9,132.9,452.9z M133.3,457.3c0.4,0,0.6-0.1,0.9-0.5v-2.2c-0.3-0.3-0.6-0.4-0.9-0.4
			c-0.5,0-1,0.5-1,1.5C132.3,456.8,132.6,457.3,133.3,457.3z"/>
		<path class="st5" d="M140.5,452.9c1.6,0,2.3,1.1,2.3,2.6c0,0.3,0,0.6-0.1,0.7h-3.3c0.1,0.8,0.7,1.2,1.4,1.2c0.4,0,0.8-0.1,1.2-0.4
			l0.5,1c-0.6,0.4-1.3,0.6-1.9,0.6c-1.6,0-2.8-1.1-2.8-2.9C138,454,139.2,452.9,140.5,452.9z M141.5,455.2c0-0.6-0.3-1.1-0.9-1.1
			c-0.5,0-0.9,0.3-1.1,1.1H141.5z"/>
		<path class="st5" d="M148.5,450.8h1.6v6.1c0,0.3,0.2,0.5,0.3,0.5s0.1,0,0.2,0l0.2,1.2c-0.2,0.1-0.5,0.1-0.8,0.1
			c-1.1,0-1.5-0.7-1.5-1.8V450.8z"/>
		<path class="st5" d="M155.6,455c0-0.5-0.3-0.8-0.9-0.8c-0.5,0-0.9,0.2-1.5,0.5l-0.6-1.1c0.7-0.4,1.5-0.7,2.3-0.7
			c1.4,0,2.2,0.8,2.2,2.5v3.1h-1.3l-0.1-0.6l0,0c-0.5,0.4-1,0.7-1.6,0.7c-1,0-1.6-0.7-1.6-1.7C152.5,455.8,153.4,455.2,155.6,455z
			 M154.7,457.4c0.4,0,0.6-0.2,0.9-0.5v-1c-1.2,0.2-1.5,0.5-1.5,0.9C154.1,457.2,154.3,457.4,154.7,457.4z"/>
		<path class="st5" d="M165.4,452.9c1.4,0,2.7,1,2.7,2.9s-1.3,2.9-2.7,2.9s-2.7-1-2.7-2.9S164,452.9,165.4,452.9z M165.4,457.3
			c0.7,0,1-0.6,1-1.6s-0.3-1.6-1-1.6s-1,0.6-1,1.6S164.8,457.3,165.4,457.3z"/>
		<path class="st5" d="M171.9,458.9v1.6h-1.6V453h1.3l0.1,0.5l0,0c0.4-0.4,1-0.7,1.6-0.7c1.3,0,2.1,1.1,2.1,2.8
			c0,1.9-1.1,2.9-2.3,2.9c-0.5,0-0.9-0.2-1.3-0.6L171.9,458.9z M172.8,457.3c0.6,0,1-0.5,1-1.6c0-1-0.3-1.5-0.9-1.5
			c-0.3,0-0.6,0.2-0.9,0.5v2.2C172.2,457.2,172.5,457.3,172.8,457.3z"/>
		<path class="st5" d="M180,452.9c1.4,0,2.7,1,2.7,2.9s-1.3,2.9-2.7,2.9s-2.7-1-2.7-2.9S178.7,452.9,180,452.9z M180,457.3
			c0.7,0,1-0.6,1-1.6s-0.3-1.6-1-1.6s-1,0.6-1,1.6S179.4,457.3,180,457.3z"/>
		<path class="st5" d="M184.9,453h1.3l0.1,1l0,0c0.4-0.7,1-1.1,1.6-1.1c0.3,0,0.5,0,0.6,0.1l-0.3,1.4c-0.2-0.1-0.4-0.1-0.6-0.1
			c-0.4,0-0.9,0.3-1.2,1v3.2h-1.6L184.9,453L184.9,453z"/>
		<path class="st5" d="M190.6,454.3h-0.7v-1.2l0.8-0.1l0.2-1.5h1.3v1.5h1.3v1.3h-1.3v2.2c0,0.6,0.3,0.9,0.7,0.9
			c0.2,0,0.4-0.1,0.5-0.1l0.3,1.2c-0.3,0.1-0.7,0.2-1.2,0.2c-1.4,0-1.9-0.8-1.9-2.1L190.6,454.3L190.6,454.3z"/>
		<path class="st5" d="M195.6,453h1.6v3.2c0,0.8,0.2,1,0.7,1c0.4,0,0.6-0.2,1-0.6V453h1.6v5.5h-1.3l-0.1-0.8l0,0
			c-0.5,0.5-1,0.9-1.7,0.9c-1.2,0-1.7-0.8-1.7-2.2V453H195.6z"/>
		<path class="st5" d="M203,453h1.3l0.1,0.7l0,0c0.5-0.4,1-0.8,1.7-0.8c1.2,0,1.7,0.8,1.7,2.2v3.4h-1.6v-3.2c0-0.8-0.2-1-0.7-1
			c-0.4,0-0.7,0.2-1,0.5v3.7H203V453z"/>
		<path class="st5" d="M210.3,451.4c0-0.5,0.4-0.8,0.9-0.8c0.6,0,0.9,0.3,0.9,0.8s-0.4,0.8-0.9,0.8
			C210.7,452.2,210.3,451.9,210.3,451.4z M210.4,453h1.6v5.5h-1.6V453z"/>
		<path class="st5" d="M216.5,452.9c0.6,0,1,0.2,1.3,0.6l-0.1-0.8v-1.9h1.6v7.7H218V458l0,0c-0.4,0.4-0.9,0.7-1.5,0.7
			c-1.4,0-2.2-1.1-2.2-2.9S215.4,452.9,216.5,452.9z M216.9,457.3c0.4,0,0.6-0.1,0.9-0.5v-2.2c-0.3-0.3-0.6-0.4-0.9-0.4
			c-0.5,0-1,0.5-1,1.5C215.9,456.8,216.3,457.3,216.9,457.3z"/>
		<path class="st5" d="M224.8,455c0-0.5-0.3-0.8-0.9-0.8c-0.5,0-0.9,0.2-1.5,0.5l-0.6-1.1c0.7-0.4,1.5-0.7,2.3-0.7
			c1.4,0,2.2,0.8,2.2,2.5v3.1H225l-0.1-0.6l0,0c-0.5,0.4-1,0.7-1.6,0.7c-1,0-1.6-0.7-1.6-1.7C221.8,455.8,222.7,455.2,224.8,455z
			 M223.9,457.4c0.4,0,0.6-0.2,0.9-0.5v-1c-1.2,0.2-1.5,0.5-1.5,0.9C223.3,457.2,223.6,457.4,223.9,457.4z"/>
		<path class="st5" d="M230.9,452.9c0.6,0,1,0.2,1.3,0.6l-0.1-0.8v-1.9h1.6v7.7h-1.3l-0.1-0.5l0,0c-0.4,0.4-0.9,0.7-1.5,0.7
			c-1.4,0-2.2-1.1-2.2-2.9S229.8,452.9,230.9,452.9z M231.3,457.3c0.4,0,0.6-0.1,0.9-0.5v-2.2c-0.3-0.3-0.6-0.4-0.9-0.4
			c-0.5,0-1,0.5-1,1.5C230.3,456.8,230.7,457.3,231.3,457.3z"/>
		<path class="st5" d="M241.7,452.9c0.6,0,1,0.2,1.3,0.6l-0.1-0.8v-1.9h1.6v7.7h-1.3l-0.1-0.5l0,0c-0.4,0.4-0.9,0.7-1.5,0.7
			c-1.4,0-2.2-1.1-2.2-2.9S240.6,452.9,241.7,452.9z M242.1,457.3c0.4,0,0.6-0.1,0.9-0.5v-2.2c-0.3-0.3-0.6-0.4-0.9-0.4
			c-0.5,0-1,0.5-1,1.5C241.1,456.8,241.5,457.3,242.1,457.3z"/>
		<path class="st5" d="M249.4,452.9c1.6,0,2.3,1.1,2.3,2.6c0,0.3,0,0.6-0.1,0.7h-3.3c0.1,0.8,0.7,1.2,1.4,1.2c0.4,0,0.8-0.1,1.2-0.4
			l0.5,1c-0.6,0.4-1.3,0.6-1.9,0.6c-1.6,0-2.8-1.1-2.8-2.9C246.8,454,248.1,452.9,249.4,452.9z M250.3,455.2c0-0.6-0.3-1.1-0.9-1.1
			c-0.5,0-0.9,0.3-1.1,1.1H250.3z"/>
		<path class="st5" d="M257.6,456.9c0.5,0.4,0.9,0.6,1.4,0.6s0.7-0.2,0.7-0.5c0-0.4-0.5-0.5-1.1-0.7c-0.7-0.3-1.4-0.7-1.4-1.6
			c0-1,0.8-1.7,2.1-1.7c0.8,0,1.5,0.3,1.9,0.7l-0.7,1c-0.4-0.3-0.8-0.5-1.2-0.5c-0.4,0-0.6,0.2-0.6,0.4c0,0.4,0.5,0.5,1.1,0.7
			c0.7,0.3,1.5,0.6,1.5,1.6s-0.8,1.8-2.2,1.8c-0.7,0-1.5-0.3-2.1-0.8L257.6,456.9z"/>
		<path class="st5" d="M266.2,455c0-0.5-0.3-0.8-0.9-0.8c-0.5,0-0.9,0.2-1.5,0.5l-0.6-1.1c0.7-0.4,1.5-0.7,2.3-0.7
			c1.4,0,2.2,0.8,2.2,2.5v3.1h-1.3l-0.1-0.6l0,0c-0.5,0.4-1,0.7-1.6,0.7c-1,0-1.6-0.7-1.6-1.7C263.1,455.8,264,455.2,266.2,455z
			 M265.3,457.4c0.4,0,0.6-0.2,0.9-0.5v-1c-1.2,0.2-1.5,0.5-1.5,0.9C264.6,457.2,264.9,457.4,265.3,457.4z"/>
		<path class="st5" d="M270.3,450.8h1.6v6.1c0,0.3,0.2,0.5,0.3,0.5c0.1,0,0.1,0,0.2,0l0.2,1.2c-0.2,0.1-0.5,0.1-0.8,0.1
			c-1.1,0-1.5-0.7-1.5-1.8L270.3,450.8L270.3,450.8z"/>
		<path class="st5" d="M274.5,453h1.6v3.2c0,0.8,0.2,1,0.7,1c0.4,0,0.6-0.2,1-0.6V453h1.6v5.5H278l-0.1-0.8l0,0
			c-0.5,0.5-1,0.9-1.7,0.9c-1.2,0-1.7-0.8-1.7-2.2L274.5,453L274.5,453z"/>
		<path class="st5" d="M283.8,452.9c0.6,0,1,0.2,1.3,0.6l-0.1-0.8v-1.9h1.6v7.7h-1.3l-0.1-0.5l0,0c-0.4,0.4-0.9,0.7-1.5,0.7
			c-1.4,0-2.2-1.1-2.2-2.9S282.7,452.9,283.8,452.9z M284.2,457.3c0.4,0,0.6-0.1,0.9-0.5v-2.2c-0.3-0.3-0.6-0.4-0.9-0.4
			c-0.5,0-1,0.5-1,1.5C283.2,456.8,283.6,457.3,284.2,457.3z"/>
		<path class="st5" d="M290.2,456.6c0.6,0,1,0.4,1,1s-0.4,1-1,1s-1-0.4-1-1S289.6,456.6,290.2,456.6z"/>
	</g>
	<g>
		<path class="st4" d="M114.5,107.8c1,0,1.8,0.5,2.3,1l-1,1.1c-0.4-0.4-0.8-0.6-1.3-0.6c-1.1,0-1.9,0.9-1.9,2.5s0.7,2.5,1.9,2.5
			c0.6,0,1.1-0.3,1.5-0.7l1,1.1c-0.6,0.8-1.5,1.2-2.5,1.2c-2,0-3.7-1.4-3.7-4C110.7,109.3,112.5,107.8,114.5,107.8z"/>
		<path class="st4" d="M118.5,111.8c0-2.6,1.4-4,3.5-4s3.6,1.5,3.6,4c0,2.6-1.4,4.1-3.6,4.1C119.9,115.9,118.5,114.3,118.5,111.8z
			 M123.8,111.8c0-1.6-0.7-2.5-1.7-2.5s-1.7,0.9-1.7,2.5s0.7,2.6,1.7,2.6S123.8,113.3,123.8,111.8z"/>
		<path class="st4" d="M128.3,107.9h2.7c1.6,0,2.9,0.4,2.9,1.9c0,0.7-0.4,1.5-1.3,1.7l0,0c1.1,0.2,1.7,0.8,1.7,1.8
			c0,1.6-1.3,2.3-3,2.3h-2.9L128.3,107.9L128.3,107.9z M130.9,111.1c0.9,0,1.2-0.4,1.2-1s-0.4-0.8-1.2-0.8H130v1.8H130.9z
			 M131,114.3c1,0,1.5-0.4,1.5-1.1s-0.5-1-1.5-1h-1v2.1H131z"/>
		<path class="st4" d="M136.7,107.9h4.9v1.5h-3.1v1.6h2.7v1.5h-2.7v1.8h3.2v1.5h-5L136.7,107.9L136.7,107.9z"/>
		<path class="st4" d="M148.7,115.7l-1.5-2.8h-1v2.8h-1.8v-7.8h2.8c1.7,0,3,0.6,3,2.4c0,1.2-0.6,1.9-1.4,2.3l1.8,3.1H148.7z
			 M146.3,111.5h0.9c0.9,0,1.4-0.4,1.4-1.2s-0.5-1-1.4-1h-0.9V111.5z"/>
		<path class="st4" d="M154.4,109.4h-2.1v-1.5h6.1v1.5h-2.1v6.3h-1.8L154.4,109.4L154.4,109.4z"/>
		<path class="st4" d="M160.7,107.9h1.8v4.4c0,1.5,0.5,2.1,1.4,2.1s1.4-0.5,1.4-2.1v-4.4h1.7v4.2c0,2.6-1.1,3.8-3.1,3.8
			s-3.1-1.1-3.1-3.8L160.7,107.9L160.7,107.9z"/>
		<path class="st4" d="M174.1,115.7l-1.5-2.8h-1v2.8h-1.8v-7.8h2.8c1.7,0,3,0.6,3,2.4c0,1.2-0.6,1.9-1.4,2.3l1.8,3.1H174.1z
			 M171.7,111.5h0.9c0.9,0,1.4-0.4,1.4-1.2s-0.5-1-1.4-1h-0.9V111.5z"/>
		<path class="st4" d="M182.1,113.9h-2.4l-0.5,1.9h-1.8l2.4-7.8h2.1l2.4,7.8h-1.9L182.1,113.9z M181.7,112.5l-0.2-0.7
			c-0.2-0.8-0.4-1.7-0.6-2.5l0,0c-0.2,0.8-0.4,1.7-0.6,2.5l-0.2,0.7H181.7z"/>
		<path d="M59.7,124.5h2.2c1.6,0,2.7,0.5,2.7,2.1c0,1.5-1.1,2.2-2.7,2.2h-1.3v2.9h-0.9C59.7,131.7,59.7,124.5,59.7,124.5z
			 M61.8,128.1c1.3,0,1.9-0.5,1.9-1.5s-0.6-1.4-1.9-1.4h-1.2v2.9H61.8z"/>
		<path d="M68.9,126.2c1.3,0,2.5,1,2.5,2.8s-1.2,2.8-2.5,2.8s-2.5-1-2.5-2.8C66.4,127.3,67.6,126.2,68.9,126.2z M68.9,131.1
			c0.9,0,1.5-0.8,1.5-2s-0.6-2.1-1.5-2.1s-1.5,0.8-1.5,2.1C67.3,130.3,68,131.1,68.9,131.1z"/>
		<path d="M73.9,126.4h0.7l0.1,1l0,0c0.4-0.7,0.9-1.1,1.5-1.1c0.2,0,0.4,0,0.6,0.1l-0.2,0.8c-0.2-0.1-0.3-0.1-0.5-0.1
			c-0.5,0-1,0.3-1.4,1.2v3.4h-0.9v-5.3H73.9z"/>
		<path d="M80.8,126.2c0.7,0,1.2,0.3,1.6,0.6l-0.5,0.6c-0.3-0.3-0.6-0.5-1.1-0.5c-1,0-1.7,0.8-1.7,2.1c0,1.2,0.7,2,1.7,2
			c0.5,0,0.9-0.3,1.3-0.5l0.4,0.6c-0.5,0.4-1.1,0.7-1.7,0.7c-1.4,0-2.5-1-2.5-2.8C78.3,127.3,79.5,126.2,80.8,126.2z"/>
		<path d="M86.5,126.2c1.4,0,2.1,1,2.1,2.5c0,0.2,0,0.4,0,0.5H85c0.1,1.2,0.8,1.9,1.8,1.9c0.5,0,0.9-0.2,1.3-0.4l0.3,0.6
			c-0.5,0.3-1,0.5-1.8,0.5c-1.4,0-2.6-1-2.6-2.8C84.1,127.3,85.3,126.2,86.5,126.2z M87.9,128.6c0-1.1-0.5-1.7-1.3-1.7
			c-0.7,0-1.4,0.6-1.5,1.7H87.9z"/>
		<path d="M91.1,126.4h0.7l0.1,0.8l0,0c0.5-0.5,1.1-0.9,1.8-0.9c1.1,0,1.6,0.7,1.6,2.1v3.4h-0.9v-3.3c0-1-0.3-1.4-1-1.4
			c-0.5,0-0.9,0.3-1.5,0.8v3.9H91v-5.4H91.1z"/>
		<path d="M98.4,127.1h-0.8v-0.7l0.8-0.1l0.1-1.5h0.8v1.5h1.4v0.7h-1.4v3c0,0.7,0.2,1,0.8,1c0.2,0,0.4-0.1,0.6-0.1l0.2,0.7
			c-0.3,0.1-0.7,0.2-1,0.2c-1.1,0-1.5-0.7-1.5-1.8V127.1z"/>
		<path d="M105.9,128.3c0-0.7-0.2-1.3-1.1-1.3c-0.6,0-1.2,0.3-1.6,0.6l-0.4-0.6c0.5-0.3,1.2-0.7,2.1-0.7c1.3,0,1.9,0.9,1.9,2.2v3.3
			H106l-0.1-0.6l0,0c-0.5,0.4-1.1,0.8-1.8,0.8c-0.9,0-1.6-0.6-1.6-1.5C102.6,129.2,103.6,128.6,105.9,128.3z M104.4,131.1
			c0.5,0,0.9-0.3,1.5-0.7v-1.5c-1.8,0.2-2.4,0.7-2.4,1.3C103.5,130.9,103.9,131.1,104.4,131.1z"/>
		<path d="M109.6,126.4h0.9v6c0,1.1-0.4,1.8-1.5,1.8c-0.3,0-0.6-0.1-0.8-0.1l0.2-0.7c0.1,0,0.3,0.1,0.5,0.1c0.5,0,0.7-0.4,0.7-1
			C109.6,132.5,109.6,126.4,109.6,126.4z M109.4,124.7c0-0.4,0.3-0.6,0.6-0.6c0.3,0,0.6,0.2,0.6,0.6c0,0.3-0.3,0.6-0.6,0.6
			C109.7,125.3,109.4,125,109.4,124.7z"/>
		<path d="M115.4,126.2c1.4,0,2.1,1,2.1,2.5c0,0.2,0,0.4,0,0.5h-3.6c0.1,1.2,0.8,1.9,1.8,1.9c0.5,0,0.9-0.2,1.3-0.4l0.3,0.6
			c-0.5,0.3-1,0.5-1.8,0.5c-1.4,0-2.6-1-2.6-2.8C113,127.3,114.2,126.2,115.4,126.2z M116.7,128.6c0-1.1-0.5-1.7-1.3-1.7
			c-0.7,0-1.4,0.6-1.5,1.7H116.7z"/>
		<path d="M125.3,126.2c1.4,0,2.1,1,2.1,2.5c0,0.2,0,0.4,0,0.5h-3.6c0.1,1.2,0.8,1.9,1.8,1.9c0.5,0,0.9-0.2,1.3-0.4l0.3,0.6
			c-0.5,0.3-1,0.5-1.8,0.5c-1.4,0-2.6-1-2.6-2.8C122.9,127.3,124,126.2,125.3,126.2z M126.6,128.6c0-1.1-0.5-1.7-1.3-1.7
			c-0.7,0-1.4,0.6-1.5,1.7H126.6z"/>
		<path d="M129.8,126.4h0.7l0.1,0.8l0,0c0.5-0.5,1.1-0.9,1.8-0.9c1.1,0,1.6,0.7,1.6,2.1v3.4h-0.9v-3.3c0-1-0.3-1.4-1-1.4
			c-0.5,0-0.9,0.3-1.5,0.8v3.9h-0.9L129.8,126.4L129.8,126.4z"/>
		<path d="M142.2,126.2c0.6,0,1,0.2,1.5,0.6l0,0l0.1-0.5h0.7v7.6h-0.9V132v-0.9c-0.4,0.4-1,0.7-1.6,0.7c-1.3,0-2.2-1-2.2-2.8
			C139.9,127.3,141,126.2,142.2,126.2z M142.3,131.1c0.5,0,0.9-0.2,1.4-0.7v-2.8c-0.5-0.4-0.9-0.6-1.3-0.6c-0.9,0-1.5,0.8-1.5,2
			C140.8,130.3,141.3,131.1,142.3,131.1z"/>
		<path d="M147.3,126.4h0.9v3.3c0,1,0.3,1.4,1,1.4c0.6,0,0.9-0.3,1.4-0.9v-3.8h0.9v5.3h-0.7l-0.1-0.8l0,0c-0.5,0.6-1,1-1.8,1
			c-1.1,0-1.6-0.7-1.6-2.1L147.3,126.4L147.3,126.4z"/>
		<path d="M156.5,126.2c1.4,0,2.1,1,2.1,2.5c0,0.2,0,0.4,0,0.5H155c0.1,1.2,0.8,1.9,1.8,1.9c0.5,0,0.9-0.2,1.3-0.4l0.3,0.6
			c-0.5,0.3-1,0.5-1.8,0.5c-1.4,0-2.6-1-2.6-2.8C154.1,127.3,155.3,126.2,156.5,126.2z M157.8,128.6c0-1.1-0.5-1.7-1.3-1.7
			c-0.7,0-1.4,0.6-1.5,1.7H157.8z"/>
		<path d="M164.4,123.9h0.9v6.8c0,0.3,0.1,0.4,0.3,0.4c0.1,0,0.1,0,0.2,0l0.1,0.7c-0.1,0.1-0.3,0.1-0.5,0.1c-0.7,0-1-0.4-1-1.2
			V123.9z"/>
		<path d="M170.4,126.2c1.3,0,2.5,1,2.5,2.8s-1.2,2.8-2.5,2.8s-2.5-1-2.5-2.8C167.9,127.3,169,126.2,170.4,126.2z M170.4,131.1
			c0.9,0,1.5-0.8,1.5-2s-0.6-2.1-1.5-2.1s-1.5,0.8-1.5,2.1C168.8,130.3,169.4,131.1,170.4,131.1z"/>
		<path d="M175.2,130.5c0.5,0.4,0.9,0.6,1.6,0.6c0.7,0,1.1-0.4,1.1-0.8c0-0.5-0.6-0.8-1.2-1c-0.8-0.3-1.6-0.6-1.6-1.5
			c0-0.9,0.7-1.5,1.8-1.5c0.7,0,1.3,0.3,1.7,0.6l-0.4,0.6c-0.4-0.3-0.7-0.5-1.2-0.5c-0.7,0-1,0.4-1,0.8c0,0.5,0.6,0.7,1.2,0.9
			c0.8,0.3,1.6,0.6,1.6,1.6c0,0.9-0.7,1.6-2,1.6c-0.8,0-1.5-0.3-2-0.7L175.2,130.5z"/>
		<path d="M184.2,130.5c0.5,0.4,0.9,0.6,1.6,0.6c0.7,0,1.1-0.4,1.1-0.8c0-0.5-0.6-0.8-1.2-1c-0.8-0.3-1.6-0.6-1.6-1.5
			c0-0.9,0.7-1.5,1.8-1.5c0.7,0,1.3,0.3,1.7,0.6l-0.4,0.6c-0.4-0.3-0.7-0.5-1.2-0.5c-0.7,0-1,0.4-1,0.8c0,0.5,0.6,0.7,1.2,0.9
			c0.8,0.3,1.6,0.6,1.6,1.6c0,0.9-0.7,1.6-2,1.6c-0.8,0-1.5-0.3-2-0.7L184.2,130.5z"/>
		<path d="M192.1,126.2c1.4,0,2.1,1,2.1,2.5c0,0.2,0,0.4,0,0.5h-3.6c0.1,1.2,0.8,1.9,1.8,1.9c0.5,0,0.9-0.2,1.3-0.4l0.3,0.6
			c-0.5,0.3-1,0.5-1.8,0.5c-1.4,0-2.6-1-2.6-2.8C189.7,127.3,190.9,126.2,192.1,126.2z M193.4,128.6c0-1.1-0.5-1.7-1.3-1.7
			c-0.7,0-1.4,0.6-1.5,1.7H193.4z"/>
		<path d="M196.6,126.4h0.7l0.1,1l0,0c0.4-0.7,0.9-1.1,1.5-1.1c0.2,0,0.4,0,0.6,0.1l-0.2,0.8c-0.2-0.1-0.3-0.1-0.5-0.1
			c-0.5,0-1,0.3-1.4,1.2v3.4h-0.9L196.6,126.4L196.6,126.4z"/>
		<path d="M201,126.4h0.9l1,3c0.2,0.5,0.3,1.1,0.5,1.6l0,0c0.2-0.5,0.3-1,0.5-1.6l1-3h0.9l-1.9,5.3h-1.1L201,126.4z"/>
		<path d="M207.8,124.7c0-0.4,0.3-0.6,0.6-0.6c0.4,0,0.6,0.2,0.6,0.6c0,0.3-0.3,0.6-0.6,0.6C208.1,125.3,207.8,125,207.8,124.7z
			 M208,126.4h0.9v5.3H208V126.4z"/>
		<path d="M214,126.2c0.7,0,1.2,0.3,1.6,0.6l-0.5,0.6c-0.3-0.3-0.6-0.5-1.1-0.5c-1,0-1.7,0.8-1.7,2.1c0,1.2,0.7,2,1.7,2
			c0.5,0,0.9-0.3,1.3-0.5l0.4,0.6c-0.5,0.4-1.1,0.7-1.7,0.7c-1.4,0-2.5-1-2.5-2.8C211.4,127.3,212.6,126.2,214,126.2z"/>
		<path d="M217.8,124.7c0-0.4,0.3-0.6,0.6-0.6c0.4,0,0.6,0.2,0.6,0.6c0,0.3-0.3,0.6-0.6,0.6C218,125.3,217.8,125,217.8,124.7z
			 M217.9,126.4h0.9v5.3h-0.9V126.4z"/>
		<path d="M223.8,126.2c1.3,0,2.5,1,2.5,2.8s-1.2,2.8-2.5,2.8s-2.5-1-2.5-2.8C221.3,127.3,222.5,126.2,223.8,126.2z M223.8,131.1
			c0.9,0,1.5-0.8,1.5-2s-0.6-2.1-1.5-2.1s-1.5,0.8-1.5,2.1C222.3,130.3,222.9,131.1,223.8,131.1z"/>
		<path d="M228.6,130.5c0.5,0.4,0.9,0.6,1.6,0.6c0.7,0,1.1-0.4,1.1-0.8c0-0.5-0.6-0.8-1.2-1c-0.8-0.3-1.6-0.6-1.6-1.5
			c0-0.9,0.7-1.5,1.8-1.5c0.7,0,1.3,0.3,1.7,0.6l-0.4,0.6c-0.4-0.3-0.7-0.5-1.2-0.5c-0.7,0-1,0.4-1,0.8c0,0.5,0.6,0.7,1.2,0.9
			c0.8,0.3,1.6,0.6,1.6,1.6c0,0.9-0.7,1.6-2,1.6c-0.8,0-1.5-0.3-2-0.7L228.6,130.5z"/>
		<path d="M38.5,142.2c0.6,0,1,0.2,1.5,0.6v-0.9v-2.1h0.9v7.8h-0.7l-0.1-0.6l0,0c-0.4,0.4-1,0.8-1.6,0.8c-1.3,0-2.2-1-2.2-2.8
			C36.2,143.3,37.3,142.2,38.5,142.2z M38.6,147.1c0.5,0,0.9-0.2,1.4-0.7v-2.8c-0.5-0.4-0.9-0.6-1.3-0.6c-0.9,0-1.5,0.8-1.5,2
			C37.1,146.3,37.6,147.1,38.6,147.1z"/>
		<path d="M45.8,142.2c1.4,0,2.1,1,2.1,2.5c0,0.2,0,0.4,0,0.5h-3.6c0.1,1.2,0.8,1.9,1.8,1.9c0.5,0,0.9-0.2,1.3-0.4l0.3,0.6
			c-0.5,0.3-1,0.5-1.8,0.5c-1.4,0-2.6-1-2.6-2.8C43.4,143.3,44.5,142.2,45.8,142.2z M47.1,144.6c0-1.1-0.5-1.7-1.3-1.7
			c-0.7,0-1.4,0.6-1.5,1.7H47.1z"/>
		<path d="M53.5,146.5c0.5,0.4,0.9,0.6,1.6,0.6c0.7,0,1.1-0.4,1.1-0.8c0-0.5-0.6-0.8-1.2-1c-0.8-0.3-1.6-0.6-1.6-1.5
			s0.7-1.5,1.8-1.5c0.7,0,1.3,0.3,1.7,0.6l-0.4,0.6c-0.4-0.3-0.7-0.5-1.2-0.5c-0.7,0-1,0.4-1,0.8c0,0.5,0.6,0.7,1.2,0.9
			c0.8,0.3,1.6,0.6,1.6,1.6c0,0.9-0.7,1.6-2,1.6c-0.8,0-1.5-0.3-2-0.7L53.5,146.5z"/>
		<path d="M62.4,144.3c0-0.7-0.2-1.3-1.1-1.3c-0.6,0-1.2,0.3-1.6,0.6l-0.4-0.6c0.5-0.3,1.2-0.7,2.1-0.7c1.3,0,1.9,0.9,1.9,2.2v3.3
			h-0.7l-0.1-0.6l0,0c-0.5,0.4-1.1,0.8-1.8,0.8c-0.9,0-1.6-0.6-1.6-1.5C59.1,145.2,60.1,144.6,62.4,144.3z M60.9,147.1
			c0.5,0,0.9-0.3,1.5-0.7v-1.5c-1.8,0.2-2.4,0.7-2.4,1.3C60,146.9,60.4,147.1,60.9,147.1z"/>
		<path d="M66.1,139.9H67v6.8c0,0.3,0.1,0.4,0.3,0.4c0.1,0,0.1,0,0.2,0l0.1,0.7c-0.1,0.1-0.3,0.1-0.5,0.1c-0.7,0-1-0.4-1-1.2V139.9z
			"/>
		<path d="M69.9,142.4h0.9v3.3c0,1,0.3,1.4,1,1.4c0.6,0,0.9-0.3,1.4-0.9v-3.8h0.9v5.3h-0.7l-0.1-0.8l0,0c-0.5,0.6-1,1-1.8,1
			c-1.1,0-1.6-0.7-1.6-2.1C69.9,145.8,69.9,142.4,69.9,142.4z"/>
		<path d="M79,142.2c0.6,0,1,0.2,1.5,0.6v-0.9v-2.1h0.9v7.8h-0.7l-0.1-0.6l0,0c-0.4,0.4-1,0.8-1.6,0.8c-1.3,0-2.2-1-2.2-2.8
			C76.7,143.3,77.8,142.2,79,142.2z M79.1,147.1c0.5,0,0.9-0.2,1.4-0.7v-2.8c-0.5-0.4-0.9-0.6-1.3-0.6c-0.9,0-1.5,0.8-1.5,2
			C77.6,146.3,78.2,147.1,79.1,147.1z"/>
		<path d="M87.6,142.4h0.7l0.1,0.8l0,0c0.5-0.5,1-0.9,1.7-0.9c0.8,0,1.3,0.4,1.5,1c0.6-0.6,1.1-1,1.8-1c1.1,0,1.6,0.7,1.6,2.1v3.4
			h-0.9v-3.3c0-1-0.3-1.4-1-1.4c-0.4,0-0.8,0.3-1.3,0.8v3.9h-0.9v-3.3c0-1-0.3-1.4-1-1.4c-0.4,0-0.8,0.3-1.3,0.8v3.9h-0.9
			L87.6,142.4L87.6,142.4z"/>
		<path d="M100.8,144.3c0-0.7-0.2-1.3-1.1-1.3c-0.6,0-1.2,0.3-1.6,0.6l-0.4-0.6c0.5-0.3,1.2-0.7,2.1-0.7c1.3,0,1.9,0.9,1.9,2.2v3.3
			H101l-0.1-0.6l0,0c-0.5,0.4-1.1,0.8-1.8,0.8c-0.9,0-1.6-0.6-1.6-1.5C97.5,145.2,98.6,144.6,100.8,144.3z M99.4,147.1
			c0.5,0,0.9-0.3,1.5-0.7v-1.5c-1.8,0.2-2.4,0.7-2.4,1.3C98.4,146.9,98.8,147.1,99.4,147.1z"/>
		<path d="M104.7,143.1h-0.8v-0.7l0.8-0.1l0.1-1.5h0.8v1.5h1.4v0.7h-1.4v3c0,0.7,0.2,1,0.8,1c0.2,0,0.4-0.1,0.6-0.1l0.2,0.7
			c-0.3,0.1-0.7,0.2-1,0.2c-1.1,0-1.5-0.7-1.5-1.8V143.1z"/>
		<path d="M111.3,142.2c1.4,0,2.1,1,2.1,2.5c0,0.2,0,0.4,0,0.5h-3.6c0.1,1.2,0.8,1.9,1.8,1.9c0.5,0,0.9-0.2,1.3-0.4l0.3,0.6
			c-0.5,0.3-1,0.5-1.8,0.5c-1.4,0-2.6-1-2.6-2.8C108.9,143.3,110,142.2,111.3,142.2z M112.6,144.6c0-1.1-0.5-1.7-1.3-1.7
			c-0.7,0-1.4,0.6-1.5,1.7H112.6z"/>
		<path d="M115.8,142.4h0.7l0.1,1l0,0c0.4-0.7,0.9-1.1,1.5-1.1c0.2,0,0.4,0,0.6,0.1l-0.2,0.8c-0.2-0.1-0.3-0.1-0.5-0.1
			c-0.5,0-1,0.3-1.4,1.2v3.4h-0.9v-5.3H115.8z"/>
		<path d="M120.7,142.4h0.7l0.1,0.8l0,0c0.5-0.5,1.1-0.9,1.8-0.9c1.1,0,1.6,0.7,1.6,2.1v3.4H124v-3.3c0-1-0.3-1.4-1-1.4
			c-0.6,0-0.9,0.3-1.5,0.8v3.9h-0.9v-5.4H120.7z"/>
		<path d="M130.9,144.3c0-0.7-0.2-1.3-1.1-1.3c-0.6,0-1.2,0.3-1.6,0.6l-0.4-0.6c0.5-0.3,1.2-0.7,2.1-0.7c1.3,0,1.9,0.9,1.9,2.2v3.3
			H131l-0.1-0.6l0,0c-0.5,0.4-1.1,0.8-1.8,0.8c-0.9,0-1.6-0.6-1.6-1.5C127.6,145.2,128.6,144.6,130.9,144.3z M129.4,147.1
			c0.5,0,0.9-0.3,1.5-0.7v-1.5c-1.8,0.2-2.4,0.7-2.4,1.3C128.5,146.9,128.9,147.1,129.4,147.1z"/>
		<path d="M137.9,149.3c0.6,0,1-0.5,1.2-1.1l0.1-0.4l-2.1-5.4h0.9l1.1,3c0.2,0.5,0.4,1,0.5,1.5l0,0c0.2-0.5,0.3-1,0.5-1.5l1-3h0.9
			l-2,5.8c-0.4,1.1-0.9,1.9-2,1.9c-0.2,0-0.5,0-0.6-0.1l0.2-0.7C137.6,149.2,137.8,149.3,137.9,149.3z"/>
		<path d="M147.5,142.4h0.7l0.1,1l0,0c0.4-0.7,0.9-1.1,1.5-1.1c0.2,0,0.4,0,0.6,0.1l-0.2,0.8c-0.2-0.1-0.3-0.1-0.5-0.1
			c-0.5,0-1,0.3-1.4,1.2v3.4h-0.9L147.5,142.4L147.5,142.4z"/>
		<path d="M154.3,142.2c1.4,0,2.1,1,2.1,2.5c0,0.2,0,0.4,0,0.5h-3.6c0.1,1.2,0.8,1.9,1.8,1.9c0.5,0,0.9-0.2,1.3-0.4l0.3,0.6
			c-0.5,0.3-1,0.5-1.8,0.5c-1.4,0-2.6-1-2.6-2.8C151.9,143.3,153,142.2,154.3,142.2z M155.6,144.6c0-1.1-0.5-1.7-1.3-1.7
			c-0.7,0-1.4,0.6-1.5,1.7H155.6z"/>
		<path d="M159.7,148.2v1.8h-0.9v-7.6h0.7l0.1,0.6l0,0c0.5-0.4,1.1-0.7,1.7-0.7c1.4,0,2.1,1.1,2.1,2.7c0,1.8-1.1,2.9-2.3,2.9
			c-0.5,0-1-0.2-1.5-0.6L159.7,148.2z M161,147.1c0.9,0,1.5-0.8,1.5-2.1c0-1.2-0.4-2-1.4-2c-0.5,0-0.9,0.3-1.4,0.7v2.8
			C160.2,146.9,160.7,147.1,161,147.1z"/>
		<path d="M166,142.4h0.7l0.1,1l0,0c0.4-0.7,0.9-1.1,1.5-1.1c0.2,0,0.4,0,0.6,0.1l-0.2,0.8c-0.2-0.1-0.3-0.1-0.5-0.1
			c-0.5,0-1,0.3-1.4,1.2v3.4H166V142.4z"/>
		<path d="M172.9,142.2c1.3,0,2.5,1,2.5,2.8s-1.2,2.8-2.5,2.8s-2.5-1-2.5-2.8C170.4,143.3,171.6,142.2,172.9,142.2z M172.9,147.1
			c0.9,0,1.5-0.8,1.5-2s-0.6-2.1-1.5-2.1s-1.5,0.8-1.5,2.1C171.4,146.3,172,147.1,172.9,147.1z"/>
		<path d="M179.8,142.2c0.6,0,1,0.2,1.5,0.6v-0.9v-2.1h0.9v7.8h-0.7l-0.1-0.6l0,0c-0.4,0.4-1,0.8-1.6,0.8c-1.3,0-2.2-1-2.2-2.8
			C177.5,143.3,178.6,142.2,179.8,142.2z M179.9,147.1c0.5,0,0.9-0.2,1.4-0.7v-2.8c-0.5-0.4-0.9-0.6-1.3-0.6c-0.9,0-1.5,0.8-1.5,2
			C178.4,146.3,179,147.1,179.9,147.1z"/>
		<path d="M185,142.4h0.9v3.3c0,1,0.3,1.4,1,1.4c0.5,0,0.9-0.3,1.4-0.9v-3.8h0.9v5.3h-0.7l-0.1-0.8l0,0c-0.5,0.6-1,1-1.8,1
			c-1.1,0-1.6-0.7-1.6-2.1L185,142.4L185,142.4z"/>
		<path d="M194.4,142.2c0.7,0,1.2,0.3,1.6,0.6l-0.5,0.6c-0.3-0.3-0.6-0.5-1.1-0.5c-1,0-1.7,0.8-1.7,2.1c0,1.2,0.7,2,1.6,2
			c0.5,0,0.9-0.3,1.3-0.5l0.4,0.6c-0.5,0.4-1.1,0.7-1.7,0.7c-1.4,0-2.5-1-2.5-2.8C191.8,143.3,193,142.2,194.4,142.2z"/>
		<path d="M198.4,143.1h-0.8v-0.7l0.8-0.1l0.1-1.5h0.8v1.5h1.4v0.7h-1.4v3c0,0.7,0.2,1,0.8,1c0.2,0,0.4-0.1,0.6-0.1l0.2,0.7
			c-0.3,0.1-0.7,0.2-1,0.2c-1.1,0-1.5-0.7-1.5-1.8L198.4,143.1L198.4,143.1z"/>
		<path d="M202.9,140.7c0-0.4,0.3-0.6,0.6-0.6c0.4,0,0.6,0.2,0.6,0.6c0,0.3-0.3,0.6-0.6,0.6S202.9,141,202.9,140.7z M203.1,142.4
			h0.9v5.3h-0.9V142.4z"/>
		<path d="M206.1,142.4h0.9l1,3c0.2,0.5,0.3,1.1,0.5,1.6l0,0c0.2-0.5,0.3-1,0.5-1.6l1-3h0.9l-1.9,5.3h-1.1L206.1,142.4z"/>
		<path d="M216,144.3c0-0.7-0.2-1.3-1.1-1.3c-0.6,0-1.2,0.3-1.6,0.6l-0.4-0.6c0.5-0.3,1.2-0.7,2.1-0.7c1.3,0,1.9,0.9,1.9,2.2v3.3
			h-0.7l-0.1-0.6l0,0c-0.5,0.4-1.1,0.8-1.8,0.8c-0.9,0-1.6-0.6-1.6-1.5C212.7,145.2,213.7,144.6,216,144.3z M214.5,147.1
			c0.5,0,0.9-0.3,1.5-0.7v-1.5c-1.8,0.2-2.4,0.7-2.4,1.3C213.6,146.9,214,147.1,214.5,147.1z"/>
		<path d="M223,139.9h0.9v6.8c0,0.3,0.1,0.4,0.3,0.4c0.1,0,0.1,0,0.2,0l0.1,0.7c-0.1,0.1-0.3,0.1-0.5,0.1c-0.7,0-1-0.4-1-1.2V139.9z
			"/>
		<path d="M226.9,139.9h0.9v6.8c0,0.3,0.1,0.4,0.3,0.4c0.1,0,0.1,0,0.2,0l0.1,0.7c-0.1,0.1-0.3,0.1-0.5,0.1c-0.7,0-1-0.4-1-1.2
			V139.9z"/>
		<path d="M232.8,142.2c1.4,0,2.1,1,2.1,2.5c0,0.2,0,0.4,0,0.5h-3.6c0.1,1.2,0.8,1.9,1.8,1.9c0.5,0,0.9-0.2,1.3-0.4l0.3,0.6
			c-0.5,0.3-1,0.5-1.8,0.5c-1.4,0-2.6-1-2.6-2.8C230.4,143.3,231.6,142.2,232.8,142.2z M234.1,144.6c0-1.1-0.5-1.7-1.3-1.7
			c-0.7,0-1.4,0.6-1.5,1.7H234.1z"/>
		<path d="M237.6,147.5L237.6,147.5c-0.3-0.2-0.5-0.5-0.5-0.9c0-0.5,0.3-0.8,0.6-1l0,0c-0.4-0.3-0.7-0.8-0.7-1.4
			c0-1.2,0.9-1.9,2-1.9c0.3,0,0.6,0.1,0.8,0.1h1.9v0.7h-1.1c0.3,0.2,0.4,0.6,0.4,1.1c0,1.1-0.9,1.9-2,1.9c-0.3,0-0.6-0.1-0.8-0.2
			c-0.2,0.2-0.3,0.3-0.3,0.6s0.2,0.6,0.9,0.6h1c1.2,0,1.9,0.4,1.9,1.3c0,1-1,1.8-2.7,1.8c-1.3,0-2.2-0.5-2.2-1.4
			C236.8,148.3,237.1,147.9,237.6,147.5z M239.2,149.6c1,0,1.7-0.5,1.7-1.1c0-0.5-0.4-0.7-1.1-0.7h-0.9c-0.2,0-0.5,0-0.7-0.1
			c-0.4,0.3-0.5,0.6-0.5,0.9C237.6,149.2,238.2,149.6,239.2,149.6z M240.2,144.1c0-0.8-0.5-1.2-1.1-1.2s-1.1,0.5-1.1,1.2
			s0.5,1.3,1.1,1.3S240.2,144.9,240.2,144.1z"/>
		<path d="M246.7,144.3c0-0.7-0.2-1.3-1.1-1.3c-0.6,0-1.2,0.3-1.6,0.6l-0.4-0.6c0.5-0.3,1.2-0.7,2.1-0.7c1.3,0,1.9,0.9,1.9,2.2v3.3
			h-0.7l-0.1-0.6l0,0c-0.5,0.4-1.1,0.8-1.8,0.8c-0.9,0-1.6-0.6-1.6-1.5C243.4,145.2,244.5,144.6,246.7,144.3z M245.3,147.1
			c0.5,0,0.9-0.3,1.5-0.7v-1.5c-1.8,0.2-2.4,0.7-2.4,1.3C244.3,146.9,244.7,147.1,245.3,147.1z"/>
		<path d="M250.4,142.4h0.7l0.1,0.8l0,0c0.5-0.5,1.1-0.9,1.8-0.9c1.1,0,1.6,0.7,1.6,2.1v3.4h-0.9v-3.3c0-1-0.3-1.4-1-1.4
			c-0.5,0-0.9,0.3-1.5,0.8v3.9h-0.9L250.4,142.4L250.4,142.4z"/>
		<path d="M61.8,160.3c0-0.7-0.2-1.3-1.1-1.3c-0.6,0-1.2,0.3-1.6,0.6l-0.4-0.6c0.5-0.3,1.2-0.7,2.1-0.7c1.3,0,1.9,0.9,1.9,2.2v3.3
			H62l-0.1-0.6l0,0c-0.5,0.4-1.1,0.8-1.8,0.8c-0.9,0-1.6-0.6-1.6-1.5C58.5,161.2,59.5,160.6,61.8,160.3z M60.4,163.1
			c0.5,0,0.9-0.3,1.5-0.7v-1.5c-1.8,0.2-2.4,0.7-2.4,1.3C59.4,162.9,59.8,163.1,60.4,163.1z"/>
		<path d="M68.9,155.9h0.9v6.8c0,0.3,0.1,0.4,0.3,0.4c0.1,0,0.1,0,0.2,0l0.1,0.7c-0.1,0.1-0.3,0.1-0.5,0.1c-0.7,0-1-0.4-1-1.2V155.9
			z"/>
		<path d="M75.8,160.3c0-0.7-0.2-1.3-1.1-1.3c-0.6,0-1.2,0.3-1.6,0.6l-0.4-0.6c0.5-0.3,1.2-0.7,2.1-0.7c1.3,0,1.9,0.9,1.9,2.2v3.3
			H76l-0.1-0.6l0,0c-0.5,0.4-1.1,0.8-1.8,0.8c-0.9,0-1.6-0.6-1.6-1.5C72.5,161.2,73.5,160.6,75.8,160.3z M74.3,163.1
			c0.5,0,0.9-0.3,1.5-0.7v-1.5c-1.8,0.2-2.4,0.7-2.4,1.3C73.4,162.9,73.8,163.1,74.3,163.1z"/>
		<path d="M79.3,162.5c0.5,0.4,0.9,0.6,1.6,0.6s1.1-0.4,1.1-0.8c0-0.5-0.6-0.8-1.2-1c-0.8-0.3-1.6-0.6-1.6-1.5s0.7-1.5,1.8-1.5
			c0.7,0,1.3,0.3,1.7,0.6l-0.4,0.6c-0.4-0.3-0.7-0.5-1.2-0.5c-0.7,0-1,0.4-1,0.8c0,0.5,0.6,0.7,1.2,0.9c0.8,0.3,1.6,0.6,1.6,1.6
			c0,0.9-0.7,1.6-2,1.6c-0.8,0-1.5-0.3-2-0.7L79.3,162.5z"/>
		<path d="M88.5,158.4h0.7l0.1,0.8l0,0c0.5-0.5,1-0.9,1.7-0.9c0.8,0,1.3,0.4,1.5,1c0.6-0.6,1.1-1,1.8-1c1.1,0,1.6,0.7,1.6,2.1v3.4
			H95v-3.3c0-1-0.3-1.4-1-1.4c-0.4,0-0.8,0.3-1.3,0.8v3.9h-0.9v-3.3c0-1-0.3-1.4-1-1.4c-0.4,0-0.8,0.3-1.3,0.8v3.9h-0.9L88.5,158.4
			L88.5,158.4z"/>
		<path d="M98.7,158.4h0.9v3.3c0,1,0.3,1.4,1,1.4c0.6,0,0.9-0.3,1.4-0.9v-3.8h0.9v5.3h-0.7l-0.1-0.8l0,0c-0.5,0.6-1,1-1.8,1
			c-1.1,0-1.6-0.7-1.6-2.1C98.7,161.8,98.7,158.4,98.7,158.4z"/>
		<path d="M105.8,158.4h0.9v6c0,1.1-0.4,1.8-1.5,1.8c-0.3,0-0.6-0.1-0.8-0.1l0.2-0.7c0.1,0,0.3,0.1,0.5,0.1c0.5,0,0.7-0.4,0.7-1
			C105.8,164.5,105.8,158.4,105.8,158.4z M105.7,156.7c0-0.4,0.3-0.6,0.6-0.6c0.3,0,0.6,0.2,0.6,0.6c0,0.3-0.3,0.6-0.6,0.6
			C105.9,157.3,105.7,157,105.7,156.7z"/>
		<path d="M111.6,158.2c1.4,0,2.1,1,2.1,2.5c0,0.2,0,0.4,0,0.5h-3.6c0.1,1.2,0.8,1.9,1.8,1.9c0.5,0,0.9-0.2,1.3-0.4l0.3,0.6
			c-0.5,0.3-1,0.5-1.8,0.5c-1.4,0-2.6-1-2.6-2.8C109.2,159.3,110.4,158.2,111.6,158.2z M113,160.6c0-1.1-0.5-1.7-1.3-1.7
			c-0.7,0-1.4,0.6-1.5,1.7H113z"/>
		<path d="M116.2,158.4h0.7l0.1,1l0,0c0.4-0.7,0.9-1.1,1.5-1.1c0.2,0,0.4,0,0.6,0.1l-0.2,0.8c-0.2-0.1-0.3-0.1-0.5-0.1
			c-0.5,0-1,0.3-1.4,1.2v3.4h-0.9v-5.3H116.2z"/>
		<path d="M123,158.2c1.4,0,2.1,1,2.1,2.5c0,0.2,0,0.4,0,0.5h-3.6c0.1,1.2,0.8,1.9,1.8,1.9c0.5,0,0.9-0.2,1.3-0.4l0.3,0.6
			c-0.5,0.3-1,0.5-1.8,0.5c-1.4,0-2.6-1-2.6-2.8C120.6,159.3,121.8,158.2,123,158.2z M124.3,160.6c0-1.1-0.5-1.7-1.3-1.7
			c-0.7,0-1.4,0.6-1.5,1.7H124.3z"/>
		<path d="M127.4,162.5c0.5,0.4,0.9,0.6,1.6,0.6s1.1-0.4,1.1-0.8c0-0.5-0.6-0.8-1.2-1c-0.8-0.3-1.6-0.6-1.6-1.5s0.7-1.5,1.8-1.5
			c0.7,0,1.3,0.3,1.7,0.6l-0.4,0.6c-0.4-0.3-0.7-0.5-1.2-0.5c-0.7,0-1,0.4-1,0.8c0,0.5,0.6,0.7,1.2,0.9c0.8,0.3,1.6,0.6,1.6,1.6
			c0,0.9-0.7,1.6-2,1.6c-0.8,0-1.5-0.3-2-0.7L127.4,162.5z"/>
		<path d="M138.5,158.2c0.6,0,1,0.2,1.5,0.6l0,0l0.1-0.5h0.7v7.6H140V164v-0.9c-0.4,0.4-1,0.7-1.6,0.7c-1.3,0-2.2-1-2.2-2.8
			C136.2,159.3,137.3,158.2,138.5,158.2z M138.6,163.1c0.5,0,0.9-0.2,1.4-0.7v-2.8c-0.5-0.4-0.9-0.6-1.3-0.6c-0.9,0-1.5,0.8-1.5,2
			C137.1,162.3,137.7,163.1,138.6,163.1z"/>
		<path d="M143.7,158.4h0.9v3.3c0,1,0.3,1.4,1,1.4c0.6,0,0.9-0.3,1.4-0.9v-3.8h0.9v5.3h-0.7l-0.1-0.8l0,0c-0.5,0.6-1,1-1.8,1
			c-1.1,0-1.6-0.7-1.6-2.1L143.7,158.4L143.7,158.4z"/>
		<path d="M152.8,158.2c1.4,0,2.1,1,2.1,2.5c0,0.2,0,0.4,0,0.5h-3.6c0.1,1.2,0.8,1.9,1.8,1.9c0.5,0,0.9-0.2,1.3-0.4l0.3,0.6
			c-0.5,0.3-1,0.5-1.8,0.5c-1.4,0-2.6-1-2.6-2.8C150.4,159.3,151.6,158.2,152.8,158.2z M154.2,160.6c0-1.1-0.5-1.7-1.3-1.7
			c-0.7,0-1.4,0.6-1.5,1.7H154.2z"/>
		<path d="M160.7,155.9h0.9v6.8c0,0.3,0.1,0.4,0.3,0.4c0.1,0,0.1,0,0.2,0l0.1,0.7c-0.1,0.1-0.3,0.1-0.5,0.1c-0.7,0-1-0.4-1-1.2
			V155.9z"/>
		<path d="M166.7,158.2c1.3,0,2.5,1,2.5,2.8s-1.2,2.8-2.5,2.8s-2.5-1-2.5-2.8C164.2,159.3,165.4,158.2,166.7,158.2z M166.7,163.1
			c0.9,0,1.5-0.8,1.5-2s-0.6-2.1-1.5-2.1s-1.5,0.8-1.5,2.1C165.1,162.3,165.8,163.1,166.7,163.1z"/>
		<path d="M171.5,162.5c0.5,0.4,0.9,0.6,1.6,0.6c0.7,0,1.1-0.4,1.1-0.8c0-0.5-0.6-0.8-1.2-1c-0.8-0.3-1.6-0.6-1.6-1.5
			s0.7-1.5,1.8-1.5c0.7,0,1.3,0.3,1.7,0.6l-0.4,0.6c-0.4-0.3-0.7-0.5-1.2-0.5c-0.7,0-1,0.4-1,0.8c0,0.5,0.6,0.7,1.2,0.9
			c0.8,0.3,1.6,0.6,1.6,1.6c0,0.9-0.7,1.6-2,1.6c-0.8,0-1.5-0.3-2-0.7L171.5,162.5z"/>
		<path d="M180.7,158.4h0.7l0.1,0.8l0,0c0.5-0.5,1.1-0.9,1.8-0.9c1.1,0,1.6,0.7,1.6,2.1v3.4H184v-3.3c0-1-0.3-1.4-1-1.4
			c-0.6,0-0.9,0.3-1.5,0.8v3.9h-0.9L180.7,158.4L180.7,158.4z"/>
		<path d="M189.8,158.2c1.4,0,2.1,1,2.1,2.5c0,0.2,0,0.4,0,0.5h-3.6c0.1,1.2,0.8,1.9,1.8,1.9c0.5,0,0.9-0.2,1.3-0.4l0.3,0.6
			c-0.5,0.3-1,0.5-1.8,0.5c-1.4,0-2.6-1-2.6-2.8C187.4,159.3,188.6,158.2,189.8,158.2z M191.2,160.6c0-1.1-0.5-1.7-1.3-1.7
			c-0.7,0-1.4,0.6-1.5,1.7H191.2z"/>
		<path d="M196.6,158.2c0.7,0,1.2,0.3,1.6,0.6l-0.5,0.6c-0.3-0.3-0.6-0.5-1.1-0.5c-1,0-1.7,0.8-1.7,2.1c0,1.2,0.7,2,1.6,2
			c0.5,0,0.9-0.3,1.3-0.5l0.4,0.6c-0.5,0.4-1.1,0.7-1.7,0.7c-1.4,0-2.5-1-2.5-2.8C194,159.3,195.2,158.2,196.6,158.2z"/>
		<path d="M202.3,158.2c1.4,0,2.1,1,2.1,2.5c0,0.2,0,0.4,0,0.5h-3.6c0.1,1.2,0.8,1.9,1.8,1.9c0.5,0,0.9-0.2,1.3-0.4l0.3,0.6
			c-0.5,0.3-1,0.5-1.8,0.5c-1.4,0-2.6-1-2.6-2.8C199.9,159.3,201,158.2,202.3,158.2z M203.6,160.6c0-1.1-0.5-1.7-1.3-1.7
			c-0.7,0-1.4,0.6-1.5,1.7H203.6z"/>
		<path d="M206.7,162.5c0.5,0.4,0.9,0.6,1.6,0.6c0.7,0,1.1-0.4,1.1-0.8c0-0.5-0.6-0.8-1.2-1c-0.8-0.3-1.6-0.6-1.6-1.5
			s0.7-1.5,1.8-1.5c0.7,0,1.3,0.3,1.7,0.6l-0.4,0.6c-0.4-0.3-0.7-0.5-1.2-0.5c-0.7,0-1,0.4-1,0.8c0,0.5,0.6,0.7,1.2,0.9
			c0.8,0.3,1.6,0.6,1.6,1.6c0,0.9-0.7,1.6-2,1.6c-0.8,0-1.5-0.3-2-0.7L206.7,162.5z"/>
		<path d="M212.4,156.7c0-0.4,0.3-0.6,0.6-0.6c0.4,0,0.6,0.2,0.6,0.6c0,0.3-0.3,0.6-0.6,0.6C212.6,157.3,212.4,157,212.4,156.7z
			 M212.5,158.4h0.9v5.3h-0.9V158.4z"/>
		<path d="M216.5,159.1h-0.8v-0.7l0.8-0.1l0.1-1.5h0.8v1.5h1.4v0.7h-1.4v3c0,0.7,0.2,1,0.8,1c0.2,0,0.4-0.1,0.6-0.1l0.2,0.7
			c-0.3,0.1-0.7,0.2-1,0.2c-1.1,0-1.5-0.7-1.5-1.8L216.5,159.1L216.5,159.1z"/>
		<path d="M224,160.3c0-0.7-0.2-1.3-1.1-1.3c-0.6,0-1.2,0.3-1.6,0.6l-0.4-0.6c0.5-0.3,1.2-0.7,2.1-0.7c1.3,0,1.9,0.9,1.9,2.2v3.3
			h-0.7l-0.1-0.6l0,0c-0.5,0.4-1.1,0.8-1.8,0.8c-0.9,0-1.6-0.6-1.6-1.5C220.7,161.2,221.7,160.6,224,160.3z M222.5,163.1
			c0.5,0,0.9-0.3,1.5-0.7v-1.5c-1.8,0.2-2.4,0.7-2.4,1.3C221.6,162.9,222,163.1,222.5,163.1z"/>
		<path d="M227.7,158.4h0.7l0.1,0.8l0,0c0.5-0.5,1.1-0.9,1.8-0.9c1.1,0,1.6,0.7,1.6,2.1v3.4H231v-3.3c0-1-0.3-1.4-1-1.4
			c-0.5,0-0.9,0.3-1.5,0.8v3.9h-0.9L227.7,158.4L227.7,158.4z"/>
		<path d="M235.3,162.5c0.4,0,0.6,0.3,0.6,0.7s-0.3,0.7-0.6,0.7c-0.4,0-0.7-0.3-0.7-0.7C234.6,162.7,234.9,162.5,235.3,162.5z"/>
	</g>
	<g>
		<g class="st6">
			<g>
				<line class="st7" x1="290.7" y1="65.6" x2="289.2" y2="65.6"/>
				<line class="st8" x1="285.2" y1="65.6" x2="19.2" y2="65.6"/>
				<line class="st7" x1="17.1" y1="65.6" x2="15.6" y2="65.6"/>
			</g>
		</g>
	</g>
	<g>
		<path d="M37.4,52h-0.9l0.1-0.7l0.9-0.1l0.4-1.6h0.8l-0.3,1.6h1.5L39.8,52h-1.5l-0.7,3.3c0,0.1,0,0.3,0,0.4c0,0.5,0.2,0.7,0.7,0.7
			c0.2,0,0.4-0.1,0.6-0.2l0.2,0.7c-0.3,0.1-0.6,0.3-1.1,0.3c-1,0-1.4-0.6-1.4-1.3c0-0.2,0-0.4,0.1-0.6L37.4,52z"/>
		<path d="M41.2,54.9c0-2.2,1.5-3.8,3.1-3.8c1.3,0,2.1,0.9,2.1,2.3c0,2.2-1.6,3.8-3.2,3.8C42,57.2,41.2,56.3,41.2,54.9z M42.1,54.8
			c0,1.1,0.4,1.6,1.2,1.6c1.1,0,2.1-1.3,2.1-3c0-1.1-0.4-1.6-1.2-1.6C43.2,51.9,42.1,53.2,42.1,54.8z"/>
		<path d="M52.3,56.2L52.3,56.2c-0.6,0.6-1.3,1-2.1,1c-1,0-1.7-0.7-1.7-2.1c0-2.2,1.5-4,3.2-4c0.6,0,1.1,0.3,1.4,0.9l0,0l0.2-0.7H54
			l-1.7,8.3h-0.9l0.4-1.9L52.3,56.2z M52.4,55.4l0.5-2.6c-0.3-0.6-0.7-0.9-1.2-0.9c-1.2,0-2.2,1.5-2.2,3.1c0,1,0.4,1.5,1.1,1.5
			C51.1,56.5,51.9,56.1,52.4,55.4z"/>
		<path d="M60.5,57.1h-0.8l0.1-0.9l0,0c-0.6,0.6-1.3,1-2,1c-1,0-1.4-0.6-1.4-1.5c0-0.3,0-0.5,0.1-0.8l0.7-3.7h0.9l-0.7,3.6
			c-0.1,0.3-0.1,0.5-0.1,0.7c0,0.6,0.3,0.9,0.9,0.9c0.5,0,1-0.3,1.7-1.1l0.8-4.1h0.9L60.5,57.1z"/>
		<path d="M66.9,51.1c1.3,0,1.8,0.9,1.8,2.1c0,0.5-0.1,0.9-0.2,1.1h-3.8c-0.2,1.5,0.6,2.1,1.6,2.1c0.5,0,0.9-0.2,1.3-0.5l0.4,0.6
			c-0.5,0.3-1.1,0.6-1.9,0.6c-1.4,0-2.3-0.9-2.3-2.4C63.8,52.6,65.3,51.1,66.9,51.1z M67.8,53.7c0-0.2,0.1-0.4,0.1-0.6
			c0-0.7-0.3-1.3-1.1-1.3c-0.9,0-1.7,0.7-2,1.9C64.8,53.7,67.8,53.7,67.8,53.7z"/>
		<path d="M75.9,48.6h0.9L75.3,56c0,0.1,0,0.2,0,0.2c0,0.1,0.1,0.2,0.2,0.2c0,0,0.1,0,0.2,0v0.7c-0.2,0.1-0.3,0.1-0.6,0.1
			c-0.5,0-0.8-0.3-0.8-0.8c0-0.1,0-0.3,0.1-0.5L75.9,48.6z"/>
		<path d="M78.4,54.9c0-2.2,1.5-3.8,3.1-3.8c1.3,0,2.1,0.9,2.1,2.3c0,2.2-1.6,3.8-3.2,3.8C79.2,57.2,78.4,56.3,78.4,54.9z
			 M79.3,54.8c0,1.1,0.4,1.6,1.2,1.6c1.1,0,2.1-1.3,2.1-3c0-1.1-0.4-1.6-1.2-1.6C80.4,51.9,79.3,53.2,79.3,54.8z"/>
		<path d="M85.9,55.7c0.4,0.5,0.9,0.9,1.5,0.9c0.7,0,1.2-0.4,1.2-1c0-0.4-0.3-0.7-1.1-1.1c-0.9-0.5-1.3-0.9-1.3-1.6
			c0-1,0.9-1.7,2-1.7c0.7,0,1.3,0.3,1.7,0.8l-0.5,0.5c-0.3-0.3-0.7-0.6-1.2-0.6c-0.6,0-1.1,0.4-1.1,0.9s0.5,0.7,1,1
			c1,0.6,1.4,1,1.4,1.7c0,1.1-0.9,1.8-2.2,1.8c-0.8,0-1.6-0.5-2-1.1L85.9,55.7z"/>
		<path d="M100.8,51.3l-1.2,6.1c-0.3,1.5-1.3,2.4-2.7,2.4c-0.8,0-1.5-0.3-2-0.8l0.4-0.6c0.4,0.4,1,0.7,1.6,0.7c1,0,1.6-0.7,1.8-1.7
			l0.3-1.2l0,0c-0.6,0.6-1.2,0.9-2,0.9c-1,0-1.7-0.7-1.7-2.1c0-2.1,1.5-3.9,3.1-3.9c0.6,0,1.1,0.3,1.4,0.9l0,0l0.2-0.7
			C100,51.3,100.8,51.3,100.8,51.3z M99.1,55.2l0.5-2.5c-0.4-0.6-0.7-0.9-1.2-0.9c-1.1,0-2.2,1.4-2.2,3c0,0.9,0.4,1.4,1,1.4
			C97.9,56.3,98.6,55.9,99.1,55.2z"/>
		<path d="M104,51.3h0.8l-0.1,1.1l0,0c0.5-0.7,1.1-1.3,1.8-1.3c0.2,0,0.4,0,0.6,0.1l-0.3,0.8c-0.1-0.1-0.3-0.1-0.5-0.1
			c-0.6,0-1.2,0.5-1.7,1.5l-0.7,3.7H103L104,51.3z"/>
		<path d="M111.2,51.1c0.6,0,1.1,0.3,1.4,0.9l0,0l0.2-0.7h0.7l-1.2,5.8h-0.8l0.1-0.9l0,0c-0.6,0.6-1.3,1-2,1c-1,0-1.7-0.7-1.7-2.1
			C108.1,52.9,109.6,51.1,111.2,51.1z M111.9,55.4l0.5-2.6c-0.3-0.6-0.7-0.9-1.2-0.9c-1.2,0-2.2,1.5-2.2,3.1c0,1,0.4,1.5,1.1,1.5
			C110.7,56.5,111.4,56.1,111.9,55.4z M112.1,48.6h1l-1.6,1.7h-0.7L112.1,48.6z"/>
		<path d="M116.2,51.3l0.8-0.1l0.2-1c0.2-1.2,0.9-1.9,1.8-1.9c0.4,0,0.7,0.1,1,0.3l-0.3,0.7c-0.2-0.1-0.4-0.2-0.6-0.2
			c-0.5,0-0.9,0.4-1,1.1l-0.2,1h1.2l-0.1,0.7h-1.2l-1,5.1h-0.9l1-5.1H116L116.2,51.3z"/>
		<path d="M121.4,51.3h0.9l-1.2,5.8h-0.9L121.4,51.3z M121.6,49.5c0-0.4,0.3-0.7,0.7-0.7c0.3,0,0.6,0.2,0.6,0.6
			c0,0.4-0.3,0.7-0.7,0.7C121.9,50.1,121.6,49.9,121.6,49.5z"/>
		<path d="M127.6,51.1c0.7,0,1.2,0.3,1.5,0.7l-0.5,0.6c-0.3-0.4-0.6-0.5-1-0.5c-1.2,0-2.3,1.4-2.3,3c0,1.1,0.5,1.6,1.4,1.6
			c0.5,0,0.9-0.2,1.3-0.5l0.4,0.6c-0.4,0.3-1,0.7-1.9,0.7c-1.3,0-2.1-0.9-2.1-2.3C124.3,52.7,125.9,51.1,127.6,51.1z"/>
		<path d="M130.6,54.9c0-2.2,1.5-3.8,3.1-3.8c1.3,0,2.1,0.9,2.1,2.3c0,2.2-1.6,3.8-3.2,3.8C131.4,57.2,130.6,56.3,130.6,54.9z
			 M131.5,54.8c0,1.1,0.4,1.6,1.2,1.6c1.1,0,2.1-1.3,2.1-3c0-1.1-0.4-1.6-1.2-1.6C132.6,51.9,131.5,53.2,131.5,54.8z"/>
		<path d="M138,55.7c0.4,0.5,0.9,0.9,1.5,0.9c0.7,0,1.2-0.4,1.2-1c0-0.4-0.3-0.7-1.1-1.1c-0.9-0.5-1.3-0.9-1.3-1.6
			c0-1,0.9-1.7,2-1.7c0.7,0,1.3,0.3,1.7,0.8l-0.5,0.5c-0.3-0.3-0.7-0.6-1.2-0.6c-0.6,0-1.1,0.4-1.1,0.9s0.5,0.7,1,1
			c1,0.6,1.4,1,1.4,1.7c0,1.1-0.9,1.8-2.2,1.8c-0.8,0-1.6-0.5-2-1.1L138,55.7z"/>
		<path d="M148.2,57.6l-0.4,1.9h-0.9l1.7-8.3h0.8l-0.1,0.8l0,0c0.6-0.5,1.3-0.9,2-0.9c1,0,1.7,0.8,1.7,2.1c0,2.2-1.5,4-3.1,4
			c-0.6,0-1.1-0.3-1.4-0.8l0,0L148.2,57.6z M149.2,52.8l-0.6,2.8c0.3,0.6,0.7,0.8,1.2,0.8c1.2,0,2.2-1.5,2.2-3.1
			c0-1-0.4-1.5-1.1-1.5C150.4,51.9,149.7,52.2,149.2,52.8z"/>
		<path d="M158.3,51.1c0.6,0,1.1,0.3,1.4,0.9l0,0l0.2-0.7h0.7l-1.2,5.8h-0.8l0.1-0.9l0,0c-0.6,0.6-1.3,1-2,1c-1,0-1.7-0.7-1.7-2.1
			C155.1,52.9,156.7,51.1,158.3,51.1z M159,55.4l0.5-2.6c-0.3-0.6-0.7-0.9-1.2-0.9c-1.2,0-2.2,1.5-2.2,3.1c0,1,0.4,1.5,1.1,1.5
			C157.8,56.5,158.4,56.1,159,55.4z"/>
		<path d="M163.8,51.3h0.8l-0.1,1.1l0,0c0.5-0.7,1.1-1.3,1.8-1.3c0.2,0,0.4,0,0.6,0.1l-0.3,0.8c-0.1-0.1-0.3-0.1-0.5-0.1
			c-0.6,0-1.2,0.5-1.7,1.5l-0.7,3.7h-0.9L163.8,51.3z"/>
		<path d="M171.1,51.1c0.6,0,1.1,0.3,1.4,0.9l0,0l0.2-0.7h0.7l-1.2,5.8h-0.8l0.1-0.9l0,0c-0.6,0.6-1.3,1-2,1c-1,0-1.7-0.7-1.7-2.1
			C168,52.9,169.5,51.1,171.1,51.1z M171.8,55.4l0.5-2.6c-0.3-0.6-0.7-0.9-1.2-0.9c-1.2,0-2.2,1.5-2.2,3.1c0,1,0.4,1.5,1.1,1.5
			C170.6,56.5,171.2,56.1,171.8,55.4z"/>
		<path d="M179.3,51.3h0.9l0.4,3.4c0.1,0.6,0.1,1.2,0.2,1.7l0,0c0.3-0.6,0.6-1.2,0.9-1.7l1.7-3.4h0.9l-3.1,5.8h-1.1L179.3,51.3z"/>
		<path d="M188.7,51.1c1.3,0,1.8,0.9,1.8,2.1c0,0.5-0.1,0.9-0.2,1.1h-3.8c-0.2,1.5,0.6,2.1,1.6,2.1c0.5,0,0.9-0.2,1.3-0.5l0.4,0.6
			c-0.5,0.3-1.1,0.6-1.9,0.6c-1.4,0-2.3-0.9-2.3-2.4C185.6,52.6,187.2,51.1,188.7,51.1z M189.7,53.7c0-0.2,0.1-0.4,0.1-0.6
			c0-0.7-0.3-1.3-1.1-1.3c-0.9,0-1.7,0.7-2,1.9C186.7,53.7,189.7,53.7,189.7,53.7z"/>
		<path d="M193.7,51.3h0.8l-0.1,1.1l0,0c0.5-0.7,1.1-1.3,1.8-1.3c0.2,0,0.4,0,0.6,0.1l-0.3,0.8c-0.1-0.1-0.3-0.1-0.5-0.1
			c-0.6,0-1.2,0.5-1.7,1.5l-0.7,3.7h-0.9L193.7,51.3z"/>
		<path d="M203,48.6h0.9l-1.5,7.5c0,0.1,0,0.2,0,0.2c0,0.1,0.1,0.2,0.2,0.2c0,0,0.1,0,0.2,0v0.7c-0.2,0.1-0.3,0.1-0.6,0.1
			c-0.5,0-0.8-0.3-0.8-0.8c0-0.1,0-0.3,0.1-0.5L203,48.6z"/>
		<path d="M205.6,54.9c0-2.2,1.5-3.8,3.1-3.8c1.3,0,2.1,0.9,2.1,2.3c0,2.2-1.6,3.8-3.2,3.8C206.4,57.2,205.6,56.3,205.6,54.9z
			 M206.5,54.8c0,1.1,0.4,1.6,1.2,1.6c1.1,0,2.1-1.3,2.1-3c0-1.1-0.4-1.6-1.2-1.6C207.6,51.9,206.5,53.2,206.5,54.8z"/>
		<path d="M213,55.7c0.4,0.5,0.9,0.9,1.5,0.9c0.7,0,1.2-0.4,1.2-1c0-0.4-0.3-0.7-1.1-1.1c-0.9-0.5-1.3-0.9-1.3-1.6
			c0-1,0.9-1.7,2-1.7c0.7,0,1.3,0.3,1.7,0.8l-0.5,0.5c-0.3-0.3-0.7-0.6-1.2-0.6c-0.6,0-1.1,0.4-1.1,0.9s0.5,0.7,1,1
			c1,0.6,1.4,1,1.4,1.7c0,1.1-0.9,1.8-2.2,1.8c-0.8,0-1.6-0.5-2-1.1L213,55.7z"/>
		<path d="M227.3,50.8l0.5-2.3h0.9L227,57h-0.8l0.1-0.9l0,0c-0.6,0.6-1.3,1-2,1c-1,0-1.7-0.7-1.7-2.1c0-2.2,1.5-4,3.2-4
			c0.6,0,1.1,0.3,1.4,0.9l0,0L227.3,50.8z M226.3,55.4l0.5-2.6c-0.3-0.6-0.7-0.9-1.2-0.9c-1.2,0-2.2,1.5-2.2,3.1
			c0,1,0.4,1.5,1.1,1.5C225.1,56.5,225.8,56.1,226.3,55.4z"/>
		<path d="M233.3,51.1c0.6,0,1.1,0.3,1.4,0.9l0,0l0.2-0.7h0.7l-1.2,5.8h-0.8l0.1-0.9l0,0c-0.6,0.6-1.3,1-2,1c-1,0-1.7-0.7-1.7-2.1
			C230.1,52.9,231.7,51.1,233.3,51.1z M234,55.4l0.5-2.6c-0.3-0.6-0.7-0.9-1.2-0.9c-1.2,0-2.2,1.5-2.2,3.1c0,1,0.4,1.5,1.1,1.5
			C232.7,56.5,233.4,56.1,234,55.4z"/>
		<path d="M238.9,52H238l0.1-0.7l0.9-0.1l0.4-1.6h0.8l-0.3,1.6h1.5l-0.1,0.7h-1.5l-0.7,3.3c0,0.1,0,0.3,0,0.4c0,0.5,0.2,0.7,0.7,0.7
			c0.2,0,0.4-0.1,0.6-0.2l0.2,0.7c-0.3,0.1-0.6,0.3-1.1,0.3c-1,0-1.4-0.6-1.4-1.3c0-0.2,0-0.4,0.1-0.6L238.9,52z"/>
		<path d="M242.7,54.9c0-2.2,1.5-3.8,3.1-3.8c1.3,0,2.1,0.9,2.1,2.3c0,2.2-1.6,3.8-3.2,3.8C243.5,57.2,242.7,56.3,242.7,54.9z
			 M243.7,54.8c0,1.1,0.4,1.6,1.2,1.6c1.1,0,2.1-1.3,2.1-3c0-1.1-0.4-1.6-1.2-1.6C244.7,51.9,243.7,53.2,243.7,54.8z"/>
		<path d="M250.2,55.7c0.4,0.5,0.9,0.9,1.5,0.9c0.7,0,1.2-0.4,1.2-1c0-0.4-0.3-0.7-1.1-1.1c-0.9-0.5-1.3-0.9-1.3-1.6
			c0-1,0.9-1.7,2-1.7c0.7,0,1.3,0.3,1.7,0.8l-0.5,0.5c-0.3-0.3-0.7-0.6-1.2-0.6c-0.6,0-1.1,0.4-1.1,0.9s0.5,0.7,1,1
			c1,0.6,1.4,1,1.4,1.7c0,1.1-0.9,1.8-2.2,1.8c-0.8,0-1.6-0.5-2-1.1L250.2,55.7z"/>
	</g>
	<rect x="86.1" y="191" class="st9" width="118.6" height="118.6"/>
	<g>
		<g>
			<path class="st5" d="M98.7,240.2h2.3c2.6,0,4.2,1.4,4.2,4.2s-1.5,4.3-4.1,4.3h-2.4V240.2z M100.8,247.6c1.7,0,2.7-1,2.7-3.1
				s-1-3-2.7-3h-0.7v6.1H100.8z"/>
			<path class="st5" d="M108.2,240.2h5.2v1.3h-3.6v2.2h3.1v1.3h-3.1v2.5h3.8v1.3h-5.3L108.2,240.2L108.2,240.2z"/>
			<path class="st5" d="M116.8,246.7c0.6,0.6,1.4,1,2.2,1c1,0,1.5-0.4,1.5-1.1c0-0.7-0.6-0.9-1.3-1.3l-1.2-0.5
				c-0.8-0.4-1.7-1-1.7-2.3c0-1.4,1.2-2.4,2.9-2.4c1,0,2,0.4,2.6,1.1l-0.8,1c-0.6-0.5-1.1-0.7-1.9-0.7s-1.4,0.4-1.4,1
				c0,0.7,0.7,0.9,1.4,1.2l1.2,0.5c1,0.4,1.7,1.1,1.7,2.3c0,1.4-1.2,2.5-3.1,2.5c-1.2,0-2.3-0.5-3.1-1.3L116.8,246.7z"/>
			<path class="st5" d="M125,240.2h1.5v8.6H125V240.2z"/>
			<path class="st5" d="M133.6,240.1c1.2,0,2,0.5,2.6,1.1l-0.8,0.9c-0.4-0.4-0.9-0.7-1.7-0.7c-1.5,0-2.5,1.2-2.5,3.1
				c0,2,0.9,3.1,2.6,3.1c0.5,0,1-0.1,1.2-0.4v-1.8h-1.6v-1.2h3v3.8c-0.6,0.6-1.6,1-2.8,1c-2.3,0-4-1.6-4-4.4
				C129.5,241.7,131.3,240.1,133.6,240.1z"/>
			<path class="st5" d="M139.5,240.2h1.5v4.9c0,1.9,0.7,2.5,1.7,2.5s1.8-0.6,1.8-2.5v-4.9h1.5v4.8c0,2.8-1.2,3.9-3.2,3.9
				s-3.3-1.1-3.3-3.9V240.2z"/>
			<path class="st5" d="M153.2,246.5h-2.9l-0.7,2.3h-1.5l2.8-8.6h1.8l2.8,8.6h-1.6L153.2,246.5z M152.9,245.3l-0.3-1
				c-0.3-0.9-0.5-1.9-0.8-2.8h-0.1c-0.2,1-0.5,1.9-0.8,2.8l-0.3,1H152.9z"/>
			<path class="st5" d="M157.9,240.2h1.5v7.3h3.6v1.3h-5.1V240.2z"/>
			<path class="st5" d="M165.7,240.2h2.3c2.6,0,4.2,1.4,4.2,4.2s-1.5,4.3-4.1,4.3h-2.4V240.2z M167.9,247.6c1.7,0,2.7-1,2.7-3.1
				s-1-3-2.7-3h-0.7v6.1H167.9z"/>
			<path class="st5" d="M179.1,246.5h-2.9l-0.7,2.3H174l2.8-8.6h1.8l2.8,8.6h-1.6L179.1,246.5z M178.8,245.3l-0.3-1
				c-0.3-0.9-0.5-1.9-0.8-2.8h-0.1c-0.2,1-0.5,1.9-0.8,2.8l-0.3,1H178.8z"/>
			<path class="st5" d="M183.7,240.2h2.3c2.6,0,4.2,1.4,4.2,4.2s-1.5,4.3-4.1,4.3h-2.4V240.2z M185.9,247.6c1.7,0,2.7-1,2.7-3.1
				s-1-3-2.7-3h-0.7v6.1H185.9z"/>
		</g>
	</g>
	<rect x="95" y="233.5" class="st4" width="101.6" height="1.4"/>
	<rect x="95" y="254.5" class="st2" width="101.6" height="44.1"/>
	<g>
		<g>
			<line class="st10" x1="148.1" y1="231.1" x2="148.1" y2="166.3"/>
			<g>
				<polygon points="156.3,224.5 154.8,223.1 148.1,230.4 141.4,223.1 139.9,224.5 148.1,233.3 				"/>
			</g>
		</g>
	</g>
	<g>
		<g>
			<line class="st10" x1="148.1" y1="284.2" x2="148.1" y2="348.9"/>
			<g>
				<polygon points="139.9,290.8 141.4,292.2 148.1,284.9 154.8,292.2 156.3,290.8 148.1,282 				"/>
			</g>
		</g>
	</g>
	<g>
		<path d="M21.7,44.2c0-1-0.8-1.8-1.8-1.8s-1.8,0.8-1.8,1.8v7l-1.3-1.5l0,0c-0.3-0.3-0.8-0.5-1.3-0.5l0,0c-0.5,0-0.9,0.2-1.2,0.5
			c-0.6,0.6-0.6,1.5-0.1,2.4c0.7,1.2,1.5,2.3,2.1,3.3c0.5,0.7,0.9,1.4,1.3,2c0.3,0.5,1,2.1,1.1,2.1c0.1,0.2,0.3,0.3,0.5,0.3h7.5
			c0.3,0,0.5-0.2,0.6-0.4c0.1-0.4,1.4-4.3,1.4-5.8v-4.1c0-1-0.8-1.8-1.8-1.8c-0.2,0-0.5,0.1-0.7,0.1c-0.3-0.7-0.9-1.1-1.6-1.1
			c-0.3,0-0.5,0.1-0.8,0.2c-0.3-0.6-0.9-1-1.6-1c-0.2,0-0.4,0-0.6,0.1 M21.5,47.4c0-0.3,0.5-0.5,0.8-0.5s0.8,0.4,0.8,0.7v2.9
			c0,0.4,0.1,0.6,0.4,0.6c0.4,0,0.4-0.3,0.4-0.6v-2.1c0-0.3,0.4-0.9,0.8-0.9c0.3,0,0.9,0.4,0.9,0.7v2.9c0,0.4,0.1,0.8,0.4,0.8
			c0.4,0,0.2-0.3,0.2-0.6v-1.9l0.1-0.3c0-0.3,0.4-0.6,0.7-0.6c0.3,0,0.9,0.6,0.9,0.9v4.4c0,1.1-0.8,4-1.3,5.4h-7.2
			c-0.3-0.6-0.8-1.6-1-2c-0.4-0.6-0.8-1.3-1.4-2.1c-0.7-1.1-1.5-2.3-2.2-3.5c-0.2-0.3-0.4-0.8-0.1-1c0.1-0.1,0.5-0.7,0.7-0.7
			s0.5,0,0.6,0.1l2.2,2.4c0.2,0.2,0.4,0.3,0.6,0.2c0.3-0.1,0.4-0.5,0.4-0.8v-8.2c0-0.3,0.3-0.6,0.6-0.6s0.9,0.3,0.9,0.7l0.1,6.1
			c0,0,0.1,0,0.4,0"/>
	</g>
</g>
</svg>
