<?xml version="1.0" encoding="utf-8"?>
<!-- Generator: Adobe Illustrator 20.0.0, SVG Export Plug-In . SVG Version: 6.00 Build 0)  -->
<svg version="1.1" id="Capa_1" xmlns="http://www.w3.org/2000/svg" xmlns:xlink="http://www.w3.org/1999/xlink" x="0px" y="0px"
	 viewBox="0 0 13 13" style="enable-background:new 0 0 13 13;" xml:space="preserve">
<style type="text/css">
	.st0{fill:#3D3D3D;stroke:#3D3D3D;stroke-miterlimit:10;}
</style>
<path class="st0" d="M7,6.5l5.4-5.4c0.1-0.1,0.1-0.1,0.1-0.2c0-0.2-0.1-0.3-0.3-0.3c-0.1,0-0.2,0-0.2,0.1L6.5,6L1.1,0.6
	C1,0.5,0.9,0.5,0.8,0.5c-0.2,0-0.3,0.1-0.3,0.3c0,0.1,0,0.2,0.1,0.2L6,6.5l-5.4,5.4c-0.1,0.1-0.1,0.1-0.1,0.2c0,0.2,0.1,0.3,0.3,0.3
	c0.1,0,0.2,0,0.2-0.1L6.5,7l5.4,5.4c0.1,0.1,0.1,0.1,0.2,0.1c0.2,0,0.3-0.1,0.3-0.3c0-0.1,0-0.2-0.1-0.2L7,6.5z"/>
</svg>
