<?xml version="1.0" encoding="utf-8"?>
<!-- Generator: Adobe Illustrator 20.0.0, SVG Export Plug-In . SVG Version: 6.00 Build 0)  -->
<svg version="1.1" id="Capa_1" xmlns="http://www.w3.org/2000/svg" xmlns:xlink="http://www.w3.org/1999/xlink" x="0px" y="0px"
	 viewBox="0 0 298.1 655" style="enable-background:new 0 0 298.1 655;" xml:space="preserve">
<style type="text/css">
	.st0{opacity:0.98;fill:#FFFFFF;}
	.st1{fill:#FF9719;}
	.st2{opacity:0.99;}
	.st3{opacity:0.99;fill:#44B254;}
	.st4{opacity:0.99;fill:#495E4A;}
	.st5{opacity:0.95;fill:none;stroke:#000000;stroke-width:0.25;stroke-miterlimit:10;}
	.st6{fill:#ED1C24;}
	.st7{opacity:0.5;}
	.st8{opacity:0.94;fill:none;stroke:#000000;stroke-width:0.25;stroke-miterlimit:10;}
	.st9{fill:none;stroke:#ED1C24;stroke-miterlimit:10;}
	.st10{font-family:'SourceSansPro-Regular';}
	.st11{font-size:10px;}
</style>
<polygon class="st0" points="-0.9,83.2 -0.9,83.2 -0.9,0.3 297.2,0.3 297.2,654 -0.9,654 -0.9,119.9 -0.9,119.9 "/>
<g>
	<g class="st2">
		<g>
			<path class="st3" d="M12.6,20.2H10l-0.6,2.1H7.9l2.5-7.8h1.6l2.5,7.8h-1.5L12.6,20.2z M12.3,19.1l-0.3-1
				c-0.3-0.8-0.5-1.7-0.7-2.6h0c-0.2,0.9-0.4,1.8-0.7,2.6l-0.3,1H12.3z"/>
			<path class="st3" d="M19.3,16.3c0.8,0,1.3,0.3,1.7,0.7l-0.7,0.9c-0.3-0.3-0.6-0.4-1-0.4c-0.9,0-1.6,0.8-1.6,2
				c0,1.2,0.6,1.9,1.6,1.9c0.5,0,0.9-0.2,1.2-0.5l0.6,0.9c-0.5,0.5-1.3,0.8-1.9,0.8c-1.6,0-2.8-1.1-2.8-3.1
				C16.3,17.4,17.7,16.3,19.3,16.3z"/>
			<path class="st3" d="M25.7,16.3c0.8,0,1.3,0.3,1.7,0.7l-0.7,0.9c-0.3-0.3-0.6-0.4-1-0.4c-0.9,0-1.6,0.8-1.6,2
				c0,1.2,0.6,1.9,1.6,1.9c0.5,0,0.9-0.2,1.2-0.5l0.6,0.9c-0.5,0.5-1.3,0.8-1.9,0.8c-1.6,0-2.8-1.1-2.8-3.1
				C22.7,17.4,24.1,16.3,25.7,16.3z"/>
			<path class="st3" d="M31.9,16.3c1.6,0,2.4,1.1,2.4,2.8c0,0.3,0,0.5-0.1,0.6h-3.7c0.1,1.1,0.8,1.7,1.7,1.7c0.5,0,0.9-0.2,1.4-0.4
				l0.5,0.9c-0.6,0.4-1.3,0.6-2,0.6c-1.6,0-2.9-1.1-2.9-3.1C29.2,17.4,30.5,16.3,31.9,16.3z M33.1,18.8c0-0.9-0.4-1.5-1.2-1.5
				c-0.7,0-1.3,0.5-1.4,1.5H33.1z"/>
			<path class="st3" d="M38.9,16.3c0.7,0,1.1,0.3,1.5,0.6l0-0.9v-2.1h1.4v8.4h-1.1l-0.1-0.6h0c-0.4,0.4-1,0.8-1.7,0.8
				c-1.5,0-2.4-1.1-2.4-3.1C36.4,17.4,37.7,16.3,38.9,16.3z M39.2,21.3c0.5,0,0.8-0.2,1.2-0.7v-2.7c-0.4-0.4-0.8-0.5-1.2-0.5
				c-0.8,0-1.4,0.7-1.4,1.9C37.9,20.6,38.3,21.3,39.2,21.3z"/>
			<path class="st3" d="M47.1,16.3c1.6,0,2.4,1.1,2.4,2.8c0,0.3,0,0.5-0.1,0.6h-3.7c0.1,1.1,0.8,1.7,1.7,1.7c0.5,0,0.9-0.2,1.4-0.4
				l0.5,0.9c-0.6,0.4-1.3,0.6-2,0.6c-1.6,0-2.9-1.1-2.9-3.1C44.4,17.4,45.7,16.3,47.1,16.3z M48.3,18.8c0-0.9-0.4-1.5-1.2-1.5
				c-0.7,0-1.3,0.5-1.4,1.5H48.3z"/>
			<path class="st3" d="M52,16.4h1.1l0.1,0.8h0c0.5-0.5,1.1-0.9,1.9-0.9c1.3,0,1.8,0.8,1.8,2.3v3.7h-1.4v-3.5c0-1-0.3-1.3-0.9-1.3
				c-0.5,0-0.8,0.3-1.3,0.7v4.1H52V16.4z"/>
			<path class="st3" d="M66.7,18.5c0-0.6-0.3-1.1-1.1-1.1c-0.6,0-1.1,0.3-1.6,0.6L63.5,17c0.6-0.4,1.5-0.8,2.4-0.8
				c1.5,0,2.2,0.9,2.2,2.5v3.5H67l-0.1-0.6h0c-0.5,0.4-1.1,0.8-1.8,0.8c-1,0-1.7-0.7-1.7-1.7C63.3,19.4,64.3,18.8,66.7,18.5z
				 M65.4,21.3c0.5,0,0.8-0.2,1.3-0.6v-1.3c-1.6,0.2-2.1,0.6-2.1,1.2C64.6,21.1,65,21.3,65.4,21.3z"/>
			<path class="st3" d="M76,22.8v1.8h-1.4v-8.2h1.1l0.1,0.6h0c0.5-0.4,1.1-0.8,1.8-0.8c1.5,0,2.3,1.2,2.3,3c0,2-1.2,3.2-2.5,3.2
				c-0.5,0-1-0.2-1.5-0.6L76,22.8z M77.2,21.3c0.8,0,1.4-0.7,1.4-2c0-1.2-0.4-1.9-1.3-1.9c-0.4,0-0.8,0.2-1.3,0.7v2.7
				C76.4,21.2,76.8,21.3,77.2,21.3z"/>
			<path class="st3" d="M82.5,13.8h1.4v7c0,0.3,0.2,0.5,0.3,0.5c0.1,0,0.1,0,0.2,0l0.2,1c-0.2,0.1-0.4,0.1-0.7,0.1
				c-1,0-1.3-0.6-1.3-1.6V13.8z"/>
			<path class="st3" d="M90.2,18.5c0-0.6-0.3-1.1-1.1-1.1c-0.6,0-1.1,0.3-1.6,0.6L87,17c0.6-0.4,1.5-0.8,2.4-0.8
				c1.5,0,2.2,0.9,2.2,2.5v3.5h-1.1l-0.1-0.6h0c-0.5,0.4-1.1,0.8-1.8,0.8c-1,0-1.7-0.7-1.7-1.7C86.7,19.4,87.8,18.8,90.2,18.5z
				 M88.9,21.3c0.5,0,0.8-0.2,1.3-0.6v-1.3c-1.6,0.2-2.1,0.6-2.1,1.2C88.1,21.1,88.4,21.3,88.9,21.3z"/>
			<path class="st3" d="M94.4,16.4h1.1l0.1,0.8h0c0.5-0.5,1.1-0.9,1.9-0.9c1.3,0,1.8,0.8,1.8,2.3v3.7H98v-3.5c0-1-0.3-1.3-0.9-1.3
				c-0.5,0-0.8,0.3-1.3,0.7v4.1h-1.4V16.4z"/>
			<path class="st3" d="M102.1,14.6c0-0.5,0.4-0.8,0.8-0.8c0.5,0,0.8,0.3,0.8,0.8c0,0.5-0.4,0.8-0.8,0.8
				C102.5,15.4,102.1,15.1,102.1,14.6z M102.3,16.4h1.4v5.9h-1.4V16.4z"/>
			<path class="st3" d="M109.6,14.9c-0.2-0.1-0.4-0.1-0.6-0.1c-0.5,0-0.7,0.3-0.7,1v0.6h1.1v1.1h-1.1v4.8h-1.4v-4.8h-0.8v-1l0.8-0.1
				v-0.6c0-1.2,0.6-2.1,1.9-2.1c0.4,0,0.8,0.1,1.1,0.2L109.6,14.9z"/>
			<path class="st3" d="M111.4,14.6c0-0.5,0.4-0.8,0.8-0.8c0.5,0,0.8,0.3,0.8,0.8c0,0.5-0.4,0.8-0.8,0.8
				C111.8,15.4,111.4,15.1,111.4,14.6z M111.6,16.4h1.4v5.9h-1.4V16.4z"/>
			<path class="st3" d="M118.5,16.3c0.8,0,1.3,0.3,1.7,0.7l-0.7,0.9c-0.3-0.3-0.6-0.4-1-0.4c-0.9,0-1.6,0.8-1.6,2
				c0,1.2,0.6,1.9,1.6,1.9c0.5,0,0.9-0.2,1.2-0.5l0.6,0.9c-0.5,0.5-1.3,0.8-1.9,0.8c-1.6,0-2.8-1.1-2.8-3.1
				C115.5,17.4,116.9,16.3,118.5,16.3z"/>
			<path class="st3" d="M125.7,18.5c0-0.6-0.3-1.1-1.1-1.1c-0.6,0-1.1,0.3-1.6,0.6l-0.5-0.9c0.6-0.4,1.5-0.8,2.4-0.8
				c1.5,0,2.2,0.9,2.2,2.5v3.5H126l-0.1-0.6h0c-0.5,0.4-1.1,0.8-1.8,0.8c-1,0-1.7-0.7-1.7-1.7C122.3,19.4,123.3,18.8,125.7,18.5z
				 M124.4,21.3c0.5,0,0.8-0.2,1.3-0.6v-1.3c-1.6,0.2-2.1,0.6-2.1,1.2C123.6,21.1,124,21.3,124.4,21.3z"/>
			<path class="st3" d="M132.5,16.3c0.8,0,1.3,0.3,1.7,0.7l-0.7,0.9c-0.3-0.3-0.6-0.4-1-0.4c-0.9,0-1.6,0.8-1.6,2
				c0,1.2,0.6,1.9,1.6,1.9c0.5,0,0.9-0.2,1.2-0.5l0.6,0.9c-0.5,0.5-1.3,0.8-1.9,0.8c-1.6,0-2.8-1.1-2.8-3.1
				C129.6,17.4,131,16.3,132.5,16.3z"/>
			<path class="st3" d="M136.5,14.6c0-0.5,0.4-0.8,0.8-0.8c0.5,0,0.8,0.3,0.8,0.8c0,0.5-0.4,0.8-0.8,0.8
				C136.9,15.4,136.5,15.1,136.5,14.6z M136.7,16.4h1.4v5.9h-1.4V16.4z"/>
			<path class="st3" d="M143.4,16.3c1.5,0,2.8,1.1,2.8,3.1c0,1.9-1.3,3.1-2.8,3.1c-1.5,0-2.8-1.1-2.8-3.1
				C140.6,17.4,141.9,16.3,143.4,16.3z M143.4,21.3c0.9,0,1.4-0.8,1.4-1.9c0-1.2-0.5-2-1.4-2c-0.9,0-1.4,0.8-1.4,2
				C142,20.5,142.5,21.3,143.4,21.3z M143.5,15.4h-1l1.1-1.7h1.4L143.5,15.4z"/>
			<path class="st3" d="M148.8,16.4h1.1l0.1,0.8h0c0.5-0.5,1.1-0.9,1.9-0.9c1.3,0,1.8,0.8,1.8,2.3v3.7h-1.4v-3.5
				c0-1-0.3-1.3-0.9-1.3c-0.5,0-0.8,0.3-1.3,0.7v4.1h-1.4V16.4z"/>
			<path class="st3" d="M163.3,14.9c-0.2-0.1-0.4-0.1-0.6-0.1c-0.5,0-0.7,0.3-0.7,1v0.6h1.1v1.1h-1.1v4.8h-1.4v-4.8h-0.8v-1l0.8-0.1
				v-0.6c0-1.2,0.6-2.1,1.9-2.1c0.4,0,0.8,0.1,1.1,0.2L163.3,14.9z"/>
			<path class="st3" d="M168.2,18.5c0-0.6-0.3-1.1-1.1-1.1c-0.6,0-1.1,0.3-1.6,0.6L165,17c0.6-0.4,1.5-0.8,2.4-0.8
				c1.5,0,2.2,0.9,2.2,2.5v3.5h-1.1l-0.1-0.6h0c-0.5,0.4-1.1,0.8-1.8,0.8c-1,0-1.7-0.7-1.7-1.7C164.8,19.4,165.8,18.8,168.2,18.5z
				 M166.9,21.3c0.5,0,0.8-0.2,1.3-0.6v-1.3c-1.6,0.2-2.1,0.6-2.1,1.2C166.1,21.1,166.5,21.3,166.9,21.3z"/>
			<path class="st3" d="M172.5,16.4h1.1l0.1,0.8h0c0.5-0.5,1.1-0.9,1.8-0.9c0.9,0,1.4,0.4,1.6,1.1c0.6-0.6,1.1-1.1,1.9-1.1
				c1.2,0,1.8,0.8,1.8,2.3v3.7h-1.4v-3.5c0-1-0.3-1.3-0.9-1.3c-0.4,0-0.8,0.2-1.2,0.7v4.1H176v-3.5c0-1-0.3-1.3-0.9-1.3
				c-0.4,0-0.8,0.2-1.2,0.7v4.1h-1.4V16.4z"/>
			<path class="st3" d="M183.6,14.6c0-0.5,0.4-0.8,0.8-0.8c0.5,0,0.8,0.3,0.8,0.8c0,0.5-0.4,0.8-0.8,0.8
				C183.9,15.4,183.6,15.1,183.6,14.6z M183.7,16.4h1.4v5.9h-1.4V16.4z"/>
			<path class="st3" d="M188.1,13.8h1.4v7c0,0.3,0.2,0.5,0.3,0.5c0.1,0,0.1,0,0.2,0l0.2,1c-0.2,0.1-0.4,0.1-0.7,0.1
				c-1,0-1.3-0.6-1.3-1.6V13.8z"/>
			<path class="st3" d="M192.3,14.6c0-0.5,0.4-0.8,0.8-0.8c0.5,0,0.8,0.3,0.8,0.8c0,0.5-0.4,0.8-0.8,0.8
				C192.7,15.4,192.3,15.1,192.3,14.6z M192.5,16.4h1.4v5.9h-1.4V16.4z"/>
			<path class="st3" d="M200,18.5c0-0.6-0.3-1.1-1.1-1.1c-0.6,0-1.1,0.3-1.6,0.6l-0.5-0.9c0.6-0.4,1.5-0.8,2.4-0.8
				c1.5,0,2.2,0.9,2.2,2.5v3.5h-1.1l-0.1-0.6h0c-0.5,0.4-1.1,0.8-1.8,0.8c-1,0-1.7-0.7-1.7-1.7C196.6,19.4,197.6,18.8,200,18.5z
				 M198.7,21.3c0.5,0,0.8-0.2,1.3-0.6v-1.3c-1.6,0.2-2.1,0.6-2.1,1.2C197.9,21.1,198.2,21.3,198.7,21.3z"/>
			<path class="st3" d="M204.3,16.4h1.1l0.1,1h0c0.4-0.8,1-1.2,1.7-1.2c0.3,0,0.5,0,0.7,0.1l-0.2,1.2c-0.2-0.1-0.4-0.1-0.6-0.1
				c-0.5,0-1,0.3-1.4,1.2v3.6h-1.4V16.4z"/>
		</g>
	</g>
	<g>
		<g>
			<path class="st4" d="M11.7,42.5c0.8,0,1.5,0.4,1.9,0.9l-0.5,0.6c-0.4-0.4-0.8-0.7-1.4-0.7c-1.3,0-2.2,1.1-2.2,2.9
				c0,1.8,0.9,2.9,2.2,2.9c0.7,0,1.2-0.3,1.6-0.8l0.5,0.5c-0.6,0.6-1.2,1-2.2,1c-1.8,0-3.1-1.4-3.1-3.7C8.5,43.9,9.9,42.5,11.7,42.5
				z"/>
			<path class="st4" d="M18.1,44.3c1.3,0,2.4,1,2.4,2.8c0,1.7-1.1,2.7-2.4,2.7c-1.3,0-2.4-1-2.4-2.7C15.7,45.3,16.8,44.3,18.1,44.3z
				 M18.1,49.1c0.9,0,1.5-0.8,1.5-2c0-1.2-0.6-2-1.5-2c-0.9,0-1.5,0.8-1.5,2C16.6,48.2,17.2,49.1,18.1,49.1z"/>
			<path class="st4" d="M23,42h0.9v2.1l0,0.9c0.5-0.4,1.1-0.7,1.6-0.7c1.4,0,2.1,1,2.1,2.7c0,1.8-1.1,2.8-2.3,2.8
				c-0.5,0-1-0.2-1.5-0.6h0l-0.1,0.5H23V42z M25.1,49c0.9,0,1.5-0.8,1.5-2.1c0-1.2-0.4-1.9-1.4-1.9c-0.4,0-0.9,0.2-1.4,0.7v2.7
				C24.3,48.9,24.8,49,25.1,49z"/>
			<path class="st4" d="M32,44.3c1.3,0,2.1,1,2.1,2.5c0,0.2,0,0.4,0,0.5h-3.5c0.1,1.1,0.7,1.8,1.7,1.8c0.5,0,0.9-0.2,1.3-0.4
				l0.3,0.6c-0.5,0.3-1,0.5-1.7,0.5c-1.4,0-2.5-1-2.5-2.7C29.6,45.3,30.8,44.3,32,44.3z M33.3,46.7c0-1.1-0.5-1.7-1.3-1.7
				c-0.7,0-1.4,0.6-1.5,1.7H33.3z"/>
			<path class="st4" d="M36.4,44.4h0.7l0.1,0.9h0c0.4-0.7,0.9-1.1,1.5-1.1c0.2,0,0.4,0,0.6,0.1l-0.2,0.8c-0.2-0.1-0.3-0.1-0.5-0.1
				c-0.4,0-1,0.3-1.3,1.2v3.4h-0.9V44.4z"/>
			<path class="st4" d="M41.4,45.2h-0.8v-0.7l0.8-0.1l0.1-1.5h0.7v1.5h1.4v0.7h-1.4v2.9c0,0.6,0.2,1,0.8,1c0.2,0,0.4-0.1,0.6-0.1
				l0.2,0.7c-0.3,0.1-0.6,0.2-1,0.2c-1.1,0-1.5-0.7-1.5-1.7V45.2z"/>
			<path class="st4" d="M45.8,44.4h0.9v3.2c0,1,0.3,1.4,1,1.4c0.5,0,0.9-0.3,1.4-0.9v-3.7H50v5.2h-0.7l-0.1-0.8h0
				c-0.5,0.6-1,0.9-1.7,0.9c-1.1,0-1.6-0.7-1.6-2V44.4z"/>
			<path class="st4" d="M52.8,44.4h0.7l0.1,0.9h0c0.4-0.7,0.9-1.1,1.5-1.1c0.2,0,0.4,0,0.6,0.1l-0.2,0.8c-0.2-0.1-0.3-0.1-0.5-0.1
				c-0.4,0-1,0.3-1.3,1.2v3.4h-0.9V44.4z"/>
			<path class="st4" d="M60.3,46.3c0-0.7-0.2-1.3-1.1-1.3c-0.6,0-1.2,0.3-1.6,0.6L57.3,45c0.5-0.3,1.2-0.7,2.1-0.7
				c1.3,0,1.8,0.8,1.8,2.2v3.2h-0.7L60.4,49h0c-0.5,0.4-1.1,0.8-1.7,0.8c-0.9,0-1.5-0.5-1.5-1.5C57.1,47.2,58.1,46.6,60.3,46.3z
				 M58.9,49.1c0.5,0,0.9-0.2,1.4-0.7v-1.5c-1.8,0.2-2.3,0.6-2.3,1.3C57.9,48.8,58.3,49.1,58.9,49.1z"/>
		</g>
	</g>
	<line class="st5" x1="8" y1="53.8" x2="286.8" y2="53.8"/>
	<line class="st5" x1="8" y1="73.2" x2="286.8" y2="73.2"/>
	<g class="st2">
		<g>
			<path class="st3" d="M8.9,60.6h0.9v7.1H8.9V60.6z"/>
			<path class="st3" d="M12.4,64.1c0-2.3,1.2-3.6,3-3.6c1.8,0,3,1.4,3,3.6c0,2.3-1.2,3.7-3,3.7C13.7,67.8,12.4,66.4,12.4,64.1z
				 M17.5,64.1c0-1.8-0.8-2.8-2.1-2.8c-1.3,0-2.1,1.1-2.1,2.8c0,1.8,0.8,2.9,2.1,2.9C16.7,67,17.5,65.8,17.5,64.1z"/>
			<path class="st3" d="M21.1,60.6h0.9v3h3.3v-3h0.9v7.1h-0.9v-3.3h-3.3v3.3h-0.9V60.6z"/>
		</g>
	</g>
	<path class="st1" d="M278.2,18.9l6.8-6.8c0.1-0.1,0.1-0.2,0.1-0.3c0-0.2-0.2-0.4-0.4-0.4c-0.1,0-0.2,0-0.3,0.1l-6.8,6.8l-6.8-6.8
		c-0.1-0.1-0.2-0.1-0.3-0.1c-0.2,0-0.4,0.2-0.4,0.4c0,0.1,0,0.2,0.1,0.3l6.8,6.8l-6.8,6.8c-0.1,0.1-0.1,0.2-0.1,0.3
		c0,0.2,0.2,0.4,0.4,0.4c0.1,0,0.2,0,0.3-0.1l6.8-6.8l6.8,6.8c0.1,0.1,0.2,0.1,0.3,0.1c0.2,0,0.4-0.2,0.4-0.4c0-0.1,0-0.2-0.1-0.3
		L278.2,18.9z"/>
</g>
<g>
	<g>
		<path class="st6" d="M39.1,101.2h-1.6v-0.6h1.6v-1.7h0.6v1.7h1.6v0.6h-1.6v1.7h-0.6V101.2z"/>
		<path class="st6" d="M45.8,98.2c0-0.3,0.2-0.5,0.5-0.5s0.5,0.2,0.5,0.5c0,0.3-0.2,0.5-0.5,0.5S45.8,98.5,45.8,98.2z M45.9,99.5
			h0.7v4.3h-0.7V99.5z"/>
		<path class="st6" d="M49,99.5h0.6l0.1,0.6h0c0.4-0.4,0.9-0.7,1.5-0.7c0.9,0,1.3,0.6,1.3,1.7v2.7h-0.7v-2.6c0-0.8-0.2-1.2-0.8-1.2
			c-0.4,0-0.7,0.2-1.2,0.7v3.1H49V99.5z"/>
		<path class="st6" d="M56.7,98.1c-0.2-0.1-0.3-0.1-0.5-0.1c-0.4,0-0.6,0.3-0.6,0.8v0.7h0.9v0.6h-0.9v3.7h-0.7v-3.7h-0.6v-0.6l0.6,0
			v-0.7c0-0.9,0.4-1.4,1.3-1.4c0.3,0,0.5,0.1,0.7,0.1L56.7,98.1z"/>
		<path class="st6" d="M58.2,97.5H59v5.5c0,0.2,0.1,0.3,0.2,0.3c0,0,0.1,0,0.2,0l0.1,0.6c-0.1,0-0.2,0.1-0.4,0.1
			c-0.6,0-0.8-0.3-0.8-1V97.5z"/>
		<path class="st6" d="M61.3,99.5h0.7v2.6c0,0.8,0.2,1.2,0.8,1.2c0.4,0,0.8-0.2,1.2-0.7v-3.1h0.7v4.3h-0.6l-0.1-0.7h0
			c-0.4,0.5-0.8,0.8-1.4,0.8c-0.9,0-1.3-0.6-1.3-1.7V99.5z"/>
		<path class="st6" d="M68.8,99.4c1.1,0,1.7,0.8,1.7,2c0,0.2,0,0.3,0,0.4h-2.9c0.1,0.9,0.6,1.5,1.4,1.5c0.4,0,0.8-0.1,1.1-0.3
			l0.3,0.5c-0.4,0.2-0.8,0.4-1.4,0.4c-1.2,0-2.1-0.8-2.1-2.3S67.8,99.4,68.8,99.4z M69.8,101.4c0-0.9-0.4-1.4-1.1-1.4
			c-0.6,0-1.2,0.5-1.2,1.4H69.8z"/>
		<path class="st6" d="M72.4,99.5H73l0.1,0.6h0c0.4-0.4,0.9-0.7,1.5-0.7c0.9,0,1.3,0.6,1.3,1.7v2.7h-0.7v-2.6c0-0.8-0.2-1.2-0.8-1.2
			c-0.4,0-0.7,0.2-1.2,0.7v3.1h-0.7V99.5z"/>
		<path class="st6" d="M80,99.4c0.6,0,1,0.2,1.3,0.5l-0.4,0.5c-0.3-0.2-0.5-0.4-0.9-0.4c-0.8,0-1.4,0.7-1.4,1.7c0,1,0.5,1.7,1.3,1.7
			c0.4,0,0.8-0.2,1-0.4l0.3,0.5c-0.4,0.3-0.9,0.6-1.4,0.6c-1.1,0-2-0.8-2-2.3C77.9,100.3,78.8,99.4,80,99.4z"/>
		<path class="st6" d="M83,98.2c0-0.3,0.2-0.5,0.5-0.5c0.3,0,0.5,0.2,0.5,0.5c0,0.3-0.2,0.5-0.5,0.5C83.2,98.7,83,98.5,83,98.2z
			 M83.1,99.5h0.7v4.3h-0.7V99.5z"/>
		<path class="st6" d="M88.7,101.1c0-0.6-0.2-1.1-0.9-1.1c-0.5,0-1,0.2-1.3,0.5l-0.3-0.5c0.4-0.3,1-0.6,1.7-0.6
			c1.1,0,1.5,0.7,1.5,1.8v2.7h-0.6l-0.1-0.5h0c-0.4,0.3-0.9,0.6-1.4,0.6c-0.7,0-1.3-0.5-1.3-1.2C86,101.8,86.8,101.3,88.7,101.1z
			 M87.5,103.4c0.4,0,0.8-0.2,1.2-0.6v-1.2c-1.5,0.2-1.9,0.5-1.9,1.1C86.7,103.2,87.1,103.4,87.5,103.4z"/>
	</g>
</g>
<g class="st7">
	<g>
		<path class="st6" d="M37.9,636.7h2v0.6h-2V636.7z"/>
		<path class="st6" d="M44.5,633.5c0-0.3,0.2-0.5,0.5-0.5s0.5,0.2,0.5,0.5c0,0.3-0.2,0.5-0.5,0.5S44.5,633.8,44.5,633.5z
			 M44.7,634.9h0.7v4.3h-0.7V634.9z"/>
		<path class="st6" d="M47.7,634.9h0.6l0.1,0.6h0c0.4-0.4,0.9-0.7,1.5-0.7c0.9,0,1.3,0.6,1.3,1.7v2.7h-0.7v-2.6
			c0-0.8-0.2-1.2-0.8-1.2c-0.4,0-0.7,0.2-1.2,0.7v3.1h-0.7V634.9z"/>
		<path class="st6" d="M55.4,633.5c-0.2-0.1-0.3-0.1-0.5-0.1c-0.4,0-0.6,0.3-0.6,0.8v0.7h0.9v0.6h-0.9v3.7h-0.7v-3.7H53v-0.6l0.6,0
			v-0.7c0-0.9,0.4-1.4,1.3-1.4c0.3,0,0.5,0.1,0.7,0.1L55.4,633.5z"/>
		<path class="st6" d="M57,632.9h0.7v5.5c0,0.2,0.1,0.3,0.2,0.3c0,0,0.1,0,0.2,0l0.1,0.6c-0.1,0-0.2,0.1-0.4,0.1
			c-0.6,0-0.8-0.3-0.8-1V632.9z"/>
		<path class="st6" d="M60.1,634.9h0.7v2.6c0,0.8,0.2,1.2,0.8,1.2c0.4,0,0.8-0.2,1.2-0.7v-3.1h0.7v4.3h-0.6l-0.1-0.7h0
			c-0.4,0.5-0.8,0.8-1.4,0.8c-0.9,0-1.3-0.6-1.3-1.7V634.9z"/>
		<path class="st6" d="M67.5,634.8c1.1,0,1.7,0.8,1.7,2c0,0.2,0,0.3,0,0.4h-2.9c0.1,0.9,0.6,1.5,1.4,1.5c0.4,0,0.8-0.1,1.1-0.3
			l0.3,0.5c-0.4,0.2-0.8,0.4-1.4,0.4c-1.2,0-2.1-0.8-2.1-2.3S66.5,634.8,67.5,634.8z M68.6,636.7c0-0.9-0.4-1.4-1.1-1.4
			c-0.6,0-1.2,0.5-1.2,1.4H68.6z"/>
		<path class="st6" d="M71.2,634.9h0.6l0.1,0.6h0c0.4-0.4,0.9-0.7,1.5-0.7c0.9,0,1.3,0.6,1.3,1.7v2.7h-0.7v-2.6
			c0-0.8-0.2-1.2-0.8-1.2c-0.4,0-0.7,0.2-1.2,0.7v3.1h-0.7V634.9z"/>
		<path class="st6" d="M78.7,634.8c0.6,0,1,0.2,1.3,0.5l-0.4,0.5c-0.3-0.2-0.5-0.4-0.9-0.4c-0.8,0-1.4,0.7-1.4,1.7
			c0,1,0.5,1.7,1.3,1.7c0.4,0,0.8-0.2,1-0.4l0.3,0.5c-0.4,0.3-0.9,0.6-1.4,0.6c-1.1,0-2-0.8-2-2.3C76.6,635.6,77.6,634.8,78.7,634.8
			z"/>
		<path class="st6" d="M81.7,633.5c0-0.3,0.2-0.5,0.5-0.5c0.3,0,0.5,0.2,0.5,0.5c0,0.3-0.2,0.5-0.5,0.5
			C82,634,81.7,633.8,81.7,633.5z M81.9,634.9h0.7v4.3h-0.7V634.9z"/>
		<path class="st6" d="M87.4,636.5c0-0.6-0.2-1.1-0.9-1.1c-0.5,0-1,0.2-1.3,0.5l-0.3-0.5c0.4-0.3,1-0.6,1.7-0.6
			c1.1,0,1.5,0.7,1.5,1.8v2.7h-0.6l-0.1-0.5h0c-0.4,0.3-0.9,0.6-1.4,0.6c-0.7,0-1.3-0.5-1.3-1.2C84.7,637.1,85.6,636.7,87.4,636.5z
			 M86.2,638.7c0.4,0,0.8-0.2,1.2-0.6v-1.2c-1.5,0.2-1.9,0.5-1.9,1.1C85.5,638.5,85.8,638.7,86.2,638.7z"/>
	</g>
</g>
<rect x="108.3" y="98.6" class="st8" width="21" height="540.7"/>
<polyline class="st9" points="97.1,98.6 97.1,333.6 93.2,338 97.1,342.8 97.1,639.3 "/>
<g>
	<path class="st6" d="M9,334.4H11c2.2,0,3.5,1.2,3.5,3.6c0,2.4-1.3,3.6-3.4,3.6H9V334.4z M10.9,340.6c1.5,0,2.3-0.8,2.3-2.6
		c0-1.8-0.8-2.5-2.3-2.5h-0.6v5.1H10.9z"/>
	<path class="st6" d="M17,334.4h4.3v1.1h-3.1v1.8h2.6v1.1h-2.6v2.1h3.2v1.1H17V334.4z"/>
	<path class="st6" d="M24.3,339.8c0.5,0.5,1.2,0.8,1.9,0.8c0.8,0,1.3-0.4,1.3-0.9c0-0.6-0.5-0.8-1.1-1.1l-1-0.4
		c-0.7-0.3-1.5-0.9-1.5-1.9c0-1.1,1-2,2.4-2c0.8,0,1.7,0.4,2.2,0.9l-0.7,0.8c-0.5-0.4-0.9-0.6-1.6-0.6c-0.7,0-1.1,0.3-1.1,0.9
		c0,0.6,0.6,0.8,1.1,1l1,0.4c0.8,0.4,1.5,0.9,1.5,2c0,1.2-1,2.1-2.6,2.1c-1,0-1.9-0.4-2.6-1.1L24.3,339.8z"/>
	<path class="st6" d="M31.2,334.4h1.3v7.2h-1.3V334.4z"/>
	<path class="st6" d="M38.5,334.3c1,0,1.7,0.5,2.2,0.9l-0.7,0.8c-0.4-0.4-0.8-0.6-1.4-0.6c-1.3,0-2.1,1-2.1,2.6
		c0,1.6,0.8,2.6,2.2,2.6c0.4,0,0.8-0.1,1-0.3v-1.6h-1.4v-1h2.5v3.2c-0.5,0.5-1.3,0.9-2.3,0.9c-1.9,0-3.4-1.3-3.4-3.7
		C35,335.7,36.5,334.3,38.5,334.3z"/>
	<path class="st6" d="M43.4,334.4h1.3v4.1c0,1.6,0.6,2.1,1.5,2.1c0.9,0,1.5-0.5,1.5-2.1v-4.1h1.2v4c0,2.4-1,3.3-2.7,3.3
		c-1.7,0-2.7-0.9-2.7-3.3V334.4z"/>
	<path class="st6" d="M55,339.7h-2.4l-0.6,2h-1.3l2.4-7.2h1.5l2.4,7.2h-1.3L55,339.7z M54.7,338.7l-0.3-0.9
		c-0.2-0.8-0.4-1.6-0.7-2.4h0c-0.2,0.8-0.4,1.6-0.6,2.4l-0.3,0.9H54.7z"/>
	<path class="st6" d="M58.9,334.4h1.3v6.1h3v1.1h-4.3V334.4z"/>
	<path class="st6" d="M65.5,334.4h1.9c2.2,0,3.5,1.2,3.5,3.6c0,2.4-1.3,3.6-3.4,3.6h-2V334.4z M67.4,340.6c1.5,0,2.3-0.8,2.3-2.6
		c0-1.8-0.8-2.5-2.3-2.5h-0.6v5.1H67.4z"/>
	<path class="st6" d="M76.8,339.7h-2.4l-0.6,2h-1.3l2.4-7.2h1.5l2.4,7.2h-1.3L76.8,339.7z M76.5,338.7l-0.3-0.9
		c-0.2-0.8-0.4-1.6-0.7-2.4h0c-0.2,0.8-0.4,1.6-0.6,2.4l-0.3,0.9H76.5z"/>
	<path class="st6" d="M80.7,334.4h1.9c2.2,0,3.5,1.2,3.5,3.6c0,2.4-1.3,3.6-3.4,3.6h-2V334.4z M82.5,340.6c1.5,0,2.3-0.8,2.3-2.6
		c0-1.8-0.8-2.5-2.3-2.5H82v5.1H82.5z"/>
</g>
<text transform="matrix(1 0 0 1 9.0323 356.9885)"><tspan x="0" y="0" class="st10 st11">¿Qué factores </tspan><tspan x="0" y="12" class="st10 st11">influyen más</tspan><tspan x="0" y="24" class="st10 st11">en la diferen-</tspan><tspan x="0" y="36" class="st10 st11">cia entre</tspan><tspan x="0" y="48" class="st10 st11">cobertura</tspan><tspan x="0" y="60" class="st10 st11">y IOH?</tspan></text>
</svg>
