<?xml version="1.0" encoding="utf-8"?>
<!-- Generator: Adobe Illustrator 20.0.0, SVG Export Plug-In . SVG Version: 6.00 Build 0)  -->
<svg version="1.1" id="Capa_1" xmlns="http://www.w3.org/2000/svg" xmlns:xlink="http://www.w3.org/1999/xlink" x="0px" y="0px"
	 viewBox="0 0 298.1 654" style="enable-background:new 0 0 298.1 654;" xml:space="preserve">
<style type="text/css">
	.st0{opacity:0.98;fill:#FFFFFF;}
	.st1{fill:#FF9719;}
	.st2{opacity:0.99;}
	.st3{opacity:0.99;fill:#44B254;}
	.st4{opacity:0.99;fill:#495E4A;}
	.st5{opacity:0.95;fill:none;stroke:#000000;stroke-width:0.25;stroke-miterlimit:10;}
	.st6{fill:#ED1C24;}
	.st7{opacity:0.5;}
	.st8{opacity:0.94;fill:none;stroke:#000000;stroke-width:0.25;stroke-miterlimit:10;}
	.st9{fill:none;stroke:#ED1C24;stroke-miterlimit:10;}
	.st10{font-family:'SourceSansPro-Regular';}
	.st11{font-size:10px;}
</style>
<polygon class="st0" points="-0.9,83.2 -0.9,83.2 -0.9,0.3 297.2,0.3 297.2,654 -0.9,654 -0.9,119.9 -0.9,119.9 "/>
<path class="st1" d="M282.1,14.1l6.8-6.8c0.1-0.1,0.1-0.2,0.1-0.3c0-0.2-0.2-0.4-0.4-0.4c-0.1,0-0.2,0-0.3,0.1l-6.8,6.8l-6.8-6.8
	c-0.1-0.1-0.2-0.1-0.3-0.1c-0.2,0-0.4,0.2-0.4,0.4c0,0.1,0,0.2,0.1,0.3l6.8,6.8l-6.8,6.8c-0.1,0.1-0.1,0.2-0.1,0.3
	c0,0.2,0.2,0.4,0.4,0.4c0.1,0,0.2,0,0.3-0.1l6.8-6.8l6.8,6.8c0.1,0.1,0.2,0.1,0.3,0.1c0.2,0,0.4-0.2,0.4-0.4c0-0.1,0-0.2-0.1-0.3
	L282.1,14.1z"/>
<polygon class="st0" points="0.5,82.6 0.5,82.6 0.5,-0.3 298.6,-0.3 298.6,654 0.5,654 0.5,119.2 0.5,119.2 "/>
<g class="st2">
	<g>
		<path class="st3" d="M10.4,13.8h4.7V15h-3.3v2h2.8v1.2h-2.8v2.3h3.4v1.2h-4.8V13.8z"/>
		<path class="st3" d="M17.9,20.1c0.5,0.4,1,0.7,1.6,0.7c0.6,0,0.9-0.3,0.9-0.7c0-0.5-0.6-0.7-1.3-0.9c-0.8-0.3-1.6-0.7-1.6-1.7
			c0-1,0.8-1.8,2.1-1.8c0.8,0,1.5,0.3,1.9,0.7L21,17.1c-0.4-0.3-0.8-0.5-1.3-0.5c-0.6,0-0.9,0.3-0.9,0.6c0,0.5,0.6,0.6,1.2,0.9
			c0.8,0.3,1.7,0.7,1.7,1.8c0,1-0.8,1.8-2.3,1.8c-0.8,0-1.6-0.3-2.2-0.8L17.9,20.1z"/>
		<path class="st3" d="M26.8,15.6c0.8,0,1.3,0.3,1.7,0.7l-0.7,0.9c-0.3-0.3-0.6-0.4-1-0.4c-0.9,0-1.6,0.8-1.6,2
			c0,1.2,0.6,1.9,1.6,1.9c0.5,0,0.9-0.2,1.2-0.5l0.6,0.9c-0.5,0.5-1.3,0.8-1.9,0.8c-1.6,0-2.8-1.1-2.8-3.1
			C23.8,16.7,25.2,15.6,26.8,15.6z"/>
		<path class="st3" d="M33,15.6c1.5,0,2.8,1.1,2.8,3.1c0,1.9-1.3,3.1-2.8,3.1c-1.5,0-2.8-1.1-2.8-3.1C30.3,16.7,31.6,15.6,33,15.6z
			 M33,20.6c0.9,0,1.4-0.8,1.4-1.9c0-1.2-0.5-2-1.4-2c-0.9,0-1.4,0.8-1.4,2C31.7,19.9,32.2,20.6,33,20.6z"/>
		<path class="st3" d="M38.4,13.2h1.4v7c0,0.3,0.2,0.5,0.3,0.5c0.1,0,0.1,0,0.2,0l0.2,1c-0.2,0.1-0.4,0.1-0.7,0.1
			c-1,0-1.3-0.6-1.3-1.6V13.2z"/>
		<path class="st3" d="M46,17.9c0-0.6-0.3-1.1-1.1-1.1c-0.6,0-1.1,0.3-1.6,0.6l-0.5-0.9c0.6-0.4,1.5-0.8,2.4-0.8
			c1.5,0,2.2,0.9,2.2,2.5v3.5h-1.1L46.2,21h0c-0.5,0.4-1.1,0.8-1.8,0.8c-1,0-1.7-0.7-1.7-1.7C42.6,18.8,43.6,18.1,46,17.9z
			 M44.8,20.7c0.5,0,0.8-0.2,1.3-0.6v-1.3c-1.6,0.2-2.1,0.6-2.1,1.2C43.9,20.5,44.3,20.7,44.8,20.7z"/>
		<path class="st3" d="M50.3,15.7h1.1l0.1,1h0c0.4-0.8,1-1.2,1.7-1.2c0.3,0,0.5,0,0.7,0.1l-0.2,1.2c-0.2-0.1-0.4-0.1-0.6-0.1
			c-0.5,0-1,0.3-1.4,1.2v3.6h-1.4V15.7z"/>
		<path class="st3" d="M55.8,13.9c0-0.5,0.4-0.8,0.8-0.8c0.5,0,0.8,0.3,0.8,0.8c0,0.5-0.4,0.8-0.8,0.8
			C56.1,14.7,55.8,14.4,55.8,13.9z M55.9,15.7h1.4v5.9h-1.4V15.7z"/>
		<path class="st3" d="M59.8,20.9l2.8-4h-2.5v-1.1h4.2v0.7l-2.8,4h2.9v1.1h-4.6V20.9z"/>
		<path class="st3" d="M69.7,17.9c0-0.6-0.3-1.1-1.1-1.1c-0.6,0-1.1,0.3-1.6,0.6l-0.5-0.9c0.6-0.4,1.5-0.8,2.4-0.8
			c1.5,0,2.2,0.9,2.2,2.5v3.5H70L69.9,21h0c-0.5,0.4-1.1,0.8-1.8,0.8c-1,0-1.7-0.7-1.7-1.7C66.3,18.8,67.3,18.1,69.7,17.9z
			 M68.4,20.7c0.5,0,0.8-0.2,1.3-0.6v-1.3c-1.6,0.2-2.1,0.6-2.1,1.2C67.6,20.5,68,20.7,68.4,20.7z"/>
		<path class="st3" d="M76.1,15.6c0.7,0,1.1,0.3,1.5,0.6l0-0.9v-2.1H79v8.4h-1.1L77.7,21h0c-0.4,0.4-1,0.8-1.7,0.8
			c-1.5,0-2.4-1.1-2.4-3.1C73.6,16.8,74.8,15.6,76.1,15.6z M76.4,20.6c0.5,0,0.8-0.2,1.2-0.7v-2.7c-0.4-0.4-0.8-0.5-1.2-0.5
			c-0.8,0-1.4,0.7-1.4,1.9C75,19.9,75.5,20.6,76.4,20.6z"/>
		<path class="st3" d="M85.1,17.9c0-0.6-0.3-1.1-1.1-1.1c-0.6,0-1.1,0.3-1.6,0.6l-0.5-0.9c0.6-0.4,1.5-0.8,2.4-0.8
			c1.5,0,2.2,0.9,2.2,2.5v3.5h-1.1L85.2,21h0c-0.5,0.4-1.1,0.8-1.8,0.8c-1,0-1.7-0.7-1.7-1.7C81.6,18.8,82.7,18.1,85.1,17.9z
			 M83.8,20.7c0.5,0,0.8-0.2,1.3-0.6v-1.3c-1.6,0.2-2.1,0.6-2.1,1.2C83,20.5,83.3,20.7,83.8,20.7z"/>
		<path class="st3" d="M89.4,20.1c0.5,0.4,1,0.7,1.6,0.7c0.6,0,0.9-0.3,0.9-0.7c0-0.5-0.6-0.7-1.3-0.9c-0.8-0.3-1.6-0.7-1.6-1.7
			c0-1,0.8-1.8,2.1-1.8c0.8,0,1.5,0.3,1.9,0.7l-0.6,0.8c-0.4-0.3-0.8-0.5-1.3-0.5c-0.6,0-0.9,0.3-0.9,0.6c0,0.5,0.6,0.6,1.2,0.9
			c0.8,0.3,1.7,0.7,1.7,1.8c0,1-0.8,1.8-2.3,1.8c-0.8,0-1.6-0.3-2.2-0.8L89.4,20.1z"/>
	</g>
</g>
<g>
	<g>
		<path class="st4" d="M13.1,41.8c0.8,0,1.5,0.4,1.9,0.9l-0.5,0.6c-0.4-0.4-0.8-0.7-1.4-0.7c-1.3,0-2.2,1.1-2.2,2.9
			c0,1.8,0.9,2.9,2.2,2.9c0.7,0,1.2-0.3,1.6-0.8l0.5,0.5c-0.6,0.6-1.2,1-2.2,1c-1.8,0-3.1-1.4-3.1-3.7C9.9,43.2,11.3,41.8,13.1,41.8
			z"/>
		<path class="st4" d="M19.5,43.6c1.3,0,2.4,1,2.4,2.8c0,1.7-1.1,2.7-2.4,2.7c-1.3,0-2.4-1-2.4-2.7C17.1,44.6,18.2,43.6,19.5,43.6z
			 M19.5,48.4c0.9,0,1.5-0.8,1.5-2c0-1.2-0.6-2-1.5-2c-0.9,0-1.5,0.8-1.5,2C18,47.6,18.6,48.4,19.5,48.4z"/>
		<path class="st4" d="M24.4,41.3h0.9v2.1l0,0.9c0.5-0.4,1.1-0.7,1.6-0.7c1.4,0,2.1,1,2.1,2.7c0,1.8-1.1,2.8-2.3,2.8
			c-0.5,0-1-0.2-1.5-0.6h0L25.1,49h-0.7V41.3z M26.5,48.4c0.9,0,1.5-0.8,1.5-2.1c0-1.2-0.4-1.9-1.4-1.9c-0.4,0-0.9,0.2-1.4,0.7v2.7
			C25.7,48.2,26.2,48.4,26.5,48.4z"/>
		<path class="st4" d="M33.4,43.6c1.3,0,2.1,1,2.1,2.5c0,0.2,0,0.4,0,0.5h-3.5c0.1,1.1,0.7,1.8,1.7,1.8c0.5,0,0.9-0.2,1.3-0.4
			l0.3,0.6c-0.5,0.3-1,0.5-1.7,0.5c-1.4,0-2.5-1-2.5-2.7C31,44.7,32.2,43.6,33.4,43.6z M34.7,46c0-1.1-0.5-1.7-1.3-1.7
			c-0.7,0-1.4,0.6-1.5,1.7H34.7z"/>
		<path class="st4" d="M37.8,43.8h0.7l0.1,0.9h0c0.4-0.7,0.9-1.1,1.5-1.1c0.2,0,0.4,0,0.6,0.1l-0.2,0.8c-0.2-0.1-0.3-0.1-0.5-0.1
			c-0.4,0-1,0.3-1.3,1.2V49h-0.9V43.8z"/>
		<path class="st4" d="M42.8,44.5H42v-0.7l0.8-0.1l0.1-1.5h0.7v1.5h1.4v0.7h-1.4v2.9c0,0.6,0.2,1,0.8,1c0.2,0,0.4-0.1,0.6-0.1
			l0.2,0.7c-0.3,0.1-0.6,0.2-1,0.2c-1.1,0-1.5-0.7-1.5-1.7V44.5z"/>
		<path class="st4" d="M47.2,43.8h0.9V47c0,1,0.3,1.4,1,1.4c0.5,0,0.9-0.3,1.4-0.9v-3.7h0.9V49h-0.7l-0.1-0.8h0
			c-0.5,0.6-1,0.9-1.7,0.9c-1.1,0-1.6-0.7-1.6-2V43.8z"/>
		<path class="st4" d="M54.2,43.8h0.7l0.1,0.9h0c0.4-0.7,0.9-1.1,1.5-1.1c0.2,0,0.4,0,0.6,0.1l-0.2,0.8c-0.2-0.1-0.3-0.1-0.5-0.1
			c-0.4,0-1,0.3-1.3,1.2V49h-0.9V43.8z"/>
		<path class="st4" d="M61.7,45.7c0-0.7-0.2-1.3-1.1-1.3c-0.6,0-1.2,0.3-1.6,0.6l-0.4-0.6c0.5-0.3,1.2-0.7,2.1-0.7
			c1.3,0,1.8,0.8,1.8,2.2V49h-0.7l-0.1-0.6h0c-0.5,0.4-1.1,0.8-1.7,0.8c-0.9,0-1.5-0.5-1.5-1.5C58.5,46.5,59.5,45.9,61.7,45.7z
			 M60.3,48.4c0.5,0,0.9-0.2,1.4-0.7v-1.5c-1.8,0.2-2.3,0.6-2.3,1.3C59.4,48.2,59.8,48.4,60.3,48.4z"/>
	</g>
</g>
<line class="st5" x1="9.4" y1="53.2" x2="288.2" y2="53.2"/>
<line class="st5" x1="9.4" y1="72.6" x2="288.2" y2="72.6"/>
<g class="st2">
	<g>
		<path class="st3" d="M10.4,59.9h0.9V67h-0.9V59.9z"/>
		<path class="st3" d="M13.8,63.4c0-2.3,1.2-3.6,3-3.6c1.8,0,3,1.4,3,3.6c0,2.3-1.2,3.7-3,3.7C15.1,67.1,13.8,65.7,13.8,63.4z
			 M18.9,63.4c0-1.8-0.8-2.8-2.1-2.8c-1.3,0-2.1,1.1-2.1,2.8c0,1.8,0.8,2.9,2.1,2.9C18.1,66.3,18.9,65.2,18.9,63.4z"/>
		<path class="st3" d="M22.5,59.9h0.9v3h3.3v-3h0.9V67h-0.9v-3.3h-3.3V67h-0.9V59.9z"/>
	</g>
</g>
<path class="st1" d="M279.6,18.3l6.8-6.8c0.1-0.1,0.1-0.2,0.1-0.3c0-0.2-0.2-0.4-0.4-0.4c-0.1,0-0.2,0-0.3,0.1l-6.8,6.8l-6.8-6.8
	c-0.1-0.1-0.2-0.1-0.3-0.1c-0.2,0-0.4,0.2-0.4,0.4c0,0.1,0,0.2,0.1,0.3l6.8,6.8l-6.8,6.8c-0.1,0.1-0.1,0.2-0.1,0.3
	c0,0.2,0.2,0.4,0.4,0.4c0.1,0,0.2,0,0.3-0.1l6.8-6.8l6.8,6.8c0.1,0.1,0.2,0.1,0.3,0.1c0.2,0,0.4-0.2,0.4-0.4c0-0.1,0-0.2-0.1-0.3
	L279.6,18.3z"/>
<g>
	<g>
		<path class="st6" d="M39.1,101.2h-1.6v-0.6h1.6v-1.7h0.6v1.7h1.6v0.6h-1.6v1.7h-0.6V101.2z"/>
		<path class="st6" d="M45.8,98.2c0-0.3,0.2-0.5,0.5-0.5s0.5,0.2,0.5,0.5c0,0.3-0.2,0.5-0.5,0.5S45.8,98.5,45.8,98.2z M45.9,99.5
			h0.7v4.3h-0.7V99.5z"/>
		<path class="st6" d="M49,99.5h0.6l0.1,0.6h0c0.4-0.4,0.9-0.7,1.5-0.7c0.9,0,1.3,0.6,1.3,1.7v2.7h-0.7v-2.6c0-0.8-0.2-1.2-0.8-1.2
			c-0.4,0-0.7,0.2-1.2,0.7v3.1H49V99.5z"/>
		<path class="st6" d="M56.7,98.1c-0.2-0.1-0.3-0.1-0.5-0.1c-0.4,0-0.6,0.3-0.6,0.8v0.7h0.9v0.6h-0.9v3.7h-0.7v-3.7h-0.6v-0.6l0.6,0
			v-0.7c0-0.9,0.4-1.4,1.3-1.4c0.3,0,0.5,0.1,0.7,0.1L56.7,98.1z"/>
		<path class="st6" d="M58.2,97.5H59v5.5c0,0.2,0.1,0.3,0.2,0.3c0,0,0.1,0,0.2,0l0.1,0.6c-0.1,0-0.2,0.1-0.4,0.1
			c-0.6,0-0.8-0.3-0.8-1V97.5z"/>
		<path class="st6" d="M61.3,99.5h0.7v2.6c0,0.8,0.2,1.2,0.8,1.2c0.4,0,0.8-0.2,1.2-0.7v-3.1h0.7v4.3h-0.6l-0.1-0.7h0
			c-0.4,0.5-0.8,0.8-1.4,0.8c-0.9,0-1.3-0.6-1.3-1.7V99.5z"/>
		<path class="st6" d="M68.8,99.4c1.1,0,1.7,0.8,1.7,2c0,0.2,0,0.3,0,0.4h-2.9c0.1,0.9,0.6,1.5,1.4,1.5c0.4,0,0.8-0.1,1.1-0.3
			l0.3,0.5c-0.4,0.2-0.8,0.4-1.4,0.4c-1.2,0-2.1-0.8-2.1-2.3S67.8,99.4,68.8,99.4z M69.8,101.4c0-0.9-0.4-1.4-1.1-1.4
			c-0.6,0-1.2,0.5-1.2,1.4H69.8z"/>
		<path class="st6" d="M72.4,99.5H73l0.1,0.6h0c0.4-0.4,0.9-0.7,1.5-0.7c0.9,0,1.3,0.6,1.3,1.7v2.7h-0.7v-2.6c0-0.8-0.2-1.2-0.8-1.2
			c-0.4,0-0.7,0.2-1.2,0.7v3.1h-0.7V99.5z"/>
		<path class="st6" d="M80,99.4c0.6,0,1,0.2,1.3,0.5l-0.4,0.5c-0.3-0.2-0.5-0.4-0.9-0.4c-0.8,0-1.4,0.7-1.4,1.7c0,1,0.5,1.7,1.3,1.7
			c0.4,0,0.8-0.2,1-0.4l0.3,0.5c-0.4,0.3-0.9,0.6-1.4,0.6c-1.1,0-2-0.8-2-2.3C77.9,100.3,78.8,99.4,80,99.4z"/>
		<path class="st6" d="M83,98.2c0-0.3,0.2-0.5,0.5-0.5c0.3,0,0.5,0.2,0.5,0.5c0,0.3-0.2,0.5-0.5,0.5C83.2,98.7,83,98.5,83,98.2z
			 M83.1,99.5h0.7v4.3h-0.7V99.5z"/>
		<path class="st6" d="M88.7,101.1c0-0.6-0.2-1.1-0.9-1.1c-0.5,0-1,0.2-1.3,0.5l-0.3-0.5c0.4-0.3,1-0.6,1.7-0.6
			c1.1,0,1.5,0.7,1.5,1.8v2.7h-0.6l-0.1-0.5h0c-0.4,0.3-0.9,0.6-1.4,0.6c-0.7,0-1.3-0.5-1.3-1.2C86,101.8,86.8,101.3,88.7,101.1z
			 M87.5,103.4c0.4,0,0.8-0.2,1.2-0.6v-1.2c-1.5,0.2-1.9,0.5-1.9,1.1C86.7,103.2,87.1,103.4,87.5,103.4z"/>
	</g>
</g>
<g class="st7">
	<g>
		<path class="st6" d="M37.9,636.7h2v0.6h-2V636.7z"/>
		<path class="st6" d="M44.5,633.5c0-0.3,0.2-0.5,0.5-0.5s0.5,0.2,0.5,0.5c0,0.3-0.2,0.5-0.5,0.5S44.5,633.8,44.5,633.5z
			 M44.7,634.9h0.7v4.3h-0.7V634.9z"/>
		<path class="st6" d="M47.7,634.9h0.6l0.1,0.6h0c0.4-0.4,0.9-0.7,1.5-0.7c0.9,0,1.3,0.6,1.3,1.7v2.7h-0.7v-2.6
			c0-0.8-0.2-1.2-0.8-1.2c-0.4,0-0.7,0.2-1.2,0.7v3.1h-0.7V634.9z"/>
		<path class="st6" d="M55.4,633.5c-0.2-0.1-0.3-0.1-0.5-0.1c-0.4,0-0.6,0.3-0.6,0.8v0.7h0.9v0.6h-0.9v3.7h-0.7v-3.7H53v-0.6l0.6,0
			v-0.7c0-0.9,0.4-1.4,1.3-1.4c0.3,0,0.5,0.1,0.7,0.1L55.4,633.5z"/>
		<path class="st6" d="M57,632.9h0.7v5.5c0,0.2,0.1,0.3,0.2,0.3c0,0,0.1,0,0.2,0l0.1,0.6c-0.1,0-0.2,0.1-0.4,0.1
			c-0.6,0-0.8-0.3-0.8-1V632.9z"/>
		<path class="st6" d="M60.1,634.9h0.7v2.6c0,0.8,0.2,1.2,0.8,1.2c0.4,0,0.8-0.2,1.2-0.7v-3.1h0.7v4.3h-0.6l-0.1-0.7h0
			c-0.4,0.5-0.8,0.8-1.4,0.8c-0.9,0-1.3-0.6-1.3-1.7V634.9z"/>
		<path class="st6" d="M67.5,634.8c1.1,0,1.7,0.8,1.7,2c0,0.2,0,0.3,0,0.4h-2.9c0.1,0.9,0.6,1.5,1.4,1.5c0.4,0,0.8-0.1,1.1-0.3
			l0.3,0.5c-0.4,0.2-0.8,0.4-1.4,0.4c-1.2,0-2.1-0.8-2.1-2.3S66.5,634.8,67.5,634.8z M68.6,636.7c0-0.9-0.4-1.4-1.1-1.4
			c-0.6,0-1.2,0.5-1.2,1.4H68.6z"/>
		<path class="st6" d="M71.2,634.9h0.6l0.1,0.6h0c0.4-0.4,0.9-0.7,1.5-0.7c0.9,0,1.3,0.6,1.3,1.7v2.7h-0.7v-2.6
			c0-0.8-0.2-1.2-0.8-1.2c-0.4,0-0.7,0.2-1.2,0.7v3.1h-0.7V634.9z"/>
		<path class="st6" d="M78.7,634.8c0.6,0,1,0.2,1.3,0.5l-0.4,0.5c-0.3-0.2-0.5-0.4-0.9-0.4c-0.8,0-1.4,0.7-1.4,1.7
			c0,1,0.5,1.7,1.3,1.7c0.4,0,0.8-0.2,1-0.4l0.3,0.5c-0.4,0.3-0.9,0.6-1.4,0.6c-1.1,0-2-0.8-2-2.3C76.6,635.6,77.6,634.8,78.7,634.8
			z"/>
		<path class="st6" d="M81.7,633.5c0-0.3,0.2-0.5,0.5-0.5c0.3,0,0.5,0.2,0.5,0.5c0,0.3-0.2,0.5-0.5,0.5
			C82,634,81.7,633.8,81.7,633.5z M81.9,634.9h0.7v4.3h-0.7V634.9z"/>
		<path class="st6" d="M87.4,636.5c0-0.6-0.2-1.1-0.9-1.1c-0.5,0-1,0.2-1.3,0.5l-0.3-0.5c0.4-0.3,1-0.6,1.7-0.6
			c1.1,0,1.5,0.7,1.5,1.8v2.7h-0.6l-0.1-0.5h0c-0.4,0.3-0.9,0.6-1.4,0.6c-0.7,0-1.3-0.5-1.3-1.2C84.7,637.1,85.6,636.7,87.4,636.5z
			 M86.2,638.7c0.4,0,0.8-0.2,1.2-0.6v-1.2c-1.5,0.2-1.9,0.5-1.9,1.1C85.5,638.5,85.8,638.7,86.2,638.7z"/>
	</g>
</g>
<rect x="108.3" y="98.6" class="st8" width="21" height="540.7"/>
<polyline class="st9" points="97.1,98.6 97.1,333.6 93.2,338 97.1,342.8 97.1,639.3 "/>
<g>
	<path class="st6" d="M9,334.4H11c2.2,0,3.5,1.2,3.5,3.6c0,2.4-1.3,3.6-3.4,3.6H9V334.4z M10.9,340.6c1.5,0,2.3-0.8,2.3-2.6
		c0-1.8-0.8-2.5-2.3-2.5h-0.6v5.1H10.9z"/>
	<path class="st6" d="M17,334.4h4.3v1.1h-3.1v1.8h2.6v1.1h-2.6v2.1h3.2v1.1H17V334.4z"/>
	<path class="st6" d="M24.3,339.8c0.5,0.5,1.2,0.8,1.9,0.8c0.8,0,1.3-0.4,1.3-0.9c0-0.6-0.5-0.8-1.1-1.1l-1-0.4
		c-0.7-0.3-1.5-0.9-1.5-1.9c0-1.1,1-2,2.4-2c0.8,0,1.7,0.4,2.2,0.9l-0.7,0.8c-0.5-0.4-0.9-0.6-1.6-0.6c-0.7,0-1.1,0.3-1.1,0.9
		c0,0.6,0.6,0.8,1.1,1l1,0.4c0.8,0.4,1.5,0.9,1.5,2c0,1.2-1,2.1-2.6,2.1c-1,0-1.9-0.4-2.6-1.1L24.3,339.8z"/>
	<path class="st6" d="M31.2,334.4h1.3v7.2h-1.3V334.4z"/>
	<path class="st6" d="M38.5,334.3c1,0,1.7,0.5,2.2,0.9l-0.7,0.8c-0.4-0.4-0.8-0.6-1.4-0.6c-1.3,0-2.1,1-2.1,2.6
		c0,1.6,0.8,2.6,2.2,2.6c0.4,0,0.8-0.1,1-0.3v-1.6h-1.4v-1h2.5v3.2c-0.5,0.5-1.3,0.9-2.3,0.9c-1.9,0-3.4-1.3-3.4-3.7
		C35,335.7,36.5,334.3,38.5,334.3z"/>
	<path class="st6" d="M43.4,334.4h1.3v4.1c0,1.6,0.6,2.1,1.5,2.1c0.9,0,1.5-0.5,1.5-2.1v-4.1h1.2v4c0,2.4-1,3.3-2.7,3.3
		c-1.7,0-2.7-0.9-2.7-3.3V334.4z"/>
	<path class="st6" d="M55,339.7h-2.4l-0.6,2h-1.3l2.4-7.2h1.5l2.4,7.2h-1.3L55,339.7z M54.7,338.7l-0.3-0.9
		c-0.2-0.8-0.4-1.6-0.7-2.4h0c-0.2,0.8-0.4,1.6-0.6,2.4l-0.3,0.9H54.7z"/>
	<path class="st6" d="M58.9,334.4h1.3v6.1h3v1.1h-4.3V334.4z"/>
	<path class="st6" d="M65.5,334.4h1.9c2.2,0,3.5,1.2,3.5,3.6c0,2.4-1.3,3.6-3.4,3.6h-2V334.4z M67.4,340.6c1.5,0,2.3-0.8,2.3-2.6
		c0-1.8-0.8-2.5-2.3-2.5h-0.6v5.1H67.4z"/>
	<path class="st6" d="M76.8,339.7h-2.4l-0.6,2h-1.3l2.4-7.2h1.5l2.4,7.2h-1.3L76.8,339.7z M76.5,338.7l-0.3-0.9
		c-0.2-0.8-0.4-1.6-0.7-2.4h0c-0.2,0.8-0.4,1.6-0.6,2.4l-0.3,0.9H76.5z"/>
	<path class="st6" d="M80.7,334.4h1.9c2.2,0,3.5,1.2,3.5,3.6c0,2.4-1.3,3.6-3.4,3.6h-2V334.4z M82.5,340.6c1.5,0,2.3-0.8,2.3-2.6
		c0-1.8-0.8-2.5-2.3-2.5H82v5.1H82.5z"/>
</g>
<text transform="matrix(1 0 0 1 9.0323 356.9884)"><tspan x="0" y="0" class="st10 st11">¿Qué factores </tspan><tspan x="0" y="12" class="st10 st11">influyen más</tspan><tspan x="0" y="24" class="st10 st11">en la diferen-</tspan><tspan x="0" y="36" class="st10 st11">cia entre</tspan><tspan x="0" y="48" class="st10 st11">cobertura</tspan><tspan x="0" y="60" class="st10 st11">y IOH?</tspan></text>
</svg>
