<?xml version="1.0" encoding="utf-8"?>
<!-- Generator: Adobe Illustrator 20.0.0, SVG Export Plug-In . SVG Version: 6.00 Build 0)  -->
<svg version="1.1" id="Capa_1" xmlns="http://www.w3.org/2000/svg" xmlns:xlink="http://www.w3.org/1999/xlink" x="0px" y="0px"
	 viewBox="0 0 61.2 32.6" style="enable-background:new 0 0 61.2 32.6;" xml:space="preserve">
<style type="text/css">
	.st0{fill:#FF8C00;}
	.st1{opacity:0.95;fill:none;stroke:#000000;stroke-width:0.25;stroke-miterlimit:10;}
</style>
<g>
	<g>
		<path class="st0" d="M3,24c0.7,0,1.2,0.3,1.5,0.7L4.3,25C4,24.6,3.6,24.4,3,24.4c-1.3,0-2.1,1-2.1,2.7s0.8,2.7,2.1,2.7
			c0.6,0,1.1-0.2,1.5-0.7l0.3,0.3c-0.5,0.5-1,0.8-1.8,0.8c-1.5,0-2.5-1.2-2.5-3.1C0.5,25.2,1.5,24,3,24z"/>
		<path class="st0" d="M8.4,25.6c1,0,1.9,0.8,1.9,2.3c0,1.4-0.9,2.3-1.9,2.3c-1,0-1.9-0.8-1.9-2.3C6.4,26.4,7.3,25.6,8.4,25.6z
			 M8.4,29.8c0.9,0,1.5-0.8,1.5-1.9c0-1.1-0.7-1.9-1.5-1.9s-1.5,0.8-1.5,1.9C6.8,29,7.5,29.8,8.4,29.8z"/>
		<path class="st0" d="M14,25.6c0.5,0,0.9,0.2,1.3,0.5l0-0.8v-1.8h0.4V30h-0.3l0-0.6h0c-0.3,0.4-0.8,0.7-1.4,0.7
			c-1.1,0-1.8-0.8-1.8-2.3C12.1,26.5,13,25.6,14,25.6z M14,29.8c0.5,0,0.9-0.3,1.4-0.7v-2.6c-0.5-0.4-0.8-0.6-1.3-0.6
			c-0.9,0-1.5,0.8-1.5,1.9C12.5,29,13,29.8,14,29.8z"/>
		<path class="st0" d="M19.8,25.6c1,0,1.7,0.7,1.7,2c0,0.1,0,0.2,0,0.3h-3.1c0,1.1,0.7,1.9,1.6,1.9c0.5,0,0.8-0.2,1.2-0.4l0.2,0.3
			c-0.3,0.2-0.7,0.4-1.4,0.4c-1.1,0-2-0.8-2-2.3C17.9,26.4,18.8,25.6,19.8,25.6z M21.1,27.6c0-1.1-0.5-1.7-1.3-1.7
			c-0.7,0-1.4,0.6-1.5,1.7H21.1z"/>
	</g>
	<g>
		<path class="st0" d="M41.5,24.1h1.4c1.8,0,2.7,1.1,2.7,2.9c0,1.8-0.9,3-2.7,3h-1.4V24.1z M42.8,29.7c1.6,0,2.3-1.1,2.3-2.6
			c0-1.5-0.7-2.6-2.3-2.6h-0.9v5.2H42.8z"/>
		<path class="st0" d="M50.3,27.3c0-0.7-0.2-1.4-1-1.4c-0.6,0-1.1,0.3-1.4,0.5l-0.2-0.3c0.3-0.2,0.9-0.6,1.6-0.6
			c1,0,1.4,0.7,1.4,1.7V30h-0.3l0-0.6h0c-0.4,0.4-1,0.7-1.5,0.7c-0.7,0-1.3-0.4-1.3-1.2C47.6,28,48.4,27.5,50.3,27.3z M48.9,29.8
			c0.5,0,0.9-0.2,1.5-0.7v-1.5c-1.8,0.2-2.4,0.6-2.4,1.3C48,29.5,48.4,29.8,48.9,29.8z"/>
		<path class="st0" d="M53.3,26h-0.7v-0.3l0.7,0l0.1-1.2h0.3v1.2h1.2V26h-1.2v2.8c0,0.5,0.1,0.9,0.7,0.9c0.2,0,0.4-0.1,0.5-0.1
			l0.1,0.3c-0.3,0.1-0.5,0.2-0.7,0.2c-0.8,0-1.1-0.5-1.1-1.3V26z"/>
		<path class="st0" d="M59.2,27.3c0-0.7-0.2-1.4-1-1.4c-0.6,0-1.1,0.3-1.4,0.5l-0.2-0.3c0.3-0.2,0.9-0.6,1.6-0.6
			c1,0,1.4,0.7,1.4,1.7V30h-0.3l0-0.6h0c-0.4,0.4-1,0.7-1.5,0.7c-0.7,0-1.3-0.4-1.3-1.2C56.4,28,57.3,27.5,59.2,27.3z M57.8,29.8
			c0.5,0,0.9-0.2,1.5-0.7v-1.5c-1.8,0.2-2.4,0.6-2.4,1.3C56.8,29.5,57.3,29.8,57.8,29.8z"/>
	</g>
	<g>
		<path class="st0" d="M12.9,15.4c-0.1,0-0.2,0-0.3,0.1l-1.8,1.8V7.3c0-0.2-0.2-0.4-0.4-0.4C10.1,6.8,10,7,10,7.3v10.1l-1.8-1.8
			c-0.1-0.1-0.2-0.1-0.3-0.1c-0.2,0-0.4,0.2-0.4,0.4c0,0.1,0,0.2,0.1,0.3l2.6,2.6c0.1,0.1,0.2,0.1,0.3,0.1c0.1,0,0.2,0,0.3-0.1
			l2.6-2.6c0.1-0.1,0.1-0.2,0.1-0.3C13.4,15.5,13.2,15.4,12.9,15.4 M17.2,5.5c0-0.1,0-0.2,0-0.3c0-2.8-2.3-5.1-5.1-5.1
			c-2,0-3.7,1.1-4.5,2.7c-0.3-0.1-0.7-0.2-1-0.2c-1.6,0-3,1.3-3,3c0,0.2,0,0.4,0.1,0.6C2.1,6.7,1,8.1,1,9.8c0,2.1,1.7,3.8,3.8,3.8
			h3.8c0.2,0,0.4-0.2,0.4-0.4c0-0.2-0.2-0.4-0.4-0.4H4.8c-1.6,0-3-1.3-3-3c0-1.3,0.8-2.4,2-2.8l0.7-0.2L4.5,6c0-0.1,0-0.3,0-0.4
			c0-1.2,1-2.1,2.1-2.1c0.2,0,0.5,0,0.7,0.1L8,3.8l0.3-0.7c0.7-1.4,2.2-2.3,3.8-2.3c2.4,0,4.3,1.9,4.3,4.3c0,0.1,0,0.1,0,0.2l0,0.1
			l0,0.6l0.6,0.2c1.3,0.5,2.1,1.8,2.1,3.1c0,1.9-1.5,3.4-3.4,3.4h-3.4c-0.2,0-0.4,0.2-0.4,0.4c0,0.2,0.2,0.4,0.4,0.4h3.4
			c2.4,0,4.3-1.9,4.3-4.3C19.8,7.6,18.7,6.1,17.2,5.5"/>
	</g>
	<line class="st1" x1="31.2" y1="0.8" x2="31.2" y2="18.3"/>
	<g>
		<path class="st0" d="M53.3,0.1h-8.1c-0.8,0-1.5,0.7-1.5,1.5v13.3c0,0.8,0.7,1.5,1.5,1.5h10.3c0.8,0,1.5-0.7,1.5-1.5V4.2L53.3,0.1z
			 M56.2,14.9c0,0.4-0.3,0.7-0.7,0.7H45.1c-0.4,0-0.7-0.3-0.7-0.7V1.6c0-0.4,0.3-0.7,0.7-0.7h6.7v3.7c0,0.4,0.3,0.7,0.7,0.7h3.7
			V14.9z M52.5,4.5V0.8h0.4l3.3,3.7H52.5z"/>
		<path class="st0" d="M52.9,18.2c-0.1,0-0.2,0-0.3,0.1l-1.8,1.8V10.1c0-0.2-0.2-0.4-0.4-0.4c-0.2,0-0.4,0.2-0.4,0.4v10.1L48,18.3
			c-0.1-0.1-0.2-0.1-0.3-0.1c-0.2,0-0.4,0.2-0.4,0.4c0,0.1,0,0.2,0.1,0.3l2.6,2.6c0.1,0.1,0.2,0.1,0.3,0.1c0.1,0,0.2,0,0.3-0.1
			l2.6-2.6c0.1-0.1,0.1-0.2,0.1-0.3C53.3,18.4,53.1,18.2,52.9,18.2"/>
	</g>
</g>
</svg>
