<?xml version="1.0" encoding="utf-8"?>
<!-- Generator: Adobe Illustrator 20.0.0, SVG Export Plug-In . SVG Version: 6.00 Build 0)  -->
<svg version="1.1" id="Capa_1" xmlns="http://www.w3.org/2000/svg" xmlns:xlink="http://www.w3.org/1999/xlink" x="0px" y="0px"
	 viewBox="0 0 22.2 22.2" style="enable-background:new 0 0 22.2 22.2;" xml:space="preserve">
<style type="text/css">
	.st0{fill:#E88324;}
</style>
<path class="st0" d="M12.6,15.6c-0.3,0-0.5,0-0.7-0.1c-0.1-0.1-0.2-0.3-0.2-0.6c0-0.1,0-0.3,0.1-0.5c0-0.2,0.1-0.4,0.1-0.6l0.6-2
	c0.1-0.2,0.1-0.4,0.1-0.6c0-0.2,0-0.4,0-0.5c0-0.4-0.2-0.8-0.5-1.1c-0.3-0.3-0.8-0.4-1.3-0.4c-0.3,0-0.7,0.1-1,0.2
	C9.5,9.6,9.1,9.7,8.7,9.9l-0.2,0.6c0.1,0,0.3-0.1,0.4-0.1c0.2,0,0.3-0.1,0.5-0.1c0.3,0,0.5,0.1,0.6,0.2c0.1,0.1,0.2,0.3,0.2,0.5
	c0,0.1,0,0.3-0.1,0.5c0,0.2-0.1,0.4-0.1,0.6l-0.6,2.1c-0.1,0.2-0.1,0.4-0.1,0.6c0,0.2,0,0.3,0,0.5c0,0.4,0.2,0.8,0.5,1
	c0.3,0.3,0.8,0.4,1.4,0.4c0.4,0,0.7,0,1-0.1c0.3-0.1,0.7-0.2,1.1-0.4l0.2-0.6c-0.1,0-0.2,0.1-0.4,0.1C12.9,15.6,12.7,15.6,12.6,15.6
	 M12.2,5.5c-0.4,0-0.7,0.1-1,0.4c-0.3,0.3-0.4,0.6-0.4,0.9s0.1,0.7,0.4,0.9c0.3,0.3,0.6,0.4,1,0.4c0.4,0,0.7-0.1,1-0.4
	c0.3-0.3,0.4-0.6,0.4-0.9s-0.1-0.7-0.4-0.9C12.9,5.7,12.6,5.5,12.2,5.5 M11.1,0C5,0,0,5,0,11.1c0,6.1,5,11.1,11.1,11.1
	c6.1,0,11.1-5,11.1-11.1C22.2,5,17.2,0,11.1,0 M11.1,21.2C5.5,21.2,1,16.7,1,11.1C1,5.5,5.5,1,11.1,1c5.6,0,10.1,4.5,10.1,10.1
	C21.2,16.7,16.7,21.2,11.1,21.2"/>
</svg>
