<?xml version="1.0" encoding="utf-8"?>
<!-- Generator: Adobe Illustrator 20.0.0, SVG Export Plug-In . SVG Version: 6.00 Build 0)  -->
<svg version="1.1" id="Capa_1" xmlns="http://www.w3.org/2000/svg" xmlns:xlink="http://www.w3.org/1999/xlink" x="0px" y="0px"
	 viewBox="0 0 304.8 505" style="enable-background:new 0 0 304.8 505;" xml:space="preserve">
<style type="text/css">
	.st0{fill:#FFFFFF;stroke:#000000;stroke-width:0.25;stroke-miterlimit:10;}
	.st1{fill:#FF9719;}
	.st2{opacity:0.5;}
	.st3{fill:none;stroke:#000000;stroke-width:0.75;stroke-miterlimit:10;}
	.st4{fill:none;stroke:#000000;stroke-width:0.75;stroke-miterlimit:10;stroke-dasharray:3.0233,4.0311;}
	.st5{fill:none;stroke:#000000;stroke-width:0.25;stroke-miterlimit:10;}
	.st6{fill:#495E4A;}
	.st7{opacity:0.99;fill:#44B254;enable-background:new    ;}
	.st8{fill:none;stroke:#000000;stroke-width:0.5;stroke-miterlimit:10;}
	.st9{opacity:0.99;fill:#44B254;}
	.st10{opacity:0.99;fill:#66AF6E;}
	.st11{fill:#ED1C24;}
</style>
<g>
	<polygon class="st0" points="85.9,500 0.1,500 0.1,0.1 304.6,0.1 304.6,500 100.5,500 	"/>
	<path class="st1" d="M285.3,19.2l6.9-6.9c0.1-0.1,0.1-0.2,0.1-0.3c0-0.2-0.2-0.4-0.4-0.4c-0.1,0-0.2,0-0.3,0.1l-6.9,6.9l-6.9-6.9
		c-0.1-0.1-0.2-0.1-0.3-0.1c-0.2,0-0.4,0.2-0.4,0.4c0,0.1,0,0.2,0.1,0.3l6.9,6.9l-6.9,6.9c-0.1,0.1-0.1,0.2-0.1,0.3
		c0,0.2,0.2,0.4,0.4,0.4c0.1,0,0.2,0,0.3-0.1l6.9-6.9l6.9,6.9c0.1,0.1,0.2,0.1,0.3,0.1c0.2,0,0.4-0.2,0.4-0.4c0-0.1,0-0.2-0.1-0.3
		L285.3,19.2z"/>
	<g>
		<g class="st2">
			<g>
				<line class="st3" x1="290.7" y1="65.6" x2="289.2" y2="65.6"/>
				<line class="st4" x1="285.2" y1="65.6" x2="19.2" y2="65.6"/>
				<line class="st3" x1="17.1" y1="65.6" x2="15.6" y2="65.6"/>
			</g>
		</g>
	</g>
	<rect x="86.1" y="191" class="st5" width="118.6" height="118.6"/>
	<rect x="95" y="233.5" class="st6" width="101.6" height="1.4"/>
	<rect x="95" y="254.5" class="st7" width="101.6" height="44.1"/>
	<g>
		<g>
			<line class="st8" x1="148.1" y1="231.1" x2="148.1" y2="166.3"/>
			<g>
				<polygon points="156.3,224.5 154.8,223.1 148.1,230.4 141.4,223.1 139.9,224.5 148.1,233.3 				"/>
			</g>
		</g>
	</g>
	<g>
		<g>
			<line class="st8" x1="148.1" y1="284.2" x2="148.1" y2="348.9"/>
			<g>
				<polygon points="139.9,290.8 141.4,292.2 148.1,284.9 154.8,292.2 156.3,290.8 148.1,282 				"/>
			</g>
		</g>
	</g>
	<g>
		<path d="M21.7,44.2c0-1-0.8-1.8-1.8-1.8s-1.8,0.8-1.8,1.8v7l-1.3-1.5l0,0c-0.3-0.3-0.8-0.5-1.3-0.5l0,0c-0.5,0-0.9,0.2-1.2,0.5
			c-0.6,0.6-0.6,1.5-0.1,2.4c0.7,1.2,1.5,2.3,2.1,3.3c0.5,0.7,0.9,1.4,1.3,2c0.3,0.5,1,2.1,1.1,2.1c0.1,0.2,0.3,0.3,0.5,0.3h7.5
			c0.3,0,0.5-0.2,0.6-0.4c0.1-0.4,1.4-4.3,1.4-5.8v-4.1c0-1-0.8-1.8-1.8-1.8c-0.2,0-0.5,0.1-0.7,0.1c-0.3-0.7-0.9-1.1-1.6-1.1
			c-0.3,0-0.5,0.1-0.8,0.2c-0.3-0.6-0.9-1-1.6-1c-0.2,0-0.4,0-0.6,0.1 M21.5,47.4c0-0.3,0.5-0.5,0.8-0.5s0.8,0.4,0.8,0.7v2.9
			c0,0.4,0.1,0.6,0.4,0.6c0.4,0,0.4-0.3,0.4-0.6v-2.1c0-0.3,0.4-0.9,0.8-0.9c0.3,0,0.9,0.4,0.9,0.7v2.9c0,0.4,0.1,0.8,0.4,0.8
			c0.4,0,0.2-0.3,0.2-0.6v-1.9l0.1-0.3c0-0.3,0.4-0.6,0.7-0.6c0.3,0,0.9,0.6,0.9,0.9v4.4c0,1.1-0.8,4-1.3,5.4h-7.2
			c-0.3-0.6-0.8-1.6-1-2c-0.4-0.6-0.8-1.3-1.4-2.1c-0.7-1.1-1.5-2.3-2.2-3.5c-0.2-0.3-0.4-0.8-0.1-1c0.1-0.1,0.5-0.7,0.7-0.7
			s0.5,0,0.6,0.1l2.2,2.4c0.2,0.2,0.4,0.3,0.6,0.2c0.3-0.1,0.4-0.5,0.4-0.8v-8.2c0-0.3,0.3-0.6,0.6-0.6s0.9,0.3,0.9,0.7l0.1,6.1
			c0,0,0.1,0,0.4,0"/>
	</g>
</g>
<g>
	<path class="st9" d="M46.1,360.7H48v3.2h2.8v-3.2h1.9v8.2h-1.9v-3.4H48v3.4h-1.9V360.7z"/>
	<path class="st9" d="M55.5,364.8c0-2.7,1.5-4.2,3.7-4.2s3.7,1.6,3.7,4.2c0,2.7-1.5,4.3-3.7,4.3S55.5,367.5,55.5,364.8z M61.1,364.8
		c0-1.6-0.7-2.6-1.8-2.6s-1.8,1-1.8,2.6c0,1.7,0.7,2.7,1.8,2.7S61.1,366.5,61.1,364.8z"/>
	<path class="st9" d="M65.8,360.7h1.9v8.2h-1.9V360.7z"/>
	<path class="st10" d="M74.8,365.5c0-2.2,0.6-4,1.7-5.7l0.6,0.3c-1,1.6-1.5,3.5-1.5,5.4c0,1.9,0.5,3.8,1.5,5.4l-0.6,0.3
		C75.4,369.5,74.8,367.7,74.8,365.5z"/>
	<path class="st10" d="M80,360.7h1v3.5h3.9v-3.5h1.1v8.3h-1.1v-3.9H81v3.9h-1V360.7z"/>
	<path class="st10" d="M89.3,362.8h1v3.8c0,1.1,0.3,1.6,1.1,1.6c0.6,0,1.1-0.3,1.7-1v-4.4h1v6.1h-0.9l-0.1-1h0
		c-0.6,0.7-1.2,1.1-2,1.1c-1.3,0-1.9-0.8-1.9-2.4V362.8z"/>
	<path class="st10" d="M97.5,362.8h0.9l0.1,0.9h0c0.5-0.6,1.2-1,1.9-1c0.9,0,1.4,0.4,1.7,1.2c0.6-0.7,1.3-1.2,2-1.2
		c1.3,0,1.9,0.8,1.9,2.4v3.9h-1v-3.8c0-1.2-0.4-1.6-1.1-1.6c-0.5,0-1,0.3-1.5,0.9v4.4h-1v-3.8c0-1.2-0.4-1.6-1.1-1.6
		c-0.5,0-1,0.3-1.5,0.9v4.4h-1V362.8z"/>
	<path class="st10" d="M112.7,365.1c0-0.8-0.3-1.5-1.3-1.5c-0.7,0-1.4,0.3-1.8,0.7l-0.4-0.7c0.6-0.4,1.4-0.8,2.4-0.8
		c1.5,0,2.1,1,2.1,2.5v3.8h-0.9l-0.1-0.7h0c-0.6,0.5-1.3,0.9-2,0.9c-1,0-1.8-0.6-1.8-1.7C109,366,110.1,365.4,112.7,365.1z
		 M111.1,368.3c0.6,0,1.1-0.3,1.7-0.8v-1.7c-2.1,0.3-2.8,0.8-2.8,1.5C110,368,110.4,368.3,111.1,368.3z"/>
	<path class="st10" d="M117,362.8h0.9l0.1,0.9h0c0.6-0.6,1.2-1,2.1-1c1.3,0,1.9,0.8,1.9,2.4v3.9h-1v-3.8c0-1.2-0.4-1.6-1.2-1.6
		c-0.6,0-1.1,0.3-1.7,0.9v4.4h-1V362.8z"/>
	<path class="st10" d="M128.6,364.8c0-2.7,1.5-4.3,3.5-4.3c2.1,0,3.6,1.6,3.6,4.3c0,2.7-1.5,4.3-3.6,4.3
		C130.1,369.1,128.6,367.5,128.6,364.8z M134.6,364.8c0-2.1-1-3.3-2.5-3.3c-1.5,0-2.5,1.3-2.5,3.3c0,2.1,1,3.4,2.5,3.4
		C133.6,368.2,134.6,366.9,134.6,364.8z"/>
	<path class="st10" d="M139.7,369.5v2.1h-1v-8.7h0.9l0.1,0.7h0c0.6-0.5,1.2-0.9,2-0.9c1.6,0,2.4,1.2,2.4,3.1c0,2.1-1.3,3.3-2.7,3.3
		c-0.6,0-1.1-0.3-1.7-0.7L139.7,369.5z M141.2,368.3c1,0,1.8-0.9,1.8-2.4c0-1.4-0.5-2.3-1.6-2.3c-0.5,0-1,0.3-1.6,0.8v3.2
		C140.2,368.1,140.8,368.3,141.2,368.3z"/>
	<path class="st10" d="M148,369.5v2.1h-1v-8.7h0.9l0.1,0.7h0c0.6-0.5,1.2-0.9,2-0.9c1.6,0,2.4,1.2,2.4,3.1c0,2.1-1.3,3.3-2.7,3.3
		c-0.6,0-1.1-0.3-1.7-0.7L148,369.5z M149.5,368.3c1,0,1.8-0.9,1.8-2.4c0-1.4-0.5-2.3-1.6-2.3c-0.5,0-1,0.3-1.6,0.8v3.2
		C148.5,368.1,149.1,368.3,149.5,368.3z"/>
	<path class="st10" d="M157.6,362.7c1.5,0,2.8,1.2,2.8,3.2c0,2-1.3,3.2-2.8,3.2s-2.8-1.2-2.8-3.2
		C154.8,363.9,156.1,362.7,157.6,362.7z M157.6,368.3c1.1,0,1.8-0.9,1.8-2.3c0-1.4-0.7-2.4-1.8-2.4c-1,0-1.8,1-1.8,2.4
		C155.8,367.3,156.5,368.3,157.6,368.3z"/>
	<path class="st10" d="M163.3,362.8h0.9l0.1,1.1h0c0.4-0.8,1-1.3,1.7-1.3c0.3,0,0.5,0,0.7,0.1l-0.2,0.9c-0.2-0.1-0.3-0.1-0.6-0.1
		c-0.5,0-1.1,0.4-1.6,1.4v3.9h-1V362.8z"/>
	<path class="st10" d="M169.2,363.7h-0.9v-0.8l1-0.1l0.1-1.7h0.9v1.7h1.7v0.8h-1.7v3.4c0,0.8,0.2,1.2,0.9,1.2c0.2,0,0.5-0.1,0.7-0.2
		l0.2,0.8c-0.3,0.1-0.8,0.2-1.1,0.2c-1.3,0-1.8-0.8-1.8-2V363.7z"/>
	<path class="st10" d="M174.3,362.8h1v3.8c0,1.1,0.3,1.6,1.1,1.6c0.6,0,1.1-0.3,1.7-1v-4.4h1v6.1h-0.9l-0.1-1h0
		c-0.6,0.7-1.2,1.1-2,1.1c-1.3,0-1.9-0.8-1.9-2.4V362.8z"/>
	<path class="st10" d="M182.6,362.8h0.9l0.1,0.9h0c0.6-0.6,1.2-1,2.1-1c1.3,0,1.9,0.8,1.9,2.4v3.9h-1v-3.8c0-1.2-0.4-1.6-1.2-1.6
		c-0.6,0-1.1,0.3-1.7,0.9v4.4h-1V362.8z"/>
	<path class="st10" d="M190.6,360.9c0-0.4,0.3-0.7,0.7-0.7s0.7,0.3,0.7,0.7c0,0.4-0.3,0.7-0.7,0.7S190.6,361.3,190.6,360.9z
		 M190.8,362.8h1v6.1h-1V362.8z"/>
	<path class="st10" d="M195.3,363.7h-0.9v-0.8l1-0.1l0.1-1.7h0.9v1.7h1.7v0.8h-1.7v3.4c0,0.8,0.2,1.2,0.9,1.2c0.2,0,0.5-0.1,0.7-0.2
		l0.2,0.8c-0.3,0.1-0.8,0.2-1.1,0.2c-1.3,0-1.8-0.8-1.8-2V363.7z"/>
	<path class="st10" d="M200.7,370.8c0.7,0,1.1-0.6,1.4-1.3l0.1-0.5l-2.5-6.2h1.1l1.3,3.4c0.2,0.5,0.4,1.2,0.6,1.7h0
		c0.2-0.6,0.4-1.2,0.5-1.7l1.1-3.4h1l-2.3,6.6c-0.4,1.2-1.1,2.1-2.3,2.1c-0.3,0-0.5-0.1-0.7-0.1l0.2-0.8
		C200.4,370.7,200.6,370.8,200.7,370.8z"/>
	<path class="st10" d="M211.8,360.7h1v8.3h-1V360.7z"/>
	<path class="st10" d="M216.2,362.8h0.9l0.1,0.9h0c0.6-0.6,1.2-1,2.1-1c1.3,0,1.9,0.8,1.9,2.4v3.9h-1v-3.8c0-1.2-0.4-1.6-1.2-1.6
		c-0.6,0-1.1,0.3-1.7,0.9v4.4h-1V362.8z"/>
	<path class="st10" d="M226.6,362.7c0.7,0,1.2,0.3,1.7,0.7l-0.1-1V360h1v9h-0.9l-0.1-0.7h0c-0.5,0.5-1.1,0.9-1.9,0.9
		c-1.5,0-2.5-1.2-2.5-3.2C224,363.9,225.2,362.7,226.6,362.7z M226.7,368.3c0.6,0,1.1-0.3,1.6-0.8v-3.2c-0.5-0.5-1-0.6-1.5-0.6
		c-1,0-1.8,0.9-1.8,2.3C225.1,367.4,225.7,368.3,226.7,368.3z"/>
	<path class="st10" d="M235,362.7c1.6,0,2.5,1.1,2.5,2.9c0,0.2,0,0.4,0,0.6h-4.1c0.1,1.3,0.9,2.2,2,2.2c0.6,0,1.1-0.2,1.5-0.5
		l0.4,0.7c-0.5,0.3-1.2,0.6-2,0.6c-1.6,0-2.9-1.2-2.9-3.2S233.6,362.7,235,362.7z M236.5,365.4c0-1.2-0.6-1.9-1.5-1.9
		c-0.9,0-1.6,0.7-1.8,1.9H236.5z"/>
	<path class="st10" d="M241.3,365.8l-1.9-2.9h1.1l0.8,1.4c0.2,0.3,0.4,0.7,0.6,1h0.1c0.2-0.3,0.4-0.7,0.6-1l0.7-1.4h1.1l-1.9,3
		l2,3.1h-1.1l-0.9-1.4c-0.2-0.4-0.4-0.7-0.7-1.1h-0.1c-0.2,0.4-0.4,0.7-0.6,1.1l-0.8,1.4h-1.1L241.3,365.8z"/>
	<path class="st10" d="M247.9,365.5c0-1.9-0.5-3.8-1.5-5.4l0.6-0.3c1,1.7,1.7,3.5,1.7,5.7s-0.6,4-1.7,5.7l-0.6-0.3
		C247.5,369.3,247.9,367.4,247.9,365.5z"/>
	<path d="M54.2,382.5h-3l-0.8,2.5h-1.1l2.8-8.1h1.2L56,385h-1.1L54.2,382.5z M53.9,381.7l-0.4-1.2c-0.3-0.9-0.6-1.8-0.8-2.7h0
		c-0.2,0.9-0.5,1.8-0.8,2.7l-0.4,1.2H53.9z"/>
	<path d="M60.5,378.8c0.7,0,1.2,0.3,1.7,0.7l0-1v-2.3h1v8.8h-0.8l-0.1-0.7h0c-0.5,0.5-1.1,0.9-1.8,0.9c-1.5,0-2.5-1.1-2.5-3.2
		C57.9,380,59.1,378.8,60.5,378.8z M60.6,384.3c0.6,0,1-0.3,1.5-0.8v-3.2c-0.5-0.5-1-0.6-1.5-0.6c-1,0-1.7,0.9-1.7,2.3
		C58.9,383.4,59.6,384.3,60.6,384.3z"/>
	<path d="M66.5,378.9h1v6.7c0,1.2-0.4,2-1.6,2c-0.4,0-0.7-0.1-0.9-0.2l0.2-0.8c0.1,0,0.4,0.1,0.6,0.1c0.6,0,0.7-0.4,0.7-1.2V378.9z
		 M66.3,377c0-0.4,0.3-0.7,0.7-0.7c0.4,0,0.7,0.3,0.7,0.7c0,0.4-0.3,0.7-0.7,0.7C66.6,377.7,66.3,377.4,66.3,377z"/>
	<path d="M70.7,378.9h1v3.7c0,1.1,0.3,1.6,1.1,1.6c0.6,0,1.1-0.3,1.6-1v-4.3h1v6h-0.8l-0.1-0.9h0c-0.6,0.7-1.2,1.1-2,1.1
		c-1.3,0-1.8-0.8-1.8-2.4V378.9z"/>
	<path d="M78.6,383.6c0.5,0.4,1.1,0.7,1.8,0.7c0.8,0,1.2-0.4,1.2-0.9c0-0.6-0.7-0.9-1.4-1.1c-0.9-0.3-1.8-0.7-1.8-1.7
		c0-1,0.8-1.7,2.1-1.7c0.8,0,1.4,0.3,1.9,0.7l-0.5,0.6c-0.4-0.3-0.8-0.5-1.4-0.5c-0.8,0-1.1,0.4-1.1,0.9c0,0.6,0.7,0.8,1.3,1
		c0.9,0.3,1.8,0.7,1.8,1.8c0,1-0.8,1.8-2.2,1.8c-0.9,0-1.7-0.4-2.2-0.8L78.6,383.6z"/>
	<path d="M85.4,379.8h-0.9V379l0.9-0.1l0.1-1.7h0.9v1.7H88v0.8h-1.6v3.3c0,0.7,0.2,1.2,0.9,1.2c0.2,0,0.5-0.1,0.7-0.2l0.2,0.8
		c-0.3,0.1-0.7,0.2-1.1,0.2c-1.3,0-1.7-0.8-1.7-2V379.8z"/>
	<path d="M92.7,378.8c1.5,0,2.4,1.1,2.4,2.8c0,0.2,0,0.4,0,0.6H91c0.1,1.3,0.9,2.1,2,2.1c0.6,0,1.1-0.2,1.5-0.5l0.4,0.7
		c-0.5,0.3-1.2,0.6-2,0.6c-1.6,0-2.9-1.2-2.9-3.2S91.4,378.8,92.7,378.8z M94.3,381.5c0-1.2-0.5-1.9-1.5-1.9c-0.8,0-1.6,0.7-1.7,1.9
		H94.3z"/>
	<path d="M100.1,378.8c0.7,0,1.2,0.3,1.7,0.7l0-1v-2.3h1v8.8h-0.8l-0.1-0.7h0c-0.5,0.5-1.1,0.9-1.8,0.9c-1.5,0-2.5-1.1-2.5-3.2
		C97.4,380,98.7,378.8,100.1,378.8z M100.2,384.3c0.6,0,1-0.3,1.5-0.8v-3.2c-0.5-0.5-1-0.6-1.5-0.6c-1,0-1.7,0.9-1.7,2.3
		C98.5,383.4,99.1,384.3,100.2,384.3z"/>
	<path d="M112.2,378.8c0.8,0,1.4,0.3,1.8,0.7l-0.5,0.7c-0.4-0.3-0.7-0.5-1.2-0.5c-1.1,0-1.9,0.9-1.9,2.3c0,1.4,0.8,2.3,1.9,2.3
		c0.6,0,1.1-0.3,1.4-0.6l0.5,0.7c-0.5,0.5-1.2,0.8-2,0.8c-1.6,0-2.8-1.2-2.8-3.2C109.3,379.9,110.7,378.8,112.2,378.8z"/>
	<path d="M118.7,378.8c1.5,0,2.8,1.2,2.8,3.2c0,2-1.3,3.2-2.8,3.2s-2.8-1.2-2.8-3.2C115.9,379.9,117.3,378.8,118.7,378.8z
		 M118.7,384.3c1,0,1.7-0.9,1.7-2.3c0-1.4-0.7-2.3-1.7-2.3c-1,0-1.7,0.9-1.7,2.3C117,383.3,117.7,384.3,118.7,384.3z"/>
	<path d="M123.4,378.9h1.1l1.1,3.4c0.2,0.6,0.4,1.2,0.6,1.8h0c0.2-0.6,0.4-1.2,0.5-1.8l1.1-3.4h1l-2.1,6h-1.2L123.4,378.9z"/>
	<path d="M133.5,378.8c1.5,0,2.4,1.1,2.4,2.8c0,0.2,0,0.4,0,0.6h-4.1c0.1,1.3,0.9,2.1,2,2.1c0.6,0,1.1-0.2,1.5-0.5l0.4,0.7
		c-0.5,0.3-1.2,0.6-2,0.6c-1.6,0-2.9-1.2-2.9-3.2S132.2,378.8,133.5,378.8z M135.1,381.5c0-1.2-0.5-1.9-1.5-1.9
		c-0.8,0-1.6,0.7-1.7,1.9H135.1z"/>
	<path d="M138.7,378.9h0.8l0.1,1.1h0c0.4-0.8,1-1.2,1.7-1.2c0.3,0,0.4,0,0.6,0.1l-0.2,0.9c-0.2-0.1-0.3-0.1-0.6-0.1
		c-0.5,0-1.1,0.4-1.5,1.4v3.9h-1V378.9z"/>
	<path d="M147.3,381.2c0-0.8-0.3-1.5-1.2-1.5c-0.7,0-1.3,0.3-1.8,0.6l-0.4-0.7c0.6-0.4,1.4-0.8,2.4-0.8c1.5,0,2.1,1,2.1,2.5v3.7
		h-0.8l-0.1-0.7h0c-0.6,0.5-1.3,0.9-2,0.9c-1,0-1.8-0.6-1.8-1.7C143.6,382.1,144.8,381.4,147.3,381.2z M145.7,384.3
		c0.6,0,1.1-0.3,1.6-0.8v-1.7c-2,0.2-2.7,0.7-2.7,1.5C144.6,384,145.1,384.3,145.7,384.3z"/>
	<path d="M151.9,384.8L151.9,384.8c-0.3-0.2-0.5-0.6-0.5-1c0-0.5,0.3-0.9,0.7-1.1v0c-0.4-0.3-0.8-0.9-0.8-1.6c0-1.3,1-2.1,2.3-2.1
		c0.3,0,0.6,0.1,0.9,0.1h2.1v0.8h-1.2c0.3,0.3,0.5,0.7,0.5,1.2c0,1.3-1,2.1-2.2,2.1c-0.3,0-0.6-0.1-0.9-0.2
		c-0.2,0.2-0.4,0.4-0.4,0.7c0,0.4,0.2,0.7,1.1,0.7h1.2c1.4,0,2.1,0.4,2.1,1.4c0,1.1-1.2,2.1-3.1,2.1c-1.5,0-2.5-0.6-2.5-1.6
		C151,385.6,151.4,385.1,151.9,384.8z M153.7,387c1.2,0,1.9-0.6,1.9-1.2c0-0.6-0.4-0.7-1.2-0.7h-1c-0.2,0-0.5,0-0.8-0.1
		c-0.4,0.3-0.6,0.7-0.6,1C151.9,386.6,152.6,387,153.7,387z M154.8,380.9c0-0.9-0.6-1.4-1.3-1.4s-1.3,0.5-1.3,1.4
		c0,0.9,0.6,1.4,1.3,1.4C154.2,382.4,154.8,381.8,154.8,380.9z"/>
	<path d="M161.1,378.8c1.5,0,2.4,1.1,2.4,2.8c0,0.2,0,0.4,0,0.6h-4.1c0.1,1.3,0.9,2.1,2,2.1c0.6,0,1.1-0.2,1.5-0.5l0.4,0.7
		c-0.5,0.3-1.2,0.6-2,0.6c-1.6,0-2.9-1.2-2.9-3.2S159.7,378.8,161.1,378.8z M162.6,381.5c0-1.2-0.5-1.9-1.5-1.9
		c-0.8,0-1.6,0.7-1.7,1.9H162.6z"/>
	<path d="M172.4,378.8c0.8,0,1.4,0.3,1.8,0.7l-0.5,0.7c-0.4-0.3-0.7-0.5-1.2-0.5c-1.1,0-1.9,0.9-1.9,2.3c0,1.4,0.8,2.3,1.9,2.3
		c0.6,0,1.1-0.3,1.4-0.6l0.5,0.7c-0.5,0.5-1.2,0.8-2,0.8c-1.6,0-2.8-1.2-2.8-3.2C169.5,379.9,170.9,378.8,172.4,378.8z"/>
	<path d="M178.9,378.8c1.5,0,2.8,1.2,2.8,3.2c0,2-1.3,3.2-2.8,3.2s-2.8-1.2-2.8-3.2C176.2,379.9,177.5,378.8,178.9,378.8z
		 M178.9,384.3c1,0,1.7-0.9,1.7-2.3c0-1.4-0.7-2.3-1.7-2.3c-1,0-1.7,0.9-1.7,2.3C177.2,383.3,177.9,384.3,178.9,384.3z"/>
	<path d="M184.6,378.9h0.8l0.1,0.9h0c0.6-0.6,1.2-1,2-1c1.3,0,1.8,0.8,1.8,2.4v3.8h-1v-3.7c0-1.1-0.3-1.6-1.1-1.6
		c-0.6,0-1,0.3-1.6,0.9v4.4h-1V378.9z"/>
	<path d="M192.4,383.6c0.5,0.4,1.1,0.7,1.8,0.7c0.8,0,1.2-0.4,1.2-0.9c0-0.6-0.7-0.9-1.4-1.1c-0.9-0.3-1.8-0.7-1.8-1.7
		c0-1,0.8-1.7,2.1-1.7c0.8,0,1.4,0.3,1.9,0.7l-0.5,0.6c-0.4-0.3-0.8-0.5-1.4-0.5c-0.8,0-1.1,0.4-1.1,0.9c0,0.6,0.7,0.8,1.3,1
		c0.9,0.3,1.8,0.7,1.8,1.8c0,1-0.8,1.8-2.2,1.8c-0.9,0-1.7-0.4-2.2-0.8L192.4,383.6z"/>
	<path d="M198.8,377c0-0.4,0.3-0.7,0.7-0.7s0.7,0.3,0.7,0.7c0,0.4-0.3,0.7-0.7,0.7S198.8,377.4,198.8,377z M199,378.9h1v6h-1V378.9z
		"/>
	<path d="M205.5,378.8c0.7,0,1.2,0.3,1.7,0.7l0-1v-2.3h1v8.8h-0.8l-0.1-0.7h0c-0.5,0.5-1.1,0.9-1.8,0.9c-1.5,0-2.5-1.1-2.5-3.2
		C202.9,380,204.1,378.8,205.5,378.8z M205.6,384.3c0.6,0,1-0.3,1.5-0.8v-3.2c-0.5-0.5-1-0.6-1.5-0.6c-1,0-1.7,0.9-1.7,2.3
		C203.9,383.4,204.5,384.3,205.6,384.3z"/>
	<path d="M213.7,378.8c1.5,0,2.4,1.1,2.4,2.8c0,0.2,0,0.4,0,0.6H212c0.1,1.3,0.9,2.1,2,2.1c0.6,0,1.1-0.2,1.5-0.5l0.4,0.7
		c-0.5,0.3-1.2,0.6-2,0.6c-1.6,0-2.9-1.2-2.9-3.2S212.3,378.8,213.7,378.8z M215.2,381.5c0-1.2-0.5-1.9-1.5-1.9
		c-0.8,0-1.6,0.7-1.7,1.9H215.2z"/>
	<path d="M218.8,378.9h0.8l0.1,1.1h0c0.4-0.8,1-1.2,1.7-1.2c0.3,0,0.4,0,0.6,0.1l-0.2,0.9c-0.2-0.1-0.3-0.1-0.6-0.1
		c-0.5,0-1.1,0.4-1.5,1.4v3.9h-1V378.9z"/>
	<path d="M224.2,377c0-0.4,0.3-0.7,0.7-0.7c0.4,0,0.7,0.3,0.7,0.7c0,0.4-0.3,0.7-0.7,0.7C224.5,377.7,224.2,377.4,224.2,377z
		 M224.4,378.9h1v6h-1V378.9z"/>
	<path d="M228.7,378.9h0.8l0.1,0.9h0c0.6-0.6,1.2-1,2-1c1.3,0,1.8,0.8,1.8,2.4v3.8h-1v-3.7c0-1.1-0.3-1.6-1.1-1.6
		c-0.6,0-1,0.3-1.7,0.9v4.4h-1V378.9z"/>
	<path d="M237.1,384.8L237.1,384.8c-0.3-0.2-0.5-0.6-0.5-1c0-0.5,0.3-0.9,0.7-1.1v0c-0.4-0.3-0.8-0.9-0.8-1.6c0-1.3,1-2.1,2.3-2.1
		c0.3,0,0.6,0.1,0.9,0.1h2.1v0.8h-1.2c0.3,0.3,0.5,0.7,0.5,1.2c0,1.3-1,2.1-2.2,2.1c-0.3,0-0.6-0.1-0.9-0.2
		c-0.2,0.2-0.4,0.4-0.4,0.7c0,0.4,0.2,0.7,1.1,0.7h1.2c1.4,0,2.1,0.4,2.1,1.4c0,1.1-1.2,2.1-3.1,2.1c-1.5,0-2.5-0.6-2.5-1.6
		C236.2,385.6,236.6,385.1,237.1,384.8z M238.9,387c1.2,0,1.9-0.6,1.9-1.2c0-0.6-0.4-0.7-1.2-0.7h-1c-0.2,0-0.5,0-0.8-0.1
		c-0.4,0.3-0.6,0.7-0.6,1C237.1,386.6,237.8,387,238.9,387z M240,380.9c0-0.9-0.6-1.4-1.3-1.4s-1.3,0.5-1.3,1.4
		c0,0.9,0.6,1.4,1.3,1.4C239.4,382.4,240,381.8,240,380.9z"/>
	<path d="M18.7,395.8h-0.9V395l0.9-0.1l0.1-1.7h0.9v1.7h1.6v0.8h-1.6v3.3c0,0.7,0.2,1.2,0.9,1.2c0.2,0,0.5-0.1,0.7-0.2l0.2,0.8
		c-0.3,0.1-0.7,0.2-1.1,0.2c-1.3,0-1.7-0.8-1.7-2V395.8z"/>
	<path d="M24,392.1h1v2.4l0,1.2c0.6-0.5,1.2-1,2-1c1.3,0,1.8,0.8,1.8,2.4v3.8h-1v-3.7c0-1.1-0.3-1.6-1.1-1.6c-0.6,0-1,0.3-1.6,0.9
		v4.4h-1V392.1z"/>
	<path d="M34.2,394.8c1.5,0,2.4,1.1,2.4,2.8c0,0.2,0,0.4,0,0.6h-4.1c0.1,1.3,0.9,2.1,2,2.1c0.6,0,1.1-0.2,1.5-0.5l0.4,0.7
		c-0.5,0.3-1.2,0.6-2,0.6c-1.6,0-2.9-1.2-2.9-3.2S32.9,394.8,34.2,394.8z M35.8,397.5c0-1.2-0.5-1.9-1.5-1.9c-0.8,0-1.6,0.7-1.7,1.9
		H35.8z"/>
	<path d="M43,394.9h1v3.7c0,1.1,0.3,1.6,1.1,1.6c0.6,0,1.1-0.3,1.6-1v-4.3h1v6H47l-0.1-0.9h0c-0.6,0.7-1.2,1.1-2,1.1
		c-1.3,0-1.8-0.8-1.8-2.4V394.9z"/>
	<path d="M51.1,394.9H52l0.1,0.9h0c0.6-0.6,1.2-1,2-1c1.3,0,1.8,0.8,1.8,2.4v3.8h-1v-3.7c0-1.1-0.3-1.6-1.1-1.6
		c-0.6,0-1,0.3-1.6,0.9v4.4h-1V394.9z"/>
	<path d="M61.4,394.8c1.5,0,2.4,1.1,2.4,2.8c0,0.2,0,0.4,0,0.6h-4.1c0.1,1.3,0.9,2.1,2,2.1c0.6,0,1.1-0.2,1.5-0.5l0.4,0.7
		c-0.5,0.3-1.2,0.6-2,0.6c-1.6,0-2.9-1.2-2.9-3.2S60,394.8,61.4,394.8z M62.9,397.5c0-1.2-0.5-1.9-1.5-1.9c-0.8,0-1.6,0.7-1.7,1.9
		H62.9z"/>
	<path d="M65.7,394.9h1.1l1.1,3.4c0.2,0.6,0.4,1.2,0.6,1.8h0c0.2-0.6,0.4-1.2,0.5-1.8l1.1-3.4h1l-2.1,6h-1.2L65.7,394.9z"/>
	<path d="M75.8,394.8c1.5,0,2.4,1.1,2.4,2.8c0,0.2,0,0.4,0,0.6h-4.1c0.1,1.3,0.9,2.1,2,2.1c0.6,0,1.1-0.2,1.5-0.5l0.4,0.7
		c-0.5,0.3-1.2,0.6-2,0.6c-1.6,0-2.9-1.2-2.9-3.2S74.5,394.8,75.8,394.8z M77.4,397.5c0-1.2-0.5-1.9-1.5-1.9c-0.8,0-1.6,0.7-1.7,1.9
		H77.4z"/>
	<path d="M81,394.9h0.8l0.1,0.9h0c0.6-0.6,1.2-1,2-1c1.3,0,1.8,0.8,1.8,2.4v3.8h-1v-3.7c0-1.1-0.3-1.6-1.1-1.6c-0.6,0-1,0.3-1.6,0.9
		v4.4h-1V394.9z"/>
	<path d="M94.9,394.8c0.7,0,1.2,0.3,1.7,0.7l0-1v-2.3h1v8.8h-0.8l-0.1-0.7h0c-0.5,0.5-1.1,0.9-1.8,0.9c-1.5,0-2.5-1.1-2.5-3.2
		C92.3,396,93.6,394.8,94.9,394.8z M95,400.3c0.6,0,1-0.3,1.5-0.8v-3.2c-0.5-0.5-1-0.6-1.5-0.6c-1,0-1.7,0.9-1.7,2.3
		C93.4,399.4,94,400.3,95,400.3z"/>
	<path d="M100.7,393c0-0.4,0.3-0.7,0.7-0.7s0.7,0.3,0.7,0.7c0,0.4-0.3,0.7-0.7,0.7S100.7,393.4,100.7,393z M100.9,394.9h1v6h-1
		V394.9z"/>
	<path d="M105,399.6c0.5,0.4,1.1,0.7,1.8,0.7c0.8,0,1.2-0.4,1.2-0.9c0-0.6-0.7-0.9-1.4-1.1c-0.9-0.3-1.8-0.7-1.8-1.7
		c0-1,0.8-1.7,2.1-1.7c0.8,0,1.4,0.3,1.9,0.7l-0.5,0.6c-0.4-0.3-0.8-0.5-1.4-0.5c-0.8,0-1.1,0.4-1.1,0.9c0,0.6,0.7,0.8,1.3,1
		c0.9,0.3,1.8,0.7,1.8,1.8c0,1-0.8,1.8-2.2,1.8c-0.9,0-1.7-0.4-2.2-0.8L105,399.6z"/>
	<path d="M111.8,395.8h-0.9V395l0.9-0.1l0.1-1.7h0.9v1.7h1.6v0.8h-1.6v3.3c0,0.7,0.2,1.2,0.9,1.2c0.2,0,0.5-0.1,0.7-0.2l0.2,0.8
		c-0.3,0.1-0.7,0.2-1.1,0.2c-1.3,0-1.7-0.8-1.7-2V395.8z"/>
	<path d="M117,394.9h0.8l0.1,1.1h0c0.4-0.8,1-1.2,1.7-1.2c0.3,0,0.4,0,0.6,0.1l-0.2,0.9c-0.2-0.1-0.3-0.1-0.6-0.1
		c-0.5,0-1.1,0.4-1.5,1.4v3.9h-1V394.9z"/>
	<path d="M122.4,393c0-0.4,0.3-0.7,0.7-0.7s0.7,0.3,0.7,0.7c0,0.4-0.3,0.7-0.7,0.7S122.4,393.4,122.4,393z M122.6,394.9h1v6h-1
		V394.9z"/>
	<path d="M126.9,392.1h1v2.4l0,1.1c0.5-0.5,1.2-0.8,1.9-0.8c1.6,0,2.4,1.2,2.4,3.1c0,2.1-1.2,3.3-2.6,3.3c-0.6,0-1.2-0.3-1.7-0.7h0
		l-0.1,0.6h-0.8V392.1z M129.4,400.3c1,0,1.7-0.9,1.7-2.4c0-1.3-0.4-2.2-1.6-2.2c-0.5,0-1,0.3-1.6,0.8v3.2
		C128.4,400.1,129,400.3,129.4,400.3z"/>
	<path d="M134.9,394.9h1v3.7c0,1.1,0.3,1.6,1.1,1.6c0.6,0,1.1-0.3,1.6-1v-4.3h1v6h-0.8l-0.1-0.9h0c-0.6,0.7-1.2,1.1-2,1.1
		c-1.3,0-1.8-0.8-1.8-2.4V394.9z"/>
	<path d="M143.2,395.8h-0.9V395l0.9-0.1l0.1-1.7h0.9v1.7h1.6v0.8h-1.6v3.3c0,0.7,0.2,1.2,0.9,1.2c0.2,0,0.5-0.1,0.7-0.2l0.2,0.8
		c-0.3,0.1-0.7,0.2-1.1,0.2c-1.3,0-1.7-0.8-1.7-2V395.8z"/>
	<path d="M148.2,393c0-0.4,0.3-0.7,0.7-0.7s0.7,0.3,0.7,0.7c0,0.4-0.3,0.7-0.7,0.7S148.2,393.4,148.2,393z M148.4,394.9h1v6h-1
		V394.9z"/>
	<path d="M155.1,394.8c1.5,0,2.8,1.2,2.8,3.2c0,2-1.3,3.2-2.8,3.2c-1.5,0-2.8-1.2-2.8-3.2C152.3,395.9,153.6,394.8,155.1,394.8z
		 M155.1,400.3c1,0,1.7-0.9,1.7-2.3c0-1.4-0.7-2.3-1.7-2.3c-1,0-1.7,0.9-1.7,2.3C153.3,399.3,154,400.3,155.1,400.3z"/>
	<path d="M160.7,394.9h0.8l0.1,0.9h0c0.6-0.6,1.2-1,2-1c1.3,0,1.8,0.8,1.8,2.4v3.8h-1v-3.7c0-1.1-0.3-1.6-1.1-1.6
		c-0.6,0-1,0.3-1.6,0.9v4.4h-1V394.9z"/>
	<path d="M174.8,394.8c1.5,0,2.8,1.2,2.8,3.2c0,2-1.3,3.2-2.8,3.2c-1.5,0-2.8-1.2-2.8-3.2C172,395.9,173.3,394.8,174.8,394.8z
		 M174.8,400.3c1,0,1.7-0.9,1.7-2.3c0-1.4-0.7-2.3-1.7-2.3c-1,0-1.7,0.9-1.7,2.3C173.1,399.3,173.8,400.3,174.8,400.3z"/>
	<path d="M183.1,393c-0.2-0.1-0.5-0.1-0.7-0.1c-0.6,0-0.8,0.4-0.8,1.2v1h1.3v0.8h-1.3v5.2h-1v-5.2h-0.8V395l0.8-0.1v-1
		c0-1.2,0.6-2,1.8-2c0.4,0,0.7,0.1,1,0.2L183.1,393z"/>
	<path d="M191.4,394.8c1.5,0,2.8,1.2,2.8,3.2c0,2-1.3,3.2-2.8,3.2c-1.5,0-2.8-1.2-2.8-3.2C188.6,395.9,189.9,394.8,191.4,394.8z
		 M191.4,400.3c1,0,1.7-0.9,1.7-2.3c0-1.4-0.7-2.3-1.7-2.3c-1,0-1.7,0.9-1.7,2.3C189.6,399.3,190.3,400.3,191.4,400.3z"/>
	<path d="M198,401.5v2h-1v-8.6h0.8l0.1,0.7h0c0.5-0.5,1.2-0.8,1.9-0.8c1.6,0,2.4,1.2,2.4,3.1c0,2-1.2,3.2-2.6,3.2
		c-0.6,0-1.1-0.3-1.7-0.7L198,401.5z M199.5,400.3c1,0,1.7-0.9,1.7-2.4c0-1.3-0.4-2.2-1.6-2.2c-0.5,0-1,0.3-1.6,0.8v3.2
		C198.5,400.1,199.1,400.3,199.5,400.3z"/>
	<path d="M206.1,401.5v2h-1v-8.6h0.8l0.1,0.7h0c0.5-0.5,1.2-0.8,1.9-0.8c1.6,0,2.4,1.2,2.4,3.1c0,2-1.2,3.2-2.6,3.2
		c-0.6,0-1.1-0.3-1.7-0.7L206.1,401.5z M207.6,400.3c1,0,1.7-0.9,1.7-2.4c0-1.3-0.4-2.2-1.6-2.2c-0.5,0-1,0.3-1.6,0.8v3.2
		C206.7,400.1,207.2,400.3,207.6,400.3z"/>
	<path d="M215.6,394.8c1.5,0,2.8,1.2,2.8,3.2c0,2-1.3,3.2-2.8,3.2s-2.8-1.2-2.8-3.2C212.8,395.9,214.1,394.8,215.6,394.8z
		 M215.6,400.3c1,0,1.7-0.9,1.7-2.3c0-1.4-0.7-2.3-1.7-2.3c-1,0-1.7,0.9-1.7,2.3C213.8,399.3,214.5,400.3,215.6,400.3z"/>
	<path d="M221.2,394.9h0.8l0.1,1.1h0c0.4-0.8,1-1.2,1.7-1.2c0.3,0,0.4,0,0.6,0.1l-0.2,0.9c-0.2-0.1-0.3-0.1-0.6-0.1
		c-0.5,0-1.1,0.4-1.5,1.4v3.9h-1V394.9z"/>
	<path d="M226.9,395.8H226V395l0.9-0.1l0.1-1.7h0.9v1.7h1.6v0.8h-1.6v3.3c0,0.7,0.2,1.2,0.9,1.2c0.2,0,0.5-0.1,0.7-0.2l0.2,0.8
		c-0.3,0.1-0.7,0.2-1.1,0.2c-1.3,0-1.7-0.8-1.7-2V395.8z"/>
	<path d="M232,394.9h1v3.7c0,1.1,0.3,1.6,1.1,1.6c0.6,0,1.1-0.3,1.6-1v-4.3h1v6H236l-0.1-0.9h0c-0.6,0.7-1.2,1.1-2,1.1
		c-1.3,0-1.8-0.8-1.8-2.4V394.9z"/>
	<path d="M240.1,394.9h0.8l0.1,0.9h0c0.6-0.6,1.2-1,2-1c1.3,0,1.8,0.8,1.8,2.4v3.8h-1v-3.7c0-1.1-0.3-1.6-1.1-1.6
		c-0.6,0-1,0.3-1.7,0.9v4.4h-1V394.9z"/>
	<path d="M247.9,393c0-0.4,0.3-0.7,0.7-0.7c0.4,0,0.7,0.3,0.7,0.7c0,0.4-0.3,0.7-0.7,0.7C248.2,393.7,247.9,393.4,247.9,393z
		 M248.1,394.9h1v6h-1V394.9z"/>
	<path d="M252.6,395.8h-0.9V395l0.9-0.1l0.1-1.7h0.9v1.7h1.6v0.8h-1.6v3.3c0,0.7,0.2,1.2,0.9,1.2c0.2,0,0.5-0.1,0.7-0.2l0.2,0.8
		c-0.3,0.1-0.7,0.2-1.1,0.2c-1.3,0-1.7-0.8-1.7-2V395.8z"/>
	<path d="M257.7,393c0-0.4,0.3-0.7,0.7-0.7s0.7,0.3,0.7,0.7c0,0.4-0.3,0.7-0.7,0.7S257.7,393.4,257.7,393z M257.8,394.9h1v6h-1
		V394.9z"/>
	<path d="M264.4,394.8c1.5,0,2.4,1.1,2.4,2.8c0,0.2,0,0.4,0,0.6h-4.1c0.1,1.3,0.9,2.1,2,2.1c0.6,0,1.1-0.2,1.5-0.5l0.4,0.7
		c-0.5,0.3-1.2,0.6-2,0.6c-1.6,0-2.9-1.2-2.9-3.2S263,394.8,264.4,394.8z M265.9,397.5c0-1.2-0.5-1.9-1.5-1.9
		c-0.8,0-1.6,0.7-1.7,1.9H265.9z"/>
	<path d="M269.4,399.6c0.5,0.4,1.1,0.7,1.8,0.7c0.8,0,1.2-0.4,1.2-0.9c0-0.6-0.7-0.9-1.4-1.1c-0.9-0.3-1.8-0.7-1.8-1.7
		c0-1,0.8-1.7,2.1-1.7c0.8,0,1.4,0.3,1.9,0.7l-0.5,0.6c-0.4-0.3-0.8-0.5-1.4-0.5c-0.8,0-1.1,0.4-1.1,0.9c0,0.6,0.7,0.8,1.3,1
		c0.9,0.3,1.8,0.7,1.8,1.8c0,1-0.8,1.8-2.2,1.8c-0.9,0-1.7-0.4-2.2-0.8L269.4,399.6z"/>
	<path d="M12.6,413.2c0-0.8-0.3-1.5-1.2-1.5c-0.7,0-1.3,0.3-1.8,0.6l-0.4-0.7c0.6-0.4,1.4-0.8,2.4-0.8c1.5,0,2.1,1,2.1,2.5v3.7h-0.8
		l-0.1-0.7h0c-0.6,0.5-1.3,0.9-2,0.9c-1,0-1.8-0.6-1.8-1.7C8.9,414.1,10.1,413.4,12.6,413.2z M11,416.3c0.6,0,1.1-0.3,1.6-0.8v-1.7
		c-2,0.2-2.7,0.7-2.7,1.5C9.9,416,10.4,416.3,11,416.3z"/>
	<path d="M16.8,410.9h0.8l0.1,0.9h0c0.5-0.6,1.2-1,1.9-1c0.9,0,1.4,0.4,1.7,1.2c0.6-0.7,1.3-1.2,2-1.2c1.2,0,1.8,0.8,1.8,2.4v3.8h-1
		v-3.7c0-1.1-0.4-1.6-1.1-1.6c-0.5,0-1,0.3-1.5,0.9v4.4h-1v-3.7c0-1.1-0.4-1.6-1.1-1.6c-0.4,0-1,0.3-1.5,0.9v4.4h-1V410.9z"/>
	<path d="M30.7,410.8c1.5,0,2.8,1.2,2.8,3.2c0,2-1.3,3.2-2.8,3.2s-2.8-1.2-2.8-3.2C27.9,411.9,29.2,410.8,30.7,410.8z M30.7,416.3
		c1,0,1.7-0.9,1.7-2.3c0-1.4-0.7-2.3-1.7-2.3c-1,0-1.7,0.9-1.7,2.3C28.9,415.3,29.6,416.3,30.7,416.3z"/>
	<path d="M36.3,410.9h0.8l0.1,0.9h0c0.6-0.6,1.2-1,2-1c1.3,0,1.8,0.8,1.8,2.4v3.8h-1v-3.7c0-1.1-0.3-1.6-1.1-1.6
		c-0.6,0-1,0.3-1.6,0.9v4.4h-1V410.9z"/>
	<path d="M44.7,416.8L44.7,416.8c-0.3-0.2-0.5-0.6-0.5-1c0-0.5,0.3-0.9,0.7-1.1v0c-0.4-0.3-0.8-0.9-0.8-1.6c0-1.3,1-2.1,2.3-2.1
		c0.3,0,0.6,0.1,0.9,0.1h2.1v0.8h-1.2c0.3,0.3,0.5,0.7,0.5,1.2c0,1.3-1,2.1-2.2,2.1c-0.3,0-0.6-0.1-0.9-0.2
		c-0.2,0.2-0.4,0.4-0.4,0.7c0,0.4,0.2,0.7,1.1,0.7h1.2c1.4,0,2.1,0.4,2.1,1.4c0,1.1-1.2,2.1-3.1,2.1c-1.5,0-2.5-0.6-2.5-1.6
		C43.9,417.6,44.2,417.1,44.7,416.8z M46.5,419c1.2,0,1.9-0.6,1.9-1.2c0-0.6-0.4-0.7-1.2-0.7h-1c-0.2,0-0.5,0-0.8-0.1
		c-0.4,0.3-0.6,0.7-0.6,1C44.8,418.6,45.4,419,46.5,419z M47.6,412.9c0-0.9-0.6-1.4-1.3-1.4s-1.3,0.5-1.3,1.4c0,0.9,0.6,1.4,1.3,1.4
		S47.6,413.8,47.6,412.9z"/>
	<path d="M54.8,410.9h1l0.9,3.5c0.1,0.6,0.2,1.1,0.4,1.7h0c0.1-0.6,0.3-1.1,0.4-1.7l0.9-3.5h1l0.9,3.5c0.1,0.6,0.3,1.1,0.4,1.7h0
		c0.1-0.6,0.2-1.1,0.4-1.7l0.9-3.5h1l-1.6,6h-1.2l-0.9-3.2c-0.1-0.6-0.3-1.1-0.4-1.7h0c-0.1,0.6-0.3,1.2-0.4,1.7l-0.8,3.2h-1.2
		L54.8,410.9z"/>
	<path d="M68,410.8c1.5,0,2.8,1.2,2.8,3.2c0,2-1.3,3.2-2.8,3.2s-2.8-1.2-2.8-3.2C65.2,411.9,66.5,410.8,68,410.8z M68,416.3
		c1,0,1.7-0.9,1.7-2.3c0-1.4-0.7-2.3-1.7-2.3c-1,0-1.7,0.9-1.7,2.3C66.3,415.3,67,416.3,68,416.3z"/>
	<path d="M73.6,410.9h0.8l0.1,0.9h0c0.5-0.6,1.2-1,1.9-1c0.9,0,1.4,0.4,1.7,1.2c0.6-0.7,1.3-1.2,2-1.2c1.2,0,1.8,0.8,1.8,2.4v3.8h-1
		v-3.7c0-1.1-0.4-1.6-1.1-1.6c-0.5,0-1,0.3-1.5,0.9v4.4h-1v-3.7c0-1.1-0.4-1.6-1.1-1.6c-0.4,0-1,0.3-1.5,0.9v4.4h-1V410.9z"/>
	<path d="M87.4,410.8c1.5,0,2.4,1.1,2.4,2.8c0,0.2,0,0.4,0,0.6h-4.1c0.1,1.3,0.9,2.1,2,2.1c0.6,0,1.1-0.2,1.5-0.5l0.4,0.7
		c-0.5,0.3-1.2,0.6-2,0.6c-1.6,0-2.9-1.2-2.9-3.2S86,410.8,87.4,410.8z M88.9,413.5c0-1.2-0.5-1.9-1.5-1.9c-0.8,0-1.6,0.7-1.7,1.9
		H88.9z"/>
	<path d="M92.5,410.9h0.8l0.1,0.9h0c0.6-0.6,1.2-1,2-1c1.3,0,1.8,0.8,1.8,2.4v3.8h-1v-3.7c0-1.1-0.3-1.6-1.1-1.6
		c-0.6,0-1,0.3-1.6,0.9v4.4h-1V410.9z"/>
	<path d="M103.6,410.9h1l0.9,3.5c0.1,0.6,0.2,1.1,0.4,1.7h0c0.1-0.6,0.3-1.1,0.4-1.7l0.9-3.5h1l0.9,3.5c0.1,0.6,0.3,1.1,0.4,1.7h0
		c0.1-0.6,0.2-1.1,0.4-1.7l0.9-3.5h1l-1.6,6H109l-0.9-3.2c-0.1-0.6-0.3-1.1-0.4-1.7h0c-0.1,0.6-0.3,1.2-0.4,1.7l-0.8,3.2h-1.2
		L103.6,410.9z"/>
	<path d="M114.3,409c0-0.4,0.3-0.7,0.7-0.7s0.7,0.3,0.7,0.7c0,0.4-0.3,0.7-0.7,0.7S114.3,409.4,114.3,409z M114.5,410.9h1v6h-1
		V410.9z"/>
	<path d="M118.9,411.8H118V411l0.9-0.1l0.1-1.7h0.9v1.7h1.6v0.8H120v3.3c0,0.7,0.2,1.2,0.9,1.2c0.2,0,0.5-0.1,0.7-0.2l0.2,0.8
		c-0.3,0.1-0.7,0.2-1.1,0.2c-1.3,0-1.7-0.8-1.7-2V411.8z"/>
	<path d="M124.2,408.1h1v2.4l0,1.2c0.6-0.5,1.2-1,2-1c1.3,0,1.8,0.8,1.8,2.4v3.8h-1v-3.7c0-1.1-0.3-1.6-1.1-1.6
		c-0.6,0-1,0.3-1.6,0.9v4.4h-1V408.1z"/>
	<path d="M138.1,410.8c0.7,0,1.2,0.3,1.7,0.7l0-1v-2.3h1v8.8h-0.8l-0.1-0.7h0c-0.5,0.5-1.1,0.9-1.8,0.9c-1.5,0-2.5-1.1-2.5-3.2
		C135.5,412,136.7,410.8,138.1,410.8z M138.2,416.3c0.6,0,1-0.3,1.5-0.8v-3.2c-0.5-0.5-1-0.6-1.5-0.6c-1,0-1.7,0.9-1.7,2.3
		C136.5,415.4,137.1,416.3,138.2,416.3z"/>
	<path d="M143.9,409c0-0.4,0.3-0.7,0.7-0.7s0.7,0.3,0.7,0.7c0,0.4-0.3,0.7-0.7,0.7S143.9,409.4,143.9,409z M144,410.9h1v6h-1V410.9z
		"/>
	<path d="M154.6,409c-0.2-0.1-0.5-0.1-0.7-0.1c-0.6,0-0.9,0.4-0.9,1.2v1h1.3v0.8H153v5.2h-1v-5.2h-2.5v5.2h-1v-5.2h-0.8V411l0.8-0.1
		v-0.8c0-1.3,0.6-2,1.9-2c0.4,0,0.8,0.1,1.1,0.2l-0.2,0.8c-0.3-0.1-0.5-0.2-0.8-0.2c-0.6,0-0.9,0.4-0.9,1.2v0.8h2.5v-1
		c0-1.2,0.6-2,1.8-2c0.4,0,0.7,0.1,1,0.2L154.6,409z"/>
	<path d="M158.8,410.8c1.5,0,2.4,1.1,2.4,2.8c0,0.2,0,0.4,0,0.6h-4.1c0.1,1.3,0.9,2.1,2,2.1c0.6,0,1.1-0.2,1.5-0.5l0.4,0.7
		c-0.5,0.3-1.2,0.6-2,0.6c-1.6,0-2.9-1.2-2.9-3.2S157.4,410.8,158.8,410.8z M160.3,413.5c0-1.2-0.5-1.9-1.5-1.9
		c-0.8,0-1.6,0.7-1.7,1.9H160.3z"/>
	<path d="M164,410.9h0.8l0.1,1.1h0c0.4-0.8,1-1.2,1.7-1.2c0.3,0,0.4,0,0.6,0.1l-0.2,0.9c-0.2-0.1-0.3-0.1-0.6-0.1
		c-0.5,0-1.1,0.4-1.5,1.4v3.9h-1V410.9z"/>
	<path d="M171.6,410.8c1.5,0,2.4,1.1,2.4,2.8c0,0.2,0,0.4,0,0.6h-4.1c0.1,1.3,0.9,2.1,2,2.1c0.6,0,1.1-0.2,1.5-0.5l0.4,0.7
		c-0.5,0.3-1.2,0.6-2,0.6c-1.6,0-2.9-1.2-2.9-3.2S170.3,410.8,171.6,410.8z M173.2,413.5c0-1.2-0.5-1.9-1.5-1.9
		c-0.8,0-1.6,0.7-1.7,1.9H173.2z"/>
	<path d="M176.8,410.9h0.8l0.1,0.9h0c0.6-0.6,1.2-1,2-1c1.3,0,1.8,0.8,1.8,2.4v3.8h-1v-3.7c0-1.1-0.3-1.6-1.1-1.6
		c-0.6,0-1,0.3-1.6,0.9v4.4h-1V410.9z"/>
	<path d="M185,411.8h-0.9V411l0.9-0.1l0.1-1.7h0.9v1.7h1.6v0.8H186v3.3c0,0.7,0.2,1.2,0.9,1.2c0.2,0,0.5-0.1,0.7-0.2l0.2,0.8
		c-0.3,0.1-0.7,0.2-1.1,0.2c-1.3,0-1.7-0.8-1.7-2V411.8z"/>
	<path d="M196.4,410.8c0.8,0,1.4,0.3,1.8,0.7l-0.5,0.7c-0.4-0.3-0.7-0.5-1.2-0.5c-1.1,0-1.9,0.9-1.9,2.3c0,1.4,0.8,2.3,1.9,2.3
		c0.6,0,1.1-0.3,1.4-0.6l0.5,0.7c-0.5,0.5-1.2,0.8-2,0.8c-1.6,0-2.8-1.2-2.8-3.2C193.5,411.9,194.9,410.8,196.4,410.8z"/>
	<path d="M200.7,409c0-0.4,0.3-0.7,0.7-0.7c0.4,0,0.7,0.3,0.7,0.7c0,0.4-0.3,0.7-0.7,0.7C201,409.7,200.7,409.4,200.7,409z
		 M200.9,410.9h1v6h-1V410.9z"/>
	<path d="M205.2,410.9h0.8l0.1,1.1h0c0.4-0.8,1-1.2,1.7-1.2c0.3,0,0.4,0,0.6,0.1l-0.2,0.9c-0.2-0.1-0.3-0.1-0.6-0.1
		c-0.5,0-1.1,0.4-1.5,1.4v3.9h-1V410.9z"/>
	<path d="M213,410.8c0.8,0,1.4,0.3,1.8,0.7l-0.5,0.7c-0.4-0.3-0.7-0.5-1.2-0.5c-1.1,0-1.9,0.9-1.9,2.3c0,1.4,0.8,2.3,1.9,2.3
		c0.6,0,1.1-0.3,1.4-0.6l0.5,0.7c-0.5,0.5-1.2,0.8-2,0.8c-1.6,0-2.8-1.2-2.8-3.2C210.1,411.9,211.5,410.8,213,410.8z"/>
	<path d="M217.4,410.9h1v3.7c0,1.1,0.3,1.6,1.1,1.6c0.6,0,1.1-0.3,1.6-1v-4.3h1v6h-0.8l-0.1-0.9h0c-0.6,0.7-1.2,1.1-2,1.1
		c-1.3,0-1.8-0.8-1.8-2.4V410.9z"/>
	<path d="M225.5,410.9h0.8l0.1,0.9h0c0.5-0.6,1.2-1,1.9-1c0.9,0,1.4,0.4,1.7,1.2c0.6-0.7,1.3-1.2,2-1.2c1.2,0,1.8,0.8,1.8,2.4v3.8
		h-1v-3.7c0-1.1-0.4-1.6-1.1-1.6c-0.5,0-1,0.3-1.5,0.9v4.4h-1v-3.7c0-1.1-0.4-1.6-1.1-1.6c-0.4,0-1,0.3-1.5,0.9v4.4h-1V410.9z"/>
	<path d="M236.8,415.6c0.5,0.4,1.1,0.7,1.8,0.7c0.8,0,1.2-0.4,1.2-0.9c0-0.6-0.7-0.9-1.4-1.1c-0.9-0.3-1.8-0.7-1.8-1.7
		c0-1,0.8-1.7,2.1-1.7c0.8,0,1.4,0.3,1.9,0.7l-0.5,0.6c-0.4-0.3-0.8-0.5-1.4-0.5c-0.8,0-1.1,0.4-1.1,0.9c0,0.6,0.7,0.8,1.3,1
		c0.9,0.3,1.8,0.7,1.8,1.8c0,1-0.8,1.8-2.2,1.8c-0.9,0-1.7-0.4-2.2-0.8L236.8,415.6z"/>
	<path d="M243.6,411.8h-0.9V411l0.9-0.1l0.1-1.7h0.9v1.7h1.6v0.8h-1.6v3.3c0,0.7,0.2,1.2,0.9,1.2c0.2,0,0.5-0.1,0.7-0.2l0.2,0.8
		c-0.3,0.1-0.7,0.2-1.1,0.2c-1.3,0-1.7-0.8-1.7-2V411.8z"/>
	<path d="M252.1,413.2c0-0.8-0.3-1.5-1.2-1.5c-0.7,0-1.3,0.3-1.8,0.6l-0.4-0.7c0.6-0.4,1.4-0.8,2.4-0.8c1.5,0,2.1,1,2.1,2.5v3.7
		h-0.8l-0.1-0.7h0c-0.6,0.5-1.3,0.9-2,0.9c-1,0-1.8-0.6-1.8-1.7C248.3,414.1,249.5,413.4,252.1,413.2z M250.4,416.3
		c0.6,0,1.1-0.3,1.6-0.8v-1.7c-2,0.2-2.7,0.7-2.7,1.5C249.4,416,249.8,416.3,250.4,416.3z"/>
	<path d="M256.2,410.9h0.8l0.1,0.9h0c0.6-0.6,1.2-1,2-1c1.3,0,1.8,0.8,1.8,2.4v3.8h-1v-3.7c0-1.1-0.3-1.6-1.1-1.6
		c-0.6,0-1,0.3-1.7,0.9v4.4h-1V410.9z"/>
	<path d="M266.7,410.8c0.8,0,1.4,0.3,1.8,0.7l-0.5,0.7c-0.4-0.3-0.7-0.5-1.2-0.5c-1.1,0-1.9,0.9-1.9,2.3c0,1.4,0.8,2.3,1.9,2.3
		c0.6,0,1.1-0.3,1.4-0.6l0.5,0.7c-0.5,0.5-1.2,0.8-2,0.8c-1.6,0-2.8-1.2-2.8-3.2C263.8,411.9,265.2,410.8,266.7,410.8z"/>
	<path d="M273.2,410.8c1.5,0,2.4,1.1,2.4,2.8c0,0.2,0,0.4,0,0.6h-4.1c0.1,1.3,0.9,2.1,2,2.1c0.6,0,1.1-0.2,1.5-0.5l0.4,0.7
		c-0.5,0.3-1.2,0.6-2,0.6c-1.6,0-2.9-1.2-2.9-3.2S271.8,410.8,273.2,410.8z M274.7,413.5c0-1.2-0.5-1.9-1.5-1.9
		c-0.8,0-1.6,0.7-1.7,1.9H274.7z"/>
	<path d="M278.1,415.6c0.5,0.4,1.1,0.7,1.8,0.7c0.8,0,1.2-0.4,1.2-0.9c0-0.6-0.7-0.9-1.4-1.1c-0.9-0.3-1.8-0.7-1.8-1.7
		c0-1,0.8-1.7,2.1-1.7c0.8,0,1.4,0.3,1.9,0.7l-0.5,0.6c-0.4-0.3-0.8-0.5-1.4-0.5c-0.8,0-1.1,0.4-1.1,0.9c0,0.6,0.7,0.8,1.3,1
		c0.9,0.3,1.8,0.7,1.8,1.8c0,1-0.8,1.8-2.2,1.8c-0.9,0-1.7-0.4-2.2-0.8L278.1,415.6z"/>
	<path d="M285.3,415.6c0.4,0,0.7,0.3,0.7,0.8c0,0.4-0.3,0.8-0.7,0.8c-0.4,0-0.7-0.3-0.7-0.8C284.5,415.9,284.9,415.6,285.3,415.6z"
		/>
	<path d="M40.1,426.1h-2.3v-1.2h6.1v1.2h-2.3v6.9h-1.4V426.1z"/>
	<path d="M46.4,424.2h1.4v2.3l0,1.2c0.5-0.5,1.1-0.9,1.9-0.9c1.3,0,1.9,0.9,1.9,2.4v3.8h-1.4v-3.6c0-1-0.3-1.4-1-1.4
		c-0.5,0-0.9,0.3-1.4,0.8v4.3h-1.4V424.2z"/>
	<path d="M56.9,426.7c1.7,0,2.5,1.2,2.5,2.9c0,0.3,0,0.5-0.1,0.7h-3.9c0.1,1.1,0.8,1.7,1.8,1.7c0.5,0,1-0.2,1.4-0.4l0.5,0.9
		c-0.6,0.4-1.3,0.7-2.1,0.7c-1.7,0-3-1.2-3-3.2C54.1,427.9,55.5,426.7,56.9,426.7z M58.2,429.4c0-1-0.4-1.6-1.2-1.6
		c-0.7,0-1.3,0.5-1.5,1.6H58.2z"/>
	<path d="M65.9,424.2h1.4v7.3c0,0.3,0.2,0.5,0.3,0.5c0.1,0,0.1,0,0.2,0L68,433c-0.2,0.1-0.4,0.1-0.8,0.1c-1,0-1.4-0.7-1.4-1.7V424.2
		z"/>
	<path d="M73.8,429.1c0-0.6-0.3-1.2-1.1-1.2c-0.6,0-1.2,0.3-1.7,0.6l-0.5-1c0.7-0.4,1.5-0.8,2.5-0.8c1.5,0,2.3,0.9,2.3,2.6v3.6H74
		l-0.1-0.7h0c-0.5,0.5-1.2,0.8-1.9,0.8c-1.1,0-1.8-0.7-1.8-1.8C70.2,430,71.3,429.4,73.8,429.1z M72.5,432c0.5,0,0.9-0.2,1.3-0.7
		V430c-1.7,0.2-2.2,0.6-2.2,1.3C71.6,431.8,71.9,432,72.5,432z"/>
	<path d="M78.2,426.9h1.2l0.1,1.1h0c0.4-0.8,1.1-1.2,1.7-1.2c0.3,0,0.5,0,0.7,0.1l-0.2,1.2c-0.2-0.1-0.4-0.1-0.6-0.1
		c-0.5,0-1.1,0.3-1.4,1.3v3.7h-1.4V426.9z"/>
	<path d="M84.4,432.8L84.4,432.8c-0.3-0.2-0.5-0.6-0.5-1.1c0-0.5,0.3-0.9,0.7-1.1v0c-0.4-0.3-0.8-0.9-0.8-1.6c0-1.4,1.1-2.2,2.4-2.2
		c0.3,0,0.6,0.1,0.9,0.1h2.2v1.1h-1.1c0.2,0.2,0.3,0.6,0.3,1c0,1.4-1,2.1-2.3,2.1c-0.3,0-0.6,0-0.8-0.2c-0.2,0.2-0.3,0.3-0.3,0.6
		c0,0.3,0.2,0.6,1,0.6h1.1c1.5,0,2.2,0.4,2.2,1.5c0,1.2-1.3,2.1-3.3,2.1c-1.5,0-2.5-0.5-2.5-1.6C83.5,433.6,83.8,433.1,84.4,432.8z
		 M86.3,434.7c1,0,1.6-0.5,1.6-1c0-0.5-0.4-0.6-1.1-0.6H86c-0.3,0-0.6,0-0.8-0.1c-0.3,0.2-0.5,0.5-0.5,0.8
		C84.7,434.4,85.3,434.7,86.3,434.7z M87.2,428.9c0-0.8-0.5-1.2-1.1-1.2c-0.6,0-1.1,0.4-1.1,1.2c0,0.8,0.5,1.2,1.1,1.2
		C86.7,430.1,87.2,429.7,87.2,428.9z"/>
	<path d="M93.8,426.7c1.7,0,2.5,1.2,2.5,2.9c0,0.3,0,0.5-0.1,0.7h-3.9c0.1,1.1,0.8,1.7,1.8,1.7c0.5,0,1-0.2,1.4-0.4l0.5,0.9
		c-0.6,0.4-1.3,0.7-2.1,0.7c-1.7,0-3-1.2-3-3.2C91,427.9,92.4,426.7,93.8,426.7z M95.1,429.4c0-1-0.4-1.6-1.2-1.6
		c-0.7,0-1.3,0.5-1.5,1.6H95.1z"/>
	<path d="M98.9,426.9h1.2l0.1,1.1h0c0.4-0.8,1.1-1.2,1.7-1.2c0.3,0,0.5,0,0.7,0.1l-0.2,1.2c-0.2-0.1-0.4-0.1-0.6-0.1
		c-0.5,0-1.1,0.3-1.4,1.3v3.7h-1.4V426.9z"/>
	<path d="M108.8,428h-0.9v-1.1l0.9-0.1l0.2-1.7h1.2v1.7h1.6v1.1h-1.6v2.9c0,0.7,0.3,1.1,0.9,1.1c0.2,0,0.5-0.1,0.6-0.1l0.2,1.1
		c-0.3,0.1-0.8,0.2-1.2,0.2c-1.4,0-1.9-0.9-1.9-2.2V428z"/>
	<path d="M114.3,424.2h1.4v2.3l0,1.2c0.5-0.5,1.1-0.9,1.9-0.9c1.3,0,1.9,0.9,1.9,2.4v3.8h-1.4v-3.6c0-1-0.3-1.4-1-1.4
		c-0.5,0-0.9,0.3-1.4,0.8v4.3h-1.4V424.2z"/>
	<path d="M124.9,426.7c1.7,0,2.5,1.2,2.5,2.9c0,0.3,0,0.5-0.1,0.7h-3.9c0.1,1.1,0.8,1.7,1.8,1.7c0.5,0,1-0.2,1.4-0.4l0.5,0.9
		c-0.6,0.4-1.3,0.7-2.1,0.7c-1.7,0-3-1.2-3-3.2C122.1,427.9,123.5,426.7,124.9,426.7z M126.2,429.4c0-1-0.4-1.6-1.2-1.6
		c-0.7,0-1.3,0.5-1.5,1.6H126.2z"/>
	<path d="M136,426.7c0.7,0,1.1,0.3,1.6,0.7l0-1v-2.2h1.4v8.8h-1.2l-0.1-0.7h0c-0.4,0.4-1.1,0.8-1.7,0.8c-1.5,0-2.5-1.2-2.5-3.2
		C133.4,427.9,134.7,426.7,136,426.7z M136.3,431.9c0.5,0,0.9-0.2,1.3-0.7v-2.8c-0.4-0.4-0.8-0.5-1.2-0.5c-0.8,0-1.4,0.7-1.4,2
		C134.9,431.2,135.4,431.9,136.3,431.9z"/>
	<path d="M141.9,425c0-0.5,0.4-0.8,0.9-0.8c0.5,0,0.9,0.3,0.9,0.8c0,0.5-0.4,0.8-0.9,0.8C142.2,425.8,141.9,425.5,141.9,425z
		 M142,426.9h1.4v6.1H142V426.9z"/>
	<path d="M153.4,425.3c-0.2-0.1-0.4-0.1-0.7-0.1c-0.5,0-0.8,0.3-0.8,1v0.7h1.2v1.1h-1.2v5h-1.4v-5h-2.3v5h-1.4v-5h-0.8v-1.1l0.8-0.1
		v-0.5c0-1.3,0.6-2.2,2.1-2.2c0.5,0,0.9,0.1,1.2,0.2l-0.3,1.1c-0.2-0.1-0.4-0.2-0.8-0.2c-0.5,0-0.8,0.3-0.8,1v0.5h2.3v-0.6
		c0-1.3,0.6-2.2,2-2.2c0.4,0,0.8,0.1,1.1,0.2L153.4,425.3z"/>
	<path d="M157.7,426.7c1.7,0,2.5,1.2,2.5,2.9c0,0.3,0,0.5-0.1,0.7h-3.9c0.1,1.1,0.8,1.7,1.8,1.7c0.5,0,1-0.2,1.4-0.4l0.5,0.9
		c-0.6,0.4-1.3,0.7-2.1,0.7c-1.7,0-3-1.2-3-3.2C154.9,427.9,156.3,426.7,157.7,426.7z M159,429.4c0-1-0.4-1.6-1.2-1.6
		c-0.7,0-1.3,0.5-1.5,1.6H159z"/>
	<path d="M162.8,426.9h1.2l0.1,1.1h0c0.4-0.8,1.1-1.2,1.7-1.2c0.3,0,0.5,0,0.7,0.1l-0.2,1.2c-0.2-0.1-0.4-0.1-0.6-0.1
		c-0.5,0-1.1,0.3-1.4,1.3v3.7h-1.4V426.9z"/>
	<path d="M171,426.7c1.6,0,2.5,1.2,2.5,2.9c0,0.3,0,0.5-0.1,0.7h-3.9c0.1,1.1,0.8,1.7,1.8,1.7c0.5,0,1-0.2,1.4-0.4l0.5,0.9
		c-0.6,0.4-1.3,0.7-2.1,0.7c-1.7,0-3-1.2-3-3.2C168.2,427.9,169.5,426.7,171,426.7z M172.2,429.4c0-1-0.4-1.6-1.2-1.6
		c-0.7,0-1.3,0.5-1.5,1.6H172.2z"/>
	<path d="M176.1,426.9h1.2l0.1,0.8h0c0.5-0.5,1.2-1,2-1c1.3,0,1.9,0.9,1.9,2.4v3.8h-1.4v-3.6c0-1-0.3-1.4-1-1.4
		c-0.5,0-0.9,0.3-1.4,0.8v4.3h-1.4V426.9z"/>
	<path d="M186.9,426.7c0.8,0,1.4,0.3,1.8,0.7l-0.7,0.9c-0.3-0.3-0.6-0.4-1-0.4c-1,0-1.7,0.8-1.7,2c0,1.2,0.7,2,1.6,2
		c0.5,0,0.9-0.2,1.3-0.5l0.6,0.9c-0.6,0.5-1.3,0.8-2,0.8c-1.7,0-2.9-1.2-2.9-3.2C183.9,427.9,185.3,426.7,186.9,426.7z"/>
	<path d="M193.3,426.7c1.7,0,2.5,1.2,2.5,2.9c0,0.3,0,0.5-0.1,0.7h-3.9c0.1,1.1,0.8,1.7,1.8,1.7c0.5,0,1-0.2,1.4-0.4l0.5,0.9
		c-0.6,0.4-1.3,0.7-2.1,0.7c-1.7,0-3-1.2-3-3.2C190.5,427.9,191.9,426.7,193.3,426.7z M194.6,429.4c0-1-0.4-1.6-1.2-1.6
		c-0.7,0-1.3,0.5-1.5,1.6H194.6z"/>
	<path d="M202.4,424.1h1v2.4l0,1.1c0.5-0.5,1.2-0.8,1.9-0.8c1.6,0,2.4,1.2,2.4,3.1c0,2.1-1.2,3.3-2.6,3.3c-0.6,0-1.2-0.3-1.7-0.7h0
		l-0.1,0.6h-0.8V424.1z M204.9,432.3c1,0,1.7-0.9,1.7-2.4c0-1.3-0.4-2.2-1.6-2.2c-0.5,0-1,0.3-1.6,0.8v3.2
		C203.9,432.1,204.5,432.3,204.9,432.3z"/>
	<path d="M212.7,426.8c1.5,0,2.4,1.1,2.4,2.8c0,0.2,0,0.4,0,0.6H211c0.1,1.3,0.9,2.1,2,2.1c0.6,0,1.1-0.2,1.5-0.5l0.4,0.7
		c-0.5,0.3-1.2,0.6-2,0.6c-1.6,0-2.9-1.2-2.9-3.2S211.4,426.8,212.7,426.8z M214.3,429.5c0-1.2-0.5-1.9-1.5-1.9
		c-0.8,0-1.6,0.7-1.7,1.9H214.3z"/>
	<path d="M217.9,427.8H217V427l0.9-0.1l0.1-1.7h0.9v1.7h1.6v0.8h-1.6v3.3c0,0.7,0.2,1.2,0.9,1.2c0.2,0,0.5-0.1,0.7-0.2l0.2,0.8
		c-0.3,0.1-0.7,0.2-1.1,0.2c-1.3,0-1.7-0.8-1.7-2V427.8z"/>
	<path d="M222.4,426.9h1l0.9,3.5c0.1,0.6,0.2,1.1,0.4,1.7h0.1c0.1-0.6,0.3-1.1,0.4-1.7l0.9-3.5h1l0.9,3.5c0.1,0.6,0.3,1.1,0.4,1.7h0
		c0.1-0.6,0.2-1.1,0.4-1.7l0.9-3.5h1l-1.6,6h-1.2l-0.9-3.2c-0.1-0.6-0.3-1.1-0.4-1.7h-0.1c-0.1,0.6-0.3,1.2-0.4,1.7l-0.8,3.2h-1.2
		L222.4,426.9z"/>
	<path d="M235.5,426.8c1.5,0,2.4,1.1,2.4,2.8c0,0.2,0,0.4,0,0.6h-4.1c0.1,1.3,0.9,2.1,2,2.1c0.6,0,1.1-0.2,1.5-0.5l0.4,0.7
		c-0.5,0.3-1.2,0.6-2,0.6c-1.6,0-2.9-1.2-2.9-3.2S234.1,426.8,235.5,426.8z M237,429.5c0-1.2-0.5-1.9-1.5-1.9
		c-0.8,0-1.6,0.7-1.7,1.9H237z"/>
	<path d="M242.9,426.8c1.5,0,2.4,1.1,2.4,2.8c0,0.2,0,0.4,0,0.6h-4.1c0.1,1.3,0.9,2.1,2,2.1c0.6,0,1.1-0.2,1.5-0.5l0.4,0.7
		c-0.5,0.3-1.2,0.6-2,0.6c-1.6,0-2.9-1.2-2.9-3.2S241.5,426.8,242.9,426.8z M244.4,429.5c0-1.2-0.5-1.9-1.5-1.9
		c-0.8,0-1.6,0.7-1.7,1.9H244.4z"/>
	<path d="M248,426.9h0.8l0.1,0.9h0c0.6-0.6,1.2-1,2-1c1.3,0,1.8,0.8,1.8,2.4v3.8h-1v-3.7c0-1.1-0.3-1.6-1.1-1.6
		c-0.6,0-1,0.3-1.6,0.9v4.4h-1V426.9z"/>
	<path d="M58.9,443.8H58V443l0.9-0.1l0.1-1.7H60v1.7h1.6v0.8H60v3.3c0,0.7,0.2,1.2,0.9,1.2c0.2,0,0.5-0.1,0.7-0.2l0.2,0.8
		c-0.3,0.1-0.7,0.2-1.1,0.2c-1.3,0-1.7-0.8-1.7-2V443.8z"/>
	<path d="M64.2,440.1h1v2.4l0,1.2c0.6-0.5,1.2-1,2-1c1.3,0,1.8,0.8,1.8,2.4v3.8h-1v-3.7c0-1.1-0.3-1.6-1.1-1.6c-0.6,0-1,0.3-1.6,0.9
		v4.4h-1V440.1z"/>
	<path d="M74.4,442.8c1.5,0,2.4,1.1,2.4,2.8c0,0.2,0,0.4,0,0.6h-4.1c0.1,1.3,0.9,2.1,2,2.1c0.6,0,1.1-0.2,1.5-0.5l0.4,0.7
		c-0.5,0.3-1.2,0.6-2,0.6c-1.6,0-2.9-1.2-2.9-3.2S73.1,442.8,74.4,442.8z M76,445.5c0-1.2-0.5-1.9-1.5-1.9c-0.8,0-1.6,0.7-1.7,1.9
		H76z"/>
	<path class="st7" d="M83.3,440.9h1.8v3.1h2.8v-3.1h1.8v8.1h-1.8v-3.4h-2.8v3.4h-1.8V440.9z"/>
	<path class="st7" d="M92.5,444.9c0-2.6,1.5-4.2,3.7-4.2c2.2,0,3.7,1.5,3.7,4.2c0,2.6-1.5,4.2-3.7,4.2
		C94,449.1,92.5,447.5,92.5,444.9z M97.9,444.9c0-1.6-0.7-2.6-1.8-2.6s-1.8,1-1.8,2.6c0,1.6,0.7,2.7,1.8,2.7S97.9,446.5,97.9,444.9z
		"/>
	<path class="st7" d="M102.6,440.9h1.8v8.1h-1.8V440.9z"/>
	<path d="M114.9,445.2c0-0.8-0.3-1.5-1.2-1.5c-0.7,0-1.3,0.3-1.8,0.6l-0.4-0.7c0.6-0.4,1.4-0.8,2.4-0.8c1.5,0,2.1,1,2.1,2.5v3.7H115
		l-0.1-0.7h0c-0.6,0.5-1.3,0.9-2,0.9c-1,0-1.8-0.6-1.8-1.7C111.1,446.1,112.3,445.4,114.9,445.2z M113.2,448.3
		c0.6,0,1.1-0.3,1.6-0.8v-1.7c-2,0.2-2.7,0.7-2.7,1.5C112.1,448,112.6,448.3,113.2,448.3z"/>
	<path d="M119,442.9h0.8l0.1,0.9h0c0.6-0.6,1.2-1,2-1c1.3,0,1.8,0.8,1.8,2.4v3.8h-1v-3.7c0-1.1-0.3-1.6-1.1-1.6
		c-0.6,0-1,0.3-1.6,0.9v4.4h-1V442.9z"/>
	<path d="M129.2,442.8c0.7,0,1.2,0.3,1.7,0.7l0-1v-2.3h1v8.8h-0.8l-0.1-0.7h0c-0.5,0.5-1.1,0.9-1.8,0.9c-1.5,0-2.5-1.1-2.5-3.2
		C126.6,444,127.9,442.8,129.2,442.8z M129.3,448.3c0.6,0,1-0.3,1.5-0.8v-3.2c-0.5-0.5-1-0.6-1.5-0.6c-1,0-1.7,0.9-1.7,2.3
		C127.7,447.4,128.3,448.3,129.3,448.3z"/>
	<path d="M139.1,443.8h-0.9V443l0.9-0.1l0.1-1.7h0.9v1.7h1.6v0.8h-1.6v3.3c0,0.7,0.2,1.2,0.9,1.2c0.2,0,0.5-0.1,0.7-0.2l0.2,0.8
		c-0.3,0.1-0.7,0.2-1.1,0.2c-1.3,0-1.7-0.8-1.7-2V443.8z"/>
	<path d="M144.4,440.1h1v2.4l0,1.2c0.6-0.5,1.2-1,2-1c1.3,0,1.8,0.8,1.8,2.4v3.8h-1v-3.7c0-1.1-0.3-1.6-1.1-1.6
		c-0.6,0-1,0.3-1.6,0.9v4.4h-1V440.1z"/>
	<path d="M154.6,442.8c1.5,0,2.4,1.1,2.4,2.8c0,0.2,0,0.4,0,0.6h-4.1c0.1,1.3,0.9,2.1,2,2.1c0.6,0,1.1-0.2,1.5-0.5l0.4,0.7
		c-0.5,0.3-1.2,0.6-2,0.6c-1.6,0-2.9-1.2-2.9-3.2S153.2,442.8,154.6,442.8z M156.1,445.5c0-1.2-0.5-1.9-1.5-1.9
		c-0.8,0-1.6,0.7-1.7,1.9H156.1z"/>
	<path class="st6" d="M166.9,440.7c1,0,1.8,0.5,2.4,1.1l-1,1.1c-0.4-0.4-0.8-0.6-1.4-0.6c-1.1,0-2,1-2,2.6c0,1.7,0.8,2.6,2,2.6
		c0.7,0,1.1-0.3,1.5-0.7l1,1.1c-0.7,0.8-1.6,1.2-2.6,1.2c-2.1,0-3.8-1.4-3.8-4.1C163,442.3,164.8,440.7,166.9,440.7z"/>
	<path class="st6" d="M171,444.9c0-2.6,1.5-4.2,3.7-4.2s3.7,1.5,3.7,4.2c0,2.6-1.5,4.2-3.7,4.2S171,447.5,171,444.9z M176.5,444.9
		c0-1.6-0.7-2.6-1.8-2.6c-1.1,0-1.8,1-1.8,2.6c0,1.6,0.7,2.7,1.8,2.7C175.8,447.5,176.5,446.5,176.5,444.9z"/>
	<path class="st6" d="M180,440.9h1.9l1,3.8c0.2,0.9,0.4,1.7,0.7,2.6h0c0.2-0.9,0.4-1.7,0.6-2.6l1-3.8h1.9l-2.4,8.1h-2.2L180,440.9z"
		/>
	<path class="st6" d="M189.2,440.9h5.1v1.5H191v1.6h2.8v1.5H191v1.9h3.4v1.5h-5.2V440.9z"/>
	<path class="st6" d="M201.6,449l-1.6-2.9h-1v2.9h-1.8v-8.1h2.9c1.7,0,3.1,0.6,3.1,2.5c0,1.2-0.6,1.9-1.4,2.3l1.8,3.2H201.6z
		 M199,444.6h0.9c1,0,1.5-0.4,1.5-1.2s-0.5-1.1-1.5-1.1H199V444.6z"/>
	<path class="st6" d="M209.8,447.1h-2.5l-0.5,1.9h-1.9l2.5-8.1h2.2l2.5,8.1h-1.9L209.8,447.1z M209.4,445.6l-0.2-0.7
		c-0.2-0.8-0.4-1.8-0.7-2.6h-0.1c-0.2,0.9-0.4,1.8-0.6,2.6l-0.2,0.7H209.4z"/>
	<path class="st6" d="M217.8,440.7c1.1,0,2,0.5,2.5,1.1l-1,1.1c-0.4-0.4-0.8-0.6-1.5-0.6c-1.3,0-2.1,1-2.1,2.6
		c0,1.7,0.8,2.6,2.3,2.6c0.3,0,0.7-0.1,0.9-0.2v-1.4h-1.3v-1.5h3v3.7c-0.6,0.5-1.6,1-2.7,1c-2.2,0-3.9-1.4-3.9-4.1
		C213.8,442.3,215.6,440.7,217.8,440.7z"/>
	<path class="st6" d="M223.3,440.9h5.1v1.5h-3.2v1.6h2.8v1.5h-2.8v1.9h3.4v1.5h-5.2V440.9z"/>
	<path d="M231,450.5c0.7-0.3,1.1-0.8,1.1-1.5c0,0-0.1,0-0.1,0c-0.4,0-0.7-0.2-0.7-0.7c0-0.4,0.3-0.7,0.8-0.7c0.5,0,0.9,0.5,0.9,1.2
		c0,1.1-0.6,1.9-1.6,2.3L231,450.5z"/>
	<path d="M34.6,459.8h-0.9V459l0.9-0.1l0.1-1.7h0.9v1.7h1.6v0.8h-1.6v3.3c0,0.7,0.2,1.2,0.9,1.2c0.2,0,0.5-0.1,0.7-0.2l0.2,0.8
		c-0.3,0.1-0.7,0.2-1.1,0.2c-1.3,0-1.7-0.8-1.7-2V459.8z"/>
	<path d="M39.9,456.1h1v2.4l0,1.2c0.6-0.5,1.2-1,2-1c1.3,0,1.8,0.8,1.8,2.4v3.8h-1v-3.7c0-1.1-0.3-1.6-1.1-1.6c-0.6,0-1,0.3-1.6,0.9
		v4.4h-1V456.1z"/>
	<path d="M50.1,458.8c1.5,0,2.4,1.1,2.4,2.8c0,0.2,0,0.4,0,0.6h-4.1c0.1,1.3,0.9,2.1,2,2.1c0.6,0,1.1-0.2,1.5-0.5l0.4,0.7
		c-0.5,0.3-1.2,0.6-2,0.6c-1.6,0-2.9-1.2-2.9-3.2S48.7,458.8,50.1,458.8z M51.6,461.5c0-1.2-0.5-1.9-1.5-1.9c-0.8,0-1.6,0.7-1.7,1.9
		H51.6z"/>
	<path class="st11" d="M58.8,458.8h1.5l0.1,0.8h0c0.5-0.5,1.1-0.9,1.9-0.9c0.9,0,1.4,0.4,1.7,1c0.5-0.6,1.1-1,1.9-1
		c1.3,0,1.9,0.9,1.9,2.5v3.8H66v-3.6c0-0.9-0.2-1.2-0.8-1.2c-0.3,0-0.7,0.2-1.1,0.6v4.2h-1.8v-3.6c0-0.9-0.2-1.2-0.8-1.2
		c-0.3,0-0.7,0.2-1,0.6v4.2h-1.8V458.8z"/>
	<path class="st11" d="M73.3,458.7c1.6,0,3,1.2,3,3.2s-1.4,3.2-3,3.2c-1.6,0-3-1.2-3-3.2S71.7,458.7,73.3,458.7z M73.3,463.6
		c0.7,0,1.1-0.7,1.1-1.7c0-1.1-0.4-1.8-1.1-1.8c-0.8,0-1.1,0.7-1.1,1.8C72.2,463,72.5,463.6,73.3,463.6z"/>
	<path class="st11" d="M78.8,458.8h1.5l0.1,1.1h0c0.4-0.8,1.1-1.2,1.7-1.2c0.3,0,0.6,0,0.7,0.1l-0.3,1.6c-0.2-0.1-0.4-0.1-0.7-0.1
		c-0.5,0-1,0.3-1.4,1.1v3.6h-1.8V458.8z"/>
	<path class="st11" d="M87.4,458.7c1.7,0,2.6,1.3,2.6,3c0,0.3,0,0.6-0.1,0.8h-3.7c0.2,0.9,0.8,1.3,1.6,1.3c0.5,0,0.9-0.1,1.3-0.4
		l0.6,1.1c-0.6,0.4-1.5,0.7-2.2,0.7c-1.8,0-3.1-1.2-3.1-3.2C84.5,459.9,85.9,458.7,87.4,458.7z M88.4,461.3c0-0.7-0.3-1.2-1-1.2
		c-0.6,0-1.1,0.4-1.2,1.2H88.4z"/>
	<path class="st11" d="M96.2,458.8h1.8v3.6c0,0.9,0.2,1.2,0.8,1.2c0.5,0,0.7-0.2,1.1-0.7v-4.1h1.8v6.2h-1.5l-0.1-0.9h0
		c-0.5,0.6-1.1,1-1.9,1c-1.3,0-1.9-0.9-1.9-2.5V458.8z"/>
	<path class="st11" d="M104.6,458.8h1.5l0.1,0.8h0c0.5-0.5,1.1-0.9,2-0.9c1.3,0,1.9,0.9,1.9,2.5v3.8h-1.8v-3.6
		c0-0.9-0.2-1.2-0.8-1.2c-0.5,0-0.7,0.2-1.1,0.6v4.2h-1.8V458.8z"/>
	<path class="st11" d="M115.5,458.7c1.7,0,2.6,1.3,2.6,3c0,0.3,0,0.6-0.1,0.8h-3.7c0.2,0.9,0.8,1.3,1.6,1.3c0.5,0,0.9-0.1,1.3-0.4
		l0.6,1.1c-0.6,0.4-1.5,0.7-2.2,0.7c-1.8,0-3.1-1.2-3.1-3.2C112.6,459.9,114,458.7,115.5,458.7z M116.5,461.3c0-0.7-0.3-1.2-1-1.2
		c-0.6,0-1.1,0.4-1.2,1.2H116.5z"/>
	<path class="st11" d="M122.8,458.7c0.7,0,1.2,0.2,1.6,0.8h0l0.1-0.6h1.4v8.4h-1.8v-1.9l0.1-0.9c-0.4,0.4-1,0.7-1.6,0.7
		c-1.5,0-2.5-1.2-2.5-3.2S121.5,458.7,122.8,458.7z M123.3,463.6c0.4,0,0.7-0.1,1-0.6v-2.5c-0.3-0.3-0.7-0.4-1-0.4
		c-0.6,0-1.1,0.5-1.1,1.7C122.1,463.1,122.6,463.6,123.3,463.6z"/>
	<path class="st11" d="M128.9,458.8h1.8v3.6c0,0.9,0.2,1.2,0.8,1.2c0.5,0,0.7-0.2,1.1-0.7v-4.1h1.8v6.2h-1.5l-0.1-0.9h0
		c-0.5,0.6-1.1,1-1.9,1c-1.3,0-1.9-0.9-1.9-2.5V458.8z"/>
	<path class="st11" d="M140.5,461c0-0.5-0.3-0.9-1-0.9c-0.5,0-1,0.2-1.6,0.6l-0.6-1.2c0.8-0.5,1.7-0.8,2.6-0.8
		c1.6,0,2.4,0.9,2.4,2.8v3.5h-1.5l-0.1-0.6h0c-0.5,0.5-1.1,0.8-1.8,0.8c-1.1,0-1.8-0.8-1.8-1.9C137,462,138,461.3,140.5,461z
		 M139.4,463.7c0.4,0,0.7-0.2,1-0.5v-1.1c-1.3,0.2-1.7,0.5-1.7,1C138.7,463.5,139,463.7,139.4,463.7z"/>
	<path class="st11" d="M145.1,456.3h1.8v6.9c0,0.4,0.2,0.5,0.3,0.5c0.1,0,0.1,0,0.2,0l0.2,1.4c-0.2,0.1-0.5,0.1-0.9,0.1
		c-1.3,0-1.7-0.8-1.7-2.1V456.3z"/>
	<path class="st11" d="M153.9,460.2h-0.8v-1.4l0.9-0.1l0.2-1.6h1.5v1.6h1.5v1.4h-1.5v2.5c0,0.7,0.3,1,0.8,1c0.2,0,0.4-0.1,0.6-0.1
		l0.3,1.3c-0.3,0.1-0.8,0.2-1.4,0.2c-1.5,0-2.1-1-2.1-2.4V460.2z"/>
	<path class="st11" d="M159.7,456.3h1.8v2.1l-0.1,1.1c0.5-0.4,1.1-0.8,1.9-0.8c1.3,0,1.9,0.9,1.9,2.5v3.8h-1.8v-3.6
		c0-0.9-0.2-1.2-0.8-1.2c-0.5,0-0.7,0.2-1.1,0.6v4.2h-1.8V456.3z"/>
	<path class="st11" d="M170.5,458.7c1.7,0,2.6,1.3,2.6,3c0,0.3,0,0.6-0.1,0.8h-3.7c0.2,0.9,0.8,1.3,1.6,1.3c0.5,0,0.9-0.1,1.3-0.4
		l0.6,1.1c-0.6,0.4-1.5,0.7-2.2,0.7c-1.8,0-3.1-1.2-3.1-3.2C167.6,459.9,169.1,458.7,170.5,458.7z M171.6,461.3c0-0.7-0.3-1.2-1-1.2
		c-0.6,0-1.1,0.4-1.2,1.2H171.6z"/>
	<path class="st11" d="M181.7,458.7c0.7,0,1.1,0.2,1.5,0.6l-0.1-0.9v-2.1h1.8v8.7h-1.5l-0.1-0.6h0c-0.4,0.4-1,0.8-1.6,0.8
		c-1.5,0-2.5-1.2-2.5-3.2S180.4,458.7,181.7,458.7z M182.2,463.6c0.4,0,0.7-0.1,1-0.6v-2.5c-0.3-0.3-0.7-0.4-1-0.4
		c-0.6,0-1.1,0.5-1.1,1.7C181,463.1,181.5,463.6,182.2,463.6z"/>
	<path class="st11" d="M187.7,457c0-0.6,0.4-0.9,1.1-0.9c0.6,0,1.1,0.4,1.1,0.9c0,0.6-0.4,1-1.1,1
		C188.1,457.9,187.7,457.5,187.7,457z M187.8,458.8h1.8v6.2h-1.8V458.8z"/>
	<path class="st11" d="M192.8,463.1c0.6,0.4,1.1,0.6,1.6,0.6c0.5,0,0.8-0.2,0.8-0.5c0-0.4-0.6-0.6-1.3-0.8c-0.7-0.3-1.6-0.8-1.6-1.8
		c0-1.1,0.9-1.9,2.4-1.9c0.9,0,1.6,0.4,2.2,0.8l-0.8,1.1c-0.4-0.3-0.9-0.5-1.3-0.5c-0.5,0-0.7,0.2-0.7,0.5c0,0.4,0.6,0.5,1.2,0.8
		c0.8,0.3,1.7,0.7,1.7,1.8c0,1.1-0.9,2-2.5,2c-0.8,0-1.7-0.3-2.4-0.9L192.8,463.1z"/>
	<path class="st11" d="M199.5,460.2h-0.8v-1.4l0.9-0.1l0.2-1.6h1.5v1.6h1.5v1.4h-1.5v2.5c0,0.7,0.3,1,0.8,1c0.2,0,0.4-0.1,0.6-0.1
		l0.3,1.3c-0.3,0.1-0.8,0.2-1.4,0.2c-1.5,0-2.1-1-2.1-2.4V460.2z"/>
	<path class="st11" d="M205.2,458.8h1.5l0.1,1.1h0c0.4-0.8,1.1-1.2,1.7-1.2c0.3,0,0.6,0,0.7,0.1l-0.3,1.6c-0.2-0.1-0.4-0.1-0.7-0.1
		c-0.5,0-1,0.3-1.4,1.1v3.6h-1.8V458.8z"/>
	<path class="st11" d="M211.3,457c0-0.6,0.4-0.9,1.1-0.9c0.6,0,1.1,0.4,1.1,0.9c0,0.6-0.4,1-1.1,1
		C211.7,457.9,211.3,457.5,211.3,457z M211.4,458.8h1.8v6.2h-1.8V458.8z"/>
	<path class="st11" d="M216.1,456.3h1.8v2.1l0,0.9c0.5-0.4,1.1-0.7,1.6-0.7c1.5,0,2.4,1.2,2.4,3.1c0,2.1-1.3,3.3-2.6,3.3
		c-0.5,0-1.1-0.3-1.6-0.8h-0.1l-0.1,0.6h-1.4V456.3z M218.9,463.6c0.6,0,1.1-0.5,1.1-1.8c0-1.1-0.3-1.7-1.1-1.7
		c-0.4,0-0.7,0.2-1.1,0.6v2.5C218.2,463.5,218.6,463.6,218.9,463.6z"/>
	<path class="st11" d="M224.4,458.8h1.8v3.6c0,0.9,0.2,1.2,0.8,1.2c0.5,0,0.7-0.2,1.1-0.7v-4.1h1.8v6.2h-1.5l-0.1-0.9h0
		c-0.5,0.6-1.1,1-1.9,1c-1.3,0-1.9-0.9-1.9-2.5V458.8z"/>
	<path class="st11" d="M233,460.2h-0.8v-1.4l0.9-0.1l0.2-1.6h1.5v1.6h1.5v1.4h-1.5v2.5c0,0.7,0.3,1,0.8,1c0.2,0,0.4-0.1,0.6-0.1
		l0.3,1.3c-0.3,0.1-0.8,0.2-1.4,0.2c-1.5,0-2.1-1-2.1-2.4V460.2z"/>
	<path class="st11" d="M238.5,457c0-0.6,0.4-0.9,1.1-0.9c0.6,0,1.1,0.4,1.1,0.9c0,0.6-0.4,1-1.1,1C239,457.9,238.5,457.5,238.5,457z
		 M238.7,458.8h1.8v6.2h-1.8V458.8z"/>
	<path class="st11" d="M246,458.7c1.6,0,3,1.2,3,3.2s-1.4,3.2-3,3.2c-1.6,0-3-1.2-3-3.2S244.4,458.7,246,458.7z M246,463.6
		c0.7,0,1.1-0.7,1.1-1.7c0-1.1-0.4-1.8-1.1-1.8c-0.8,0-1.1,0.7-1.1,1.8C244.9,463,245.2,463.6,246,463.6z"/>
	<path class="st11" d="M251.5,458.8h1.5l0.1,0.8h0c0.5-0.5,1.1-0.9,2-0.9c1.3,0,1.9,0.9,1.9,2.5v3.8h-1.8v-3.6
		c0-0.9-0.2-1.2-0.8-1.2c-0.5,0-0.7,0.2-1.1,0.6v4.2h-1.8V458.8z"/>
	<path class="st11" d="M63.6,474.7c1.6,0,3,1.2,3,3.2s-1.4,3.2-3,3.2c-1.6,0-3-1.2-3-3.2S62,474.7,63.6,474.7z M63.6,479.6
		c0.7,0,1.1-0.7,1.1-1.7c0-1.1-0.4-1.8-1.1-1.8c-0.8,0-1.1,0.7-1.1,1.8C62.5,479,62.8,479.6,63.6,479.6z"/>
	<path class="st11" d="M72.5,473.7c-0.2-0.1-0.4-0.1-0.6-0.1c-0.4,0-0.7,0.2-0.7,0.9v0.4h1.1v1.4h-1.1v4.7h-1.8v-4.7h-0.8v-1.4
		l0.8-0.1v-0.3c0-1.3,0.6-2.4,2.3-2.4c0.5,0,1,0.1,1.2,0.2L72.5,473.7z"/>
	<path class="st11" d="M81.5,477c0-0.5-0.3-0.9-1-0.9c-0.5,0-1,0.2-1.6,0.6l-0.6-1.2c0.8-0.5,1.7-0.8,2.6-0.8c1.6,0,2.4,0.9,2.4,2.8
		v3.5h-1.5l-0.1-0.6h0c-0.5,0.5-1.1,0.8-1.8,0.8c-1.1,0-1.8-0.8-1.8-1.9C78.1,478,79.1,477.3,81.5,477z M80.5,479.7
		c0.4,0,0.7-0.2,1-0.5v-1.1c-1.3,0.2-1.7,0.5-1.7,1C79.8,479.5,80.1,479.7,80.5,479.7z"/>
	<path class="st11" d="M90,472.3h1.8v2.1l-0.1,1.1c0.5-0.4,1.1-0.8,1.9-0.8c1.3,0,1.9,0.9,1.9,2.5v3.8h-1.8v-3.6
		c0-0.9-0.2-1.2-0.8-1.2c-0.5,0-0.7,0.2-1.1,0.6v4.2H90V472.3z"/>
	<path class="st11" d="M100.9,474.7c1.7,0,2.6,1.3,2.6,3c0,0.3,0,0.6-0.1,0.8h-3.7c0.2,0.9,0.8,1.3,1.6,1.3c0.5,0,0.9-0.1,1.3-0.4
		l0.6,1.1c-0.6,0.4-1.5,0.7-2.2,0.7c-1.8,0-3.1-1.2-3.1-3.2C98,475.9,99.4,474.7,100.9,474.7z M101.9,477.3c0-0.7-0.3-1.2-1-1.2
		c-0.6,0-1.1,0.4-1.2,1.2H101.9z"/>
	<path class="st11" d="M109.1,477c0-0.5-0.3-0.9-1-0.9c-0.5,0-1,0.2-1.6,0.6l-0.6-1.2c0.8-0.5,1.7-0.8,2.6-0.8
		c1.6,0,2.4,0.9,2.4,2.8v3.5h-1.5l-0.1-0.6h0c-0.5,0.5-1.1,0.8-1.8,0.8c-1.1,0-1.8-0.8-1.8-1.9C105.6,478,106.6,477.3,109.1,477z
		 M108.1,479.7c0.4,0,0.7-0.2,1-0.5v-1.1c-1.3,0.2-1.7,0.5-1.7,1C107.4,479.5,107.6,479.7,108.1,479.7z"/>
	<path class="st11" d="M113.7,472.3h1.8v6.9c0,0.4,0.2,0.5,0.3,0.5c0.1,0,0.1,0,0.2,0l0.2,1.4c-0.2,0.1-0.5,0.1-0.9,0.1
		c-1.3,0-1.7-0.8-1.7-2.1V472.3z"/>
	<path class="st11" d="M118.7,476.2h-0.8v-1.4l0.9-0.1l0.2-1.6h1.5v1.6h1.5v1.4h-1.5v2.5c0,0.7,0.3,1,0.8,1c0.2,0,0.4-0.1,0.6-0.1
		l0.3,1.3c-0.3,0.1-0.8,0.2-1.4,0.2c-1.5,0-2.1-1-2.1-2.4V476.2z"/>
	<path class="st11" d="M124.5,472.3h1.8v2.1l-0.1,1.1c0.5-0.4,1.1-0.8,1.9-0.8c1.3,0,1.9,0.9,1.9,2.5v3.8h-1.8v-3.6
		c0-0.9-0.2-1.2-0.8-1.2c-0.5,0-0.7,0.2-1.1,0.6v4.2h-1.8V472.3z"/>
	<path class="st11" d="M139.3,474.7c1.6,0,3,1.2,3,3.2s-1.4,3.2-3,3.2c-1.6,0-3-1.2-3-3.2S137.7,474.7,139.3,474.7z M139.3,479.6
		c0.7,0,1.1-0.7,1.1-1.7c0-1.1-0.4-1.8-1.1-1.8c-0.8,0-1.1,0.7-1.1,1.8C138.1,479,138.5,479.6,139.3,479.6z"/>
	<path class="st11" d="M146.6,481.5v1.8h-1.8v-8.4h1.5l0.1,0.6h0c0.5-0.4,1.1-0.8,1.7-0.8c1.5,0,2.4,1.2,2.4,3.1
		c0,2.1-1.3,3.3-2.6,3.3c-0.5,0-1-0.2-1.5-0.6L146.6,481.5z M147.6,479.6c0.6,0,1.1-0.5,1.1-1.8c0-1.1-0.3-1.7-1.1-1.7
		c-0.4,0-0.7,0.2-1.1,0.6v2.5C146.9,479.5,147.2,479.6,147.6,479.6z"/>
	<path class="st11" d="M154.9,481.5v1.8h-1.8v-8.4h1.5l0.1,0.6h0.1c0.5-0.4,1.1-0.8,1.7-0.8c1.5,0,2.4,1.2,2.4,3.1
		c0,2.1-1.3,3.3-2.6,3.3c-0.5,0-1-0.2-1.5-0.6L154.9,481.5z M155.9,479.6c0.6,0,1.1-0.5,1.1-1.8c0-1.1-0.3-1.7-1.1-1.7
		c-0.4,0-0.7,0.2-1.1,0.6v2.5C155.2,479.5,155.6,479.6,155.9,479.6z"/>
	<path class="st11" d="M164.1,474.7c1.6,0,3,1.2,3,3.2s-1.4,3.2-3,3.2c-1.6,0-3-1.2-3-3.2S162.5,474.7,164.1,474.7z M164.1,479.6
		c0.7,0,1.1-0.7,1.1-1.7c0-1.1-0.4-1.8-1.1-1.8c-0.8,0-1.1,0.7-1.1,1.8C163,479,163.3,479.6,164.1,479.6z"/>
	<path class="st11" d="M169.6,474.8h1.5l0.1,1.1h0c0.4-0.8,1.1-1.2,1.7-1.2c0.3,0,0.6,0,0.7,0.1l-0.3,1.6c-0.2-0.1-0.4-0.1-0.7-0.1
		c-0.5,0-1,0.3-1.4,1.1v3.6h-1.8V474.8z"/>
	<path class="st11" d="M176,476.2h-0.8v-1.4l0.9-0.1l0.2-1.6h1.5v1.6h1.5v1.4h-1.5v2.5c0,0.7,0.3,1,0.8,1c0.2,0,0.4-0.1,0.6-0.1
		l0.3,1.3c-0.3,0.1-0.8,0.2-1.4,0.2c-1.5,0-2.1-1-2.1-2.4V476.2z"/>
	<path class="st11" d="M181.7,474.8h1.8v3.6c0,0.9,0.2,1.2,0.8,1.2c0.5,0,0.7-0.2,1.1-0.7v-4.1h1.8v6.2h-1.5l-0.1-0.9h0
		c-0.5,0.6-1.1,1-1.9,1c-1.3,0-1.9-0.9-1.9-2.5V474.8z"/>
	<path class="st11" d="M190,474.8h1.5l0.1,0.8h0c0.5-0.5,1.1-0.9,2-0.9c1.3,0,1.9,0.9,1.9,2.5v3.8h-1.8v-3.6c0-0.9-0.2-1.2-0.8-1.2
		c-0.5,0-0.7,0.2-1.1,0.6v4.2H190V474.8z"/>
	<path class="st11" d="M198.2,473c0-0.6,0.4-0.9,1.1-0.9c0.6,0,1.1,0.4,1.1,0.9c0,0.6-0.4,1-1.1,1
		C198.7,473.9,198.2,473.5,198.2,473z M198.4,474.8h1.8v6.2h-1.8V474.8z"/>
	<path class="st11" d="M203.3,476.2h-0.8v-1.4l0.9-0.1l0.2-1.6h1.5v1.6h1.5v1.4h-1.5v2.5c0,0.7,0.3,1,0.8,1c0.2,0,0.4-0.1,0.6-0.1
		l0.3,1.3c-0.3,0.1-0.8,0.2-1.4,0.2c-1.5,0-2.1-1-2.1-2.4V476.2z"/>
	<path class="st11" d="M209.6,481.9c0.6,0,0.9-0.3,1.1-0.8l0.1-0.3l-2.4-6h1.8l0.9,2.6c0.2,0.6,0.3,1.1,0.5,1.7h0
		c0.1-0.6,0.3-1.2,0.4-1.7l0.7-2.6h1.7l-2.1,6.2c-0.6,1.5-1.2,2.3-2.7,2.3c-0.4,0-0.6,0-0.9-0.1l0.3-1.4
		C209.3,481.9,209.4,481.9,209.6,481.9z"/>
	<path class="st11" d="M220.4,473c0-0.6,0.4-0.9,1.1-0.9c0.6,0,1.1,0.4,1.1,0.9c0,0.6-0.4,1-1.1,1
		C220.8,473.9,220.4,473.5,220.4,473z M220.5,474.8h1.8v6.2h-1.8V474.8z"/>
	<path class="st11" d="M225.5,479.1c0.6,0.4,1.1,0.6,1.6,0.6c0.5,0,0.8-0.2,0.8-0.5c0-0.4-0.6-0.6-1.3-0.8c-0.7-0.3-1.6-0.8-1.6-1.8
		c0-1.1,0.9-1.9,2.4-1.9c0.9,0,1.6,0.4,2.2,0.8l-0.8,1.1c-0.4-0.3-0.9-0.5-1.3-0.5c-0.5,0-0.7,0.2-0.7,0.5c0,0.4,0.6,0.5,1.2,0.8
		c0.8,0.3,1.7,0.7,1.7,1.8c0,1.1-0.9,2-2.5,2c-0.8,0-1.7-0.3-2.4-0.9L225.5,479.1z"/>
	<path class="st11" d="M233,478.8c0.6,0,1.1,0.5,1.1,1.2c0,0.6-0.5,1.1-1.1,1.1s-1.1-0.5-1.1-1.1C231.9,479.3,232.4,478.8,233,478.8
		z"/>
</g>
<g>
	<path class="st6" d="M118.6,97.6c1,0,1.8,0.5,2.4,1.1l-1,1.1c-0.4-0.4-0.8-0.6-1.4-0.6c-1.1,0-2,1-2,2.6c0,1.7,0.8,2.6,2,2.6
		c0.7,0,1.1-0.3,1.5-0.7l1,1.1c-0.7,0.8-1.6,1.2-2.6,1.2c-2.1,0-3.8-1.4-3.8-4.1C114.7,99.2,116.5,97.6,118.6,97.6z"/>
	<path class="st6" d="M122.7,101.8c0-2.6,1.5-4.2,3.7-4.2c2.2,0,3.7,1.5,3.7,4.2c0,2.6-1.5,4.2-3.7,4.2
		C124.2,106,122.7,104.4,122.7,101.8z M128.2,101.8c0-1.6-0.7-2.6-1.8-2.6s-1.8,1-1.8,2.6c0,1.6,0.7,2.7,1.8,2.7
		S128.2,103.4,128.2,101.8z"/>
	<path class="st6" d="M131.7,97.8h1.9l1,3.8c0.2,0.9,0.4,1.7,0.7,2.6h0c0.2-0.9,0.4-1.7,0.6-2.6l1-3.8h1.9l-2.4,8.1h-2.2L131.7,97.8
		z"/>
	<path class="st6" d="M140.8,97.8h5.1v1.5h-3.2v1.6h2.8v1.5h-2.8v1.9h3.4v1.5h-5.2V97.8z"/>
	<path class="st6" d="M153.3,105.9l-1.6-2.9h-1v2.9h-1.8v-8.1h2.9c1.7,0,3.1,0.6,3.1,2.5c0,1.2-0.6,1.9-1.4,2.3l1.8,3.2H153.3z
		 M150.7,101.5h0.9c1,0,1.5-0.4,1.5-1.2s-0.5-1.1-1.5-1.1h-0.9V101.5z"/>
	<path class="st6" d="M161.4,103.9H159l-0.5,1.9h-1.9l2.5-8.1h2.2l2.5,8.1h-1.9L161.4,103.9z M161.1,102.5l-0.2-0.7
		c-0.2-0.8-0.4-1.8-0.7-2.6h0c-0.2,0.9-0.4,1.8-0.6,2.6l-0.2,0.7H161.1z"/>
	<path class="st6" d="M169.5,97.6c1.1,0,2,0.5,2.5,1.1l-1,1.1c-0.4-0.4-0.8-0.6-1.5-0.6c-1.3,0-2.1,1-2.1,2.6c0,1.7,0.8,2.6,2.3,2.6
		c0.3,0,0.7-0.1,0.9-0.2v-1.4h-1.3v-1.5h3v3.7c-0.6,0.5-1.6,1-2.7,1c-2.2,0-3.9-1.4-3.9-4.1C165.5,99.2,167.3,97.6,169.5,97.6z"/>
	<path class="st6" d="M175,97.8h5.1v1.5h-3.2v1.6h2.8v1.5h-2.8v1.9h3.4v1.5H175V97.8z"/>
	<path d="M60.2,113.9h2.5c1.8,0,3,0.6,3,2.4c0,1.7-1.2,2.5-3,2.5h-1.5v3.2h-1V113.9z M62.6,117.9c1.4,0,2.1-0.5,2.1-1.7
		c0-1.2-0.7-1.6-2.1-1.6h-1.3v3.2H62.6z"/>
	<path d="M68.5,116h0.8l0.1,1.1h0c0.4-0.8,1-1.2,1.7-1.2c0.3,0,0.4,0,0.6,0.1l-0.2,0.9c-0.2-0.1-0.3-0.1-0.6-0.1
		c-0.5,0-1.1,0.4-1.5,1.4v3.9h-1V116z"/>
	<path d="M76.3,115.8c1.5,0,2.8,1.2,2.8,3.2c0,2-1.3,3.2-2.8,3.2s-2.8-1.2-2.8-3.2C73.5,117,74.8,115.8,76.3,115.8z M76.3,121.3
		c1,0,1.7-0.9,1.7-2.3c0-1.4-0.7-2.3-1.7-2.3c-1,0-1.7,0.9-1.7,2.3C74.5,120.4,75.2,121.3,76.3,121.3z"/>
	<path d="M82.9,122.5v2h-1V116h0.8l0.1,0.7h0c0.5-0.5,1.2-0.8,1.9-0.8c1.6,0,2.4,1.2,2.4,3.1c0,2-1.2,3.3-2.6,3.3
		c-0.6,0-1.1-0.3-1.7-0.7L82.9,122.5z M84.4,121.3c1,0,1.7-0.9,1.7-2.4c0-1.3-0.4-2.2-1.6-2.2c-0.5,0-1,0.3-1.6,0.8v3.2
		C83.4,121.1,84,121.3,84.4,121.3z"/>
	<path d="M92.4,115.8c1.5,0,2.8,1.2,2.8,3.2c0,2-1.3,3.2-2.8,3.2s-2.8-1.2-2.8-3.2C89.6,117,90.9,115.8,92.4,115.8z M92.4,121.3
		c1,0,1.7-0.9,1.7-2.3c0-1.4-0.7-2.3-1.7-2.3c-1,0-1.7,0.9-1.7,2.3C90.6,120.4,91.3,121.3,92.4,121.3z"/>
	<path d="M98,116h0.8l0.1,1.1h0c0.4-0.8,1-1.2,1.7-1.2c0.3,0,0.4,0,0.6,0.1l-0.2,0.9c-0.2-0.1-0.3-0.1-0.6-0.1
		c-0.5,0-1.1,0.4-1.5,1.4v3.9h-1V116z"/>
	<path d="M103.7,116.8h-0.9V116l0.9-0.1l0.1-1.7h0.9v1.7h1.6v0.8h-1.6v3.3c0,0.7,0.2,1.2,0.9,1.2c0.2,0,0.5-0.1,0.7-0.2l0.2,0.8
		c-0.3,0.1-0.7,0.2-1.1,0.2c-1.3,0-1.7-0.8-1.7-2V116.8z"/>
	<path d="M108.8,114.1c0-0.4,0.3-0.7,0.7-0.7s0.7,0.3,0.7,0.7c0,0.4-0.3,0.7-0.7,0.7S108.8,114.5,108.8,114.1z M108.9,116h1v6h-1
		V116z"/>
	<path d="M115.6,115.8c1.5,0,2.8,1.2,2.8,3.2c0,2-1.3,3.2-2.8,3.2s-2.8-1.2-2.8-3.2C112.8,117,114.1,115.8,115.6,115.8z
		 M115.6,121.3c1,0,1.7-0.9,1.7-2.3c0-1.4-0.7-2.3-1.7-2.3c-1,0-1.7,0.9-1.7,2.3C113.8,120.4,114.6,121.3,115.6,121.3z"/>
	<path d="M121.2,116h0.8l0.1,0.9h0c0.6-0.6,1.2-1,2-1c1.3,0,1.8,0.8,1.8,2.4v3.8h-1v-3.7c0-1.1-0.3-1.6-1.1-1.6
		c-0.6,0-1,0.3-1.6,0.9v4.4h-1V116z"/>
	<path d="M135.3,115.8c1.5,0,2.8,1.2,2.8,3.2c0,2-1.3,3.2-2.8,3.2s-2.8-1.2-2.8-3.2C132.5,117,133.8,115.8,135.3,115.8z
		 M135.3,121.3c1,0,1.7-0.9,1.7-2.3c0-1.4-0.7-2.3-1.7-2.3c-1,0-1.7,0.9-1.7,2.3C133.6,120.4,134.3,121.3,135.3,121.3z"/>
	<path d="M143.7,114c-0.2-0.1-0.5-0.1-0.7-0.1c-0.6,0-0.8,0.4-0.8,1.2v1h1.3v0.8h-1.3v5.2h-1v-5.2h-0.8V116l0.8-0.1v-1
		c0-1.2,0.6-2,1.8-2c0.4,0,0.7,0.1,1,0.2L143.7,114z"/>
	<path d="M149.5,116h0.8l0.1,0.9h0c0.5-0.6,1.2-1,1.9-1c0.9,0,1.4,0.4,1.7,1.2c0.6-0.7,1.3-1.2,2-1.2c1.2,0,1.8,0.8,1.8,2.4v3.8h-1
		v-3.7c0-1.1-0.4-1.6-1.1-1.6c-0.5,0-1,0.3-1.5,0.9v4.4h-1v-3.7c0-1.1-0.4-1.6-1.1-1.6c-0.4,0-1,0.3-1.5,0.9v4.4h-1V116z"/>
	<path d="M164.5,118.2c0-0.8-0.3-1.5-1.2-1.5c-0.7,0-1.3,0.3-1.8,0.6l-0.4-0.7c0.6-0.4,1.4-0.8,2.4-0.8c1.5,0,2.1,1,2.1,2.5v3.7
		h-0.8l-0.1-0.7h0c-0.6,0.5-1.3,0.9-2,0.9c-1,0-1.8-0.6-1.8-1.7C160.8,119.1,161.9,118.5,164.5,118.2z M162.8,121.3
		c0.6,0,1.1-0.3,1.7-0.8v-1.7c-2,0.2-2.7,0.7-2.7,1.5C161.8,121,162.2,121.3,162.8,121.3z"/>
	<path d="M168.8,116.8h-0.9V116l0.9-0.1l0.1-1.7h0.9v1.7h1.6v0.8h-1.6v3.3c0,0.7,0.2,1.2,0.9,1.2c0.2,0,0.5-0.1,0.7-0.2l0.2,0.8
		c-0.3,0.1-0.7,0.2-1.1,0.2c-1.3,0-1.7-0.8-1.7-2V116.8z"/>
	<path d="M176.2,115.8c1.5,0,2.4,1.1,2.4,2.8c0,0.2,0,0.4,0,0.6h-4.1c0.1,1.3,0.9,2.1,2,2.1c0.6,0,1.1-0.2,1.5-0.5l0.4,0.7
		c-0.5,0.3-1.2,0.6-2,0.6c-1.6,0-2.9-1.2-2.9-3.2C173.5,117,174.9,115.8,176.2,115.8z M177.7,118.5c0-1.2-0.5-1.9-1.5-1.9
		c-0.8,0-1.6,0.7-1.7,1.9H177.7z"/>
	<path d="M181.4,116h0.8l0.1,1.1h0c0.4-0.8,1-1.2,1.7-1.2c0.3,0,0.4,0,0.6,0.1l-0.2,0.9c-0.2-0.1-0.3-0.1-0.6-0.1
		c-0.5,0-1.1,0.4-1.5,1.4v3.9h-1V116z"/>
	<path d="M186.9,116h0.8l0.1,0.9h0c0.6-0.6,1.2-1,2-1c1.3,0,1.8,0.8,1.8,2.4v3.8h-1v-3.7c0-1.1-0.3-1.6-1.1-1.6
		c-0.6,0-1,0.3-1.7,0.9v4.4h-1V116z"/>
	<path d="M198.3,118.2c0-0.8-0.3-1.5-1.2-1.5c-0.7,0-1.3,0.3-1.8,0.6l-0.4-0.7c0.6-0.4,1.4-0.8,2.4-0.8c1.5,0,2.1,1,2.1,2.5v3.7
		h-0.8l-0.1-0.7h0c-0.6,0.5-1.3,0.9-2,0.9c-1,0-1.8-0.6-1.8-1.7C194.6,119.1,195.8,118.5,198.3,118.2z M196.7,121.3
		c0.6,0,1.1-0.3,1.7-0.8v-1.7c-2,0.2-2.7,0.7-2.7,1.5C195.6,121,196.1,121.3,196.7,121.3z"/>
	<path d="M202.5,113.2h1v7.7c0,0.3,0.1,0.4,0.3,0.4c0.1,0,0.1,0,0.2,0l0.1,0.8c-0.1,0.1-0.3,0.1-0.6,0.1c-0.8,0-1.1-0.5-1.1-1.4
		V113.2z"/>
	<path d="M214.1,118.2c0-0.8-0.3-1.5-1.2-1.5c-0.7,0-1.3,0.3-1.8,0.6l-0.4-0.7c0.6-0.4,1.4-0.8,2.4-0.8c1.5,0,2.1,1,2.1,2.5v3.7
		h-0.8l-0.1-0.7h0c-0.6,0.5-1.3,0.9-2,0.9c-1,0-1.8-0.6-1.8-1.7C210.4,119.1,211.5,118.5,214.1,118.2z M212.4,121.3
		c0.6,0,1.1-0.3,1.6-0.8v-1.7c-2,0.2-2.7,0.7-2.7,1.5C211.4,121,211.8,121.3,212.4,121.3z"/>
	<path d="M218.3,116h0.8l0.1,0.9h0c0.6-0.6,1.2-1,2-1c1.3,0,1.8,0.8,1.8,2.4v3.8h-1v-3.7c0-1.1-0.3-1.6-1.1-1.6
		c-0.6,0-1,0.3-1.6,0.9v4.4h-1V116z"/>
	<path d="M228.5,115.8c0.7,0,1.2,0.3,1.7,0.7l0-1v-2.3h1v8.8h-0.8l-0.1-0.7h0c-0.5,0.5-1.1,0.9-1.8,0.9c-1.5,0-2.5-1.1-2.5-3.2
		C225.9,117,227.1,115.8,228.5,115.8z M228.6,121.3c0.6,0,1-0.3,1.5-0.8v-3.2c-0.5-0.5-1-0.6-1.5-0.6c-1,0-1.7,0.9-1.7,2.3
		C226.9,120.4,227.5,121.3,228.6,121.3z"/>
	<path d="M58.7,132.1h0.8l0.1,1.1h0c0.4-0.8,1-1.2,1.7-1.2c0.3,0,0.4,0,0.6,0.1l-0.2,0.9c-0.2-0.1-0.3-0.1-0.6-0.1
		c-0.5,0-1.1,0.4-1.5,1.4v3.9h-1V132.1z"/>
	<path d="M66.3,131.9c1.5,0,2.4,1.1,2.4,2.8c0,0.2,0,0.4,0,0.6h-4.1c0.1,1.3,0.9,2.1,2,2.1c0.6,0,1.1-0.2,1.5-0.5l0.4,0.7
		c-0.5,0.3-1.2,0.6-2,0.6c-1.6,0-2.9-1.2-2.9-3.2C63.6,133.1,65,131.9,66.3,131.9z M67.9,134.7c0-1.2-0.5-1.9-1.5-1.9
		c-0.8,0-1.6,0.7-1.7,1.9H67.9z"/>
	<path d="M72.5,138.6v2h-1v-8.6h0.8l0.1,0.7h0c0.5-0.5,1.2-0.8,1.9-0.8c1.6,0,2.4,1.2,2.4,3.1c0,2-1.2,3.3-2.6,3.3
		c-0.6,0-1.1-0.3-1.7-0.7L72.5,138.6z M74,137.4c1,0,1.7-0.9,1.7-2.4c0-1.3-0.4-2.2-1.6-2.2c-0.5,0-1,0.3-1.6,0.8v3.2
		C73,137.2,73.6,137.4,74,137.4z"/>
	<path d="M79.6,132.1h0.8l0.1,1.1h0c0.4-0.8,1-1.2,1.7-1.2c0.3,0,0.4,0,0.6,0.1l-0.2,0.9c-0.2-0.1-0.3-0.1-0.6-0.1
		c-0.5,0-1.1,0.4-1.5,1.4v3.9h-1V132.1z"/>
	<path d="M87.4,131.9c1.5,0,2.8,1.2,2.8,3.2c0,2-1.3,3.2-2.8,3.2s-2.8-1.2-2.8-3.2C84.6,133.1,85.9,131.9,87.4,131.9z M87.4,137.4
		c1,0,1.7-0.9,1.7-2.3c0-1.4-0.7-2.3-1.7-2.3c-1,0-1.7,0.9-1.7,2.3C85.6,136.5,86.3,137.4,87.4,137.4z"/>
	<path d="M95.2,131.9c0.7,0,1.2,0.3,1.7,0.7l0-1v-2.3h1v8.8H97l-0.1-0.7h0c-0.5,0.5-1.1,0.9-1.8,0.9c-1.5,0-2.5-1.1-2.5-3.2
		C92.5,133.2,93.8,131.9,95.2,131.9z M95.3,137.4c0.6,0,1-0.3,1.5-0.8v-3.2c-0.5-0.5-1-0.6-1.5-0.6c-1,0-1.7,0.9-1.7,2.3
		C93.6,136.5,94.2,137.4,95.3,137.4z"/>
	<path d="M101,132.1h1v3.7c0,1.1,0.3,1.6,1.1,1.6c0.6,0,1.1-0.3,1.6-1v-4.3h1v6H105l-0.1-0.9h0c-0.6,0.7-1.2,1.1-2,1.1
		c-1.3,0-1.8-0.8-1.8-2.4V132.1z"/>
	<path d="M111.6,131.9c0.8,0,1.4,0.3,1.8,0.7l-0.5,0.7c-0.4-0.3-0.7-0.5-1.2-0.5c-1.1,0-1.9,0.9-1.9,2.3c0,1.4,0.8,2.3,1.9,2.3
		c0.6,0,1.1-0.3,1.4-0.6l0.5,0.7c-0.5,0.5-1.2,0.8-2,0.8c-1.6,0-2.8-1.2-2.8-3.2C108.6,133.1,110,131.9,111.6,131.9z"/>
	<path d="M116.2,132.9h-0.9v-0.8l0.9-0.1l0.1-1.7h0.9v1.7h1.6v0.8h-1.6v3.3c0,0.7,0.2,1.2,0.9,1.2c0.2,0,0.5-0.1,0.7-0.2l0.2,0.8
		c-0.3,0.1-0.7,0.2-1.1,0.2c-1.3,0-1.7-0.8-1.7-2V132.9z"/>
	<path d="M121.2,130.2c0-0.4,0.3-0.7,0.7-0.7s0.7,0.3,0.7,0.7c0,0.4-0.3,0.7-0.7,0.7S121.2,130.6,121.2,130.2z M121.4,132.1h1v6h-1
		V132.1z"/>
	<path d="M124.8,132.1h1.1l1.1,3.4c0.2,0.6,0.4,1.2,0.6,1.8h0c0.2-0.6,0.4-1.2,0.5-1.8l1.1-3.4h1l-2.1,6H127L124.8,132.1z"/>
	<path d="M135,131.9c1.5,0,2.4,1.1,2.4,2.8c0,0.2,0,0.4,0,0.6h-4.1c0.1,1.3,0.9,2.1,2,2.1c0.6,0,1.1-0.2,1.5-0.5l0.4,0.7
		c-0.5,0.3-1.2,0.6-2,0.6c-1.6,0-2.9-1.2-2.9-3.2C132.3,133.1,133.6,131.9,135,131.9z M136.5,134.7c0-1.2-0.5-1.9-1.5-1.9
		c-0.8,0-1.6,0.7-1.7,1.9H136.5z"/>
	<path d="M143.8,129.3h1v2.4l0,1.2c0.6-0.5,1.2-1,2-1c1.3,0,1.8,0.8,1.8,2.4v3.8h-1v-3.7c0-1.1-0.3-1.6-1.1-1.6
		c-0.6,0-1,0.3-1.6,0.9v4.4h-1V129.3z"/>
	<path d="M154.1,131.9c1.5,0,2.4,1.1,2.4,2.8c0,0.2,0,0.4,0,0.6h-4.1c0.1,1.3,0.9,2.1,2,2.1c0.6,0,1.1-0.2,1.5-0.5l0.4,0.7
		c-0.5,0.3-1.2,0.6-2,0.6c-1.6,0-2.9-1.2-2.9-3.2C151.4,133.1,152.7,131.9,154.1,131.9z M155.6,134.7c0-1.2-0.5-1.9-1.5-1.9
		c-0.8,0-1.6,0.7-1.7,1.9H155.6z"/>
	<path d="M162.5,134.3c0-0.8-0.3-1.5-1.2-1.5c-0.7,0-1.3,0.3-1.8,0.6l-0.4-0.7c0.6-0.4,1.4-0.8,2.4-0.8c1.5,0,2.1,1,2.1,2.5v3.7
		h-0.8l-0.1-0.7h0c-0.6,0.5-1.3,0.9-2,0.9c-1,0-1.8-0.6-1.8-1.7C158.8,135.2,159.9,134.6,162.5,134.3z M160.8,137.4
		c0.6,0,1.1-0.3,1.6-0.8V135c-2,0.2-2.7,0.7-2.7,1.5C159.8,137.2,160.2,137.4,160.8,137.4z"/>
	<path d="M166.6,129.3h1v7.7c0,0.3,0.1,0.4,0.3,0.4c0.1,0,0.1,0,0.2,0l0.1,0.8c-0.1,0.1-0.3,0.1-0.6,0.1c-0.8,0-1.1-0.5-1.1-1.4
		V129.3z"/>
	<path d="M171.2,132.9h-0.9v-0.8l0.9-0.1l0.1-1.7h0.9v1.7h1.6v0.8h-1.6v3.3c0,0.7,0.2,1.2,0.9,1.2c0.2,0,0.5-0.1,0.7-0.2l0.2,0.8
		c-0.3,0.1-0.7,0.2-1.1,0.2c-1.3,0-1.7-0.8-1.7-2V132.9z"/>
	<path d="M176.5,129.3h1v2.4l0,1.2c0.6-0.5,1.2-1,2-1c1.3,0,1.8,0.8,1.8,2.4v3.8h-1v-3.7c0-1.1-0.3-1.6-1.1-1.6
		c-0.6,0-1,0.3-1.7,0.9v4.4h-1V129.3z"/>
	<path d="M188,136.8c0.5,0.4,1.1,0.7,1.8,0.7c0.8,0,1.2-0.4,1.2-0.9c0-0.6-0.7-0.9-1.4-1.1c-0.9-0.3-1.8-0.7-1.8-1.7
		c0-1,0.8-1.7,2.1-1.7c0.8,0,1.4,0.3,1.9,0.7l-0.5,0.6c-0.4-0.3-0.8-0.5-1.4-0.5c-0.8,0-1.1,0.4-1.1,0.9c0,0.6,0.7,0.8,1.3,1
		c0.9,0.3,1.8,0.7,1.8,1.8c0,1-0.8,1.8-2.2,1.8c-0.9,0-1.7-0.4-2.2-0.8L188,136.8z"/>
	<path d="M196.9,131.9c1.5,0,2.4,1.1,2.4,2.8c0,0.2,0,0.4,0,0.6h-4.1c0.1,1.3,0.9,2.1,2,2.1c0.6,0,1.1-0.2,1.5-0.5l0.4,0.7
		c-0.5,0.3-1.2,0.6-2,0.6c-1.6,0-2.9-1.2-2.9-3.2C194.2,133.1,195.5,131.9,196.9,131.9z M198.4,134.7c0-1.2-0.5-1.9-1.5-1.9
		c-0.8,0-1.6,0.7-1.7,1.9H198.4z"/>
	<path d="M202,132.1h0.8l0.1,1.1h0c0.4-0.8,1-1.2,1.7-1.2c0.3,0,0.4,0,0.6,0.1l-0.2,0.9c-0.2-0.1-0.3-0.1-0.6-0.1
		c-0.5,0-1.1,0.4-1.5,1.4v3.9h-1V132.1z"/>
	<path d="M207,132.1h1.1l1.1,3.4c0.2,0.6,0.4,1.2,0.6,1.8h0c0.2-0.6,0.4-1.2,0.5-1.8l1.1-3.4h1l-2.1,6h-1.2L207,132.1z"/>
	<path d="M214.7,130.2c0-0.4,0.3-0.7,0.7-0.7c0.4,0,0.7,0.3,0.7,0.7c0,0.4-0.3,0.7-0.7,0.7C215,130.8,214.7,130.6,214.7,130.2z
		 M214.9,132.1h1v6h-1V132.1z"/>
	<path d="M221.6,131.9c0.8,0,1.4,0.3,1.8,0.7l-0.5,0.7c-0.4-0.3-0.7-0.5-1.2-0.5c-1.1,0-1.9,0.9-1.9,2.3c0,1.4,0.8,2.3,1.9,2.3
		c0.6,0,1.1-0.3,1.4-0.6l0.5,0.7c-0.5,0.5-1.2,0.8-2,0.8c-1.6,0-2.8-1.2-2.8-3.2C218.7,133.1,220.1,131.9,221.6,131.9z"/>
	<path d="M228,131.9c1.5,0,2.4,1.1,2.4,2.8c0,0.2,0,0.4,0,0.6h-4.1c0.1,1.3,0.9,2.1,2,2.1c0.6,0,1.1-0.2,1.5-0.5l0.4,0.7
		c-0.5,0.3-1.2,0.6-2,0.6c-1.6,0-2.9-1.2-2.9-3.2C225.3,133.1,226.7,131.9,228,131.9z M229.6,134.7c0-1.2-0.5-1.9-1.5-1.9
		c-0.8,0-1.6,0.7-1.7,1.9H229.6z"/>
	<path d="M233,136.8c0.5,0.4,1.1,0.7,1.8,0.7c0.8,0,1.2-0.4,1.2-0.9c0-0.6-0.7-0.9-1.4-1.1c-0.9-0.3-1.8-0.7-1.8-1.7
		c0-1,0.8-1.7,2.1-1.7c0.8,0,1.4,0.3,1.9,0.7l-0.5,0.6c-0.4-0.3-0.8-0.5-1.4-0.5c-0.8,0-1.1,0.4-1.1,0.9c0,0.6,0.7,0.8,1.3,1
		c0.9,0.3,1.8,0.7,1.8,1.8c0,1-0.8,1.8-2.2,1.8c-0.9,0-1.7-0.4-2.2-0.8L233,136.8z"/>
	<path d="M44.8,148.2h0.8l0.1,1.1h0c0.4-0.8,1-1.2,1.7-1.2c0.3,0,0.4,0,0.6,0.1l-0.2,0.9c-0.2-0.1-0.3-0.1-0.6-0.1
		c-0.5,0-1.1,0.4-1.5,1.4v3.9h-1V148.2z"/>
	<path d="M52.5,148.1c1.5,0,2.4,1.1,2.4,2.8c0,0.2,0,0.4,0,0.6h-4.1c0.1,1.3,0.9,2.1,2,2.1c0.6,0,1.1-0.2,1.5-0.5l0.4,0.7
		c-0.5,0.3-1.2,0.6-2,0.6c-1.6,0-2.9-1.2-2.9-3.2C49.8,149.3,51.1,148.1,52.5,148.1z M54,150.8c0-1.2-0.5-1.9-1.5-1.9
		c-0.8,0-1.6,0.7-1.7,1.9H54z"/>
	<path d="M60.9,150.4c0-0.8-0.3-1.5-1.2-1.5c-0.7,0-1.3,0.3-1.8,0.6l-0.4-0.7c0.6-0.4,1.4-0.8,2.4-0.8c1.5,0,2.1,1,2.1,2.5v3.7h-0.8
		l-0.1-0.7h0c-0.6,0.5-1.3,0.9-2,0.9c-1,0-1.8-0.6-1.8-1.7C57.2,151.4,58.3,150.7,60.9,150.4z M59.2,153.6c0.6,0,1.1-0.3,1.6-0.8
		v-1.7c-2,0.2-2.7,0.7-2.7,1.5C58.2,153.3,58.6,153.6,59.2,153.6z"/>
	<path d="M67.5,148.1c0.8,0,1.4,0.3,1.8,0.7l-0.5,0.7c-0.4-0.3-0.7-0.5-1.2-0.5c-1.1,0-1.9,0.9-1.9,2.3c0,1.4,0.8,2.3,1.9,2.3
		c0.6,0,1.1-0.3,1.4-0.6l0.5,0.7c-0.5,0.5-1.2,0.8-2,0.8c-1.6,0-2.8-1.2-2.8-3.2C64.6,149.2,66,148.1,67.5,148.1z"/>
	<path d="M72,145.4h1v2.4l0,1.2c0.6-0.5,1.2-1,2-1c1.3,0,1.8,0.8,1.8,2.4v3.8h-1v-3.7c0-1.1-0.3-1.6-1.1-1.6c-0.6,0-1,0.3-1.6,0.9
		v4.4h-1V145.4z"/>
	<path d="M79.8,146.3c0-0.4,0.3-0.7,0.7-0.7s0.7,0.3,0.7,0.7c0,0.4-0.3,0.7-0.7,0.7S79.8,146.7,79.8,146.3z M79.9,148.2h1v6h-1
		V148.2z"/>
	<path d="M84.2,148.2h0.8l0.1,0.9h0c0.6-0.6,1.2-1,2-1c1.3,0,1.8,0.8,1.8,2.4v3.8h-1v-3.7c0-1.1-0.3-1.6-1.1-1.6
		c-0.6,0-1,0.3-1.6,0.9v4.4h-1V148.2z"/>
	<path d="M92.7,154L92.7,154c-0.3-0.2-0.5-0.6-0.5-1c0-0.5,0.3-0.9,0.7-1.1v0c-0.4-0.3-0.8-0.9-0.8-1.6c0-1.3,1-2.1,2.3-2.1
		c0.3,0,0.6,0.1,0.9,0.1h2.1v0.8H96c0.3,0.3,0.5,0.7,0.5,1.2c0,1.3-1,2.1-2.2,2.1c-0.3,0-0.6-0.1-0.9-0.2c-0.2,0.2-0.4,0.4-0.4,0.7
		c0,0.4,0.2,0.7,1.1,0.7h1.2c1.4,0,2.1,0.4,2.1,1.4c0,1.1-1.2,2.1-3.1,2.1c-1.5,0-2.5-0.6-2.5-1.6C91.8,154.9,92.1,154.4,92.7,154z
		 M94.4,156.3c1.2,0,1.9-0.6,1.9-1.2c0-0.6-0.4-0.7-1.2-0.7h-1c-0.2,0-0.5,0-0.8-0.1c-0.4,0.3-0.6,0.7-0.6,1
		C92.7,155.9,93.4,156.3,94.4,156.3z M95.6,150.2c0-0.9-0.6-1.4-1.3-1.4s-1.3,0.5-1.3,1.4s0.6,1.4,1.3,1.4S95.6,151.1,95.6,150.2z"
		/>
	<path d="M102.8,148.2h1l0.9,3.5c0.1,0.6,0.2,1.1,0.4,1.7h0c0.1-0.6,0.3-1.1,0.4-1.7l0.9-3.5h1l0.9,3.5c0.1,0.6,0.3,1.1,0.4,1.7h0
		c0.1-0.6,0.2-1.1,0.4-1.7l0.9-3.5h1l-1.6,6h-1.2l-0.9-3.2c-0.1-0.6-0.3-1.1-0.4-1.7h0c-0.1,0.6-0.3,1.2-0.4,1.7l-0.8,3.2h-1.2
		L102.8,148.2z"/>
	<path d="M115.9,148.1c1.5,0,2.8,1.2,2.8,3.2c0,2-1.3,3.2-2.8,3.2s-2.8-1.2-2.8-3.2C113.2,149.2,114.5,148.1,115.9,148.1z
		 M115.9,153.5c1,0,1.7-0.9,1.7-2.3c0-1.4-0.7-2.3-1.7-2.3c-1,0-1.7,0.9-1.7,2.3C114.2,152.6,114.9,153.5,115.9,153.5z"/>
	<path d="M121.6,148.2h0.8l0.1,0.9h0c0.5-0.6,1.2-1,1.9-1c0.9,0,1.4,0.4,1.7,1.2c0.6-0.7,1.3-1.2,2-1.2c1.2,0,1.8,0.8,1.8,2.4v3.8
		h-1v-3.7c0-1.1-0.4-1.6-1.1-1.6c-0.5,0-1,0.3-1.5,0.9v4.4h-1v-3.7c0-1.1-0.4-1.6-1.1-1.6c-0.4,0-1,0.3-1.5,0.9v4.4h-1V148.2z"/>
	<path d="M135.3,148.1c1.5,0,2.4,1.1,2.4,2.8c0,0.2,0,0.4,0,0.6h-4.1c0.1,1.3,0.9,2.1,2,2.1c0.6,0,1.1-0.2,1.5-0.5l0.4,0.7
		c-0.5,0.3-1.2,0.6-2,0.6c-1.6,0-2.9-1.2-2.9-3.2C132.6,149.3,134,148.1,135.3,148.1z M136.9,150.8c0-1.2-0.5-1.9-1.5-1.9
		c-0.8,0-1.6,0.7-1.7,1.9H136.9z"/>
	<path d="M140.5,148.2h0.8l0.1,0.9h0c0.6-0.6,1.2-1,2-1c1.3,0,1.8,0.8,1.8,2.4v3.8h-1v-3.7c0-1.1-0.3-1.6-1.1-1.6
		c-0.6,0-1,0.3-1.6,0.9v4.4h-1V148.2z"/>
	<path d="M151.5,148.2h1l0.9,3.5c0.1,0.6,0.2,1.1,0.4,1.7h0.1c0.1-0.6,0.3-1.1,0.4-1.7l0.9-3.5h1l0.9,3.5c0.1,0.6,0.3,1.1,0.4,1.7h0
		c0.1-0.6,0.2-1.1,0.4-1.7l0.9-3.5h1l-1.6,6H157l-0.9-3.2c-0.1-0.6-0.3-1.1-0.4-1.7h-0.1c-0.1,0.6-0.3,1.2-0.4,1.7l-0.8,3.2h-1.2
		L151.5,148.2z"/>
	<path d="M162.4,145.4h1v2.4l0,1.2c0.6-0.5,1.2-1,2-1c1.3,0,1.8,0.8,1.8,2.4v3.8h-1v-3.7c0-1.1-0.3-1.6-1.1-1.6
		c-0.6,0-1,0.3-1.6,0.9v4.4h-1V145.4z"/>
	<path d="M172.7,148.1c1.5,0,2.8,1.2,2.8,3.2c0,2-1.3,3.2-2.8,3.2c-1.5,0-2.8-1.2-2.8-3.2C169.9,149.2,171.3,148.1,172.7,148.1z
		 M172.7,153.5c1,0,1.7-0.9,1.7-2.3c0-1.4-0.7-2.3-1.7-2.3c-1,0-1.7,0.9-1.7,2.3C171,152.6,171.7,153.5,172.7,153.5z"/>
	<path d="M182.1,148.2h0.8l0.1,0.9h0c0.6-0.6,1.2-1,2-1c1.3,0,1.8,0.8,1.8,2.4v3.8h-1v-3.7c0-1.1-0.3-1.6-1.1-1.6
		c-0.6,0-1,0.3-1.7,0.9v4.4h-1V148.2z"/>
	<path d="M192.4,148.1c1.5,0,2.4,1.1,2.4,2.8c0,0.2,0,0.4,0,0.6h-4.1c0.1,1.3,0.9,2.1,2,2.1c0.6,0,1.1-0.2,1.5-0.5l0.4,0.7
		c-0.5,0.3-1.2,0.6-2,0.6c-1.6,0-2.9-1.2-2.9-3.2C189.7,149.3,191,148.1,192.4,148.1z M193.9,150.8c0-1.2-0.5-1.9-1.5-1.9
		c-0.8,0-1.6,0.7-1.7,1.9H193.9z"/>
	<path d="M199.8,148.1c1.5,0,2.4,1.1,2.4,2.8c0,0.2,0,0.4,0,0.6h-4.1c0.1,1.3,0.9,2.1,2,2.1c0.6,0,1.1-0.2,1.5-0.5l0.4,0.7
		c-0.5,0.3-1.2,0.6-2,0.6c-1.6,0-2.9-1.2-2.9-3.2C197.1,149.3,198.4,148.1,199.8,148.1z M201.3,150.8c0-1.2-0.5-1.9-1.5-1.9
		c-0.8,0-1.6,0.7-1.7,1.9H201.3z"/>
	<path d="M207.1,148.1c0.7,0,1.2,0.3,1.7,0.7l0-1v-2.3h1v8.8h-0.8l-0.1-0.7h0c-0.5,0.5-1.1,0.9-1.8,0.9c-1.5,0-2.5-1.1-2.5-3.2
		C204.5,149.3,205.7,148.1,207.1,148.1z M207.2,153.5c0.6,0,1-0.3,1.5-0.8v-3.2c-0.5-0.5-1-0.6-1.5-0.6c-1,0-1.7,0.9-1.7,2.3
		C205.5,152.7,206.1,153.5,207.2,153.5z"/>
	<path d="M217,149h-0.9v-0.8l0.9-0.1l0.1-1.7h0.9v1.7h1.6v0.8H218v3.3c0,0.7,0.2,1.2,0.9,1.2c0.2,0,0.5-0.1,0.7-0.2l0.2,0.8
		c-0.3,0.1-0.7,0.2-1.1,0.2c-1.3,0-1.7-0.8-1.7-2V149z"/>
	<path d="M222.2,145.4h1v2.4l0,1.2c0.6-0.5,1.2-1,2-1c1.3,0,1.8,0.8,1.8,2.4v3.8h-1v-3.7c0-1.1-0.3-1.6-1.1-1.6
		c-0.6,0-1,0.3-1.7,0.9v4.4h-1V145.4z"/>
	<path d="M232.5,148.1c1.5,0,2.4,1.1,2.4,2.8c0,0.2,0,0.4,0,0.6h-4.1c0.1,1.3,0.9,2.1,2,2.1c0.6,0,1.1-0.2,1.5-0.5l0.4,0.7
		c-0.5,0.3-1.2,0.6-2,0.6c-1.6,0-2.9-1.2-2.9-3.2C229.8,149.3,231.1,148.1,232.5,148.1z M234,150.8c0-1.2-0.5-1.9-1.5-1.9
		c-0.8,0-1.6,0.7-1.7,1.9H234z"/>
	<path d="M237.6,148.2h0.8l0.1,0.9h0c0.5-0.6,1.2-1,1.9-1c0.9,0,1.4,0.4,1.7,1.2c0.6-0.7,1.3-1.2,2-1.2c1.2,0,1.8,0.8,1.8,2.4v3.8
		h-1v-3.7c0-1.1-0.4-1.6-1.1-1.6c-0.5,0-1,0.3-1.5,0.9v4.4h-1v-3.7c0-1.1-0.4-1.6-1.1-1.6c-0.4,0-1,0.3-1.5,0.9v4.4h-1V148.2z"/>
	<path d="M249.7,152.8c0.4,0,0.7,0.3,0.7,0.8c0,0.4-0.3,0.8-0.7,0.8c-0.4,0-0.7-0.3-0.7-0.8C248.9,153.2,249.2,152.8,249.7,152.8z"
		/>
</g>
<g>
	<path class="st11" d="M110,241h1.8v8.1H110V241z"/>
	<path class="st11" d="M114.9,241h1.9l2.1,4l0.8,1.8h0c-0.1-0.9-0.2-2-0.2-3V241h1.7v8.1h-1.9l-2.1-4l-0.8-1.8h0
		c0.1,0.9,0.2,2,0.2,2.9v2.9h-1.7V241z"/>
	<path class="st11" d="M124.4,241h5.1v1.5h-3.2v1.6h2.8v1.5h-2.8v1.9h3.4v1.5h-5.2V241z"/>
	<path class="st11" d="M139.8,251c-0.3,0.1-0.8,0.3-1.4,0.3c-1.7,0-2.9-0.9-3.5-2.1c-1.7-0.4-2.8-1.9-2.8-4.1c0-2.6,1.5-4.2,3.7-4.2
		c2.2,0,3.7,1.5,3.7,4.2c0,2.2-1,3.6-2.6,4.1c0.4,0.6,1.1,0.8,1.8,0.8c0.3,0,0.7-0.1,0.9-0.1L139.8,251z M135.8,247.7
		c1.1,0,1.8-1,1.8-2.7c0-1.6-0.7-2.6-1.8-2.6s-1.8,1-1.8,2.6C134,246.7,134.6,247.7,135.8,247.7z"/>
	<path class="st11" d="M142.1,241h1.8v4.5c0,1.6,0.5,2.1,1.4,2.1c0.9,0,1.4-0.5,1.4-2.1V241h1.8v4.3c0,2.7-1.1,3.9-3.2,3.9
		c-2.1,0-3.2-1.2-3.2-3.9V241z"/>
	<path class="st11" d="M155.3,247.1h-2.5l-0.5,1.9h-1.9l2.5-8.1h2.2l2.5,8.1h-1.9L155.3,247.1z M155,245.7l-0.2-0.7
		c-0.2-0.8-0.4-1.8-0.7-2.6h0c-0.2,0.9-0.4,1.8-0.6,2.6l-0.2,0.7H155z"/>
	<path class="st11" d="M159.9,241h1.8v6.6h3.2v1.5h-5V241z"/>
	<path class="st11" d="M167.5,241h1.8v8.1h-1.8V241z"/>
	<path class="st11" d="M174.1,242.5h-2.2V241h6.3v1.5h-2.2v6.5h-1.8V242.5z"/>
	<path class="st11" d="M181.8,246.2l-2.4-5.2h2l0.7,1.9c0.2,0.6,0.4,1.2,0.7,1.8h0c0.2-0.6,0.5-1.2,0.7-1.8l0.7-1.9h1.9l-2.4,5.2
		v2.9h-1.8V246.2z"/>
</g>
<g>
	<path d="M41.6,50.8h-2.4l0.2-0.8h5.7L45,50.8h-2.4l-1.5,7.3h-1L41.6,50.8z"/>
	<path d="M45.2,55.9c0-2.3,1.6-3.9,3.2-3.9c1.3,0,2.2,0.9,2.2,2.4c0,2.3-1.6,3.9-3.3,3.9C46,58.3,45.2,57.4,45.2,55.9z M46.1,55.8
		c0,1.1,0.5,1.7,1.3,1.7c1.1,0,2.2-1.4,2.2-3.1c0-1.1-0.5-1.7-1.3-1.7C47.2,52.8,46.1,54.1,46.1,55.8z"/>
	<path d="M57.3,58.2h-0.8l0.1-0.9h0c-0.7,0.6-1.4,1.1-2.1,1.1c-1,0-1.4-0.6-1.4-1.5c0-0.3,0-0.5,0.1-0.8l0.8-3.8h1l-0.8,3.7
		C54,56.2,54,56.3,54,56.6c0,0.6,0.3,0.9,0.9,0.9c0.5,0,1.1-0.3,1.8-1.1l0.9-4.3h0.9L57.3,58.2z"/>
	<path d="M63.9,52c0.7,0,1.2,0.3,1.6,0.7L65,53.3c-0.3-0.4-0.6-0.5-1.1-0.5c-1.2,0-2.3,1.4-2.3,3.1c0,1.1,0.5,1.7,1.4,1.7
		c0.5,0,1-0.2,1.3-0.5l0.4,0.6c-0.4,0.3-1.1,0.7-1.9,0.7c-1.3,0-2.2-0.9-2.2-2.4C60.6,53.6,62.2,52,63.9,52z"/>
	<path d="M68.9,49.3h1l-0.6,2.9L69.1,53h0c0.7-0.6,1.3-1,2.1-1c1,0,1.4,0.6,1.4,1.5c0,0.3,0,0.5-0.1,0.8l-0.8,3.8h-0.9l0.7-3.7
		c0.1-0.3,0.1-0.5,0.1-0.7c0-0.6-0.3-0.9-0.9-0.9c-0.5,0-1.1,0.3-1.8,1.1l-0.9,4.3h-0.9L68.9,49.3z"/>
	<path d="M84.2,52.1L83,58.4c-0.3,1.6-1.3,2.5-2.8,2.5c-0.8,0-1.5-0.3-2.1-0.8l0.4-0.7c0.5,0.4,1,0.7,1.7,0.7c1,0,1.6-0.7,1.9-1.8
		l0.3-1.2h0c-0.6,0.6-1.3,1-2,1c-1,0-1.7-0.7-1.7-2.1c0-2.2,1.6-4,3.2-4c0.6,0,1.2,0.4,1.5,0.9h0l0.2-0.8H84.2z M82.5,56.2l0.5-2.6
		c-0.4-0.6-0.8-0.9-1.2-0.9c-1.2,0-2.2,1.5-2.2,3.1c0,1,0.4,1.5,1.1,1.5C81.2,57.3,81.9,56.9,82.5,56.2z"/>
	<path d="M87.5,52.1h0.8l-0.1,1.2h0c0.5-0.7,1.1-1.3,1.9-1.3c0.2,0,0.4,0,0.6,0.1l-0.3,0.8c-0.1-0.1-0.3-0.1-0.5-0.1
		c-0.6,0-1.3,0.5-1.8,1.5l-0.8,3.8h-0.9L87.5,52.1z"/>
	<path d="M95,52c0.6,0,1.2,0.4,1.5,0.9h0l0.2-0.8h0.8l-1.2,6h-0.8l0.1-0.9h0c-0.6,0.6-1.3,1-2.1,1c-1.1,0-1.7-0.8-1.7-2.2
		C91.7,53.8,93.3,52,95,52z M95.7,56.4l0.5-2.7c-0.3-0.6-0.8-0.9-1.2-0.9c-1.2,0-2.3,1.5-2.3,3.2c0,1,0.4,1.5,1.1,1.5
		C94.5,57.5,95.1,57.1,95.7,56.4z"/>
	<path d="M100.4,58.7l-0.4,2H99l1.7-8.6h0.8l-0.1,0.8h0c0.6-0.5,1.3-0.9,2.1-0.9c1.1,0,1.7,0.8,1.7,2.2c0,2.3-1.6,4.1-3.3,4.1
		c-0.6,0-1.1-0.4-1.5-0.9h0L100.4,58.7z M101.4,53.8l-0.6,2.9c0.3,0.6,0.8,0.9,1.2,0.9c1.2,0,2.3-1.5,2.3-3.2c0-1-0.4-1.5-1.1-1.5
		C102.7,52.8,101.9,53.1,101.4,53.8z"/>
	<path d="M109.2,49.3h1l-0.6,2.9l-0.2,0.8h0c0.7-0.6,1.3-1,2.1-1c1,0,1.4,0.6,1.4,1.5c0,0.3,0,0.5-0.1,0.8l-0.8,3.8h-0.9l0.7-3.7
		c0.1-0.3,0.1-0.5,0.1-0.7c0-0.6-0.3-0.9-0.9-0.9c-0.5,0-1.1,0.3-1.8,1.1l-0.9,4.3h-0.9L109.2,49.3z"/>
	<path d="M116.3,52.1h1l-1.2,6h-0.9L116.3,52.1z M116.5,50.3c0-0.4,0.3-0.7,0.7-0.7c0.3,0,0.6,0.2,0.6,0.6c0,0.4-0.3,0.7-0.7,0.7
		C116.8,50.9,116.5,50.7,116.5,50.3z"/>
	<path d="M122.7,52c0.7,0,1.2,0.3,1.6,0.7l-0.6,0.6c-0.3-0.4-0.6-0.5-1.1-0.5c-1.2,0-2.3,1.4-2.3,3.1c0,1.1,0.5,1.7,1.4,1.7
		c0.5,0,1-0.2,1.3-0.5l0.4,0.6c-0.4,0.3-1.1,0.7-1.9,0.7c-1.3,0-2.2-0.9-2.2-2.4C119.3,53.6,121,52,122.7,52z"/>
	<path d="M126.1,56.7c0.4,0.5,0.9,0.9,1.6,0.9c0.7,0,1.3-0.5,1.3-1c0-0.4-0.3-0.7-1.1-1.1c-0.9-0.5-1.4-1-1.4-1.6
		c0-1.1,0.9-1.8,2.1-1.8c0.7,0,1.3,0.3,1.8,0.8l-0.5,0.5c-0.3-0.3-0.7-0.6-1.3-0.6c-0.6,0-1.1,0.4-1.1,0.9s0.5,0.8,1.1,1.1
		c1.1,0.6,1.4,1.1,1.4,1.7c0,1.1-1,1.9-2.3,1.9c-0.8,0-1.7-0.5-2.1-1.1L126.1,56.7z"/>
	<path d="M137,52.9h-0.9l0.1-0.7l0.9-0.1l0.4-1.7h0.8l-0.3,1.7h1.5l-0.1,0.8h-1.6l-0.7,3.4c0,0.1,0,0.3,0,0.4c0,0.5,0.2,0.7,0.8,0.7
		c0.2,0,0.4-0.1,0.6-0.2l0.2,0.7c-0.3,0.1-0.7,0.3-1.1,0.3c-1.1,0-1.4-0.6-1.4-1.3c0-0.2,0-0.4,0.1-0.7L137,52.9z"/>
	<path d="M141,55.9c0-2.3,1.6-3.9,3.2-3.9c1.3,0,2.2,0.9,2.2,2.4c0,2.3-1.6,3.9-3.3,3.9C141.8,58.3,141,57.4,141,55.9z M141.9,55.8
		c0,1.1,0.5,1.7,1.3,1.7c1.1,0,2.2-1.4,2.2-3.1c0-1.1-0.5-1.7-1.3-1.7C143,52.8,141.9,54.1,141.9,55.8z"/>
	<path d="M152.5,52.1h0.9l0.4,3.5c0.1,0.6,0.1,1.2,0.2,1.8h0.1c0.3-0.6,0.6-1.2,0.9-1.8l1.8-3.5h1l-3.2,6h-1.1L152.5,52.1z"/>
	<path d="M160.1,52.1h1l-1.2,6h-0.9L160.1,52.1z M160.3,50.3c0-0.4,0.3-0.7,0.7-0.7c0.3,0,0.6,0.2,0.6,0.6c0,0.4-0.3,0.7-0.7,0.7
		C160.6,50.9,160.3,50.7,160.3,50.3z"/>
	<path d="M166.4,52c1.4,0,1.9,0.9,1.9,2.2c0,0.5-0.1,1-0.2,1.2h-3.9c-0.2,1.6,0.6,2.2,1.6,2.2c0.5,0,1-0.2,1.4-0.5l0.4,0.6
		c-0.5,0.3-1.2,0.6-1.9,0.6c-1.4,0-2.4-0.9-2.4-2.5C163.2,53.5,164.8,52,166.4,52z M167.4,54.7c0-0.2,0.1-0.4,0.1-0.6
		c0-0.7-0.3-1.3-1.2-1.3c-0.9,0-1.7,0.8-2.1,2H167.4z"/>
	<path d="M170.6,52.1h0.9l0.2,3.5c0,0.6,0,1.1,0,1.7h0c0.2-0.6,0.5-1.1,0.7-1.7l1.6-3.5h0.9l0.2,3.5c0,0.6,0,1.1,0.1,1.7h0
		c0.2-0.6,0.4-1.1,0.7-1.7l1.6-3.5h0.9l-2.7,6h-1.2l-0.2-3.3c0-0.6,0-1.2,0-1.8h0c-0.2,0.6-0.5,1.2-0.7,1.8l-1.5,3.3h-1.1
		L170.6,52.1z"/>
	<path d="M185,52.9h-0.9l0.1-0.7l0.9-0.1l0.4-1.7h0.8l-0.3,1.7h1.5l-0.1,0.8H186l-0.7,3.4c0,0.1,0,0.3,0,0.4c0,0.5,0.2,0.7,0.8,0.7
		c0.2,0,0.4-0.1,0.6-0.2l0.2,0.7c-0.3,0.1-0.7,0.3-1.1,0.3c-1.1,0-1.4-0.6-1.4-1.3c0-0.2,0-0.4,0.1-0.7L185,52.9z"/>
	<path d="M190.8,49.3h1l-0.6,2.9L191,53h0c0.7-0.6,1.3-1,2.1-1c1,0,1.4,0.6,1.4,1.5c0,0.3,0,0.5-0.1,0.8l-0.8,3.8h-0.9l0.7-3.7
		c0.1-0.3,0.1-0.5,0.1-0.7c0-0.6-0.3-0.9-0.9-0.9c-0.5,0-1.1,0.3-1.8,1.1l-0.9,4.3h-0.9L190.8,49.3z"/>
	<path d="M200,52c1.4,0,1.9,0.9,1.9,2.2c0,0.5-0.1,1-0.2,1.2h-3.9c-0.2,1.6,0.6,2.2,1.6,2.2c0.5,0,1-0.2,1.4-0.5l0.4,0.6
		c-0.5,0.3-1.2,0.6-1.9,0.6c-1.4,0-2.4-0.9-2.4-2.5C196.8,53.5,198.5,52,200,52z M201,54.7c0-0.2,0.1-0.4,0.1-0.6
		c0-0.7-0.3-1.3-1.2-1.3c-0.9,0-1.7,0.8-2.1,2H201z"/>
	<path d="M212.6,51.7l0.5-2.4h1l-1.8,8.8h-0.8l0.1-0.9h0c-0.6,0.6-1.3,1-2.1,1c-1.1,0-1.7-0.8-1.7-2.2c0-2.3,1.6-4.1,3.3-4.1
		c0.6,0,1.1,0.3,1.4,0.9h0L212.6,51.7z M211.6,56.4l0.5-2.7c-0.3-0.6-0.8-0.9-1.2-0.9c-1.2,0-2.3,1.5-2.3,3.2c0,1,0.4,1.5,1.1,1.5
		C210.4,57.5,211,57.1,211.6,56.4z"/>
	<path d="M218.8,52c0.6,0,1.2,0.4,1.5,0.9h0l0.2-0.8h0.8l-1.2,6h-0.8l0.1-0.9h0c-0.6,0.6-1.3,1-2.1,1c-1.1,0-1.7-0.8-1.7-2.2
		C215.5,53.8,217.1,52,218.8,52z M219.5,56.4l0.5-2.7c-0.3-0.6-0.8-0.9-1.2-0.9c-1.2,0-2.3,1.5-2.3,3.2c0,1,0.4,1.5,1.1,1.5
		C218.3,57.5,218.9,57.1,219.5,56.4z"/>
	<path d="M224.6,52.9h-0.9l0.1-0.7l0.9-0.1l0.4-1.7h0.8l-0.3,1.7h1.5l-0.1,0.8h-1.6l-0.7,3.4c0,0.1,0,0.3,0,0.4
		c0,0.5,0.2,0.7,0.8,0.7c0.2,0,0.4-0.1,0.6-0.2l0.2,0.7c-0.3,0.1-0.7,0.3-1.1,0.3c-1.1,0-1.4-0.6-1.4-1.3c0-0.2,0-0.4,0.1-0.7
		L224.6,52.9z"/>
	<path d="M231.8,52c0.6,0,1.2,0.4,1.5,0.9h0l0.2-0.8h0.8l-1.2,6h-0.8l0.1-0.9h0c-0.6,0.6-1.3,1-2.1,1c-1.1,0-1.7-0.8-1.7-2.2
		C228.6,53.8,230.2,52,231.8,52z M232.6,56.4l0.5-2.7c-0.3-0.6-0.8-0.9-1.2-0.9c-1.2,0-2.3,1.5-2.3,3.2c0,1,0.4,1.5,1.1,1.5
		C231.3,57.5,232,57.1,232.6,56.4z"/>
</g>
</svg>
